<svg width="22" height="22" viewBox="0 0 22 22" fill="none" xmlns="http://www.w3.org/2000/svg">
<path d="M18.5625 3.78125H3.4375C3.164 3.78125 2.90169 3.8899 2.7083 4.0833C2.5149 4.27669 2.40625 4.539 2.40625 4.8125V17.1875C2.40625 17.461 2.5149 17.7233 2.7083 17.9167C2.90169 18.1101 3.164 18.2188 3.4375 18.2188H4.58906C4.65382 18.2174 4.71695 18.1983 4.77153 18.1634C4.82611 18.1285 4.87002 18.0793 4.89844 18.0211C5.26051 17.2562 5.83233 16.6099 6.54736 16.1572C7.26239 15.7046 8.09125 15.4643 8.9375 15.4643C9.78375 15.4643 10.6126 15.7046 11.3276 16.1572C12.0427 16.6099 12.6145 17.2562 12.9766 18.0211C13.005 18.0793 13.0489 18.1285 13.1035 18.1634C13.1581 18.1983 13.2212 18.2174 13.2859 18.2188H18.5625C18.836 18.2188 19.0983 18.1101 19.2917 17.9167C19.4851 17.7233 19.5938 17.461 19.5938 17.1875V4.8125C19.5938 4.539 19.4851 4.27669 19.2917 4.0833C19.0983 3.8899 18.836 3.78125 18.5625 3.78125ZM18.9062 17.1875C18.9062 17.2787 18.87 17.3661 18.8056 17.4306C18.7411 17.495 18.6537 17.5312 18.5625 17.5312H13.5008C12.8687 16.3425 11.7995 15.4458 10.5188 15.0305C11.1012 14.6841 11.5538 14.1561 11.8071 13.5276C12.0603 12.8991 12.1002 12.2048 11.9206 11.5514C11.741 10.898 11.3519 10.3216 10.8129 9.91086C10.274 9.50008 9.61513 9.2776 8.9375 9.2776C8.25987 9.2776 7.60098 9.50008 7.06206 9.91086C6.52313 10.3216 6.13398 10.898 5.95438 11.5514C5.77479 12.2048 5.81469 12.8991 6.06795 13.5276C6.3212 14.1561 6.77382 14.6841 7.35625 15.0305C6.07552 15.4458 5.00628 16.3425 4.37422 17.5312H3.4375C3.34702 17.5291 3.26085 17.4922 3.19685 17.4282C3.13285 17.3642 3.09593 17.278 3.09375 17.1875V4.8125C3.09375 4.72133 3.12997 4.6339 3.19443 4.56943C3.2589 4.50497 3.34633 4.46875 3.4375 4.46875H18.5625C18.6537 4.46875 18.7411 4.50497 18.8056 4.56943C18.87 4.6339 18.9062 4.72133 18.9062 4.8125V17.1875ZM8.9375 14.7812C8.46159 14.7812 7.99636 14.6401 7.60066 14.3757C7.20495 14.1113 6.89654 13.7355 6.71441 13.2958C6.53229 12.8561 6.48464 12.3723 6.57749 11.9056C6.67033 11.4388 6.8995 11.01 7.23602 10.6735C7.57254 10.337 8.0013 10.1078 8.46806 10.015C8.93483 9.92214 9.41865 9.96979 9.85833 10.1519C10.298 10.334 10.6738 10.6425 10.9382 11.0382C11.2026 11.4339 11.3438 11.8991 11.3438 12.375C11.3415 13.0125 11.0872 13.6232 10.6365 14.074C10.1857 14.5247 9.57498 14.779 8.9375 14.7812ZM16.8438 6.875V15.125C16.8438 15.2162 16.8075 15.3036 16.7431 15.3681C16.6786 15.4325 16.5912 15.4688 16.5 15.4688H15.125C15.0338 15.4688 14.9464 15.4325 14.8819 15.3681C14.8175 15.3036 14.7812 15.2162 14.7812 15.125C14.7812 15.0338 14.8175 14.9464 14.8819 14.8819C14.9464 14.8175 15.0338 14.7812 15.125 14.7812H16.1562V7.21875H5.84375V8.25C5.84375 8.34117 5.80753 8.4286 5.74307 8.49307C5.6786 8.55753 5.59117 8.59375 5.5 8.59375C5.40883 8.59375 5.3214 8.55753 5.25693 8.49307C5.19247 8.4286 5.15625 8.34117 5.15625 8.25V6.875C5.15625 6.78383 5.19247 6.6964 5.25693 6.63193C5.3214 6.56747 5.40883 6.53125 5.5 6.53125H16.5C16.5912 6.53125 16.6786 6.56747 16.7431 6.63193C16.8075 6.6964 16.8438 6.78383 16.8438 6.875Z" fill="#8A9099" stroke="#8A9099" stroke-width="0.75"/>
</svg>
