<svg width="31" height="40" viewBox="0 0 31 40" fill="none" xmlns="http://www.w3.org/2000/svg">
<path fill-rule="evenodd" clip-rule="evenodd" d="M2.49998 0H21.7412L30.9999 9.215V37.5C30.9999 38.8812 29.88 40 28.4999 40H2.49998C1.11994 40 0 38.8812 0 37.5V2.49998C0 1.11877 1.12007 0 2.49998 0Z" fill="white"/>
<path d="M2.49998 0.5H21.5348L30.4999 9.4228V37.5C30.4999 38.6049 29.604 39.5 28.4999 39.5H2.49998C1.39594 39.5 0.5 38.6049 0.5 37.5V2.49998C0.5 1.39508 1.39604 0.5 2.49998 0.5Z" stroke="#E8E9EB"/>
<path d="M30.5001 9.5H23.7294C22.4987 9.5 21.5 8.50231 21.5 7.27286V0.5" stroke="#E8E9EB"/>
<path d="M8 15C8 14.4477 8.44772 14 9 14H22C22.5523 14 23 14.4477 23 15V29C23 29.5523 22.5523 30 22 30H9C8.44772 30 8 29.5523 8 29V15Z" fill="#304FFD"/>
<path d="M18.8097 19.4083C18.8611 19.275 18.9382 19.175 19.0409 19.1083C19.1494 19.0361 19.2693 19 19.4006 19C19.5661 19 19.706 19.05 19.8202 19.15C19.9401 19.25 20 19.3861 20 19.5583C20 19.6417 19.9829 19.7333 19.9486 19.8333L18.1675 24.575C18.1161 24.7083 18.0247 24.8139 17.8934 24.8917C17.7678 24.9639 17.628 25 17.4738 25C17.3197 25 17.1798 24.9639 17.0542 24.8917C16.9286 24.8139 16.8402 24.7083 16.7888 24.575L15.5128 21.0667L14.2027 24.575C14.1513 24.7083 14.0628 24.8139 13.9372 24.8917C13.8116 24.9639 13.6717 25 13.5176 25C13.3692 25 13.2293 24.9639 13.098 24.8917C12.9724 24.8139 12.8839 24.7083 12.8325 24.575L11.0514 19.8333C11.0171 19.7389 11 19.65 11 19.5667C11 19.3944 11.0628 19.2583 11.1884 19.1583C11.314 19.0528 11.4624 19 11.6337 19C11.7707 19 11.8934 19.0361 12.0019 19.1083C12.1161 19.175 12.1989 19.275 12.2502 19.4083L13.569 23.1L14.9391 19.425C14.9905 19.2917 15.0704 19.1889 15.1789 19.1167C15.2931 19.0444 15.4129 19.0083 15.5385 19.0083C15.6698 19.0083 15.7897 19.0444 15.8982 19.1167C16.0067 19.1889 16.0866 19.2944 16.138 19.4333L17.4481 23.1667L18.8097 19.4083Z" fill="white"/>
</svg>
