<svg width="31" height="40" viewBox="0 0 31 40" fill="none" xmlns="http://www.w3.org/2000/svg">
<path d="M21.9776 0H1.05472C0.472209 0 0 0.467857 0 1.37571V39.2857C0 39.5321 0.472209 40 1.05472 40H29.9453C30.5278 40 31 39.5321 31 39.2857V9.27C31 8.77286 30.933 8.61286 30.8147 8.495L22.426 0.183571C22.307 0.0664286 22.1455 0 21.9776 0Z" fill="#F2F2E8"/>
<path d="M22.3489 0.107666V8.57124H30.8912L22.3489 0.107666Z" fill="#D9D7CA"/>
<path d="M29.9453 40H1.05472C0.472209 40 0 39.5322 0 38.955V27.8572H31V38.955C31 39.5322 30.5278 40 29.9453 40Z" fill="#0096E6"/>
<path d="M8.57153 9.28575H4.28582C3.89153 9.28575 3.57153 8.96575 3.57153 8.57146C3.57153 8.17718 3.89153 7.85718 4.28582 7.85718H8.57153C8.96582 7.85718 9.28582 8.17718 9.28582 8.57146C9.28582 8.96575 8.96582 9.28575 8.57153 9.28575Z" fill="#8697CB"/>
<path d="M10.7144 12.8573H4.28582C3.89153 12.8573 3.57153 12.5373 3.57153 12.143C3.57153 11.7487 3.89153 11.4287 4.28582 11.4287H10.7144C11.1087 11.4287 11.4287 11.7487 11.4287 12.143C11.4287 12.5373 11.1087 12.8573 10.7144 12.8573Z" fill="#8697CB"/>
<path d="M13.5712 12.8569C13.3855 12.8569 13.1998 12.7783 13.0641 12.6498C12.9355 12.514 12.8569 12.3283 12.8569 12.1426C12.8569 11.9569 12.9355 11.7712 13.0641 11.6355C13.3284 11.3712 13.8141 11.3712 14.0784 11.6355C14.2069 11.7712 14.2855 11.9569 14.2855 12.1426C14.2855 12.3283 14.2069 12.514 14.0784 12.6498C13.9426 12.7783 13.7569 12.8569 13.5712 12.8569Z" fill="#8697CB"/>
<path d="M22.1429 12.8573H16.4286C16.0344 12.8573 15.7144 12.5373 15.7144 12.143C15.7144 11.7487 16.0344 11.4287 16.4286 11.4287H22.1429C22.5372 11.4287 22.8572 11.7487 22.8572 12.143C22.8572 12.5373 22.5372 12.8573 22.1429 12.8573Z" fill="#8697CB"/>
<path d="M4.28582 23.5713C4.1001 23.5713 3.91439 23.4927 3.77868 23.3641C3.6501 23.2284 3.57153 23.0427 3.57153 22.857C3.57153 22.6713 3.6501 22.4855 3.77868 22.3498C4.04296 22.0855 4.52868 22.0855 4.79296 22.3498C4.92153 22.4855 5.0001 22.6641 5.0001 22.857C5.0001 23.0427 4.92153 23.2284 4.79296 23.3641C4.65725 23.4927 4.47153 23.5713 4.28582 23.5713Z" fill="#8697CB"/>
<path d="M12.8573 23.5714H7.143C6.74871 23.5714 6.42871 23.2514 6.42871 22.8571C6.42871 22.4628 6.74871 22.1428 7.143 22.1428H12.8573C13.2516 22.1428 13.5716 22.4628 13.5716 22.8571C13.5716 23.2514 13.2516 23.5714 12.8573 23.5714Z" fill="#8697CB"/>
<path d="M26.4285 12.8573H24.9999C24.6056 12.8573 24.2856 12.5373 24.2856 12.143C24.2856 11.7487 24.6056 11.4287 24.9999 11.4287H26.4285C26.8228 11.4287 27.1428 11.7487 27.1428 12.143C27.1428 12.5373 26.8228 12.8573 26.4285 12.8573Z" fill="#8697CB"/>
<path d="M20.0001 16.4283H4.28582C3.89153 16.4283 3.57153 16.1083 3.57153 15.714C3.57153 15.3198 3.89153 14.9998 4.28582 14.9998H20.0001C20.3944 14.9998 20.7144 15.3198 20.7144 15.714C20.7144 16.1083 20.3944 16.4283 20.0001 16.4283Z" fill="#8697CB"/>
<path d="M26.4285 16.4283H22.1428C21.7485 16.4283 21.4285 16.1083 21.4285 15.714C21.4285 15.3198 21.7485 14.9998 22.1428 14.9998H26.4285C26.8228 14.9998 27.1428 15.3198 27.1428 15.714C27.1428 16.1083 26.8228 16.4283 26.4285 16.4283Z" fill="#8697CB"/>
<path d="M7.14296 20.0001H4.28582C3.89153 20.0001 3.57153 19.6801 3.57153 19.2858C3.57153 18.8915 3.89153 18.5715 4.28582 18.5715H7.14296C7.53725 18.5715 7.85725 18.8915 7.85725 19.2858C7.85725 19.6801 7.53725 20.0001 7.14296 20.0001Z" fill="#8697CB"/>
<path d="M17.1428 20.0001H9.99993C9.60564 20.0001 9.28564 19.6801 9.28564 19.2858C9.28564 18.8915 9.60564 18.5715 9.99993 18.5715H17.1428C17.5371 18.5715 17.8571 18.8915 17.8571 19.2858C17.8571 19.6801 17.5371 20.0001 17.1428 20.0001Z" fill="#8697CB"/>
<path d="M26.4285 20.0001H19.9999C19.6056 20.0001 19.2856 19.6801 19.2856 19.2858C19.2856 18.8915 19.6056 18.5715 19.9999 18.5715H26.4285C26.8228 18.5715 27.1428 18.8915 27.1428 19.2858C27.1428 19.6801 26.8228 20.0001 26.4285 20.0001Z" fill="#8697CB"/>
<path d="M12.1428 34.0597C12.1428 34.6518 12.0792 35.1583 11.952 35.5783C11.8249 35.9983 11.6642 36.3497 11.4685 36.6333C11.2728 36.9168 11.0535 37.1397 10.8092 37.3026C10.5649 37.4654 10.3292 37.5868 10.1013 37.669C9.87348 37.7504 9.66491 37.8026 9.47633 37.8254C9.28776 37.8468 9.14776 37.8583 9.05705 37.8583H6.33276V30.6611H8.49991C9.10562 30.6611 9.63776 30.7576 10.0963 30.949C10.5549 31.1404 10.9363 31.3968 11.2392 31.7154C11.542 32.034 11.7678 32.3976 11.9178 32.804C12.0678 33.2111 12.1428 33.6297 12.1428 34.0597ZM8.66633 36.999C9.46062 36.999 10.0335 36.7454 10.3849 36.2376C10.7363 35.7297 10.912 34.994 10.912 34.0304C10.912 33.7311 10.8763 33.4347 10.8049 33.1418C10.7328 32.849 10.5949 32.584 10.3899 32.3461C10.1849 32.1083 9.90634 31.9161 9.55491 31.7697C9.20348 31.6233 8.74776 31.5497 8.18776 31.5497H7.50419V36.999H8.66633Z" fill="white"/>
<path d="M19.2679 34.2242C19.2679 34.8299 19.1915 35.3634 19.0386 35.8256C18.8858 36.2877 18.6736 36.672 18.4036 36.9777C18.1336 37.2842 17.8179 37.5149 17.4565 37.6713C17.0951 37.8277 16.6994 37.9056 16.2701 37.9056C15.8408 37.9056 15.4451 37.8277 15.0836 37.6713C14.7222 37.5149 14.4065 37.2842 14.1365 36.9777C13.8665 36.6713 13.6544 36.2877 13.5015 35.8256C13.3486 35.3634 13.2722 34.8292 13.2722 34.2242C13.2722 33.6192 13.3486 33.0863 13.5015 32.6277C13.6544 32.1684 13.8658 31.7863 14.1365 31.4806C14.4065 31.1742 14.7222 30.942 15.0836 30.782C15.4451 30.622 15.8408 30.5427 16.2701 30.5427C16.6994 30.5427 17.0951 30.622 17.4565 30.782C17.8179 30.942 18.1336 31.1742 18.4036 31.4806C18.6736 31.787 18.8851 32.1692 19.0386 32.6277C19.1908 33.0863 19.2679 33.6184 19.2679 34.2242ZM16.2401 36.9492C16.4808 36.9492 16.7101 36.902 16.9286 36.8077C17.1465 36.7134 17.3422 36.5584 17.5144 36.3442C17.6865 36.1292 17.8222 35.8477 17.9194 35.4992C18.0165 35.1506 18.0686 34.7263 18.0758 34.2249C18.0694 33.7363 18.0186 33.3213 17.9244 32.9799C17.8301 32.6377 17.7001 32.3563 17.5336 32.1349C17.3672 31.9134 17.1786 31.7542 16.9672 31.6563C16.7558 31.5584 16.5329 31.5099 16.2979 31.5099C16.0572 31.5099 15.8272 31.5549 15.6094 31.6463C15.3908 31.7377 15.1958 31.892 15.0236 32.1099C14.8508 32.3284 14.7158 32.6092 14.6186 32.9549C14.5215 33.3006 14.4686 33.7227 14.4622 34.2242C14.4686 34.7127 14.5194 35.1292 14.6136 35.4742C14.7079 35.8192 14.8379 36.1006 15.0044 36.3192C15.1708 36.5377 15.3594 36.6963 15.5708 36.7977C15.7829 36.8984 16.0058 36.9492 16.2401 36.9492Z" fill="white"/>
<path d="M25.7905 37.1249C25.5234 37.3849 25.2205 37.5806 24.8827 37.7106C24.5441 37.8413 24.1798 37.9056 23.7891 37.9056C23.3591 37.9056 22.9641 37.8277 22.6027 37.6713C22.2413 37.5149 21.9255 37.2842 21.6555 36.9777C21.3855 36.6713 21.1734 36.2877 21.0205 35.8256C20.8677 35.3634 20.7913 34.8292 20.7913 34.2242C20.7913 33.6192 20.8677 33.0863 21.0205 32.6277C21.1734 32.1684 21.3848 31.7863 21.6555 31.4806C21.9255 31.1742 22.2427 30.942 22.6077 30.782C22.972 30.622 23.3663 30.5427 23.7891 30.5427C24.1798 30.5427 24.5441 30.6077 24.8827 30.7377C25.2213 30.8684 25.5234 31.0634 25.7905 31.3234L24.9798 32.0463C24.817 31.857 24.6363 31.7206 24.4377 31.6363C24.2391 31.552 24.0327 31.5092 23.8177 31.5092C23.577 31.5092 23.347 31.5542 23.1291 31.6456C22.9105 31.737 22.7155 31.8913 22.5434 32.1092C22.3705 32.3277 22.2355 32.6084 22.1384 32.9542C22.0413 33.2999 21.9884 33.722 21.982 34.2234C21.9884 34.712 22.0391 35.1284 22.1334 35.4734C22.2277 35.8184 22.3577 36.0999 22.5241 36.3184C22.6905 36.537 22.8791 36.6956 23.0905 36.797C23.302 36.8984 23.5248 36.9484 23.7598 36.9484C23.9948 36.9484 24.2141 36.9056 24.4191 36.8213C24.6241 36.737 24.8113 36.5999 24.9805 36.4113L25.7905 37.1249Z" fill="white"/>
</svg>
