<svg width="31" height="40" viewBox="0 0 31 40" fill="none" xmlns="http://www.w3.org/2000/svg">
<path fill-rule="evenodd" clip-rule="evenodd" d="M2.49998 0H21.7412L30.9999 9.215V37.5C30.9999 38.8812 29.88 40 28.4999 40H2.49998C1.11994 40 0 38.8812 0 37.5V2.49998C0 1.11877 1.12007 0 2.49998 0Z" fill="white"/>
<path d="M2.49998 0.5H21.5348L30.4999 9.4228V37.5C30.4999 38.6049 29.604 39.5 28.4999 39.5H2.49998C1.39594 39.5 0.5 38.6049 0.5 37.5V2.49998C0.5 1.39508 1.39604 0.5 2.49998 0.5Z" stroke="#E8E9EB"/>
<path d="M30.5001 9.5H23.7294C22.4987 9.5 21.5 8.50231 21.5 7.27286V0.5" stroke="#E8E9EB"/>
<path d="M12.6702 29.9998C14.1441 29.9998 15.3404 28.8052 15.3404 27.3332V24.6665H12.6702C11.1962 24.6665 10 25.8612 10 27.3332C10 28.8052 11.1962 29.9998 12.6702 29.9998Z" fill="#0ACF83"/>
<path d="M10 22.0002C10 20.5282 11.1962 19.3335 12.6702 19.3335H15.3404V24.6668H12.6702C11.1962 24.6668 10 23.4722 10 22.0002Z" fill="#A259FF"/>
<path d="M10 16.6667C10 15.1947 11.1962 14 12.6702 14H15.3404V19.3333H12.6702C11.1962 19.3333 10 18.1387 10 16.6667Z" fill="#F24E1E"/>
<path d="M15.3406 14H18.0108C19.4847 14 20.681 15.1947 20.681 16.6667C20.681 18.1387 19.4847 19.3333 18.0108 19.3333H15.3406V14Z" fill="#FF7262"/>
<path d="M20.681 22.0002C20.681 23.4722 19.4847 24.6668 18.0108 24.6668C16.5368 24.6668 15.3406 23.4722 15.3406 22.0002C15.3406 20.5282 16.5368 19.3335 18.0108 19.3335C19.4847 19.3335 20.681 20.5282 20.681 22.0002Z" fill="#1ABCFE"/>
</svg>
