<svg width="31" height="40" viewBox="0 0 31 40" fill="none" xmlns="http://www.w3.org/2000/svg">
<g clip-path="url(#clip0_1835_14)">
<path fill-rule="evenodd" clip-rule="evenodd" d="M2.49998 0H19.7412L30.9999 11.215V37.5C30.9999 38.8812 29.88 40 28.4999 40H2.49998C1.11994 40 0 38.8812 0 37.5V2.49998C0 1.11877 1.12007 0 2.49998 0Z" fill="#49C96D"/>
<g filter="url(#filter0_d_1835_14)">
<path fill-rule="evenodd" clip-rule="evenodd" d="M30.9638 11.2499H22.25C20.8699 11.2499 19.75 10.13 19.75 8.74992V0.0249023L30.9638 11.2499Z" fill="#9CF8B6"/>
</g>
<path d="M8.94777 24.06C8.71444 24.06 8.52444 23.99 8.37777 23.85C8.23777 23.7033 8.16777 23.5133 8.16777 23.28V17.68C8.16777 17.4467 8.23111 17.2667 8.35777 17.14C8.48444 17.0133 8.66444 16.95 8.89777 16.95H12.3378C12.5911 16.95 12.7778 17 12.8978 17.1C13.0178 17.2 13.0778 17.3567 13.0778 17.57C13.0778 17.7767 13.0178 17.93 12.8978 18.03C12.7778 18.13 12.5911 18.18 12.3378 18.18H9.70777V19.8H12.1378C12.3911 19.8 12.5778 19.85 12.6978 19.95C12.8178 20.05 12.8778 20.2067 12.8778 20.42C12.8778 20.6267 12.8178 20.78 12.6978 20.88C12.5778 20.98 12.3911 21.03 12.1378 21.03H9.70777V23.28C9.70777 23.52 9.63777 23.71 9.49777 23.85C9.36444 23.99 9.18111 24.06 8.94777 24.06ZM14.6704 24.06C14.4304 24.06 14.2404 23.99 14.1004 23.85C13.9604 23.71 13.8904 23.52 13.8904 23.28V17.67C13.8904 17.4367 13.9604 17.25 14.1004 17.11C14.2404 16.97 14.4304 16.9 14.6704 16.9C14.9104 16.9 15.1004 16.97 15.2404 17.11C15.3804 17.25 15.4504 17.4367 15.4504 17.67V23.28C15.4504 23.52 15.3804 23.71 15.2404 23.85C15.1004 23.99 14.9104 24.06 14.6704 24.06ZM22.2994 20.11C22.4861 20.11 22.6327 20.1633 22.7394 20.27C22.8527 20.37 22.9094 20.51 22.9094 20.69V22.64C22.9094 22.9067 22.8861 23.1133 22.8394 23.26C22.7994 23.4067 22.7261 23.5233 22.6194 23.61C22.5127 23.6967 22.3527 23.77 22.1394 23.83C21.8794 23.91 21.5794 23.9733 21.2394 24.02C20.9061 24.0667 20.5894 24.09 20.2894 24.09C19.5427 24.09 18.8961 23.9467 18.3494 23.66C17.8027 23.3667 17.3827 22.95 17.0894 22.41C16.7961 21.8633 16.6494 21.2167 16.6494 20.47C16.6494 19.7367 16.7927 19.1 17.0794 18.56C17.3727 18.0133 17.7894 17.5933 18.3294 17.3C18.8694 17.0067 19.4994 16.86 20.2194 16.86C21.1461 16.86 21.9127 17.1 22.5194 17.58C22.6194 17.66 22.6894 17.74 22.7294 17.82C22.7694 17.9 22.7894 18 22.7894 18.12C22.7894 18.2933 22.7394 18.4433 22.6394 18.57C22.5461 18.69 22.4327 18.75 22.2994 18.75C22.2127 18.75 22.1327 18.7367 22.0594 18.71C21.9927 18.6833 21.9094 18.64 21.8094 18.58C21.5294 18.4067 21.2727 18.2833 21.0394 18.21C20.8061 18.1367 20.5494 18.1 20.2694 18.1C18.9094 18.1 18.2294 18.89 18.2294 20.47C18.2294 21.2833 18.4061 21.89 18.7594 22.29C19.1127 22.69 19.6461 22.89 20.3594 22.89C20.7461 22.89 21.1294 22.84 21.5094 22.74V21.19H20.5894C20.3961 21.19 20.2461 21.1433 20.1394 21.05C20.0327 20.9567 19.9794 20.8233 19.9794 20.65C19.9794 20.4767 20.0327 20.3433 20.1394 20.25C20.2461 20.1567 20.3961 20.11 20.5894 20.11H22.2994Z" fill="white"/>
</g>
<defs>
<filter id="filter0_d_1835_14" x="18.75" y="0.0249023" width="13.2139" height="13.2251" filterUnits="userSpaceOnUse" color-interpolation-filters="sRGB">
<feFlood flood-opacity="0" result="BackgroundImageFix"/>
<feColorMatrix in="SourceAlpha" type="matrix" values="0 0 0 0 0 0 0 0 0 0 0 0 0 0 0 0 0 0 127 0" result="hardAlpha"/>
<feOffset dy="1"/>
<feGaussianBlur stdDeviation="0.5"/>
<feColorMatrix type="matrix" values="0 0 0 0 0.0241546 0 0 0 0 0.5 0 0 0 0 0.316425 0 0 0 0.25 0"/>
<feBlend mode="normal" in2="BackgroundImageFix" result="effect1_dropShadow_1835_14"/>
<feBlend mode="normal" in="SourceGraphic" in2="effect1_dropShadow_1835_14" result="shape"/>
</filter>
<clipPath id="clip0_1835_14">
<rect width="31" height="40" fill="white"/>
</clipPath>
</defs>
</svg>
