<svg width="31" height="40" viewBox="0 0 31 40" fill="none" xmlns="http://www.w3.org/2000/svg">
<path d="M21.9776 0H1.05472C0.472209 0 0 0.467857 0 1.37571V39.2857C0 39.5321 0.472209 40 1.05472 40H29.9453C30.5278 40 31 39.5321 31 39.2857V9.27C31 8.77286 30.933 8.61286 30.8147 8.495L22.426 0.183571C22.307 0.0664286 22.1455 0 21.9776 0Z" fill="#F2F2E8"/>
<path d="M29.9453 40H1.05472C0.472209 40 0 39.5322 0 38.955V27.8572H31V38.955C31 39.5322 30.5278 40 29.9453 40Z" fill="#49C96D"/>
<path d="M22.3489 0.107666V8.57124H30.8912L22.3489 0.107666Z" fill="#D9D7CA"/>
<path d="M12.4499 30.59V31.72H9.53989V33.51H11.7699V34.62H9.53989V37.57H8.13989V30.59H12.4499Z" fill="white"/>
<path d="M14.8426 30.59V37.57H13.4426V30.59H14.8426Z" fill="white"/>
<path d="M21.0858 32.69C20.9258 32.3967 20.7058 32.1733 20.4258 32.02C20.1458 31.8667 19.8192 31.79 19.4458 31.79C19.0325 31.79 18.6658 31.8833 18.3458 32.07C18.0258 32.2567 17.7758 32.5233 17.5958 32.87C17.4158 33.2167 17.3258 33.6167 17.3258 34.07C17.3258 34.5367 17.4158 34.9433 17.5958 35.29C17.7825 35.6367 18.0392 35.9033 18.3658 36.09C18.6925 36.2767 19.0725 36.37 19.5058 36.37C20.0392 36.37 20.4758 36.23 20.8158 35.95C21.1558 35.6633 21.3792 35.2667 21.4858 34.76H19.0858V33.69H22.8658V34.91C22.7725 35.3967 22.5725 35.8467 22.2658 36.26C21.9592 36.6733 21.5625 37.0067 21.0758 37.26C20.5958 37.5067 20.0558 37.63 19.4558 37.63C18.7825 37.63 18.1725 37.48 17.6258 37.18C17.0858 36.8733 16.6592 36.45 16.3458 35.91C16.0392 35.37 15.8858 34.7567 15.8858 34.07C15.8858 33.3833 16.0392 32.77 16.3458 32.23C16.6592 31.6833 17.0858 31.26 17.6258 30.96C18.1725 30.6533 18.7792 30.5 19.4458 30.5C20.2325 30.5 20.9158 30.6933 21.4958 31.08C22.0758 31.46 22.4758 31.9967 22.6958 32.69H21.0858Z" fill="white"/>
<path d="M12.6702 22.9998C14.1441 22.9998 15.3404 21.8052 15.3404 20.3332V17.6665H12.6702C11.1962 17.6665 10 18.8612 10 20.3332C10 21.8052 11.1962 22.9998 12.6702 22.9998Z" fill="#0ACF83"/>
<path d="M10 15.0002C10 13.5282 11.1962 12.3335 12.6702 12.3335H15.3404V17.6668H12.6702C11.1962 17.6668 10 16.4722 10 15.0002Z" fill="#A259FF"/>
<path d="M10 9.66666C10 8.19467 11.1962 7 12.6702 7H15.3404V12.3333H12.6702C11.1962 12.3333 10 11.1387 10 9.66666Z" fill="#F24E1E"/>
<path d="M15.3406 7H18.0108C19.4847 7 20.681 8.19467 20.681 9.66666C20.681 11.1387 19.4847 12.3333 18.0108 12.3333H15.3406V7Z" fill="#FF7262"/>
<path d="M20.681 15.0002C20.681 16.4722 19.4847 17.6668 18.0108 17.6668C16.5368 17.6668 15.3406 16.4722 15.3406 15.0002C15.3406 13.5282 16.5368 12.3335 18.0108 12.3335C19.4847 12.3335 20.681 13.5282 20.681 15.0002Z" fill="#1ABCFE"/>
</svg>
