<svg width="31" height="40" viewBox="0 0 31 40" fill="none" xmlns="http://www.w3.org/2000/svg">
<path fill-rule="evenodd" clip-rule="evenodd" d="M2.49998 0H21.7412L30.9999 9.215V37.5C30.9999 38.8812 29.88 40 28.4999 40H2.49998C1.11994 40 0 38.8812 0 37.5V2.49998C0 1.11877 1.12007 0 2.49998 0Z" fill="white"/>
<path d="M2.49998 0.5H21.5348L30.4999 9.4228V37.5C30.4999 38.6049 29.604 39.5 28.4999 39.5H2.49998C1.39594 39.5 0.5 38.6049 0.5 37.5V2.49998C0.5 1.39508 1.39604 0.5 2.49998 0.5Z" stroke="#E8E9EB"/>
<path d="M30.5001 9.5H23.7294C22.4987 9.5 21.5 8.50231 21.5 7.27286V0.5" stroke="#E8E9EB"/>
<path d="M5 30L12 18L16.9 25.0588L20.4 20.8235L26 30H5Z" fill="#4C9ED9"/>
<circle cx="8" cy="14" r="3" fill="#FFD240"/>
</svg>
