<svg width="31" height="40" viewBox="0 0 31 40" fill="none" xmlns="http://www.w3.org/2000/svg">
<path d="M21.9776 0H1.05472C0.472209 0 0 0.467857 0 1.37571V39.2857C0 39.5321 0.472209 40 1.05472 40H29.9453C30.5278 40 31 39.5321 31 39.2857V9.27C31 8.77286 30.933 8.61286 30.8147 8.495L22.426 0.183571C22.307 0.0664286 22.1455 0 21.9776 0Z" fill="#F2F2E8"/>
<path d="M22.3489 0.107666V8.57124H30.8912L22.3489 0.107666Z" fill="#D9D7CA"/>
<path d="M29.9453 40H1.05472C0.472209 40 0 39.5322 0 38.955V27.8572H31V38.955C31 39.5322 30.5278 40 29.9453 40Z" fill="#E2574C"/>
<path d="M8.17214 37.8571H7V30.6599H9.07C9.37571 30.6599 9.67857 30.7085 9.97786 30.8063C10.2771 30.9042 10.5457 31.0506 10.7836 31.2456C11.0214 31.4406 11.2136 31.6771 11.36 31.9535C11.5064 32.2299 11.58 32.5406 11.58 32.8863C11.58 33.2513 11.5179 33.5813 11.3943 33.8778C11.2707 34.1742 11.0979 34.4235 10.8764 34.6249C10.655 34.8263 10.3879 34.9828 10.0757 35.0935C9.76357 35.2042 9.41786 35.2592 9.04071 35.2592H8.17143V37.8571H8.17214ZM8.17214 31.5485V34.3999H9.24643C9.38929 34.3999 9.53071 34.3756 9.67143 34.3263C9.81143 34.2778 9.94 34.1978 10.0571 34.0871C10.1743 33.9763 10.2686 33.8221 10.34 33.6235C10.4114 33.4249 10.4471 33.1792 10.4471 32.8863C10.4471 32.7692 10.4307 32.6335 10.3986 32.4813C10.3657 32.3285 10.2993 32.1821 10.1986 32.0421C10.0971 31.9021 9.95571 31.7849 9.77357 31.6906C9.59143 31.5963 9.35 31.5492 9.05071 31.5492H8.17214V31.5485Z" fill="white"/>
<path d="M18.768 34.0585C18.768 34.6506 18.7044 35.1571 18.5773 35.5771C18.4501 35.9971 18.2894 36.3485 18.0937 36.6321C17.898 36.9156 17.6787 37.1385 17.4344 37.3013C17.1901 37.4642 16.9544 37.5856 16.7266 37.6678C16.4987 37.7492 16.2901 37.8013 16.1016 37.8242C15.913 37.8456 15.773 37.8571 15.6816 37.8571H12.9573V30.6599H15.1251C15.7308 30.6599 16.263 30.7563 16.7216 30.9478C17.1801 31.1392 17.5616 31.3956 17.8644 31.7142C18.1673 32.0328 18.393 32.3963 18.543 32.8028C18.693 33.2099 18.768 33.6285 18.768 34.0585ZM15.2916 36.9978C16.0858 36.9978 16.6587 36.7442 17.0101 36.2363C17.3616 35.7285 17.5373 34.9928 17.5373 34.0292C17.5373 33.7299 17.5016 33.4335 17.4301 33.1406C17.358 32.8478 17.2201 32.5828 17.0151 32.3449C16.8101 32.1071 16.5316 31.9149 16.1801 31.7685C15.8287 31.6221 15.373 31.5485 14.813 31.5485H14.1294V36.9978H15.2916Z" fill="white"/>
<path d="M21.6585 31.5485V33.8142H24.6663V34.6149H21.6585V37.8571H20.467V30.6599H24.9685V31.5485H21.6585Z" fill="white"/>
<path d="M9.29581 23.8029C9.04724 23.8029 8.80867 23.7222 8.60509 23.57C7.86152 23.0122 7.76152 22.3915 7.80866 21.9686C7.93866 20.8058 9.37652 19.5886 12.0837 18.3486C13.1579 15.9943 14.1801 13.0936 14.7894 10.67C14.0765 9.11861 13.3837 7.10575 13.8887 5.92504C14.0658 5.51147 14.2865 5.19433 14.6987 5.05718C14.8615 5.0029 15.273 4.93433 15.4244 4.93433C15.7844 4.93433 16.1008 5.3979 16.3251 5.68361C16.5358 5.95218 17.0137 6.52147 16.0587 10.5422C17.0215 12.5308 18.3858 14.5565 19.6929 15.9436C20.6294 15.7743 21.4351 15.6879 22.0915 15.6879C23.2101 15.6879 23.888 15.9486 24.1644 16.4858C24.393 16.93 24.2994 17.4493 23.8858 18.0286C23.4879 18.585 22.9394 18.8793 22.3001 18.8793C21.4315 18.8793 20.4201 18.3308 19.2922 17.2472C17.2658 17.6708 14.8994 18.4265 12.9865 19.2629C12.3894 20.53 11.8172 21.5508 11.2844 22.2993C10.5522 23.3243 9.92081 23.8029 9.29581 23.8029ZM11.1972 20.1415C9.67081 20.9993 9.04866 21.7043 9.00366 22.1015C8.99652 22.1672 8.97724 22.34 9.31152 22.5958C9.41795 22.5622 10.0394 22.2786 11.1972 20.1415ZM20.9379 16.9686C21.5201 17.4165 21.6622 17.6429 22.043 17.6429C22.2101 17.6429 22.6865 17.6358 22.9072 17.3279C23.0137 17.1786 23.0551 17.0829 23.0715 17.0315C22.9837 16.985 22.8672 16.8908 22.2322 16.8908C21.8715 16.8915 21.4179 16.9072 20.9379 16.9686ZM15.6022 12.2672C15.0915 14.0343 14.4172 15.9422 13.6922 17.67C15.1851 17.0908 16.808 16.585 18.3322 16.2272C17.368 15.1072 16.4044 13.7086 15.6022 12.2672ZM15.1687 6.2229C15.0987 6.24647 14.2187 7.4779 15.2372 8.52004C15.9151 7.00933 15.1994 6.2129 15.1687 6.2229Z" fill="#E2574C"/>
</svg>
