<svg width="31" height="40" viewBox="0 0 31 40" fill="none" xmlns="http://www.w3.org/2000/svg">
<path fill-rule="evenodd" clip-rule="evenodd" d="M2.49998 0H21.7412L30.9999 9.215V37.5C30.9999 38.8812 29.88 40 28.4999 40H2.49998C1.11994 40 0 38.8812 0 37.5V2.49998C0 1.11877 1.12007 0 2.49998 0Z" fill="white"/>
<path d="M2.49998 0.5H21.5348L30.4999 9.4228V37.5C30.4999 38.6049 29.604 39.5 28.4999 39.5H2.49998C1.39594 39.5 0.5 38.6049 0.5 37.5V2.49998C0.5 1.39508 1.39604 0.5 2.49998 0.5Z" stroke="#E8E9EB"/>
<path d="M30.5001 9.5H23.7294C22.4987 9.5 21.5 8.50231 21.5 7.27286V0.5" stroke="#E8E9EB"/>
<path d="M15.333 19.4625C15.333 20.061 15.1857 20.622 14.891 21.1457C14.6072 21.6693 14.1543 22.0915 13.5322 22.4121C12.921 22.7327 12.1461 22.893 11.2074 22.893H9.29199V27.1891H7V16H11.2074C12.0915 16 12.8446 16.1496 13.4667 16.4488C14.0888 16.7481 14.5527 17.1595 14.8583 17.6832C15.1748 18.2068 15.333 18.7999 15.333 19.4625ZM11.1092 21.0816C11.7422 21.0816 12.2116 20.9426 12.5171 20.6648C12.8227 20.3762 12.9755 19.9755 12.9755 19.4625C12.9755 18.3725 12.3534 17.8274 11.1092 17.8274H9.29199V21.0816H11.1092Z" fill="#5889C4"/>
<path d="M20.431 27.3333C19.6889 27.3333 19.0231 27.2051 18.4337 26.9486C17.8444 26.6814 17.3751 26.3234 17.0258 25.8746C16.6875 25.4257 16.5019 24.9288 16.4692 24.3838H18.7775C18.8212 24.7258 18.9904 25.009 19.285 25.2334C19.5906 25.4578 19.9672 25.57 20.4147 25.57C20.8512 25.57 21.1896 25.4845 21.4297 25.3135C21.6807 25.1425 21.8062 24.9235 21.8062 24.6563C21.8062 24.3678 21.6534 24.154 21.3478 24.0151C21.0532 23.8655 20.5784 23.7052 19.9235 23.5342C19.2468 23.3739 18.6902 23.2082 18.2537 23.0372C17.828 22.8663 17.4569 22.6044 17.1404 22.2518C16.8348 21.8991 16.682 21.4235 16.682 20.8251C16.682 20.3335 16.8239 19.8846 17.1077 19.4785C17.4023 19.0724 17.8171 18.7518 18.3519 18.5167C18.8976 18.2816 19.5361 18.1641 20.2673 18.1641C21.3478 18.1641 22.2101 18.4312 22.854 18.9656C23.4979 19.4892 23.8527 20.1999 23.9181 21.0976H21.7244C21.6916 20.7449 21.5388 20.4671 21.266 20.264C21.004 20.0503 20.6493 19.9434 20.2018 19.9434C19.7871 19.9434 19.4651 20.0182 19.2359 20.1678C19.0176 20.3175 18.9085 20.5259 18.9085 20.793C18.9085 21.0923 19.0613 21.322 19.3669 21.4823C19.6725 21.6319 20.1473 21.7869 20.7912 21.9472C21.4461 22.1075 21.9863 22.2731 22.412 22.4441C22.8376 22.6151 23.2033 22.8823 23.5089 23.2456C23.8254 23.5983 23.9891 24.0685 24 24.6563C24 25.1693 23.8527 25.6288 23.558 26.0349C23.2742 26.441 22.8595 26.7616 22.3137 26.9967C21.779 27.2211 21.1514 27.3333 20.431 27.3333Z" fill="#5889C4"/>
</svg>
