<svg width="31" height="40" viewBox="0 0 31 40" fill="none" xmlns="http://www.w3.org/2000/svg">
<path d="M21.9776 0H1.05472C0.472209 0 0 0.467857 0 1.37571V39.2857C0 39.5321 0.472209 40 1.05472 40H29.9453C30.5278 40 31 39.5321 31 39.2857V9.27C31 8.77286 30.933 8.61286 30.8147 8.495L22.426 0.183571C22.307 0.0664286 22.1455 0 21.9776 0Z" fill="#F2F2E8"/>
<path d="M29.9453 40H1.05472C0.472209 40 0 39.5322 0 38.955V27.8572H31V38.955C31 39.5322 30.5278 40 29.9453 40Z" fill="#5889C4"/>
<path d="M22.3489 0.107666V8.57124H30.8912L22.3489 0.107666Z" fill="#D9D7CA"/>
<path d="M8.17214 37.8571H7V30.6599H9.07C9.37571 30.6599 9.67857 30.7085 9.97786 30.8063C10.2771 30.9042 10.5457 31.0506 10.7836 31.2456C11.0214 31.4406 11.2136 31.6771 11.36 31.9535C11.5064 32.2299 11.58 32.5406 11.58 32.8863C11.58 33.2513 11.5179 33.5813 11.3943 33.8778C11.2707 34.1742 11.0979 34.4235 10.8764 34.6249C10.655 34.8263 10.3879 34.9828 10.0757 35.0935C9.76357 35.2042 9.41786 35.2592 9.04071 35.2592H8.17143V37.8571H8.17214ZM8.17214 31.5485V34.3999H9.24643C9.38929 34.3999 9.53071 34.3756 9.67143 34.3263C9.81143 34.2778 9.94 34.1978 10.0571 34.0871C10.1743 33.9763 10.2686 33.8221 10.34 33.6235C10.4114 33.4249 10.4471 33.1792 10.4471 32.8863C10.4471 32.7692 10.4307 32.6335 10.3986 32.4813C10.3657 32.3285 10.2993 32.1821 10.1986 32.0421C10.0971 31.9021 9.95571 31.7849 9.77357 31.6906C9.59143 31.5963 9.35 31.5492 9.05071 31.5492H8.17214V31.5485Z" fill="white"/>
<path d="M16.99 35.8842C16.99 36.1442 16.9365 36.397 16.8286 36.6413C16.7208 36.8856 16.57 37.1006 16.3743 37.2856C16.1786 37.4706 15.9379 37.6192 15.6515 37.7299C15.365 37.8406 15.0393 37.8956 14.675 37.8956C14.5186 37.8956 14.3579 37.887 14.1915 37.8713C14.025 37.8556 13.8579 37.827 13.6886 37.7884C13.5193 37.7492 13.3579 37.6956 13.205 37.627C13.0522 37.5584 12.92 37.4756 12.8093 37.3777L13.0143 36.5377C13.105 36.5899 13.2208 36.6406 13.3608 36.6892C13.5008 36.7377 13.645 36.7834 13.795 36.8256C13.9443 36.8684 14.0943 36.902 14.2443 36.9284C14.3936 36.9542 14.5336 36.9677 14.6643 36.9677C15.0615 36.9677 15.3658 36.8749 15.5772 36.6892C15.7886 36.5034 15.8943 36.2284 15.8943 35.8642C15.8943 35.6427 15.8193 35.4542 15.67 35.2977C15.52 35.1413 15.3329 34.9999 15.1086 34.8727C14.8843 34.7456 14.6415 34.6192 14.3808 34.492C14.12 34.3649 13.8758 34.2149 13.6486 34.0427C13.4208 33.8706 13.2322 33.667 13.0822 33.4327C12.9322 33.1984 12.8579 32.9056 12.8579 32.5542C12.8579 32.2356 12.9165 31.952 13.0336 31.7049C13.1508 31.4577 13.3086 31.247 13.5072 31.0749C13.7058 30.9027 13.9372 30.7706 14.2008 30.6792C14.4643 30.5877 14.7429 30.5427 15.0358 30.5427C15.335 30.5427 15.6379 30.5706 15.9436 30.6256C16.2493 30.6806 16.4965 30.7706 16.6858 30.8942C16.6465 30.9784 16.6008 31.0713 16.5493 31.1727C16.4972 31.2742 16.4479 31.3677 16.4029 31.4556C16.3572 31.5434 16.3179 31.617 16.2858 31.6756C16.2529 31.7342 16.2336 31.767 16.2272 31.7734C16.1879 31.7542 16.1443 31.7284 16.095 31.6956C16.0458 31.6627 15.9758 31.6306 15.885 31.5977C15.7936 31.5649 15.6736 31.5427 15.5236 31.5292C15.3736 31.5156 15.1815 31.5192 14.9472 31.5392C14.8165 31.5527 14.6936 31.5892 14.5758 31.6513C14.4579 31.7134 14.3543 31.7892 14.2629 31.8806C14.1715 31.972 14.1 32.0742 14.0479 32.1884C13.9958 32.302 13.97 32.412 13.97 32.5156C13.97 32.7756 14.0443 32.9856 14.1943 33.1456C14.3436 33.3056 14.5293 33.4449 14.7508 33.5656C14.9722 33.6863 15.2129 33.8034 15.4736 33.917C15.7336 34.0306 15.9765 34.1699 16.2015 34.332C16.4265 34.4942 16.6129 34.6984 16.7629 34.942C16.915 35.1863 16.99 35.4999 16.99 35.8842Z" fill="white"/>
<path d="M24.0607 34.0585C24.0607 34.6506 23.9972 35.1571 23.87 35.5771C23.7429 35.9971 23.5822 36.3485 23.3864 36.6321C23.1907 36.9156 22.9714 37.1385 22.7272 37.3013C22.4829 37.4642 22.2472 37.5856 22.0193 37.6678C21.7914 37.7492 21.5829 37.8013 21.3943 37.8242C21.2057 37.8456 21.0657 37.8571 20.975 37.8571H18.2507V30.6599H20.4186C21.0243 30.6599 21.5564 30.7563 22.015 30.9478C22.4736 31.1392 22.855 31.3956 23.1579 31.7142C23.4607 32.0328 23.6864 32.3963 23.8364 32.8028C23.9857 33.2099 24.0607 33.6285 24.0607 34.0585ZM20.5843 36.9978C21.3786 36.9978 21.9514 36.7442 22.3029 36.2363C22.6543 35.7285 22.83 34.9928 22.83 34.0292C22.83 33.7299 22.7943 33.4335 22.7229 33.1406C22.6507 32.8478 22.5129 32.5828 22.3079 32.3449C22.1029 32.1071 21.8243 31.9149 21.4729 31.7685C21.1214 31.6221 20.6657 31.5485 20.1057 31.5485H19.4222V36.9978H20.5843Z" fill="white"/>
<path d="M15.5214 13.288C15.5214 13.8854 15.3774 14.4454 15.0894 14.968C14.8121 15.4907 14.3694 15.912 13.7614 16.232C13.1641 16.552 12.4068 16.712 11.4894 16.712H9.61744V21H7.37744V9.83203H11.4894C12.3534 9.83203 13.0894 9.98136 13.6974 10.28C14.3054 10.5787 14.7588 10.9894 15.0574 11.512C15.3668 12.0347 15.5214 12.6267 15.5214 13.288ZM11.3934 14.904C12.0121 14.904 12.4708 14.7654 12.7694 14.488C13.0681 14.2 13.2174 13.8 13.2174 13.288C13.2174 12.2 12.6094 11.656 11.3934 11.656H9.61744V14.904H11.3934Z" fill="#5889C4"/>
<path d="M20.5038 21.144C19.7785 21.144 19.1278 21.016 18.5518 20.76C17.9758 20.4934 17.5171 20.136 17.1758 19.688C16.8451 19.24 16.6638 18.744 16.6318 18.2H18.8878C18.9305 18.5414 19.0958 18.824 19.3838 19.048C19.6825 19.272 20.0505 19.384 20.4878 19.384C20.9145 19.384 21.2451 19.2987 21.4798 19.128C21.7252 18.9574 21.8478 18.7387 21.8478 18.472C21.8478 18.184 21.6985 17.9707 21.3998 17.832C21.1118 17.6827 20.6478 17.5227 20.0078 17.352C19.3465 17.192 18.8025 17.0267 18.3758 16.856C17.9598 16.6854 17.5971 16.424 17.2878 16.072C16.9891 15.72 16.8398 15.2454 16.8398 14.648C16.8398 14.1574 16.9785 13.7094 17.2558 13.304C17.5438 12.8987 17.9492 12.5787 18.4718 12.344C19.0051 12.1094 19.6292 11.992 20.3438 11.992C21.3998 11.992 22.2425 12.2587 22.8718 12.792C23.5012 13.3147 23.8478 14.024 23.9118 14.92H21.7678C21.7358 14.568 21.5865 14.2907 21.3198 14.088C21.0638 13.8747 20.7171 13.768 20.2798 13.768C19.8745 13.768 19.5598 13.8427 19.3358 13.992C19.1225 14.1414 19.0158 14.3494 19.0158 14.616C19.0158 14.9147 19.1651 15.144 19.4638 15.304C19.7625 15.4534 20.2265 15.608 20.8558 15.768C21.4958 15.928 22.0238 16.0934 22.4398 16.264C22.8558 16.4347 23.2131 16.7014 23.5118 17.064C23.8211 17.416 23.9812 17.8854 23.9918 18.472C23.9918 18.984 23.8478 19.4427 23.5598 19.848C23.2825 20.2534 22.8771 20.5734 22.3438 20.808C21.8211 21.032 21.2078 21.144 20.5038 21.144Z" fill="#5889C4"/>
</svg>
