<svg width="31" height="40" viewBox="0 0 31 40" fill="none" xmlns="http://www.w3.org/2000/svg">
<g clip-path="url(#clip0_1834_0)">
<path fill-rule="evenodd" clip-rule="evenodd" d="M2.49998 0H19.7412L30.9999 11.215V37.5C30.9999 38.8812 29.88 40 28.4999 40H2.49998C1.11994 40 0 38.8812 0 37.5V2.49998C0 1.11877 1.12007 0 2.49998 0Z" fill="#5889C4"/>
<g filter="url(#filter0_d_1834_0)">
<path fill-rule="evenodd" clip-rule="evenodd" d="M30.9638 11.2499H22.25C20.8699 11.2499 19.75 10.13 19.75 8.74992V0.0249023L30.9638 11.2499Z" fill="#9CC5F7"/>
</g>
<path d="M6.56984 24.06C6.32984 24.06 6.13984 23.99 5.99984 23.85C5.85984 23.71 5.78984 23.52 5.78984 23.28V17.68C5.78984 17.4467 5.85318 17.2667 5.97984 17.14C6.10651 17.0133 6.28651 16.95 6.51984 16.95H9.02984C9.79651 16.95 10.3932 17.1433 10.8198 17.53C11.2465 17.9167 11.4598 18.4567 11.4598 19.15C11.4598 19.8433 11.2465 20.3833 10.8198 20.77C10.3932 21.1567 9.79651 21.35 9.02984 21.35H7.34984V23.28C7.34984 23.52 7.27984 23.71 7.13984 23.85C6.99984 23.99 6.80984 24.06 6.56984 24.06ZM8.82984 20.17C9.60984 20.17 9.99984 19.8333 9.99984 19.16C9.99984 18.48 9.60984 18.14 8.82984 18.14H7.34984V20.17H8.82984ZM15.0095 24.09C14.4829 24.09 13.9929 24.03 13.5395 23.91C13.0862 23.7833 12.7162 23.6067 12.4295 23.38C12.3295 23.3067 12.2562 23.23 12.2095 23.15C12.1695 23.0633 12.1495 22.9567 12.1495 22.83C12.1495 22.6633 12.1995 22.5167 12.2995 22.39C12.4062 22.2633 12.5262 22.2 12.6595 22.2C12.7329 22.2 12.8029 22.2133 12.8695 22.24C12.9429 22.26 13.0295 22.3 13.1295 22.36C13.4162 22.54 13.7062 22.6733 13.9995 22.76C14.2929 22.84 14.6162 22.88 14.9695 22.88C15.4095 22.88 15.7462 22.8067 15.9795 22.66C16.2129 22.5133 16.3295 22.3033 16.3295 22.03C16.3295 21.8233 16.2195 21.6567 15.9995 21.53C15.7862 21.4033 15.4029 21.2833 14.8495 21.17C14.2295 21.0433 13.7329 20.89 13.3595 20.71C12.9929 20.53 12.7229 20.3067 12.5495 20.04C12.3829 19.7733 12.2995 19.45 12.2995 19.07C12.2995 18.65 12.4195 18.2733 12.6595 17.94C12.9062 17.6 13.2429 17.3367 13.6695 17.15C14.1029 16.9567 14.5895 16.86 15.1295 16.86C16.0762 16.86 16.8562 17.0967 17.4695 17.57C17.5695 17.65 17.6395 17.7333 17.6795 17.82C17.7262 17.9 17.7495 18 17.7495 18.12C17.7495 18.2867 17.6962 18.4333 17.5895 18.56C17.4895 18.6867 17.3729 18.75 17.2395 18.75C17.1662 18.75 17.0962 18.74 17.0295 18.72C16.9695 18.7 16.8829 18.6567 16.7695 18.59C16.4962 18.4167 16.2429 18.2867 16.0095 18.2C15.7829 18.1133 15.4929 18.07 15.1395 18.07C14.7329 18.07 14.4129 18.15 14.1795 18.31C13.9462 18.4633 13.8295 18.6767 13.8295 18.95C13.8295 19.11 13.8729 19.2433 13.9595 19.35C14.0529 19.45 14.2029 19.54 14.4095 19.62C14.6229 19.7 14.9229 19.7833 15.3095 19.87C16.2162 20.07 16.8662 20.3267 17.2595 20.64C17.6595 20.9533 17.8595 21.3833 17.8595 21.93C17.8595 22.3567 17.7395 22.7333 17.4995 23.06C17.2662 23.3867 16.9329 23.64 16.4995 23.82C16.0729 24 15.5762 24.09 15.0095 24.09ZM19.7132 24C19.4799 24 19.2999 23.9367 19.1732 23.81C19.0465 23.6833 18.9832 23.5033 18.9832 23.27V17.68C18.9832 17.4467 19.0465 17.2667 19.1732 17.14C19.2999 17.0133 19.4799 16.95 19.7132 16.95H21.7232C22.4899 16.95 23.1499 17.09 23.7032 17.37C24.2565 17.65 24.6799 18.0533 24.9732 18.58C25.2665 19.1067 25.4132 19.7367 25.4132 20.47C25.4132 21.2033 25.2665 21.8367 24.9732 22.37C24.6865 22.8967 24.2665 23.3 23.7132 23.58C23.1599 23.86 22.4965 24 21.7232 24H19.7132ZM21.6132 22.74C23.1132 22.74 23.8632 21.9833 23.8632 20.47C23.8632 18.9633 23.1132 18.21 21.6132 18.21H20.5432V22.74H21.6132Z" fill="white"/>
</g>
<defs>
<filter id="filter0_d_1834_0" x="18.75" y="0.0249023" width="13.2137" height="13.2251" filterUnits="userSpaceOnUse" color-interpolation-filters="sRGB">
<feFlood flood-opacity="0" result="BackgroundImageFix"/>
<feColorMatrix in="SourceAlpha" type="matrix" values="0 0 0 0 0 0 0 0 0 0 0 0 0 0 0 0 0 0 127 0" result="hardAlpha"/>
<feOffset dy="1"/>
<feGaussianBlur stdDeviation="0.5"/>
<feColorMatrix type="matrix" values="0 0 0 0 0.22449 0 0 0 0 0.34949 0 0 0 0 0.5 0 0 0 0.25 0"/>
<feBlend mode="normal" in2="BackgroundImageFix" result="effect1_dropShadow_1834_0"/>
<feBlend mode="normal" in="SourceGraphic" in2="effect1_dropShadow_1834_0" result="shape"/>
</filter>
<clipPath id="clip0_1834_0">
<rect width="31" height="40" fill="white"/>
</clipPath>
</defs>
</svg>
