<svg width="31" height="40" viewBox="0 0 31 40" fill="none" xmlns="http://www.w3.org/2000/svg">
<path fill-rule="evenodd" clip-rule="evenodd" d="M2.49998 0H21.7412L30.9999 9.215V37.5C30.9999 38.8812 29.88 40 28.4999 40H2.49998C1.11994 40 0 38.8812 0 37.5V2.49998C0 1.11877 1.12007 0 2.49998 0Z" fill="white"/>
<path d="M2.49998 0.5H21.5348L30.4999 9.4228V37.5C30.4999 38.6049 29.604 39.5 28.4999 39.5H2.49998C1.39594 39.5 0.5 38.6049 0.5 37.5V2.49998C0.5 1.39508 1.39604 0.5 2.49998 0.5Z" stroke="#E8E9EB"/>
<path d="M30.5001 9.5H23.7294C22.4987 9.5 21.5 8.50231 21.5 7.27286V0.5" stroke="#E8E9EB"/>
<path d="M10.1873 19.8253V15.0057L15.4998 14L20.8123 15.0057V19.8253H10.1873Z" fill="#FFD54F"/>
<path d="M10.1873 19.8253L15.4998 14L20.8123 19.8253H10.1873Z" fill="#FFECB3"/>
<path d="M7 19.8254L15.5 30.0001L24 19.8254H7Z" fill="#FFA000"/>
<path d="M10.1873 19.8254L15.4998 30.0001L20.8123 19.8254H10.1873Z" fill="#FFCA28"/>
<path d="M7 19.8247L10.1875 15.0051V19.8247H7Z" fill="#FFC107"/>
<path d="M20.8125 15.0051V19.8247H24L20.8125 15.0051Z" fill="#FFC107"/>
</svg>
