<svg width="31" height="40" viewBox="0 0 31 40" fill="none" xmlns="http://www.w3.org/2000/svg">
<path d="M21.9776 0H1.05472C0.472209 0 0 0.467857 0 1.37571V39.2857C0 39.5321 0.472209 40 1.05472 40H29.9453C30.5278 40 31 39.5321 31 39.2857V9.27C31 8.77286 30.933 8.61286 30.8147 8.495L22.426 0.183571C22.307 0.0664286 22.1455 0 21.9776 0Z" fill="#F2F2E8"/>
<path d="M29.9453 40H1.05472C0.472209 40 0 39.5322 0 38.955V27.8572H31V38.955C31 39.5322 30.5278 40 29.9453 40Z" fill="#FFA000"/>
<path d="M22.3489 0.107666V8.57124H30.8912L22.3489 0.107666Z" fill="#D9D7CA"/>
<path d="M4.66822 36.5489C4.32756 36.5489 4.01956 36.4906 3.74422 36.3739C3.47356 36.2573 3.25889 36.0893 3.10022 35.8699C2.94156 35.6506 2.85989 35.3916 2.85522 35.0929H3.90522C3.91922 35.2936 3.98922 35.4523 4.11522 35.5689C4.24589 35.6856 4.42322 35.7439 4.64722 35.7439C4.87589 35.7439 5.05556 35.6903 5.18622 35.5829C5.31689 35.4709 5.38222 35.3263 5.38222 35.1489C5.38222 35.0043 5.33789 34.8853 5.24922 34.7919C5.16056 34.6986 5.04856 34.6263 4.91322 34.5749C4.78256 34.5189 4.60056 34.4583 4.36722 34.3929C4.04989 34.2996 3.79089 34.2086 3.59022 34.1199C3.39422 34.0266 3.22389 33.8889 3.07922 33.7069C2.93922 33.5203 2.86922 33.2729 2.86922 32.9649C2.86922 32.6756 2.94156 32.4236 3.08622 32.2089C3.23089 31.9943 3.43389 31.8309 3.69522 31.7189C3.95656 31.6023 4.25522 31.5439 4.59122 31.5439C5.09522 31.5439 5.50356 31.6676 5.81622 31.9149C6.13356 32.1576 6.30856 32.4983 6.34122 32.9369H5.26322C5.25389 32.7689 5.18156 32.6313 5.04622 32.5239C4.91556 32.4119 4.74056 32.3559 4.52122 32.3559C4.32989 32.3559 4.17589 32.4049 4.05922 32.5029C3.94722 32.6009 3.89122 32.7433 3.89122 32.9299C3.89122 33.0606 3.93322 33.1703 4.01722 33.2589C4.10589 33.3429 4.21322 33.4129 4.33922 33.4689C4.46989 33.5203 4.65189 33.5809 4.88522 33.6509C5.20256 33.7443 5.46156 33.8376 5.66222 33.9309C5.86289 34.0243 6.03556 34.1643 6.18022 34.3509C6.32489 34.5376 6.39722 34.7826 6.39722 35.0859C6.39722 35.3473 6.32956 35.5899 6.19422 35.8139C6.05889 36.0379 5.86056 36.2176 5.59922 36.3529C5.33789 36.4836 5.02756 36.5489 4.66822 36.5489Z" fill="white"/>
<path d="M9.79485 36.4999L8.01685 34.3229V36.4999H7.03685V31.6139H8.01685V33.8049L9.79485 31.6139H10.9778L8.96185 34.0359L11.0338 36.4999H9.79485Z" fill="white"/>
<path d="M12.4485 32.4049V33.6299H14.0935V34.4069H12.4485V35.7019H14.3035V36.4999H11.4685V31.6069H14.3035V32.4049H12.4485Z" fill="white"/>
<path d="M18.309 31.6139V32.4049H17.007V36.4999H16.027V32.4049H14.725V31.6139H18.309Z" fill="white"/>
<path d="M18.5761 34.0499C18.5761 33.5693 18.6834 33.1399 18.8981 32.7619C19.1174 32.3793 19.4137 32.0829 19.7871 31.8729C20.1651 31.6583 20.5874 31.5509 21.0541 31.5509C21.6001 31.5509 22.0784 31.6909 22.4891 31.9709C22.8997 32.2509 23.1867 32.6383 23.3501 33.1329H22.2231C22.1111 32.8996 21.9524 32.7246 21.7471 32.6079C21.5464 32.4913 21.3131 32.4329 21.0471 32.4329C20.7624 32.4329 20.5081 32.5006 20.2841 32.6359C20.0647 32.7666 19.8921 32.9533 19.7661 33.1959C19.6447 33.4386 19.5841 33.7233 19.5841 34.0499C19.5841 34.3719 19.6447 34.6566 19.7661 34.9039C19.8921 35.1466 20.0647 35.3356 20.2841 35.4709C20.5081 35.6016 20.7624 35.6669 21.0471 35.6669C21.3131 35.6669 21.5464 35.6086 21.7471 35.4919C21.9524 35.3706 22.1111 35.1933 22.2231 34.9599H23.3501C23.1867 35.4593 22.8997 35.8489 22.4891 36.1289C22.0831 36.4043 21.6047 36.5419 21.0541 36.5419C20.5874 36.5419 20.1651 36.4369 19.7871 36.2269C19.4137 36.0123 19.1174 35.7159 18.8981 35.3379C18.6834 34.9599 18.5761 34.5306 18.5761 34.0499Z" fill="white"/>
<path d="M28.0301 31.6139V36.4999H27.0501V34.4209H24.9571V36.4999H23.9771V31.6139H24.9571V33.6229H27.0501V31.6139H28.0301Z" fill="white"/>
<path d="M10.1873 13.2784V8.49759L15.4998 7.5L20.8123 8.49759V13.2784H10.1873Z" fill="#FFD54F"/>
<path d="M10.1873 13.2784L15.4998 7.5L20.8123 13.2784H10.1873Z" fill="#FFECB3"/>
<path d="M7 13.2783L15.5 23.371L24 13.2783H7Z" fill="#FFA000"/>
<path d="M10.1873 13.2783L15.4998 23.371L20.8123 13.2783H10.1873Z" fill="#FFCA28"/>
<path d="M7 13.2781L10.1875 8.49731V13.2781H7Z" fill="#FFC107"/>
<path d="M20.8125 8.49731V13.2781H24L20.8125 8.49731Z" fill="#FFC107"/>
</svg>
