<svg width="31" height="40" viewBox="0 0 31 40" fill="none" xmlns="http://www.w3.org/2000/svg">
<g clip-path="url(#clip0_1834_5)">
<path fill-rule="evenodd" clip-rule="evenodd" d="M2.49998 0H19.7412L30.9999 11.215V37.5C30.9999 38.8812 29.88 40 28.4999 40H2.49998C1.11994 40 0 38.8812 0 37.5V2.49998C0 1.11877 1.12007 0 2.49998 0Z" fill="#FFA000"/>
<g filter="url(#filter0_d_1834_5)">
<path fill-rule="evenodd" clip-rule="evenodd" d="M30.9638 11.2499H22.25C20.8699 11.2499 19.75 10.13 19.75 8.74992V0.0249023L30.9638 11.2499Z" fill="#F7D59C"/>
</g>
<path d="M5.2795 23.072C4.85817 23.072 4.46617 23.024 4.1035 22.928C3.74083 22.8267 3.44483 22.6853 3.2155 22.504C3.1355 22.4453 3.07683 22.384 3.0395 22.32C3.0075 22.2507 2.9915 22.1653 2.9915 22.064C2.9915 21.9307 3.0315 21.8133 3.1115 21.712C3.19683 21.6107 3.29283 21.56 3.3995 21.56C3.45817 21.56 3.51417 21.5707 3.5675 21.592C3.62617 21.608 3.6955 21.64 3.7755 21.688C4.00483 21.832 4.23683 21.9387 4.4715 22.008C4.70617 22.072 4.96483 22.104 5.2475 22.104C5.5995 22.104 5.86883 22.0453 6.0555 21.928C6.24217 21.8107 6.3355 21.6427 6.3355 21.424C6.3355 21.2587 6.2475 21.1253 6.0715 21.024C5.90083 20.9227 5.59417 20.8267 5.1515 20.736C4.6555 20.6347 4.25817 20.512 3.9595 20.368C3.66617 20.224 3.45017 20.0453 3.3115 19.832C3.17817 19.6187 3.1115 19.36 3.1115 19.056C3.1115 18.72 3.2075 18.4187 3.3995 18.152C3.59683 17.88 3.86617 17.6693 4.2075 17.52C4.55417 17.3653 4.9435 17.288 5.3755 17.288C6.13283 17.288 6.75683 17.4773 7.2475 17.856C7.3275 17.92 7.3835 17.9867 7.4155 18.056C7.45283 18.12 7.4715 18.2 7.4715 18.296C7.4715 18.4293 7.42883 18.5467 7.3435 18.648C7.2635 18.7493 7.17017 18.8 7.0635 18.8C7.00483 18.8 6.94883 18.792 6.8955 18.776C6.8475 18.76 6.77817 18.7253 6.6875 18.672C6.46883 18.5333 6.26617 18.4293 6.0795 18.36C5.89817 18.2907 5.66617 18.256 5.3835 18.256C5.05817 18.256 4.80217 18.32 4.6155 18.448C4.42883 18.5707 4.3355 18.7413 4.3355 18.96C4.3355 19.088 4.37017 19.1947 4.4395 19.28C4.51417 19.36 4.63417 19.432 4.7995 19.496C4.97017 19.56 5.21017 19.6267 5.5195 19.696C6.24483 19.856 6.76483 20.0613 7.0795 20.312C7.3995 20.5627 7.5595 20.9067 7.5595 21.344C7.5595 21.6853 7.4635 21.9867 7.2715 22.248C7.08483 22.5093 6.81817 22.712 6.4715 22.856C6.13017 23 5.73283 23.072 5.2795 23.072ZM12.0664 22.064C12.1891 22.1813 12.2504 22.3147 12.2504 22.464C12.2504 22.6133 12.1944 22.7467 12.0824 22.864C11.9758 22.9813 11.8504 23.04 11.7064 23.04C11.5678 23.04 11.4398 22.984 11.3224 22.872L9.57044 21.248V22.472C9.57044 22.6587 9.51177 22.8 9.39444 22.896C9.28244 22.992 9.1411 23.04 8.97044 23.04C8.79444 23.04 8.64777 22.992 8.53044 22.896C8.41844 22.8 8.36244 22.6587 8.36244 22.472V17.888C8.36244 17.7013 8.41844 17.56 8.53044 17.464C8.64777 17.368 8.79444 17.32 8.97044 17.32C9.1411 17.32 9.28244 17.368 9.39444 17.464C9.51177 17.56 9.57044 17.7013 9.57044 17.888V20.752L11.1704 19.176C11.2878 19.0587 11.4184 19 11.5624 19C11.7118 19 11.8424 19.056 11.9544 19.168C12.0664 19.2747 12.1224 19.4027 12.1224 19.552C12.1224 19.6907 12.0611 19.8213 11.9384 19.944L10.8744 20.96L12.0664 22.064ZM15.9363 21.832C16.043 21.832 16.1283 21.8747 16.1923 21.96C16.2616 22.0453 16.2963 22.1547 16.2963 22.288C16.2963 22.3787 16.2696 22.464 16.2163 22.544C16.163 22.6187 16.0883 22.6827 15.9923 22.736C15.811 22.832 15.6003 22.912 15.3603 22.976C15.1203 23.0347 14.899 23.064 14.6963 23.064C14.2696 23.064 13.8963 22.9813 13.5763 22.816C13.2616 22.6507 13.019 22.416 12.8483 22.112C12.6776 21.8027 12.5923 21.44 12.5923 21.024C12.5923 20.624 12.675 20.2693 12.8403 19.96C13.0056 19.6507 13.235 19.4107 13.5283 19.24C13.8216 19.064 14.155 18.976 14.5283 18.976C14.8856 18.976 15.1976 19.056 15.4643 19.216C15.7363 19.3707 15.947 19.5947 16.0963 19.888C16.2456 20.176 16.3203 20.5147 16.3203 20.904C16.3203 21.0213 16.291 21.112 16.2323 21.176C16.179 21.2347 16.1016 21.264 16.0003 21.264H13.7603C13.7976 21.5787 13.8936 21.808 14.0483 21.952C14.203 22.0907 14.4243 22.16 14.7123 22.16C14.867 22.16 15.0056 22.1413 15.1283 22.104C15.251 22.0667 15.387 22.016 15.5363 21.952C15.611 21.92 15.683 21.8933 15.7523 21.872C15.8216 21.8453 15.883 21.832 15.9363 21.832ZM14.5603 19.808C14.331 19.808 14.147 19.8827 14.0083 20.032C13.8696 20.176 13.787 20.3867 13.7603 20.664H15.3043C15.2883 20.3813 15.2163 20.168 15.0883 20.024C14.9656 19.88 14.7896 19.808 14.5603 19.808ZM19.1558 22.168C19.3158 22.1787 19.4331 22.2187 19.5078 22.288C19.5825 22.3573 19.6198 22.4587 19.6198 22.592C19.6198 22.7467 19.5585 22.864 19.4358 22.944C19.3131 23.024 19.1371 23.056 18.9078 23.04L18.6838 23.024C17.7505 22.9493 17.2838 22.4613 17.2838 21.56V19.976H16.9638C16.7878 19.976 16.6545 19.9387 16.5638 19.864C16.4731 19.784 16.4278 19.672 16.4278 19.528C16.4278 19.3787 16.4731 19.2667 16.5638 19.192C16.6545 19.112 16.7878 19.072 16.9638 19.072H17.2838V18.448C17.2838 18.272 17.3371 18.1333 17.4438 18.032C17.5558 17.9307 17.7051 17.88 17.8918 17.88C18.0785 17.88 18.2251 17.9307 18.3318 18.032C18.4385 18.1333 18.4918 18.272 18.4918 18.448V19.072H19.0518C19.4145 19.072 19.5958 19.224 19.5958 19.528C19.5958 19.672 19.5505 19.784 19.4598 19.864C19.3691 19.9387 19.2331 19.976 19.0518 19.976H18.4918V21.648C18.4918 21.808 18.5291 21.9307 18.6038 22.016C18.6785 22.096 18.7878 22.1413 18.9318 22.152L19.1558 22.168ZM21.8816 23.064C21.4762 23.064 21.1216 22.9813 20.8176 22.816C20.5136 22.6507 20.2789 22.416 20.1136 22.112C19.9536 21.808 19.8736 21.4507 19.8736 21.04C19.8736 20.6293 19.9589 20.2693 20.1296 19.96C20.3056 19.6453 20.5509 19.4027 20.8656 19.232C21.1802 19.0613 21.5429 18.976 21.9536 18.976C22.1669 18.976 22.3802 19.0053 22.5936 19.064C22.8122 19.1227 23.0069 19.2053 23.1776 19.312C23.3429 19.4133 23.4256 19.5627 23.4256 19.76C23.4256 19.8987 23.3936 20.0133 23.3296 20.104C23.2656 20.1893 23.1802 20.232 23.0736 20.232C23.0042 20.232 22.9376 20.2213 22.8736 20.2C22.8149 20.1733 22.7349 20.136 22.6336 20.088C22.5216 20.0293 22.4202 19.984 22.3296 19.952C22.2442 19.92 22.1456 19.904 22.0336 19.904C21.7349 19.904 21.5056 20 21.3456 20.192C21.1909 20.3787 21.1136 20.6533 21.1136 21.016C21.1136 21.3787 21.1909 21.656 21.3456 21.848C21.5056 22.04 21.7349 22.136 22.0336 22.136C22.1456 22.136 22.2442 22.1227 22.3296 22.096C22.4149 22.064 22.5189 22.016 22.6416 21.952C22.7429 21.904 22.8229 21.8693 22.8816 21.848C22.9402 21.8213 23.0042 21.808 23.0736 21.808C23.1749 21.808 23.2576 21.8533 23.3216 21.944C23.3909 22.0347 23.4256 22.1493 23.4256 22.288C23.4256 22.4853 23.3429 22.632 23.1776 22.728C23.0069 22.8347 22.8096 22.9173 22.5856 22.976C22.3616 23.0347 22.1269 23.064 21.8816 23.064ZM26.5067 18.976C27.4187 18.976 27.8747 19.528 27.8747 20.632V22.48C27.8747 22.656 27.8187 22.7947 27.7067 22.896C27.6 22.9973 27.4534 23.048 27.2667 23.048C27.08 23.048 26.9334 22.9973 26.8267 22.896C26.72 22.7947 26.6667 22.656 26.6667 22.48V20.616C26.6667 20.3813 26.616 20.208 26.5147 20.096C26.4187 19.9787 26.2667 19.92 26.0587 19.92C25.808 19.92 25.6054 20 25.4507 20.16C25.3014 20.32 25.2267 20.5333 25.2267 20.8V22.48C25.2267 22.656 25.1734 22.7947 25.0667 22.896C24.96 22.9973 24.8134 23.048 24.6267 23.048C24.44 23.048 24.2907 22.9973 24.1787 22.896C24.072 22.7947 24.0187 22.656 24.0187 22.48V17.872C24.0187 17.7067 24.0747 17.5733 24.1867 17.472C24.304 17.3707 24.456 17.32 24.6427 17.32C24.8187 17.32 24.96 17.368 25.0667 17.464C25.1734 17.56 25.2267 17.688 25.2267 17.848V19.592C25.3654 19.3893 25.544 19.2373 25.7627 19.136C25.9814 19.0293 26.2294 18.976 26.5067 18.976Z" fill="white"/>
</g>
<defs>
<filter id="filter0_d_1834_5" x="18.75" y="0.0249023" width="13.2137" height="13.2251" filterUnits="userSpaceOnUse" color-interpolation-filters="sRGB">
<feFlood flood-opacity="0" result="BackgroundImageFix"/>
<feColorMatrix in="SourceAlpha" type="matrix" values="0 0 0 0 0 0 0 0 0 0 0 0 0 0 0 0 0 0 127 0" result="hardAlpha"/>
<feOffset dy="1"/>
<feGaussianBlur stdDeviation="0.5"/>
<feColorMatrix type="matrix" values="0 0 0 0 0.5 0 0 0 0 0.313725 0 0 0 0 0 0 0 0 0.25 0"/>
<feBlend mode="normal" in2="BackgroundImageFix" result="effect1_dropShadow_1834_5"/>
<feBlend mode="normal" in="SourceGraphic" in2="effect1_dropShadow_1834_5" result="shape"/>
</filter>
<clipPath id="clip0_1834_5">
<rect width="31" height="40" fill="white"/>
</clipPath>
</defs>
</svg>
