<svg width="31" height="40" viewBox="0 0 31 40" fill="none" xmlns="http://www.w3.org/2000/svg">
<path d="M21.9776 0H1.05472C0.472209 0 0 0.467857 0 1.37571V39.2857C0 39.5321 0.472209 40 1.05472 40H29.9453C30.5278 40 31 39.5321 31 39.2857V9.27C31 8.77286 30.933 8.61286 30.8147 8.495L22.426 0.183571C22.307 0.0664286 22.1455 0 21.9776 0Z" fill="#F2F2E8"/>
<path d="M29.9453 40H1.05472C0.472209 40 0 39.5322 0 38.955V27.8572H31V38.955C31 39.5322 30.5278 40 29.9453 40Z" fill="#C6C9CC"/>
<path d="M6.9 30.51V34.83C6.9 35.3033 7.02333 35.6667 7.27 35.92C7.51667 36.1667 7.86333 36.29 8.31 36.29C8.76333 36.29 9.11333 36.1667 9.36 35.92C9.60667 35.6667 9.73 35.3033 9.73 34.83V30.51H11.14V34.82C11.14 35.4133 11.01 35.9167 10.75 36.33C10.4967 36.7367 10.1533 37.0433 9.72 37.25C9.29333 37.4567 8.81667 37.56 8.29 37.56C7.77 37.56 7.29667 37.4567 6.87 37.25C6.45 37.0433 6.11667 36.7367 5.87 36.33C5.62333 35.9167 5.5 35.4133 5.5 34.82V30.51H6.9Z" fill="white"/>
<path d="M18.4627 37.49H17.0627L13.8927 32.7V37.49H12.4927V30.5H13.8927L17.0627 35.3V30.5H18.4627V37.49Z" fill="white"/>
<path d="M23.7862 37.49L21.2462 34.38V37.49H19.8462V30.51H21.2462V33.64L23.7862 30.51H25.4762L22.5962 33.97L25.5562 37.49H23.7862Z" fill="white"/>
<path d="M22.3489 0.107666V8.57124H30.8912L22.3489 0.107666Z" fill="#D9D7CA"/>
<path d="M14.8278 18.5499C14.4611 18.5499 14.1695 18.4249 13.9528 18.1749C13.7528 17.9249 13.6528 17.5916 13.6528 17.1749C13.6528 16.3249 13.8028 15.6166 14.1028 15.0499C14.4195 14.4832 14.8778 13.8582 15.4778 13.1749C15.9278 12.6582 16.2528 12.2332 16.4528 11.8999C16.6695 11.5499 16.7778 11.1582 16.7778 10.7249C16.7778 10.2582 16.6028 9.89157 16.2528 9.6249C15.9195 9.34157 15.4611 9.1999 14.8778 9.1999C14.3445 9.1999 13.8445 9.30824 13.3778 9.5249C12.9278 9.74157 12.3194 10.0749 11.5528 10.5249C11.0694 10.7916 10.6694 10.9249 10.3528 10.9249C10.0028 10.9249 9.70278 10.7749 9.45278 10.4749C9.21945 10.1582 9.10278 9.78324 9.10278 9.3499C9.10278 9.0499 9.15278 8.7999 9.25278 8.5999C9.36945 8.38324 9.54445 8.18324 9.77778 7.9999C10.5111 7.41657 11.3528 6.96657 12.3028 6.6499C13.2695 6.31657 14.2361 6.1499 15.2028 6.1499C16.2361 6.1499 17.1611 6.33324 17.9778 6.6999C18.8111 7.06657 19.4528 7.5749 19.9028 8.2249C20.3695 8.85824 20.6028 9.5749 20.6028 10.3749C20.6028 10.9916 20.4778 11.5582 20.2278 12.0749C19.9945 12.5749 19.7111 13.0166 19.3778 13.3999C19.0445 13.7666 18.5944 14.2249 18.0278 14.7749C17.3945 15.3582 16.9195 15.8499 16.6028 16.2499C16.2861 16.6332 16.0861 17.0666 16.0028 17.5499C15.9361 17.8666 15.7945 18.1166 15.5778 18.2999C15.3778 18.4666 15.1278 18.5499 14.8278 18.5499ZM14.8778 24.1499C14.2611 24.1499 13.7528 23.9499 13.3528 23.5499C12.9528 23.1332 12.7528 22.6166 12.7528 21.9999C12.7528 21.3832 12.9528 20.8749 13.3528 20.4749C13.7528 20.0582 14.2611 19.8499 14.8778 19.8499C15.4778 19.8499 15.9778 20.0582 16.3778 20.4749C16.7778 20.8749 16.9778 21.3832 16.9778 21.9999C16.9778 22.6166 16.7778 23.1332 16.3778 23.5499C15.9778 23.9499 15.4778 24.1499 14.8778 24.1499Z" fill="#C6C9CC"/>
</svg>
