<svg width="31" height="40" viewBox="0 0 31 40" fill="none" xmlns="http://www.w3.org/2000/svg">
<path fill-rule="evenodd" clip-rule="evenodd" d="M2.49998 0H21.7412L30.9999 9.215V37.5C30.9999 38.8812 29.88 40 28.4999 40H2.49998C1.11994 40 0 38.8812 0 37.5V2.49998C0 1.11877 1.12007 0 2.49998 0Z" fill="white"/>
<path d="M2.49998 0.5H21.5348L30.4999 9.4228V37.5C30.4999 38.6049 29.604 39.5 28.4999 39.5H2.49998C1.39594 39.5 0.5 38.6049 0.5 37.5V2.49998C0.5 1.39508 1.39604 0.5 2.49998 0.5Z" stroke="#E8E9EB"/>
<path d="M30.5001 9.5H23.7294C22.4987 9.5 21.5 8.50231 21.5 7.27286V0.5" stroke="#E8E9EB"/>
<path d="M14.9783 25.0222C14.6594 25.0222 14.4058 24.9111 14.2174 24.6889C14.0435 24.4667 13.9565 24.1704 13.9565 23.8C13.9565 23.0444 14.087 22.4148 14.3478 21.9111C14.6232 21.4074 15.0217 20.8519 15.5435 20.2444C15.9348 19.7852 16.2174 19.4074 16.3913 19.1111C16.5797 18.8 16.6739 18.4519 16.6739 18.0667C16.6739 17.6519 16.5217 17.3259 16.2174 17.0889C15.9275 16.837 15.529 16.7111 15.0217 16.7111C14.558 16.7111 14.1232 16.8074 13.7174 17C13.3261 17.1926 12.7971 17.4889 12.1304 17.8889C11.7101 18.1259 11.3623 18.2444 11.087 18.2444C10.7826 18.2444 10.5217 18.1111 10.3043 17.8444C10.1014 17.563 10 17.2296 10 16.8444C10 16.5778 10.0435 16.3556 10.1304 16.1778C10.2319 15.9852 10.3841 15.8074 10.587 15.6444C11.2246 15.1259 11.9565 14.7259 12.7826 14.4444C13.6232 14.1481 14.4638 14 15.3043 14C16.2029 14 17.0072 14.163 17.7174 14.4889C18.442 14.8148 19 15.2667 19.3913 15.8444C19.7971 16.4074 20 17.0444 20 17.7556C20 18.3037 19.8913 18.8074 19.6739 19.2667C19.471 19.7111 19.2246 20.1037 18.9348 20.4444C18.6449 20.7704 18.2536 21.1778 17.7609 21.6667C17.2101 22.1852 16.7971 22.6222 16.5217 22.9778C16.2464 23.3185 16.0725 23.7037 16 24.1333C15.942 24.4148 15.8188 24.637 15.6304 24.8C15.4565 24.9481 15.2391 25.0222 14.9783 25.0222ZM15.0217 30C14.4855 30 14.0435 29.8222 13.6957 29.4667C13.3478 29.0963 13.1739 28.637 13.1739 28.0889C13.1739 27.5407 13.3478 27.0889 13.6957 26.7333C14.0435 26.363 14.4855 26.1778 15.0217 26.1778C15.5435 26.1778 15.9783 26.363 16.3261 26.7333C16.6739 27.0889 16.8478 27.5407 16.8478 28.0889C16.8478 28.637 16.6739 29.0963 16.3261 29.4667C15.9783 29.8222 15.5435 30 15.0217 30Z" fill="#C6C9CC"/>
</svg>
