<svg width="31" height="40" viewBox="0 0 31 40" fill="none" xmlns="http://www.w3.org/2000/svg">
<path d="M21.9776 0H1.05472C0.472209 0 0 0.467857 0 1.37571V39.2857C0 39.5321 0.472209 40 1.05472 40H29.9453C30.5278 40 31 39.5321 31 39.2857V9.27C31 8.77286 30.933 8.61286 30.8147 8.495L22.426 0.183571C22.307 0.0664286 22.1455 0 21.9776 0Z" fill="#F2F2E8"/>
<path d="M22.3489 0.107666V8.57124H30.8912L22.3489 0.107666Z" fill="#D9D7CA"/>
<path d="M29.9453 40H1.05472C0.472209 40 0 39.5322 0 38.955V27.8572H31V38.955C31 39.5322 30.5278 40 29.9453 40Z" fill="#09B66D"/>
<path d="M10.4764 34.3606L12.3029 37.857H10.9457L9.80286 35.142H9.705L8.47429 37.857H7.11714L8.94357 34.3606L7 30.6592H8.33786L9.60714 33.5892H9.705L11.0821 30.6592H12.42L10.4764 34.3606Z" fill="white"/>
<path d="M15.2322 30.6599V36.9685H18.5429V37.8571H14.0408V30.6599H15.2322Z" fill="white"/>
<path d="M23.8065 35.8842C23.8065 36.1442 23.7529 36.397 23.645 36.6413C23.5372 36.8856 23.3865 37.0999 23.1915 37.2856C22.9965 37.4713 22.755 37.6192 22.4686 37.7299C22.1822 37.8406 21.8565 37.8956 21.4922 37.8956C21.3358 37.8956 21.175 37.887 21.0086 37.8713C20.8422 37.8556 20.675 37.827 20.5057 37.7884C20.3365 37.7492 20.175 37.6956 20.0222 37.627C19.8693 37.5584 19.7372 37.4756 19.6265 37.3777L19.8315 36.5377C19.9222 36.5899 20.0379 36.6406 20.1779 36.6892C20.3179 36.7377 20.4622 36.7834 20.6122 36.8256C20.7615 36.8684 20.9115 36.902 21.0615 36.9284C21.2108 36.9542 21.3508 36.9677 21.4815 36.9677C21.8786 36.9677 22.1829 36.8749 22.3943 36.6892C22.6058 36.5034 22.7115 36.2284 22.7115 35.8642C22.7115 35.6427 22.6365 35.4542 22.4872 35.2977C22.3372 35.1413 22.15 34.9999 21.9258 34.8727C21.7015 34.7456 21.4586 34.6192 21.1979 34.492C20.9372 34.3649 20.6929 34.2149 20.4658 34.0427C20.2379 33.8706 20.0493 33.667 19.8993 33.4327C19.7493 33.1984 19.675 32.9056 19.675 32.5542C19.675 32.2356 19.7336 31.952 19.8507 31.7049C19.9679 31.4577 20.1258 31.247 20.3243 31.0749C20.5229 30.9027 20.7543 30.7706 21.0179 30.6792C21.2815 30.5877 21.56 30.5427 21.8529 30.5427C22.1522 30.5427 22.455 30.5706 22.7608 30.6256C23.0665 30.6806 23.3136 30.7706 23.5029 30.8942C23.4636 30.9784 23.4179 31.0713 23.3665 31.1727C23.3143 31.2742 23.265 31.3677 23.22 31.4556C23.1743 31.5434 23.135 31.617 23.1029 31.6756C23.07 31.7342 23.0508 31.767 23.0443 31.7734C23.005 31.7542 22.9615 31.7284 22.9122 31.6956C22.8629 31.6627 22.7929 31.6306 22.7022 31.5977C22.6108 31.5649 22.4908 31.5427 22.3407 31.5292C22.1908 31.5156 21.9986 31.5192 21.7643 31.5392C21.6336 31.5527 21.5108 31.5892 21.3929 31.6513C21.275 31.7134 21.1715 31.7892 21.08 31.8806C20.9886 31.972 20.9172 32.0742 20.865 32.1884C20.8129 32.302 20.7872 32.412 20.7872 32.5156C20.7872 32.7756 20.8615 32.9856 21.0115 33.1456C21.1608 33.3056 21.3465 33.4449 21.5679 33.5656C21.7893 33.6863 22.03 33.8034 22.2908 33.917C22.5508 34.0306 22.7936 34.1699 23.0186 34.332C23.2436 34.4942 23.43 34.6984 23.58 34.942C23.7315 35.1863 23.8065 35.4999 23.8065 35.8842Z" fill="white"/>
<path d="M12.143 11.4287V8.57153H3.57153V11.4287V12.8572V14.2858V15.7144V17.143V18.5715V20.0001V21.4287V24.2858H10.7144H12.143H27.143V21.4287V20.0001V18.5715V17.143V15.7144V14.2858V11.4287H12.143ZM5.0001 10.0001H10.7144V11.4287H5.0001V10.0001ZM5.0001 12.8572H10.7144V14.2858H5.0001V12.8572ZM5.0001 15.7144H10.7144V17.143H5.0001V15.7144ZM5.0001 18.5715H10.7144V20.0001H5.0001V18.5715ZM10.7144 22.8572H5.0001V21.4287H10.7144V22.8572ZM25.7144 22.8572H12.143V21.4287H25.7144V22.8572ZM25.7144 20.0001H12.143V18.5715H25.7144V20.0001ZM25.7144 17.143H12.143V15.7144H25.7144V17.143ZM12.143 14.2858V12.8572H25.7144V14.2858H12.143Z" fill="#B8C8C1"/>
</svg>
