<svg width="31" height="40" viewBox="0 0 31 40" fill="none" xmlns="http://www.w3.org/2000/svg">
<path fill-rule="evenodd" clip-rule="evenodd" d="M2.49998 0H21.7412L30.9999 9.215V37.5C30.9999 38.8812 29.88 40 28.4999 40H2.49998C1.11994 40 0 38.8812 0 37.5V2.49998C0 1.11877 1.12007 0 2.49998 0Z" fill="white"/>
<path d="M2.49998 0.5H21.5348L30.4999 9.4228V37.5C30.4999 38.6049 29.604 39.5 28.4999 39.5H2.49998C1.39594 39.5 0.5 38.6049 0.5 37.5V2.49998C0.5 1.39508 1.39604 0.5 2.49998 0.5Z" stroke="#E8E9EB"/>
<path d="M30.5001 9.5H23.7294C22.4987 9.5 21.5 8.50231 21.5 7.27286V0.5" stroke="#E8E9EB"/>
<path d="M5 16H26V20H5V16Z" fill="#E8E9EB"/>
<path fill-rule="evenodd" clip-rule="evenodd" d="M4.5 16.5C4.5 15.9477 4.94772 15.5 5.5 15.5H25.5C26.0523 15.5 26.5 15.9477 26.5 16.5V27.5C26.5 28.0523 26.0523 28.5 25.5 28.5H5.5C4.94772 28.5 4.5 28.0523 4.5 27.5V16.5ZM5.5 16.5V19.5H25.5V16.5H5.5ZM25.5 20.5H19.5V23.5H25.5V20.5ZM25.5 24.5H19.5V27.5H25.5V24.5ZM18.5 27.5V24.5H12.5V27.5H18.5ZM11.5 27.5V24.5H5.5V27.5H11.5ZM5.5 23.5H11.5V20.5H5.5V23.5ZM12.5 20.5V23.5H18.5V20.5H12.5Z" fill="#8A9099"/>
</svg>
