<svg width="31" height="40" viewBox="0 0 31 40" fill="none" xmlns="http://www.w3.org/2000/svg">
<g clip-path="url(#clip0_1708_35)">
<path fill-rule="evenodd" clip-rule="evenodd" d="M2.49998 0H19.7412L30.9999 11.215V37.5C30.9999 38.8812 29.88 40 28.4999 40H2.49998C1.11994 40 0 38.8812 0 37.5V2.49998C0 1.11877 1.12007 0 2.49998 0Z" fill="#09B66D"/>
<g filter="url(#filter0_d_1708_35)">
<path fill-rule="evenodd" clip-rule="evenodd" d="M30.9638 11.2499H22.25C20.8699 11.2499 19.75 10.13 19.75 8.74992V0.0249023L30.9638 11.2499Z" fill="#9AF5C0"/>
</g>
<path d="M12.4206 22.88C12.5473 23.0267 12.6106 23.18 12.6106 23.34C12.6106 23.5333 12.5339 23.7033 12.3806 23.85C12.2339 23.99 12.0639 24.06 11.8706 24.06C11.6706 24.06 11.5006 23.9767 11.3606 23.81L9.48059 21.51L7.58059 23.81C7.43392 23.9767 7.26392 24.06 7.07059 24.06C6.88392 24.06 6.71392 23.99 6.56059 23.85C6.41392 23.7033 6.34059 23.5333 6.34059 23.34C6.34059 23.1733 6.40059 23.02 6.52059 22.88L8.57059 20.44L6.59059 18.07C6.46392 17.9233 6.40059 17.77 6.40059 17.61C6.40059 17.4167 6.47392 17.25 6.62059 17.11C6.77392 16.9633 6.94392 16.89 7.13059 16.89C7.33059 16.89 7.50392 16.9767 7.65059 17.15L9.48059 19.36L11.2906 17.15C11.4373 16.9767 11.6106 16.89 11.8106 16.89C11.9973 16.89 12.1639 16.9633 12.3106 17.11C12.4639 17.25 12.5406 17.4167 12.5406 17.61C12.5406 17.7767 12.4806 17.93 12.3606 18.07L10.3806 20.44L12.4206 22.88ZM14.2786 24C14.0453 24 13.8653 23.9367 13.7386 23.81C13.612 23.6833 13.5486 23.5033 13.5486 23.27V17.67C13.5486 17.4367 13.6186 17.25 13.7586 17.11C13.8986 16.97 14.0886 16.9 14.3286 16.9C14.5686 16.9 14.7586 16.97 14.8986 17.11C15.0386 17.25 15.1086 17.4367 15.1086 17.67V22.73H17.6686C18.1553 22.73 18.3986 22.9433 18.3986 23.37C18.3986 23.79 18.1553 24 17.6686 24H14.2786ZM21.6257 24.09C21.0991 24.09 20.6091 24.03 20.1557 23.91C19.7024 23.7833 19.3324 23.6067 19.0457 23.38C18.9457 23.3067 18.8724 23.23 18.8257 23.15C18.7857 23.0633 18.7657 22.9567 18.7657 22.83C18.7657 22.6633 18.8157 22.5167 18.9157 22.39C19.0224 22.2633 19.1424 22.2 19.2757 22.2C19.3491 22.2 19.4191 22.2133 19.4857 22.24C19.5591 22.26 19.6457 22.3 19.7457 22.36C20.0324 22.54 20.3224 22.6733 20.6157 22.76C20.9091 22.84 21.2324 22.88 21.5857 22.88C22.0257 22.88 22.3624 22.8067 22.5957 22.66C22.8291 22.5133 22.9457 22.3033 22.9457 22.03C22.9457 21.8233 22.8357 21.6567 22.6157 21.53C22.4024 21.4033 22.0191 21.2833 21.4657 21.17C20.8457 21.0433 20.3491 20.89 19.9757 20.71C19.6091 20.53 19.3391 20.3067 19.1657 20.04C18.9991 19.7733 18.9157 19.45 18.9157 19.07C18.9157 18.65 19.0357 18.2733 19.2757 17.94C19.5224 17.6 19.8591 17.3367 20.2857 17.15C20.7191 16.9567 21.2057 16.86 21.7457 16.86C22.6924 16.86 23.4724 17.0967 24.0857 17.57C24.1857 17.65 24.2557 17.7333 24.2957 17.82C24.3424 17.9 24.3657 18 24.3657 18.12C24.3657 18.2867 24.3124 18.4333 24.2057 18.56C24.1057 18.6867 23.9891 18.75 23.8557 18.75C23.7824 18.75 23.7124 18.74 23.6457 18.72C23.5857 18.7 23.4991 18.6567 23.3857 18.59C23.1124 18.4167 22.8591 18.2867 22.6257 18.2C22.3991 18.1133 22.1091 18.07 21.7557 18.07C21.3491 18.07 21.0291 18.15 20.7957 18.31C20.5624 18.4633 20.4457 18.6767 20.4457 18.95C20.4457 19.11 20.4891 19.2433 20.5757 19.35C20.6691 19.45 20.8191 19.54 21.0257 19.62C21.2391 19.7 21.5391 19.7833 21.9257 19.87C22.8324 20.07 23.4824 20.3267 23.8757 20.64C24.2757 20.9533 24.4757 21.3833 24.4757 21.93C24.4757 22.3567 24.3557 22.7333 24.1157 23.06C23.8824 23.3867 23.5491 23.64 23.1157 23.82C22.6891 24 22.1924 24.09 21.6257 24.09Z" fill="white"/>
</g>
<defs>
<filter id="filter0_d_1708_35" x="18.75" y="0.0249023" width="13.2137" height="13.2251" filterUnits="userSpaceOnUse" color-interpolation-filters="sRGB">
<feFlood flood-opacity="0" result="BackgroundImageFix"/>
<feColorMatrix in="SourceAlpha" type="matrix" values="0 0 0 0 0 0 0 0 0 0 0 0 0 0 0 0 0 0 127 0" result="hardAlpha"/>
<feOffset dy="1"/>
<feGaussianBlur stdDeviation="0.5"/>
<feColorMatrix type="matrix" values="0 0 0 0 0.0247253 0 0 0 0 0.5 0 0 0 0 0.299451 0 0 0 0.25 0"/>
<feBlend mode="normal" in2="BackgroundImageFix" result="effect1_dropShadow_1708_35"/>
<feBlend mode="normal" in="SourceGraphic" in2="effect1_dropShadow_1708_35" result="shape"/>
</filter>
<clipPath id="clip0_1708_35">
<rect width="31" height="40" fill="white"/>
</clipPath>
</defs>
</svg>
