<svg width="31" height="40" viewBox="0 0 31 40" fill="none" xmlns="http://www.w3.org/2000/svg">
<path d="M21.9776 0H1.05472C0.472209 0 0 0.467857 0 1.37571V39.2857C0 39.5321 0.472209 40 1.05472 40H29.9453C30.5278 40 31 39.5321 31 39.2857V9.27C31 8.77286 30.933 8.61286 30.8147 8.495L22.426 0.183571C22.307 0.0664286 22.1455 0 21.9776 0Z" fill="#F2F2E8"/>
<path d="M22.3489 0.107666V8.57124H30.8912L22.3489 0.107666Z" fill="#D9D7CA"/>
<path d="M29.9453 40H1.05472C0.472209 40 0 39.5322 0 38.955V27.8572H31V38.955C31 39.5322 30.5278 40 29.9453 40Z" fill="#FAB85B"/>
<path d="M13.4041 30.6599V31.6071L9.97628 36.7535L9.78128 36.9099H13.4041V37.8571H8.61914V36.9099L12.047 31.7635L12.252 31.6071H8.61914V30.6599H13.4041Z" fill="white"/>
<path d="M16.2649 37.8571H15.0735V30.6599H16.2649V37.8571Z" fill="white"/>
<path d="M19.2241 37.8571H18.052V30.6599H20.122C20.4277 30.6599 20.7306 30.7085 21.0299 30.8063C21.3291 30.9042 21.5977 31.0506 21.8356 31.2456C22.0734 31.4406 22.2656 31.6771 22.412 31.9535C22.5584 32.2299 22.632 32.5406 22.632 32.8863C22.632 33.2513 22.5699 33.5813 22.4463 33.8778C22.3227 34.1742 22.1499 34.4235 21.9284 34.6249C21.707 34.8263 21.4399 34.9828 21.1277 35.0935C20.8156 35.2042 20.4699 35.2592 20.0927 35.2592H19.2234V37.8571H19.2241ZM19.2241 31.5485V34.3999H20.2984C20.4413 34.3999 20.5827 34.3756 20.7234 34.3263C20.8634 34.2778 20.992 34.1978 21.1091 34.0871C21.2263 33.9763 21.3206 33.8221 21.392 33.6235C21.4634 33.4249 21.4991 33.1792 21.4991 32.8863C21.4991 32.7692 21.4827 32.6335 21.4506 32.4813C21.4177 32.3285 21.3513 32.1821 21.2506 32.0421C21.1491 31.9021 21.0077 31.7849 20.8256 31.6906C20.6434 31.5963 20.402 31.5492 20.1027 31.5492H19.2241V31.5485Z" fill="white"/>
<path d="M15.7142 17.1428V15.7142H17.1428V14.2856H15.7142V12.8571H17.1428V11.4285H15.7142V9.99993H17.1428V8.57136H15.7142V7.14279H17.1428V5.71422H15.7142V4.28564H14.2856V5.71422H12.857V7.14279H14.2856V8.57136H12.857V9.99993H14.2856V11.4285H12.857V12.8571H14.2856V14.2856H12.857V15.7142H14.2856V17.1428H11.4285V20.7142C11.4285 22.6835 13.0306 24.2856 14.9999 24.2856C16.9692 24.2856 18.5713 22.6835 18.5713 20.7142V17.1428H15.7142ZM17.1428 20.7142C17.1428 21.8956 16.1813 22.8571 14.9999 22.8571C13.8185 22.8571 12.857 21.8956 12.857 20.7142V18.5714H17.1428V20.7142Z" fill="#BFB9B0"/>
<path d="M14.2858 21.4286H15.7144C16.1087 21.4286 16.4287 21.1093 16.4287 20.7143C16.4287 20.3193 16.1087 20 15.7144 20H14.2858C13.8915 20 13.5715 20.3193 13.5715 20.7143C13.5715 21.1093 13.8915 21.4286 14.2858 21.4286Z" fill="#BFB9B0"/>
</svg>
