<svg width="31" height="40" viewBox="0 0 31 40" fill="none" xmlns="http://www.w3.org/2000/svg">
<path fill-rule="evenodd" clip-rule="evenodd" d="M2.49998 0H21.7412L30.9999 9.215V37.5C30.9999 38.8812 29.88 40 28.4999 40H2.49998C1.11994 40 0 38.8812 0 37.5V2.49998C0 1.11877 1.12007 0 2.49998 0Z" fill="white"/>
<path d="M2.49998 0.5H21.5348L30.4999 9.4228V37.5C30.4999 38.6049 29.604 39.5 28.4999 39.5H2.49998C1.39594 39.5 0.5 38.6049 0.5 37.5V2.49998C0.5 1.39508 1.39604 0.5 2.49998 0.5Z" stroke="#E8E9EB"/>
<path d="M30.5001 9.5H23.7294C22.4987 9.5 21.5 8.50231 21.5 7.27286V0.5" stroke="#E8E9EB"/>
<path d="M16.0562 23.9286V22.7143H17.2705V21.5H16.0562V20.2857H17.2705V19.0714H16.0562V17.8571H17.2705V16.6429H16.0562V15.4286H17.2705V14.2143H16.0562V13H14.8419V14.2143H13.6276V15.4286H14.8419V16.6429H13.6276V17.8571H14.8419V19.0714H13.6276V20.2857H14.8419V21.5H13.6276V22.7143H14.8419V23.9286H12.4133V26.9643C12.4133 28.6382 13.7752 30 15.449 30C17.1229 30 18.4848 28.6382 18.4848 26.9643V23.9286H16.0562ZM17.2705 26.9643C17.2705 27.9685 16.4533 28.7857 15.449 28.7857C14.4448 28.7857 13.6276 27.9685 13.6276 26.9643V25.1429H17.2705V26.9643Z" fill="#8A9099"/>
<path d="M14.842 27.5715H16.0563C16.3914 27.5715 16.6634 27.3001 16.6634 26.9643C16.6634 26.6286 16.3914 26.3572 16.0563 26.3572H14.842C14.5069 26.3572 14.2349 26.6286 14.2349 26.9643C14.2349 27.3001 14.5069 27.5715 14.842 27.5715Z" fill="#8A9099"/>
</svg>
