<svg width="492" height="84" viewBox="0 0 492 84" fill="none" xmlns="http://www.w3.org/2000/svg">
<path fill-rule="evenodd" clip-rule="evenodd" d="M445.899 41.755C446.199 41.4815 446.665 41.5032 446.938 41.8037C447.212 42.1041 447.19 42.5695 446.89 42.8431L442.999 46.3861L439.107 42.8431C438.807 42.5695 438.785 42.1041 439.059 41.8037C439.332 41.5032 439.798 41.4815 440.098 41.755L442.263 43.726V34.7357C442.263 34.3294 442.592 34 442.999 34C443.405 34 443.734 34.3294 443.734 34.7357V43.726L445.899 41.755ZM436.455 46.3633C436.455 45.9617 436.129 45.6361 435.727 45.6361C435.326 45.6361 435 45.9617 435 46.3633V47.333C435 48.8058 436.194 49.9997 437.667 49.9997H448.333C449.806 49.9997 451 48.8058 451 47.333V46.3633C451 45.9617 450.674 45.6361 450.273 45.6361C449.871 45.6361 449.545 45.9617 449.545 46.3633V47.333C449.545 48.0025 449.003 48.5451 448.333 48.5451H437.667C436.997 48.5451 436.455 48.0025 436.455 47.333V46.3633Z" fill="#8A9099"/>
<path fill-rule="evenodd" clip-rule="evenodd" d="M480.05 35.705C480.181 35.5737 480.359 35.5 480.545 35.5H483.445C483.631 35.5 483.809 35.5737 483.94 35.705C484.071 35.8363 484.145 36.0143 484.145 36.2V36.9L479.845 36.9V36.2C479.845 36.0143 479.919 35.8363 480.05 35.705ZM478.345 36.9V36.2C478.345 35.6165 478.577 35.0569 478.989 34.6444C479.402 34.2318 479.962 34 480.545 34H483.445C484.028 34 484.588 34.2318 485.001 34.6444C485.413 35.0569 485.645 35.6165 485.645 36.2V36.9L488.52 36.9C488.934 36.9 489.27 37.2358 489.27 37.65C489.27 38.0642 488.934 38.4 488.52 38.4H487.82V47.8C487.82 48.3835 487.588 48.9431 487.176 49.3556C486.763 49.7682 486.203 50 485.62 50H478.37C477.787 50 477.227 49.7682 476.814 49.3556C476.402 48.9431 476.17 48.3835 476.17 47.8V38.4H475.47C475.056 38.4 474.72 38.0642 474.72 37.65C474.72 37.2358 475.056 36.9 475.47 36.9H478.345ZM477.67 47.8V38.4H486.32V47.8C486.32 47.9857 486.246 48.1637 486.115 48.295C485.984 48.4263 485.806 48.5 485.62 48.5H478.37C478.184 48.5 478.006 48.4263 477.875 48.295C477.744 48.1637 477.67 47.9857 477.67 47.8ZM480.545 40.525C480.959 40.525 481.295 40.8608 481.295 41.275V45.625C481.295 46.0392 480.959 46.375 480.545 46.375C480.131 46.375 479.795 46.0392 479.795 45.625V41.275C479.795 40.8608 480.131 40.525 480.545 40.525ZM484.195 41.275C484.195 40.8608 483.859 40.525 483.445 40.525C483.031 40.525 482.695 40.8608 482.695 41.275V45.625C482.695 46.0392 483.031 46.375 483.445 46.375C483.859 46.375 484.195 46.0392 484.195 45.625V41.275Z" fill="#8A9099"/>
<path d="M107.322 62.984H102.408V66.176C102.623 65.8773 102.94 65.6347 103.36 65.448C103.78 65.252 104.233 65.154 104.718 65.154C105.493 65.154 106.123 65.3173 106.608 65.644C107.093 65.9613 107.439 66.3767 107.644 66.89C107.859 67.394 107.966 67.9307 107.966 68.5C107.966 69.172 107.84 69.774 107.588 70.306C107.336 70.838 106.949 71.258 106.426 71.566C105.913 71.874 105.273 72.028 104.508 72.028C103.528 72.028 102.735 71.776 102.128 71.272C101.521 70.768 101.153 70.096 101.022 69.256H102.268C102.389 69.788 102.646 70.2033 103.038 70.502C103.43 70.8007 103.925 70.95 104.522 70.95C105.259 70.95 105.815 70.7307 106.188 70.292C106.561 69.844 106.748 69.256 106.748 68.528C106.748 67.8 106.561 67.24 106.188 66.848C105.815 66.4467 105.264 66.246 104.536 66.246C104.041 66.246 103.607 66.3673 103.234 66.61C102.87 66.8433 102.604 67.1653 102.436 67.576H101.232V61.864H107.322V62.984ZM110.275 72.084C110.032 72.084 109.827 72 109.659 71.832C109.491 71.664 109.407 71.4587 109.407 71.216C109.407 70.9733 109.491 70.768 109.659 70.6C109.827 70.432 110.032 70.348 110.275 70.348C110.508 70.348 110.704 70.432 110.863 70.6C111.031 70.768 111.115 70.9733 111.115 71.216C111.115 71.4587 111.031 71.664 110.863 71.832C110.704 72 110.508 72.084 110.275 72.084ZM114.446 66.736C113.924 66.5307 113.522 66.232 113.242 65.84C112.962 65.448 112.822 64.972 112.822 64.412C112.822 63.908 112.948 63.4553 113.2 63.054C113.452 62.6433 113.826 62.3213 114.32 62.088C114.824 61.8453 115.431 61.724 116.14 61.724C116.85 61.724 117.452 61.8453 117.946 62.088C118.45 62.3213 118.828 62.6433 119.08 63.054C119.342 63.4553 119.472 63.908 119.472 64.412C119.472 64.9533 119.328 65.4293 119.038 65.84C118.749 66.2413 118.352 66.54 117.848 66.736C118.427 66.9133 118.884 67.226 119.22 67.674C119.566 68.1127 119.738 68.6447 119.738 69.27C119.738 69.8767 119.589 70.4087 119.29 70.866C118.992 71.314 118.567 71.664 118.016 71.916C117.475 72.1587 116.85 72.28 116.14 72.28C115.431 72.28 114.806 72.1587 114.264 71.916C113.732 71.664 113.317 71.314 113.018 70.866C112.72 70.4087 112.57 69.8767 112.57 69.27C112.57 68.6447 112.738 68.108 113.074 67.66C113.41 67.212 113.868 66.904 114.446 66.736ZM118.24 64.566C118.24 63.9967 118.054 63.558 117.68 63.25C117.307 62.942 116.794 62.788 116.14 62.788C115.496 62.788 114.988 62.942 114.614 63.25C114.241 63.558 114.054 64.0013 114.054 64.58C114.054 65.1027 114.246 65.5227 114.628 65.84C115.02 66.1573 115.524 66.316 116.14 66.316C116.766 66.316 117.27 66.1573 117.652 65.84C118.044 65.5133 118.24 65.0887 118.24 64.566ZM116.14 67.296C115.45 67.296 114.885 67.4593 114.446 67.786C114.008 68.1033 113.788 68.584 113.788 69.228C113.788 69.8253 113.998 70.306 114.418 70.67C114.848 71.034 115.422 71.216 116.14 71.216C116.859 71.216 117.428 71.034 117.848 70.67C118.268 70.306 118.478 69.8253 118.478 69.228C118.478 68.6027 118.264 68.1267 117.834 67.8C117.405 67.464 116.84 67.296 116.14 67.296ZM135.271 62.312V72H133.997V64.776L130.777 72H129.881L126.647 64.762V72H125.373V62.312H126.745L130.329 70.32L133.913 62.312H135.271ZM142.318 66.974C142.672 67.03 142.994 67.1747 143.284 67.408C143.582 67.6413 143.816 67.9307 143.984 68.276C144.161 68.6213 144.25 68.99 144.25 69.382C144.25 69.8767 144.124 70.3247 143.872 70.726C143.62 71.118 143.251 71.4307 142.766 71.664C142.29 71.888 141.725 72 141.072 72H137.432V62.242H140.932C141.594 62.242 142.159 62.354 142.626 62.578C143.092 62.7927 143.442 63.0867 143.676 63.46C143.909 63.8333 144.026 64.2533 144.026 64.72C144.026 65.2987 143.867 65.7793 143.55 66.162C143.242 66.5353 142.831 66.806 142.318 66.974ZM138.706 66.456H140.848C141.445 66.456 141.907 66.316 142.234 66.036C142.56 65.756 142.724 65.3687 142.724 64.874C142.724 64.3793 142.56 63.992 142.234 63.712C141.907 63.432 141.436 63.292 140.82 63.292H138.706V66.456ZM140.96 70.95C141.594 70.95 142.089 70.8007 142.444 70.502C142.798 70.2033 142.976 69.788 142.976 69.256C142.976 68.7147 142.789 68.29 142.416 67.982C142.042 67.6647 141.543 67.506 140.918 67.506H138.706V70.95H140.96Z" fill="#8A9099"/>
<path d="M102.324 37.242V43.416C102.324 44.284 102.534 44.928 102.954 45.348C103.383 45.768 103.976 45.978 104.732 45.978C105.479 45.978 106.062 45.768 106.482 45.348C106.911 44.928 107.126 44.284 107.126 43.416V37.242H108.4V43.402C108.4 44.214 108.237 44.9 107.91 45.46C107.583 46.0107 107.14 46.4213 106.58 46.692C106.029 46.9627 105.409 47.098 104.718 47.098C104.027 47.098 103.402 46.9627 102.842 46.692C102.291 46.4213 101.853 46.0107 101.526 45.46C101.209 44.9 101.05 44.214 101.05 43.402V37.242H102.324ZM111.799 40.742C112.051 40.3033 112.425 39.9393 112.919 39.65C113.423 39.3513 114.007 39.202 114.669 39.202C115.351 39.202 115.967 39.3653 116.517 39.692C117.077 40.0187 117.516 40.4807 117.833 41.078C118.151 41.666 118.309 42.352 118.309 43.136C118.309 43.9107 118.151 44.6013 117.833 45.208C117.516 45.8147 117.077 46.286 116.517 46.622C115.967 46.958 115.351 47.126 114.669 47.126C114.016 47.126 113.437 46.9813 112.933 46.692C112.439 46.3933 112.061 46.0247 111.799 45.586V50.64H110.525V39.328H111.799V40.742ZM117.007 43.136C117.007 42.5573 116.891 42.0533 116.657 41.624C116.424 41.1947 116.107 40.868 115.705 40.644C115.313 40.42 114.879 40.308 114.403 40.308C113.937 40.308 113.503 40.4247 113.101 40.658C112.709 40.882 112.392 41.2133 112.149 41.652C111.916 42.0813 111.799 42.5807 111.799 43.15C111.799 43.7287 111.916 44.2373 112.149 44.676C112.392 45.1053 112.709 45.4367 113.101 45.67C113.503 45.894 113.937 46.006 114.403 46.006C114.879 46.006 115.313 45.894 115.705 45.67C116.107 45.4367 116.424 45.1053 116.657 44.676C116.891 44.2373 117.007 43.724 117.007 43.136ZM121.26 36.64V47H119.986V36.64H121.26ZM126.778 47.126C126.059 47.126 125.406 46.9627 124.818 46.636C124.239 46.3093 123.782 45.8473 123.446 45.25C123.119 44.6433 122.956 43.9433 122.956 43.15C122.956 42.366 123.124 41.6753 123.46 41.078C123.805 40.4713 124.272 40.0093 124.86 39.692C125.448 39.3653 126.106 39.202 126.834 39.202C127.562 39.202 128.22 39.3653 128.808 39.692C129.396 40.0093 129.858 40.4667 130.194 41.064C130.539 41.6613 130.712 42.3567 130.712 43.15C130.712 43.9433 130.534 44.6433 130.18 45.25C129.834 45.8473 129.363 46.3093 128.766 46.636C128.168 46.9627 127.506 47.126 126.778 47.126ZM126.778 46.006C127.235 46.006 127.664 45.8987 128.066 45.684C128.467 45.4693 128.789 45.1473 129.032 44.718C129.284 44.2887 129.41 43.766 129.41 43.15C129.41 42.534 129.288 42.0113 129.046 41.582C128.803 41.1527 128.486 40.8353 128.094 40.63C127.702 40.4153 127.277 40.308 126.82 40.308C126.353 40.308 125.924 40.4153 125.532 40.63C125.149 40.8353 124.841 41.1527 124.608 41.582C124.374 42.0113 124.258 42.534 124.258 43.15C124.258 43.7753 124.37 44.3027 124.594 44.732C124.827 45.1613 125.135 45.4833 125.518 45.698C125.9 45.9033 126.32 46.006 126.778 46.006ZM131.911 43.136C131.911 42.352 132.069 41.666 132.387 41.078C132.704 40.4807 133.138 40.0187 133.689 39.692C134.249 39.3653 134.869 39.202 135.551 39.202C136.223 39.202 136.806 39.3467 137.301 39.636C137.795 39.9253 138.164 40.2893 138.407 40.728V39.328H139.695V47H138.407V45.572C138.155 46.02 137.777 46.3933 137.273 46.692C136.778 46.9813 136.199 47.126 135.537 47.126C134.855 47.126 134.239 46.958 133.689 46.622C133.138 46.286 132.704 45.8147 132.387 45.208C132.069 44.6013 131.911 43.9107 131.911 43.136ZM138.407 43.15C138.407 42.5713 138.29 42.0673 138.057 41.638C137.823 41.2087 137.506 40.882 137.105 40.658C136.713 40.4247 136.279 40.308 135.803 40.308C135.327 40.308 134.893 40.42 134.501 40.644C134.109 40.868 133.796 41.1947 133.563 41.624C133.329 42.0533 133.213 42.5573 133.213 43.136C133.213 43.724 133.329 44.2373 133.563 44.676C133.796 45.1053 134.109 45.4367 134.501 45.67C134.893 45.894 135.327 46.006 135.803 46.006C136.279 46.006 136.713 45.894 137.105 45.67C137.506 45.4367 137.823 45.1053 138.057 44.676C138.29 44.2373 138.407 43.7287 138.407 43.15ZM141.372 43.136C141.372 42.352 141.53 41.666 141.848 41.078C142.165 40.4807 142.599 40.0187 143.15 39.692C143.71 39.3653 144.335 39.202 145.026 39.202C145.623 39.202 146.178 39.342 146.692 39.622C147.205 39.8927 147.597 40.252 147.868 40.7V36.64H149.156V47H147.868V45.558C147.616 46.0153 147.242 46.3933 146.748 46.692C146.253 46.9813 145.674 47.126 145.012 47.126C144.33 47.126 143.71 46.958 143.15 46.622C142.599 46.286 142.165 45.8147 141.848 45.208C141.53 44.6013 141.372 43.9107 141.372 43.136ZM147.868 43.15C147.868 42.5713 147.751 42.0673 147.518 41.638C147.284 41.2087 146.967 40.882 146.566 40.658C146.174 40.4247 145.74 40.308 145.264 40.308C144.788 40.308 144.354 40.42 143.962 40.644C143.57 40.868 143.257 41.1947 143.024 41.624C142.79 42.0533 142.674 42.5573 142.674 43.136C142.674 43.724 142.79 44.2373 143.024 44.676C143.257 45.1053 143.57 45.4367 143.962 45.67C144.354 45.894 144.788 46.006 145.264 46.006C145.74 46.006 146.174 45.894 146.566 45.67C146.967 45.4367 147.284 45.1053 147.518 44.676C147.751 44.2373 147.868 43.7287 147.868 43.15ZM158.308 42.87C158.308 43.1127 158.294 43.3693 158.266 43.64H152.134C152.181 44.396 152.438 44.9887 152.904 45.418C153.38 45.838 153.954 46.048 154.626 46.048C155.177 46.048 155.634 45.922 155.998 45.67C156.372 45.4087 156.633 45.0633 156.782 44.634H158.154C157.949 45.3713 157.538 45.9733 156.922 46.44C156.306 46.8973 155.541 47.126 154.626 47.126C153.898 47.126 153.245 46.9627 152.666 46.636C152.097 46.3093 151.649 45.8473 151.322 45.25C150.996 44.6433 150.832 43.9433 150.832 43.15C150.832 42.3567 150.991 41.6613 151.308 41.064C151.626 40.4667 152.069 40.0093 152.638 39.692C153.217 39.3653 153.88 39.202 154.626 39.202C155.354 39.202 155.998 39.3607 156.558 39.678C157.118 39.9953 157.548 40.434 157.846 40.994C158.154 41.5447 158.308 42.17 158.308 42.87ZM156.992 42.604C156.992 42.1187 156.885 41.7033 156.67 41.358C156.456 41.0033 156.162 40.7373 155.788 40.56C155.424 40.3733 155.018 40.28 154.57 40.28C153.926 40.28 153.376 40.4853 152.918 40.896C152.47 41.3067 152.214 41.876 152.148 42.604H156.992ZM159.514 43.136C159.514 42.352 159.673 41.666 159.99 41.078C160.307 40.4807 160.741 40.0187 161.292 39.692C161.852 39.3653 162.477 39.202 163.168 39.202C163.765 39.202 164.321 39.342 164.834 39.622C165.347 39.8927 165.739 40.252 166.01 40.7V36.64H167.298V47H166.01V45.558C165.758 46.0153 165.385 46.3933 164.89 46.692C164.395 46.9813 163.817 47.126 163.154 47.126C162.473 47.126 161.852 46.958 161.292 46.622C160.741 46.286 160.307 45.8147 159.99 45.208C159.673 44.6013 159.514 43.9107 159.514 43.136ZM166.01 43.15C166.01 42.5713 165.893 42.0673 165.66 41.638C165.427 41.2087 165.109 40.882 164.708 40.658C164.316 40.4247 163.882 40.308 163.406 40.308C162.93 40.308 162.496 40.42 162.104 40.644C161.712 40.868 161.399 41.1947 161.166 41.624C160.933 42.0533 160.816 42.5573 160.816 43.136C160.816 43.724 160.933 44.2373 161.166 44.676C161.399 45.1053 161.712 45.4367 162.104 45.67C162.496 45.894 162.93 46.006 163.406 46.006C163.882 46.006 164.316 45.894 164.708 45.67C165.109 45.4367 165.427 45.1053 165.66 44.676C165.893 44.2373 166.01 43.7287 166.01 43.15ZM176.529 47.126C175.811 47.126 175.157 46.9627 174.569 46.636C173.991 46.3093 173.533 45.8473 173.197 45.25C172.871 44.6433 172.707 43.9433 172.707 43.15C172.707 42.366 172.875 41.6753 173.211 41.078C173.557 40.4713 174.023 40.0093 174.611 39.692C175.199 39.3653 175.857 39.202 176.585 39.202C177.313 39.202 177.971 39.3653 178.559 39.692C179.147 40.0093 179.609 40.4667 179.945 41.064C180.291 41.6613 180.463 42.3567 180.463 43.15C180.463 43.9433 180.286 44.6433 179.931 45.25C179.586 45.8473 179.115 46.3093 178.517 46.636C177.92 46.9627 177.257 47.126 176.529 47.126ZM176.529 46.006C176.987 46.006 177.416 45.8987 177.817 45.684C178.219 45.4693 178.541 45.1473 178.783 44.718C179.035 44.2887 179.161 43.766 179.161 43.15C179.161 42.534 179.04 42.0113 178.797 41.582C178.555 41.1527 178.237 40.8353 177.845 40.63C177.453 40.4153 177.029 40.308 176.571 40.308C176.105 40.308 175.675 40.4153 175.283 40.63C174.901 40.8353 174.593 41.1527 174.359 41.582C174.126 42.0113 174.009 42.534 174.009 43.15C174.009 43.7753 174.121 44.3027 174.345 44.732C174.579 45.1613 174.887 45.4833 175.269 45.698C175.652 45.9033 176.072 46.006 176.529 46.006ZM185.877 39.188C186.81 39.188 187.566 39.4727 188.145 40.042C188.723 40.602 189.013 41.414 189.013 42.478V47H187.753V42.66C187.753 41.8947 187.561 41.3113 187.179 40.91C186.796 40.4993 186.273 40.294 185.611 40.294C184.939 40.294 184.402 40.504 184.001 40.924C183.609 41.344 183.413 41.9553 183.413 42.758V47H182.139V39.328H183.413V40.42C183.665 40.028 184.005 39.7247 184.435 39.51C184.873 39.2953 185.354 39.188 185.877 39.188ZM194.28 38.04V36.878H196.912V47H195.624V38.04H194.28ZM205.554 37.984H200.64V41.176C200.855 40.8773 201.172 40.6347 201.592 40.448C202.012 40.252 202.465 40.154 202.95 40.154C203.725 40.154 204.355 40.3173 204.84 40.644C205.326 40.9613 205.671 41.3767 205.876 41.89C206.091 42.394 206.198 42.9307 206.198 43.5C206.198 44.172 206.072 44.774 205.82 45.306C205.568 45.838 205.181 46.258 204.658 46.566C204.145 46.874 203.506 47.028 202.74 47.028C201.76 47.028 200.967 46.776 200.36 46.272C199.754 45.768 199.385 45.096 199.254 44.256H200.5C200.622 44.788 200.878 45.2033 201.27 45.502C201.662 45.8007 202.157 45.95 202.754 45.95C203.492 45.95 204.047 45.7307 204.42 45.292C204.794 44.844 204.98 44.256 204.98 43.528C204.98 42.8 204.794 42.24 204.42 41.848C204.047 41.4467 203.496 41.246 202.768 41.246C202.274 41.246 201.84 41.3673 201.466 41.61C201.102 41.8433 200.836 42.1653 200.668 42.576H199.464V36.864H205.554V37.984ZM208.507 47.084C208.265 47.084 208.059 47 207.891 46.832C207.723 46.664 207.639 46.4587 207.639 46.216C207.639 45.9733 207.723 45.768 207.891 45.6C208.059 45.432 208.265 45.348 208.507 45.348C208.741 45.348 208.937 45.432 209.095 45.6C209.263 45.768 209.347 45.9733 209.347 46.216C209.347 46.4587 209.263 46.664 209.095 46.832C208.937 47 208.741 47.084 208.507 47.084ZM210.831 41.834C210.831 40.2287 211.092 38.978 211.615 38.082C212.138 37.1767 213.052 36.724 214.359 36.724C215.656 36.724 216.566 37.1767 217.089 38.082C217.612 38.978 217.873 40.2287 217.873 41.834C217.873 43.4673 217.612 44.7367 217.089 45.642C216.566 46.5473 215.656 47 214.359 47C213.052 47 212.138 46.5473 211.615 45.642C211.092 44.7367 210.831 43.4673 210.831 41.834ZM216.613 41.834C216.613 41.022 216.557 40.336 216.445 39.776C216.342 39.2067 216.123 38.7493 215.787 38.404C215.46 38.0587 214.984 37.886 214.359 37.886C213.724 37.886 213.239 38.0587 212.903 38.404C212.576 38.7493 212.357 39.2067 212.245 39.776C212.142 40.336 212.091 41.022 212.091 41.834C212.091 42.674 212.142 43.3787 212.245 43.948C212.357 44.5173 212.576 44.9747 212.903 45.32C213.239 45.6653 213.724 45.838 214.359 45.838C214.984 45.838 215.46 45.6653 215.787 45.32C216.123 44.9747 216.342 44.5173 216.445 43.948C216.557 43.3787 216.613 42.674 216.613 41.834ZM219.286 38.04V36.878H221.918V47H220.63V38.04H219.286ZM224.722 47.084C224.48 47.084 224.274 47 224.106 46.832C223.938 46.664 223.854 46.4587 223.854 46.216C223.854 45.9733 223.938 45.768 224.106 45.6C224.274 45.432 224.48 45.348 224.722 45.348C224.956 45.348 225.152 45.432 225.31 45.6C225.478 45.768 225.562 45.9733 225.562 46.216C225.562 46.4587 225.478 46.664 225.31 46.832C225.152 47 224.956 47.084 224.722 47.084ZM226.892 45.978C228.077 45.026 229.006 44.2467 229.678 43.64C230.35 43.024 230.914 42.3847 231.372 41.722C231.838 41.05 232.072 40.392 232.072 39.748C232.072 39.1413 231.922 38.6653 231.624 38.32C231.334 37.9653 230.863 37.788 230.21 37.788C229.575 37.788 229.08 37.9887 228.726 38.39C228.38 38.782 228.194 39.3093 228.166 39.972H226.934C226.971 38.9267 227.288 38.1193 227.886 37.55C228.483 36.9807 229.253 36.696 230.196 36.696C231.157 36.696 231.918 36.962 232.478 37.494C233.047 38.026 233.332 38.7587 233.332 39.692C233.332 40.4667 233.098 41.2227 232.632 41.96C232.174 42.688 231.652 43.332 231.064 43.892C230.476 44.4427 229.724 45.0867 228.81 45.824H233.626V46.888H226.892V45.978ZM235.098 41.834C235.098 40.2287 235.36 38.978 235.882 38.082C236.405 37.1767 237.32 36.724 238.626 36.724C239.924 36.724 240.834 37.1767 241.356 38.082C241.879 38.978 242.14 40.2287 242.14 41.834C242.14 43.4673 241.879 44.7367 241.356 45.642C240.834 46.5473 239.924 47 238.626 47C237.32 47 236.405 46.5473 235.882 45.642C235.36 44.7367 235.098 43.4673 235.098 41.834ZM240.88 41.834C240.88 41.022 240.824 40.336 240.712 39.776C240.61 39.2067 240.39 38.7493 240.054 38.404C239.728 38.0587 239.252 37.886 238.626 37.886C237.992 37.886 237.506 38.0587 237.17 38.404C236.844 38.7493 236.624 39.2067 236.512 39.776C236.41 40.336 236.358 41.022 236.358 41.834C236.358 42.674 236.41 43.3787 236.512 43.948C236.624 44.5173 236.844 44.9747 237.17 45.32C237.506 45.6653 237.992 45.838 238.626 45.838C239.252 45.838 239.728 45.6653 240.054 45.32C240.39 44.9747 240.61 44.5173 240.712 43.948C240.824 43.3787 240.88 42.674 240.88 41.834ZM243.735 45.978C244.921 45.026 245.849 44.2467 246.521 43.64C247.193 43.024 247.758 42.3847 248.215 41.722C248.682 41.05 248.915 40.392 248.915 39.748C248.915 39.1413 248.766 38.6653 248.467 38.32C248.178 37.9653 247.707 37.788 247.053 37.788C246.419 37.788 245.924 37.9887 245.569 38.39C245.224 38.782 245.037 39.3093 245.009 39.972H243.777C243.815 38.9267 244.132 38.1193 244.729 37.55C245.327 36.9807 246.097 36.696 247.039 36.696C248.001 36.696 248.761 36.962 249.321 37.494C249.891 38.026 250.175 38.7587 250.175 39.692C250.175 40.4667 249.942 41.2227 249.475 41.96C249.018 42.688 248.495 43.332 247.907 43.892C247.319 44.4427 246.568 45.0867 245.653 45.824H250.469V46.888H243.735V45.978ZM251.942 41.834C251.942 40.2287 252.204 38.978 252.726 38.082C253.249 37.1767 254.164 36.724 255.47 36.724C256.768 36.724 257.678 37.1767 258.2 38.082C258.723 38.978 258.984 40.2287 258.984 41.834C258.984 43.4673 258.723 44.7367 258.2 45.642C257.678 46.5473 256.768 47 255.47 47C254.164 47 253.249 46.5473 252.726 45.642C252.204 44.7367 251.942 43.4673 251.942 41.834ZM257.724 41.834C257.724 41.022 257.668 40.336 257.556 39.776C257.454 39.2067 257.234 38.7493 256.898 38.404C256.572 38.0587 256.096 37.886 255.47 37.886C254.836 37.886 254.35 38.0587 254.014 38.404C253.688 38.7493 253.468 39.2067 253.356 39.776C253.254 40.336 253.202 41.022 253.202 41.834C253.202 42.674 253.254 43.3787 253.356 43.948C253.468 44.5173 253.688 44.9747 254.014 45.32C254.35 45.6653 254.836 45.838 255.47 45.838C256.096 45.838 256.572 45.6653 256.898 45.32C257.234 44.9747 257.454 44.5173 257.556 43.948C257.668 43.3787 257.724 42.674 257.724 41.834ZM264.2 43.136C264.2 42.352 264.358 41.666 264.676 41.078C264.993 40.4807 265.427 40.0187 265.978 39.692C266.538 39.3653 267.158 39.202 267.84 39.202C268.512 39.202 269.095 39.3467 269.59 39.636C270.084 39.9253 270.453 40.2893 270.696 40.728V39.328H271.984V47H270.696V45.572C270.444 46.02 270.066 46.3933 269.562 46.692C269.067 46.9813 268.488 47.126 267.826 47.126C267.144 47.126 266.528 46.958 265.978 46.622C265.427 46.286 264.993 45.8147 264.676 45.208C264.358 44.6013 264.2 43.9107 264.2 43.136ZM270.696 43.15C270.696 42.5713 270.579 42.0673 270.346 41.638C270.112 41.2087 269.795 40.882 269.394 40.658C269.002 40.4247 268.568 40.308 268.092 40.308C267.616 40.308 267.182 40.42 266.79 40.644C266.398 40.868 266.085 41.1947 265.852 41.624C265.618 42.0533 265.502 42.5573 265.502 43.136C265.502 43.724 265.618 44.2373 265.852 44.676C266.085 45.1053 266.398 45.4367 266.79 45.67C267.182 45.894 267.616 46.006 268.092 46.006C268.568 46.006 269.002 45.894 269.394 45.67C269.795 45.4367 270.112 45.1053 270.346 44.676C270.579 44.2373 270.696 43.7287 270.696 43.15ZM275.691 40.378V44.9C275.691 45.2733 275.77 45.5393 275.929 45.698C276.087 45.8473 276.363 45.922 276.755 45.922H277.693V47H276.545C275.835 47 275.303 46.8367 274.949 46.51C274.594 46.1833 274.417 45.6467 274.417 44.9V40.378H273.423V39.328H274.417V37.396H275.691V39.328H277.693V40.378H275.691ZM282.423 38.04V36.878H285.055V47H283.767V38.04H282.423ZM286.907 38.04V36.878H289.539V47H288.251V38.04H286.907ZM292.343 47.084C292.101 47.084 291.895 47 291.727 46.832C291.559 46.664 291.475 46.4587 291.475 46.216C291.475 45.9733 291.559 45.768 291.727 45.6C291.895 45.432 292.101 45.348 292.343 45.348C292.577 45.348 292.773 45.432 292.931 45.6C293.099 45.768 293.183 45.9733 293.183 46.216C293.183 46.4587 293.099 46.664 292.931 46.832C292.773 47 292.577 47.084 292.343 47.084ZM292.343 41.092C292.101 41.092 291.895 41.008 291.727 40.84C291.559 40.672 291.475 40.4667 291.475 40.224C291.475 39.9813 291.559 39.776 291.727 39.608C291.895 39.44 292.101 39.356 292.343 39.356C292.577 39.356 292.773 39.44 292.931 39.608C293.099 39.776 293.183 39.9813 293.183 40.224C293.183 40.4667 293.099 40.672 292.931 40.84C292.773 41.008 292.577 41.092 292.343 41.092ZM294.4 44.746V43.78L299.314 36.976H300.84V43.64H302.24V44.746H300.84V47H299.58V44.746H294.4ZM299.636 38.306L295.87 43.64H299.636V38.306ZM309.967 37.984H305.053V41.176C305.267 40.8773 305.585 40.6347 306.005 40.448C306.425 40.252 306.877 40.154 307.363 40.154C308.137 40.154 308.767 40.3173 309.253 40.644C309.738 40.9613 310.083 41.3767 310.289 41.89C310.503 42.394 310.611 42.9307 310.611 43.5C310.611 44.172 310.485 44.774 310.233 45.306C309.981 45.838 309.593 46.258 309.071 46.566C308.557 46.874 307.918 47.028 307.153 47.028C306.173 47.028 305.379 46.776 304.773 46.272C304.166 45.768 303.797 45.096 303.667 44.256H304.913C305.034 44.788 305.291 45.2033 305.683 45.502C306.075 45.8007 306.569 45.95 307.167 45.95C307.904 45.95 308.459 45.7307 308.833 45.292C309.206 44.844 309.393 44.256 309.393 43.528C309.393 42.8 309.206 42.24 308.833 41.848C308.459 41.4467 307.909 41.246 307.181 41.246C306.686 41.246 306.252 41.3673 305.879 41.61C305.515 41.8433 305.249 42.1653 305.081 42.576H303.877V36.864H309.967V37.984Z" fill="#8A9099"/>
<path d="M113.342 12.242L110.514 22H109.086L106.818 14.146L104.466 22L103.052 22.014L100.322 12.242H101.68L103.808 20.516L106.16 12.242H107.588L109.828 20.488L111.97 12.242H113.342ZM115.394 13.082C115.152 13.082 114.946 12.998 114.778 12.83C114.61 12.662 114.526 12.4567 114.526 12.214C114.526 11.9713 114.61 11.766 114.778 11.598C114.946 11.43 115.152 11.346 115.394 11.346C115.628 11.346 115.824 11.43 115.982 11.598C116.15 11.766 116.234 11.9713 116.234 12.214C116.234 12.4567 116.15 12.662 115.982 12.83C115.824 12.998 115.628 13.082 115.394 13.082ZM116.01 14.328V22H114.736V14.328H116.01ZM119.456 15.574C119.68 15.1353 119.997 14.7947 120.408 14.552C120.828 14.3093 121.336 14.188 121.934 14.188V15.504H121.598C120.17 15.504 119.456 16.2787 119.456 17.828V22H118.182V14.328H119.456V15.574ZM130.404 17.87C130.404 18.1127 130.39 18.3693 130.362 18.64H124.23C124.277 19.396 124.534 19.9887 125 20.418C125.476 20.838 126.05 21.048 126.722 21.048C127.273 21.048 127.73 20.922 128.094 20.67C128.468 20.4087 128.729 20.0633 128.878 19.634H130.25C130.045 20.3713 129.634 20.9733 129.018 21.44C128.402 21.8973 127.637 22.126 126.722 22.126C125.994 22.126 125.341 21.9627 124.762 21.636C124.193 21.3093 123.745 20.8473 123.418 20.25C123.092 19.6433 122.928 18.9433 122.928 18.15C122.928 17.3567 123.087 16.6613 123.404 16.064C123.722 15.4667 124.165 15.0093 124.734 14.692C125.313 14.3653 125.976 14.202 126.722 14.202C127.45 14.202 128.094 14.3607 128.654 14.678C129.214 14.9953 129.644 15.434 129.942 15.994C130.25 16.5447 130.404 17.17 130.404 17.87ZM129.088 17.604C129.088 17.1187 128.981 16.7033 128.766 16.358C128.552 16.0033 128.258 15.7373 127.884 15.56C127.52 15.3733 127.114 15.28 126.666 15.28C126.022 15.28 125.472 15.4853 125.014 15.896C124.566 16.3067 124.31 16.876 124.244 17.604H129.088ZM135.208 15.378H133.598V22H132.324V15.378H131.33V14.328H132.324V13.782C132.324 12.9233 132.543 12.298 132.982 11.906C133.43 11.5047 134.144 11.304 135.124 11.304V12.368C134.564 12.368 134.167 12.48 133.934 12.704C133.71 12.9187 133.598 13.278 133.598 13.782V14.328H135.208V15.378ZM137.967 15.574C138.191 15.1353 138.509 14.7947 138.919 14.552C139.339 14.3093 139.848 14.188 140.445 14.188V15.504H140.109C138.681 15.504 137.967 16.2787 137.967 17.828V22H136.693V14.328H137.967V15.574ZM141.44 18.136C141.44 17.352 141.599 16.666 141.916 16.078C142.233 15.4807 142.667 15.0187 143.218 14.692C143.778 14.3653 144.399 14.202 145.08 14.202C145.752 14.202 146.335 14.3467 146.83 14.636C147.325 14.9253 147.693 15.2893 147.936 15.728V14.328H149.224V22H147.936V20.572C147.684 21.02 147.306 21.3933 146.802 21.692C146.307 21.9813 145.729 22.126 145.066 22.126C144.385 22.126 143.769 21.958 143.218 21.622C142.667 21.286 142.233 20.8147 141.916 20.208C141.599 19.6013 141.44 18.9107 141.44 18.136ZM147.936 18.15C147.936 17.5713 147.819 17.0673 147.586 16.638C147.353 16.2087 147.035 15.882 146.634 15.658C146.242 15.4247 145.808 15.308 145.332 15.308C144.856 15.308 144.422 15.42 144.03 15.644C143.638 15.868 143.325 16.1947 143.092 16.624C142.859 17.0533 142.742 17.5573 142.742 18.136C142.742 18.724 142.859 19.2373 143.092 19.676C143.325 20.1053 143.638 20.4367 144.03 20.67C144.422 20.894 144.856 21.006 145.332 21.006C145.808 21.006 146.242 20.894 146.634 20.67C147.035 20.4367 147.353 20.1053 147.586 19.676C147.819 19.2373 147.936 18.7287 147.936 18.15ZM160.603 14.188C161.2 14.188 161.732 14.314 162.199 14.566C162.665 14.8087 163.034 15.1773 163.305 15.672C163.575 16.1667 163.711 16.7687 163.711 17.478V22H162.451V17.66C162.451 16.8947 162.259 16.3113 161.877 15.91C161.503 15.4993 160.995 15.294 160.351 15.294C159.688 15.294 159.161 15.5087 158.769 15.938C158.377 16.358 158.181 16.9693 158.181 17.772V22H156.921V17.66C156.921 16.8947 156.729 16.3113 156.347 15.91C155.973 15.4993 155.465 15.294 154.821 15.294C154.158 15.294 153.631 15.5087 153.239 15.938C152.847 16.358 152.651 16.9693 152.651 17.772V22H151.377V14.328H152.651V15.434C152.903 15.0327 153.239 14.7247 153.659 14.51C154.088 14.2953 154.559 14.188 155.073 14.188C155.717 14.188 156.286 14.3327 156.781 14.622C157.275 14.9113 157.644 15.336 157.887 15.896C158.101 15.3547 158.456 14.9347 158.951 14.636C159.445 14.3373 159.996 14.188 160.603 14.188ZM172.801 17.87C172.801 18.1127 172.787 18.3693 172.759 18.64H166.627C166.673 19.396 166.93 19.9887 167.397 20.418C167.873 20.838 168.447 21.048 169.119 21.048C169.669 21.048 170.127 20.922 170.491 20.67C170.864 20.4087 171.125 20.0633 171.275 19.634H172.647C172.441 20.3713 172.031 20.9733 171.415 21.44C170.799 21.8973 170.033 22.126 169.119 22.126C168.391 22.126 167.737 21.9627 167.159 21.636C166.589 21.3093 166.141 20.8473 165.815 20.25C165.488 19.6433 165.325 18.9433 165.325 18.15C165.325 17.3567 165.483 16.6613 165.801 16.064C166.118 15.4667 166.561 15.0093 167.131 14.692C167.709 14.3653 168.372 14.202 169.119 14.202C169.847 14.202 170.491 14.3607 171.051 14.678C171.611 14.9953 172.04 15.434 172.339 15.994C172.647 16.5447 172.801 17.17 172.801 17.87ZM171.485 17.604C171.485 17.1187 171.377 16.7033 171.163 16.358C170.948 16.0033 170.654 15.7373 170.281 15.56C169.917 15.3733 169.511 15.28 169.063 15.28C168.419 15.28 167.868 15.4853 167.411 15.896C166.963 16.3067 166.706 16.876 166.641 17.604H171.485ZM179.461 12.242V18.416C179.461 19.284 179.671 19.928 180.091 20.348C180.52 20.768 181.113 20.978 181.869 20.978C182.615 20.978 183.199 20.768 183.619 20.348C184.048 19.928 184.263 19.284 184.263 18.416V12.242H185.537V18.402C185.537 19.214 185.373 19.9 185.047 20.46C184.72 21.0107 184.277 21.4213 183.717 21.692C183.166 21.9627 182.545 22.098 181.855 22.098C181.164 22.098 180.539 21.9627 179.979 21.692C179.428 21.4213 178.989 21.0107 178.663 20.46C178.345 19.9 178.187 19.214 178.187 18.402V12.242H179.461ZM188.936 12.242V22H187.662V12.242H188.936ZM200.132 22L196.114 17.548V22H194.84V12.242H196.114V16.764L200.146 12.242H201.756L197.332 17.128L201.798 22H200.132ZM203.879 13.082C203.636 13.082 203.431 12.998 203.263 12.83C203.095 12.662 203.011 12.4567 203.011 12.214C203.011 11.9713 203.095 11.766 203.263 11.598C203.431 11.43 203.636 11.346 203.879 11.346C204.112 11.346 204.308 11.43 204.467 11.598C204.635 11.766 204.719 11.9713 204.719 12.214C204.719 12.4567 204.635 12.662 204.467 12.83C204.308 12.998 204.112 13.082 203.879 13.082ZM204.495 14.328V22H203.221V14.328H204.495ZM208.22 15.378V19.9C208.22 20.2733 208.299 20.5393 208.458 20.698C208.617 20.8473 208.892 20.922 209.284 20.922H210.222V22H209.074C208.365 22 207.833 21.8367 207.478 21.51C207.123 21.1833 206.946 20.6467 206.946 19.9V15.378H205.952V14.328H206.946V12.396H208.22V14.328H210.222V15.378H208.22ZM212.172 22.084C211.929 22.084 211.724 22 211.556 21.832C211.388 21.664 211.304 21.4587 211.304 21.216C211.304 20.9733 211.388 20.768 211.556 20.6C211.724 20.432 211.929 20.348 212.172 20.348C212.405 20.348 212.601 20.432 212.76 20.6C212.928 20.768 213.012 20.9733 213.012 21.216C213.012 21.4587 212.928 21.664 212.76 21.832C212.601 22 212.405 22.084 212.172 22.084ZM215.657 20.95H219.423V22H214.201V20.95L217.925 15.364H214.229V14.328H219.395V15.364L215.657 20.95ZM221.734 13.082C221.491 13.082 221.286 12.998 221.118 12.83C220.95 12.662 220.866 12.4567 220.866 12.214C220.866 11.9713 220.95 11.766 221.118 11.598C221.286 11.43 221.491 11.346 221.734 11.346C221.967 11.346 222.163 11.43 222.322 11.598C222.49 11.766 222.574 11.9713 222.574 12.214C222.574 12.4567 222.49 12.662 222.322 12.83C222.163 12.998 221.967 13.082 221.734 13.082ZM222.35 14.328V22H221.076V14.328H222.35ZM225.795 15.742C226.047 15.3033 226.421 14.9393 226.915 14.65C227.419 14.3513 228.003 14.202 228.665 14.202C229.347 14.202 229.963 14.3653 230.513 14.692C231.073 15.0187 231.512 15.4807 231.829 16.078C232.147 16.666 232.305 17.352 232.305 18.136C232.305 18.9107 232.147 19.6013 231.829 20.208C231.512 20.8147 231.073 21.286 230.513 21.622C229.963 21.958 229.347 22.126 228.665 22.126C228.012 22.126 227.433 21.9813 226.929 21.692C226.435 21.3933 226.057 21.0247 225.795 20.586V25.64H224.521V14.328H225.795V15.742ZM231.003 18.136C231.003 17.5573 230.887 17.0533 230.653 16.624C230.42 16.1947 230.103 15.868 229.701 15.644C229.309 15.42 228.875 15.308 228.399 15.308C227.933 15.308 227.499 15.4247 227.097 15.658C226.705 15.882 226.388 16.2133 226.145 16.652C225.912 17.0813 225.795 17.5807 225.795 18.15C225.795 18.7287 225.912 19.2373 226.145 19.676C226.388 20.1053 226.705 20.4367 227.097 20.67C227.499 20.894 227.933 21.006 228.399 21.006C228.875 21.006 229.309 20.894 229.701 20.67C230.103 20.4367 230.42 20.1053 230.653 19.676C230.887 19.2373 231.003 18.724 231.003 18.136Z" fill="#3F434A"/>
<mask id="mask0_2318_64" style="mask-type:alpha" maskUnits="userSpaceOnUse" x="0" y="0" width="84" height="84">
<rect x="0.5" y="0.5" width="83" height="83" rx="13.5" stroke="black"/>
</mask>
<g mask="url(#mask0_2318_64)">
<rect width="84" height="84" fill="#E8E9EB"/>
</g>
<path fill-rule="evenodd" clip-rule="evenodd" d="M26.9839 18H49.9492L61 29.058V63C61 64.6574 59.6633 66 58.0161 66H26.9839C25.3367 66 24 64.6574 24 63V21C24 19.3425 25.3369 18 26.9839 18Z" fill="white"/>
<path d="M26.9839 18.5H49.742L60.5 29.265V63C60.5 64.3837 59.3848 65.5 58.0161 65.5H26.9839C25.6152 65.5 24.5 64.3837 24.5 63V21C24.5 19.6163 25.6154 18.5 26.9839 18.5Z" stroke="#E8E9EB"/>
<path d="M60.4034 29.4001H52.3223C50.8534 29.4001 49.6614 28.2029 49.6614 26.7275V18.6001" stroke="#E8E9EB"/>
<path d="M43.1639 46.7144V45.2572H44.6132V43.8001H43.1639V42.343H44.6132V40.8858H43.1639V39.4287H44.6132V37.9715H43.1639V36.5144H44.6132V35.0572H43.1639V33.6001H41.7146V35.0572H40.2653V36.5144H41.7146V37.9715H40.2653V39.4287H41.7146V40.8858H40.2653V42.343H41.7146V43.8001H40.2653V45.2572H41.7146V46.7144H38.816V50.3572C38.816 52.3659 40.4414 54.0001 42.4393 54.0001C44.4371 54.0001 46.0625 52.3659 46.0625 50.3572V46.7144H43.1639ZM44.6132 50.3572C44.6132 51.5623 43.6378 52.543 42.4393 52.543C41.2407 52.543 40.2653 51.5623 40.2653 50.3572V48.1715H44.6132V50.3572Z" fill="#8A9099"/>
<path d="M41.7147 51.086H43.164C43.564 51.086 43.8887 50.7604 43.8887 50.3575C43.8887 49.9546 43.564 49.6289 43.164 49.6289H41.7147C41.3147 49.6289 40.99 49.9546 40.99 50.3575C40.99 50.7604 41.3147 51.086 41.7147 51.086Z" fill="#8A9099"/>
</svg>
