<svg width="490" height="74" viewBox="0 0 490 74" fill="none" xmlns="http://www.w3.org/2000/svg">
<mask id="mask0_2243_295" style="mask-type:alpha" maskUnits="userSpaceOnUse" x="0" y="0" width="490" height="74">
<rect x="0.5" y="0.5" width="489" height="73" rx="13.5" stroke="black"/>
</mask>
<g mask="url(#mask0_2243_295)">
<rect width="490" height="74" fill="#E8E9EB"/>
</g>
<path d="M84.436 22.636L82.012 31H80.788L78.844 24.268L76.828 31L75.616 31.012L73.276 22.636H74.44L76.264 29.728L78.28 22.636H79.504L81.424 29.704L83.26 22.636H84.436ZM86.195 23.356C85.987 23.356 85.811 23.284 85.667 23.14C85.523 22.996 85.451 22.82 85.451 22.612C85.451 22.404 85.523 22.228 85.667 22.084C85.811 21.94 85.987 21.868 86.195 21.868C86.395 21.868 86.563 21.94 86.699 22.084C86.843 22.228 86.915 22.404 86.915 22.612C86.915 22.82 86.843 22.996 86.699 23.14C86.563 23.284 86.395 23.356 86.195 23.356ZM86.723 24.424V31H85.631V24.424H86.723ZM89.6762 25.492C89.8682 25.116 90.1402 24.824 90.4922 24.616C90.8522 24.408 91.2882 24.304 91.8002 24.304V25.432H91.5122C90.2882 25.432 89.6762 26.096 89.6762 27.424V31H88.5842V24.424H89.6762V25.492ZM99.0607 27.46C99.0607 27.668 99.0487 27.888 99.0247 28.12H93.7687C93.8087 28.768 94.0287 29.276 94.4287 29.644C94.8367 30.004 95.3287 30.184 95.9047 30.184C96.3767 30.184 96.7687 30.076 97.0807 29.86C97.4007 29.636 97.6247 29.34 97.7527 28.972H98.9287C98.7527 29.604 98.4007 30.12 97.8727 30.52C97.3447 30.912 96.6887 31.108 95.9047 31.108C95.2807 31.108 94.7207 30.968 94.2247 30.688C93.7367 30.408 93.3527 30.012 93.0727 29.5C92.7927 28.98 92.6527 28.38 92.6527 27.7C92.6527 27.02 92.7887 26.424 93.0607 25.912C93.3327 25.4 93.7127 25.008 94.2007 24.736C94.6967 24.456 95.2647 24.316 95.9047 24.316C96.5287 24.316 97.0807 24.452 97.5607 24.724C98.0407 24.996 98.4087 25.372 98.6647 25.852C98.9287 26.324 99.0607 26.86 99.0607 27.46ZM97.9327 27.232C97.9327 26.816 97.8407 26.46 97.6567 26.164C97.4727 25.86 97.2207 25.632 96.9007 25.48C96.5887 25.32 96.2407 25.24 95.8567 25.24C95.3047 25.24 94.8327 25.416 94.4407 25.768C94.0567 26.12 93.8367 26.608 93.7807 27.232H97.9327ZM103.178 25.324H101.798V31H100.706V25.324H99.8541V24.424H100.706V23.956C100.706 23.22 100.894 22.684 101.27 22.348C101.654 22.004 102.266 21.832 103.106 21.832V22.744C102.626 22.744 102.286 22.84 102.086 23.032C101.894 23.216 101.798 23.524 101.798 23.956V24.424H103.178V25.324ZM105.543 25.492C105.735 25.116 106.007 24.824 106.359 24.616C106.719 24.408 107.155 24.304 107.667 24.304V25.432H107.379C106.155 25.432 105.543 26.096 105.543 27.424V31H104.451V24.424H105.543V25.492ZM108.52 27.688C108.52 27.016 108.656 26.428 108.928 25.924C109.2 25.412 109.572 25.016 110.044 24.736C110.524 24.456 111.056 24.316 111.64 24.316C112.216 24.316 112.716 24.44 113.14 24.688C113.564 24.936 113.88 25.248 114.088 25.624V24.424H115.192V31H114.088V29.776C113.872 30.16 113.548 30.48 113.116 30.736C112.692 30.984 112.196 31.108 111.628 31.108C111.044 31.108 110.516 30.964 110.044 30.676C109.572 30.388 109.2 29.984 108.928 29.464C108.656 28.944 108.52 28.352 108.52 27.688ZM114.088 27.7C114.088 27.204 113.988 26.772 113.788 26.404C113.588 26.036 113.316 25.756 112.972 25.564C112.636 25.364 112.264 25.264 111.856 25.264C111.448 25.264 111.076 25.36 110.74 25.552C110.404 25.744 110.136 26.024 109.936 26.392C109.736 26.76 109.636 27.192 109.636 27.688C109.636 28.192 109.736 28.632 109.936 29.008C110.136 29.376 110.404 29.66 110.74 29.86C111.076 30.052 111.448 30.148 111.856 30.148C112.264 30.148 112.636 30.052 112.972 29.86C113.316 29.66 113.588 29.376 113.788 29.008C113.988 28.632 114.088 28.196 114.088 27.7ZM124.945 24.304C125.457 24.304 125.913 24.412 126.313 24.628C126.713 24.836 127.029 25.152 127.261 25.576C127.493 26 127.609 26.516 127.609 27.124V31H126.529V27.28C126.529 26.624 126.365 26.124 126.037 25.78C125.717 25.428 125.281 25.252 124.729 25.252C124.161 25.252 123.709 25.436 123.373 25.804C123.037 26.164 122.869 26.688 122.869 27.376V31H121.789V27.28C121.789 26.624 121.625 26.124 121.297 25.78C120.977 25.428 120.541 25.252 119.989 25.252C119.421 25.252 118.969 25.436 118.633 25.804C118.297 26.164 118.129 26.688 118.129 27.376V31H117.037V24.424H118.129V25.372C118.345 25.028 118.633 24.764 118.993 24.58C119.361 24.396 119.765 24.304 120.205 24.304C120.757 24.304 121.245 24.428 121.669 24.676C122.093 24.924 122.409 25.288 122.617 25.768C122.801 25.304 123.105 24.944 123.529 24.688C123.953 24.432 124.425 24.304 124.945 24.304ZM135.401 27.46C135.401 27.668 135.389 27.888 135.365 28.12H130.109C130.149 28.768 130.369 29.276 130.769 29.644C131.177 30.004 131.669 30.184 132.245 30.184C132.717 30.184 133.109 30.076 133.421 29.86C133.741 29.636 133.965 29.34 134.093 28.972H135.269C135.093 29.604 134.741 30.12 134.213 30.52C133.685 30.912 133.029 31.108 132.245 31.108C131.621 31.108 131.061 30.968 130.565 30.688C130.077 30.408 129.693 30.012 129.413 29.5C129.133 28.98 128.993 28.38 128.993 27.7C128.993 27.02 129.129 26.424 129.401 25.912C129.673 25.4 130.053 25.008 130.541 24.736C131.037 24.456 131.605 24.316 132.245 24.316C132.869 24.316 133.421 24.452 133.901 24.724C134.381 24.996 134.749 25.372 135.005 25.852C135.269 26.324 135.401 26.86 135.401 27.46ZM134.273 27.232C134.273 26.816 134.181 26.46 133.997 26.164C133.813 25.86 133.561 25.632 133.241 25.48C132.929 25.32 132.581 25.24 132.197 25.24C131.645 25.24 131.173 25.416 130.781 25.768C130.397 26.12 130.177 26.608 130.121 27.232H134.273ZM141.109 22.636V27.928C141.109 28.672 141.289 29.224 141.649 29.584C142.017 29.944 142.525 30.124 143.173 30.124C143.813 30.124 144.313 29.944 144.673 29.584C145.041 29.224 145.225 28.672 145.225 27.928V22.636H146.317V27.916C146.317 28.612 146.177 29.2 145.897 29.68C145.617 30.152 145.237 30.504 144.757 30.736C144.285 30.968 143.753 31.084 143.161 31.084C142.569 31.084 142.033 30.968 141.553 30.736C141.081 30.504 140.705 30.152 140.425 29.68C140.153 29.2 140.017 28.612 140.017 27.916V22.636H141.109ZM149.231 22.636V31H148.139V22.636H149.231ZM158.827 31L155.383 27.184V31H154.291V22.636H155.383V26.512L158.839 22.636H160.219L156.427 26.824L160.255 31H158.827ZM162.039 23.356C161.831 23.356 161.655 23.284 161.511 23.14C161.367 22.996 161.295 22.82 161.295 22.612C161.295 22.404 161.367 22.228 161.511 22.084C161.655 21.94 161.831 21.868 162.039 21.868C162.239 21.868 162.407 21.94 162.543 22.084C162.687 22.228 162.759 22.404 162.759 22.612C162.759 22.82 162.687 22.996 162.543 23.14C162.407 23.284 162.239 23.356 162.039 23.356ZM162.567 24.424V31H161.475V24.424H162.567ZM165.76 25.324V29.2C165.76 29.52 165.828 29.748 165.964 29.884C166.1 30.012 166.336 30.076 166.672 30.076H167.476V31H166.492C165.884 31 165.428 30.86 165.124 30.58C164.82 30.3 164.668 29.84 164.668 29.2V25.324H163.816V24.424H164.668V22.768H165.76V24.424H167.476V25.324H165.76ZM169.147 31.072C168.939 31.072 168.763 31 168.619 30.856C168.475 30.712 168.403 30.536 168.403 30.328C168.403 30.12 168.475 29.944 168.619 29.8C168.763 29.656 168.939 29.584 169.147 29.584C169.347 29.584 169.515 29.656 169.651 29.8C169.795 29.944 169.867 30.12 169.867 30.328C169.867 30.536 169.795 30.712 169.651 30.856C169.515 31 169.347 31.072 169.147 31.072ZM172.135 30.1H175.363V31H170.887V30.1L174.079 25.312H170.911V24.424H175.339V25.312L172.135 30.1ZM177.343 23.356C177.135 23.356 176.959 23.284 176.815 23.14C176.671 22.996 176.599 22.82 176.599 22.612C176.599 22.404 176.671 22.228 176.815 22.084C176.959 21.94 177.135 21.868 177.343 21.868C177.543 21.868 177.711 21.94 177.847 22.084C177.991 22.228 178.063 22.404 178.063 22.612C178.063 22.82 177.991 22.996 177.847 23.14C177.711 23.284 177.543 23.356 177.343 23.356ZM177.871 24.424V31H176.779V24.424H177.871ZM180.825 25.636C181.041 25.26 181.361 24.948 181.785 24.7C182.217 24.444 182.717 24.316 183.285 24.316C183.869 24.316 184.397 24.456 184.869 24.736C185.349 25.016 185.725 25.412 185.997 25.924C186.269 26.428 186.405 27.016 186.405 27.688C186.405 28.352 186.269 28.944 185.997 29.464C185.725 29.984 185.349 30.388 184.869 30.676C184.397 30.964 183.869 31.108 183.285 31.108C182.725 31.108 182.229 30.984 181.797 30.736C181.373 30.48 181.049 30.164 180.825 29.788V34.12H179.733V24.424H180.825V25.636ZM185.289 27.688C185.289 27.192 185.189 26.76 184.989 26.392C184.789 26.024 184.517 25.744 184.173 25.552C183.837 25.36 183.465 25.264 183.057 25.264C182.657 25.264 182.285 25.364 181.941 25.564C181.605 25.756 181.333 26.04 181.125 26.416C180.925 26.784 180.825 27.212 180.825 27.7C180.825 28.196 180.925 28.632 181.125 29.008C181.333 29.376 181.605 29.66 181.941 29.86C182.285 30.052 182.657 30.148 183.057 30.148C183.465 30.148 183.837 30.052 184.173 29.86C184.517 29.66 184.789 29.376 184.989 29.008C185.189 28.632 185.289 28.192 185.289 27.688Z" fill="#3F434A"/>
<path d="M79.276 43.272H75.064V46.008C75.248 45.752 75.52 45.544 75.88 45.384C76.24 45.216 76.628 45.132 77.044 45.132C77.708 45.132 78.248 45.272 78.664 45.552C79.08 45.824 79.376 46.18 79.552 46.62C79.736 47.052 79.828 47.512 79.828 48C79.828 48.576 79.72 49.092 79.504 49.548C79.288 50.004 78.956 50.364 78.508 50.628C78.068 50.892 77.52 51.024 76.864 51.024C76.024 51.024 75.344 50.808 74.824 50.376C74.304 49.944 73.988 49.368 73.876 48.648H74.944C75.048 49.104 75.268 49.46 75.604 49.716C75.94 49.972 76.364 50.1 76.876 50.1C77.508 50.1 77.984 49.912 78.304 49.536C78.624 49.152 78.784 48.648 78.784 48.024C78.784 47.4 78.624 46.92 78.304 46.584C77.984 46.24 77.512 46.068 76.888 46.068C76.464 46.068 76.092 46.172 75.772 46.38C75.46 46.58 75.232 46.856 75.088 47.208H74.056V42.312H79.276V43.272ZM81.8072 51.072C81.5992 51.072 81.4232 51 81.2792 50.856C81.1352 50.712 81.0632 50.536 81.0632 50.328C81.0632 50.12 81.1352 49.944 81.2792 49.8C81.4232 49.656 81.5992 49.584 81.8072 49.584C82.0072 49.584 82.1752 49.656 82.3112 49.8C82.4552 49.944 82.5272 50.12 82.5272 50.328C82.5272 50.536 82.4552 50.712 82.3112 50.856C82.1752 51 82.0072 51.072 81.8072 51.072ZM85.3827 46.488C84.9347 46.312 84.5907 46.056 84.3507 45.72C84.1107 45.384 83.9907 44.976 83.9907 44.496C83.9907 44.064 84.0987 43.676 84.3147 43.332C84.5307 42.98 84.8507 42.704 85.2747 42.504C85.7067 42.296 86.2267 42.192 86.8347 42.192C87.4427 42.192 87.9587 42.296 88.3827 42.504C88.8147 42.704 89.1387 42.98 89.3547 43.332C89.5787 43.676 89.6907 44.064 89.6907 44.496C89.6907 44.96 89.5667 45.368 89.3187 45.72C89.0707 46.064 88.7307 46.32 88.2987 46.488C88.7947 46.64 89.1867 46.908 89.4747 47.292C89.7707 47.668 89.9187 48.124 89.9187 48.66C89.9187 49.18 89.7907 49.636 89.5347 50.028C89.2787 50.412 88.9147 50.712 88.4427 50.928C87.9787 51.136 87.4427 51.24 86.8347 51.24C86.2267 51.24 85.6907 51.136 85.2267 50.928C84.7707 50.712 84.4147 50.412 84.1587 50.028C83.9027 49.636 83.7747 49.18 83.7747 48.66C83.7747 48.124 83.9187 47.664 84.2067 47.28C84.4947 46.896 84.8867 46.632 85.3827 46.488ZM88.6347 44.628C88.6347 44.14 88.4747 43.764 88.1547 43.5C87.8347 43.236 87.3947 43.104 86.8347 43.104C86.2827 43.104 85.8467 43.236 85.5267 43.5C85.2067 43.764 85.0467 44.144 85.0467 44.64C85.0467 45.088 85.2107 45.448 85.5387 45.72C85.8747 45.992 86.3067 46.128 86.8347 46.128C87.3707 46.128 87.8027 45.992 88.1307 45.72C88.4667 45.44 88.6347 45.076 88.6347 44.628ZM86.8347 46.968C86.2427 46.968 85.7587 47.108 85.3827 47.388C85.0067 47.66 84.8187 48.072 84.8187 48.624C84.8187 49.136 84.9987 49.548 85.3587 49.86C85.7267 50.172 86.2187 50.328 86.8347 50.328C87.4507 50.328 87.9387 50.172 88.2987 49.86C88.6587 49.548 88.8387 49.136 88.8387 48.624C88.8387 48.088 88.6547 47.68 88.2867 47.4C87.9187 47.112 87.4347 46.968 86.8347 46.968ZM103.232 42.696V51H102.14V44.808L99.3802 51H98.6122L95.8402 44.796V51H94.7482V42.696H95.9242L98.9962 49.56L102.068 42.696H103.232ZM109.272 46.692C109.576 46.74 109.852 46.864 110.1 47.064C110.356 47.264 110.556 47.512 110.7 47.808C110.852 48.104 110.928 48.42 110.928 48.756C110.928 49.18 110.82 49.564 110.604 49.908C110.388 50.244 110.072 50.512 109.656 50.712C109.248 50.904 108.764 51 108.204 51H105.084V42.636H108.084C108.652 42.636 109.136 42.732 109.536 42.924C109.936 43.108 110.236 43.36 110.436 43.68C110.636 44 110.736 44.36 110.736 44.76C110.736 45.256 110.6 45.668 110.328 45.996C110.064 46.316 109.712 46.548 109.272 46.692ZM106.176 46.248H108.012C108.524 46.248 108.92 46.128 109.2 45.888C109.48 45.648 109.62 45.316 109.62 44.892C109.62 44.468 109.48 44.136 109.2 43.896C108.92 43.656 108.516 43.536 107.988 43.536H106.176V46.248ZM108.108 50.1C108.652 50.1 109.076 49.972 109.38 49.716C109.684 49.46 109.836 49.104 109.836 48.648C109.836 48.184 109.676 47.82 109.356 47.556C109.036 47.284 108.608 47.148 108.072 47.148H106.176V50.1H108.108Z" fill="#8A9099"/>
<path fill-rule="evenodd" clip-rule="evenodd" d="M428.899 36.755C429.199 36.4815 429.665 36.5032 429.938 36.8037C430.212 37.1041 430.19 37.5695 429.89 37.8431L425.999 41.3861L422.107 37.8431C421.807 37.5695 421.785 37.1041 422.059 36.8037C422.332 36.5032 422.798 36.4815 423.098 36.755L425.263 38.726V29.7357C425.263 29.3294 425.592 29 425.999 29C426.405 29 426.734 29.3294 426.734 29.7357V38.726L428.899 36.755ZM419.455 41.3633C419.455 40.9617 419.129 40.6361 418.727 40.6361C418.326 40.6361 418 40.9617 418 41.3633V42.333C418 43.8058 419.194 44.9997 420.667 44.9997H431.333C432.806 44.9997 434 43.8058 434 42.333V41.3633C434 40.9617 433.674 40.6361 433.273 40.6361C432.871 40.6361 432.545 40.9617 432.545 41.3633V42.333C432.545 43.0025 432.003 43.5451 431.333 43.5451H420.667C419.997 43.5451 419.455 43.0025 419.455 42.333V41.3633Z" fill="#8A9099"/>
<path fill-rule="evenodd" clip-rule="evenodd" d="M463.05 30.705C463.181 30.5737 463.359 30.5 463.545 30.5H466.445C466.631 30.5 466.809 30.5737 466.94 30.705C467.071 30.8363 467.145 31.0143 467.145 31.2V31.9L462.845 31.9V31.2C462.845 31.0143 462.919 30.8363 463.05 30.705ZM461.345 31.9V31.2C461.345 30.6165 461.577 30.0569 461.989 29.6444C462.402 29.2318 462.961 29 463.545 29H466.445C467.028 29 467.588 29.2318 468.001 29.6444C468.413 30.0569 468.645 30.6165 468.645 31.2V31.9L471.52 31.9C471.934 31.9 472.27 32.2358 472.27 32.65C472.27 33.0642 471.934 33.4 471.52 33.4H470.82V42.8C470.82 43.3835 470.588 43.9431 470.176 44.3556C469.763 44.7682 469.203 45 468.62 45H461.37C460.786 45 460.227 44.7682 459.814 44.3556C459.402 43.9431 459.17 43.3835 459.17 42.8V33.4H458.47C458.056 33.4 457.72 33.0642 457.72 32.65C457.72 32.2358 458.056 31.9 458.47 31.9H461.345ZM460.67 42.8V33.4H469.32V42.8C469.32 42.9857 469.246 43.1637 469.115 43.295C468.984 43.4263 468.806 43.5 468.62 43.5H461.37C461.184 43.5 461.006 43.4263 460.875 43.295C460.744 43.1637 460.67 42.9857 460.67 42.8ZM463.545 35.525C463.959 35.525 464.295 35.8608 464.295 36.275V40.625C464.295 41.0392 463.959 41.375 463.545 41.375C463.131 41.375 462.795 41.0392 462.795 40.625V36.275C462.795 35.8608 463.131 35.525 463.545 35.525ZM467.195 36.275C467.195 35.8608 466.859 35.525 466.445 35.525C466.031 35.525 465.695 35.8608 465.695 36.275V40.625C465.695 41.0392 466.031 41.375 466.445 41.375C466.859 41.375 467.195 41.0392 467.195 40.625V36.275Z" fill="#8A9099"/>
<path fill-rule="evenodd" clip-rule="evenodd" d="M23.5 17H42.7412L51.9999 26.215V54.5C51.9999 55.8812 50.88 57 49.4999 57H23.5C22.1199 57 21 55.8812 21 54.5V19.5C21 18.1188 22.1201 17 23.5 17Z" fill="white"/>
<path d="M23.5 17.5H42.5348L51.4999 26.4228V54.5C51.4999 55.6049 50.604 56.5 49.4999 56.5H23.5C22.3959 56.5 21.5 55.6049 21.5 54.5V19.5C21.5 18.3951 22.396 17.5 23.5 17.5Z" stroke="#E8E9EB"/>
<path d="M51.5001 26.5H44.7294C43.4987 26.5 42.5 25.5023 42.5 24.2729V17.5" stroke="#E8E9EB"/>
<path d="M37.0562 40.9286V39.7143H38.2705V38.5H37.0562V37.2857H38.2705V36.0714H37.0562V34.8571H38.2705V33.6429H37.0562V32.4286H38.2705V31.2143H37.0562V30H35.8419V31.2143H34.6276V32.4286H35.8419V33.6429H34.6276V34.8571H35.8419V36.0714H34.6276V37.2857H35.8419V38.5H34.6276V39.7143H35.8419V40.9286H33.4133V43.9643C33.4133 45.6382 34.7752 47 36.449 47C38.1229 47 39.4848 45.6382 39.4848 43.9643V40.9286H37.0562ZM38.2705 43.9643C38.2705 44.9685 37.4533 45.7857 36.449 45.7857C35.4448 45.7857 34.6276 44.9685 34.6276 43.9643V42.1429H38.2705V43.9643Z" fill="#8A9099"/>
<path d="M35.842 44.5715H37.0563C37.3914 44.5715 37.6634 44.3001 37.6634 43.9643C37.6634 43.6286 37.3914 43.3572 37.0563 43.3572H35.842C35.5069 43.3572 35.2349 43.6286 35.2349 43.9643C35.2349 44.3001 35.5069 44.5715 35.842 44.5715Z" fill="#8A9099"/>
</svg>
