<svg width="250" height="74" viewBox="0 0 250 74" fill="none" xmlns="http://www.w3.org/2000/svg">
<mask id="mask0_1708_79" style="mask-type:alpha" maskUnits="userSpaceOnUse" x="0" y="0" width="250" height="74">
<rect width="250" height="74" rx="14" fill="#C4C4C4"/>
</mask>
<g mask="url(#mask0_1708_79)">
<rect width="250" height="74" fill="#F8F8F8"/>
</g>
<path d="M68.328 31L66.336 27.58H65.016V31H63.924V22.636H66.624C67.256 22.636 67.788 22.744 68.22 22.96C68.66 23.176 68.988 23.468 69.204 23.836C69.42 24.204 69.528 24.624 69.528 25.096C69.528 25.672 69.36 26.18 69.024 26.62C68.696 27.06 68.2 27.352 67.536 27.496L69.636 31H68.328ZM65.016 26.704H66.624C67.216 26.704 67.66 26.56 67.956 26.272C68.252 25.976 68.4 25.584 68.4 25.096C68.4 24.6 68.252 24.216 67.956 23.944C67.668 23.672 67.224 23.536 66.624 23.536H65.016V26.704ZM77.2248 27.46C77.2248 27.668 77.2128 27.888 77.1888 28.12H71.9328C71.9728 28.768 72.1928 29.276 72.5928 29.644C73.0008 30.004 73.4928 30.184 74.0688 30.184C74.5408 30.184 74.9328 30.076 75.2448 29.86C75.5648 29.636 75.7888 29.34 75.9168 28.972H77.0928C76.9168 29.604 76.5648 30.12 76.0368 30.52C75.5088 30.912 74.8528 31.108 74.0688 31.108C73.4448 31.108 72.8848 30.968 72.3888 30.688C71.9008 30.408 71.5168 30.012 71.2368 29.5C70.9568 28.98 70.8168 28.38 70.8168 27.7C70.8168 27.02 70.9528 26.424 71.2248 25.912C71.4968 25.4 71.8768 25.008 72.3648 24.736C72.8608 24.456 73.4288 24.316 74.0688 24.316C74.6928 24.316 75.2448 24.452 75.7248 24.724C76.2048 24.996 76.5728 25.372 76.8288 25.852C77.0928 26.324 77.2248 26.86 77.2248 27.46ZM76.0968 27.232C76.0968 26.816 76.0048 26.46 75.8208 26.164C75.6368 25.86 75.3848 25.632 75.0648 25.48C74.7528 25.32 74.4048 25.24 74.0208 25.24C73.4688 25.24 72.9968 25.416 72.6048 25.768C72.2208 26.12 72.0008 26.608 71.9448 27.232H76.0968ZM80.9942 31.108C80.4902 31.108 80.0382 31.024 79.6382 30.856C79.2382 30.68 78.9222 30.44 78.6902 30.136C78.4582 29.824 78.3302 29.468 78.3062 29.068H79.4342C79.4662 29.396 79.6182 29.664 79.8902 29.872C80.1702 30.08 80.5342 30.184 80.9822 30.184C81.3982 30.184 81.7262 30.092 81.9662 29.908C82.2062 29.724 82.3262 29.492 82.3262 29.212C82.3262 28.924 82.1982 28.712 81.9422 28.576C81.6862 28.432 81.2902 28.292 80.7542 28.156C80.2662 28.028 79.8662 27.9 79.5542 27.772C79.2502 27.636 78.9862 27.44 78.7622 27.184C78.5462 26.92 78.4382 26.576 78.4382 26.152C78.4382 25.816 78.5382 25.508 78.7382 25.228C78.9382 24.948 79.2222 24.728 79.5902 24.568C79.9582 24.4 80.3782 24.316 80.8502 24.316C81.5782 24.316 82.1662 24.5 82.6142 24.868C83.0622 25.236 83.3022 25.74 83.3342 26.38H82.2422C82.2182 26.036 82.0782 25.76 81.8222 25.552C81.5742 25.344 81.2382 25.24 80.8142 25.24C80.4222 25.24 80.1102 25.324 79.8782 25.492C79.6462 25.66 79.5302 25.88 79.5302 26.152C79.5302 26.368 79.5982 26.548 79.7342 26.692C79.8782 26.828 80.0542 26.94 80.2622 27.028C80.4782 27.108 80.7742 27.2 81.1502 27.304C81.6222 27.432 82.0062 27.56 82.3022 27.688C82.5982 27.808 82.8502 27.992 83.0582 28.24C83.2742 28.488 83.3862 28.812 83.3942 29.212C83.3942 29.572 83.2942 29.896 83.0942 30.184C82.8942 30.472 82.6102 30.7 82.2422 30.868C81.8822 31.028 81.4662 31.108 80.9942 31.108ZM90.7677 24.424V31H89.6757V30.028C89.4677 30.364 89.1757 30.628 88.7997 30.82C88.4317 31.004 88.0237 31.096 87.5757 31.096C87.0637 31.096 86.6037 30.992 86.1957 30.784C85.7877 30.568 85.4637 30.248 85.2237 29.824C84.9917 29.4 84.8757 28.884 84.8757 28.276V24.424H85.9557V28.132C85.9557 28.78 86.1197 29.28 86.4477 29.632C86.7757 29.976 87.2237 30.148 87.7917 30.148C88.3757 30.148 88.8357 29.968 89.1717 29.608C89.5077 29.248 89.6757 28.724 89.6757 28.036V24.424H90.7677ZM100.52 24.304C101.032 24.304 101.488 24.412 101.888 24.628C102.288 24.836 102.604 25.152 102.836 25.576C103.068 26 103.184 26.516 103.184 27.124V31H102.104V27.28C102.104 26.624 101.94 26.124 101.612 25.78C101.292 25.428 100.856 25.252 100.304 25.252C99.7355 25.252 99.2835 25.436 98.9475 25.804C98.6115 26.164 98.4435 26.688 98.4435 27.376V31H97.3635V27.28C97.3635 26.624 97.1995 26.124 96.8715 25.78C96.5515 25.428 96.1155 25.252 95.5635 25.252C94.9955 25.252 94.5435 25.436 94.2075 25.804C93.8715 26.164 93.7035 26.688 93.7035 27.376V31H92.6115V24.424H93.7035V25.372C93.9195 25.028 94.2075 24.764 94.5675 24.58C94.9355 24.396 95.3395 24.304 95.7795 24.304C96.3315 24.304 96.8195 24.428 97.2435 24.676C97.6675 24.924 97.9835 25.288 98.1915 25.768C98.3755 25.304 98.6795 24.944 99.1035 24.688C99.5275 24.432 99.9995 24.304 100.52 24.304ZM110.975 27.46C110.975 27.668 110.963 27.888 110.939 28.12H105.683C105.723 28.768 105.943 29.276 106.343 29.644C106.751 30.004 107.243 30.184 107.819 30.184C108.291 30.184 108.683 30.076 108.995 29.86C109.315 29.636 109.539 29.34 109.667 28.972H110.843C110.667 29.604 110.315 30.12 109.787 30.52C109.259 30.912 108.603 31.108 107.819 31.108C107.195 31.108 106.635 30.968 106.139 30.688C105.651 30.408 105.267 30.012 104.987 29.5C104.707 28.98 104.567 28.38 104.567 27.7C104.567 27.02 104.703 26.424 104.975 25.912C105.247 25.4 105.627 25.008 106.115 24.736C106.611 24.456 107.179 24.316 107.819 24.316C108.443 24.316 108.995 24.452 109.475 24.724C109.955 24.996 110.323 25.372 110.579 25.852C110.843 26.324 110.975 26.86 110.975 27.46ZM109.847 27.232C109.847 26.816 109.755 26.46 109.571 26.164C109.387 25.86 109.135 25.632 108.815 25.48C108.503 25.32 108.155 25.24 107.771 25.24C107.219 25.24 106.747 25.416 106.355 25.768C105.971 26.12 105.751 26.608 105.695 27.232H109.847ZM112.764 31.072C112.556 31.072 112.38 31 112.236 30.856C112.092 30.712 112.02 30.536 112.02 30.328C112.02 30.12 112.092 29.944 112.236 29.8C112.38 29.656 112.556 29.584 112.764 29.584C112.964 29.584 113.132 29.656 113.268 29.8C113.412 29.944 113.484 30.12 113.484 30.328C113.484 30.536 113.412 30.712 113.268 30.856C113.132 31 112.964 31.072 112.764 31.072ZM116.028 25.636C116.244 25.26 116.564 24.948 116.988 24.7C117.42 24.444 117.92 24.316 118.488 24.316C119.072 24.316 119.6 24.456 120.072 24.736C120.552 25.016 120.928 25.412 121.2 25.924C121.472 26.428 121.608 27.016 121.608 27.688C121.608 28.352 121.472 28.944 121.2 29.464C120.928 29.984 120.552 30.388 120.072 30.676C119.6 30.964 119.072 31.108 118.488 31.108C117.928 31.108 117.432 30.984 117 30.736C116.576 30.48 116.252 30.164 116.028 29.788V34.12H114.936V24.424H116.028V25.636ZM120.492 27.688C120.492 27.192 120.392 26.76 120.192 26.392C119.992 26.024 119.72 25.744 119.376 25.552C119.04 25.36 118.668 25.264 118.26 25.264C117.86 25.264 117.488 25.364 117.144 25.564C116.808 25.756 116.536 26.04 116.328 26.416C116.128 26.784 116.028 27.212 116.028 27.7C116.028 28.196 116.128 28.632 116.328 29.008C116.536 29.376 116.808 29.66 117.144 29.86C117.488 30.052 117.86 30.148 118.26 30.148C118.668 30.148 119.04 30.052 119.376 29.86C119.72 29.66 119.992 29.376 120.192 29.008C120.392 28.632 120.492 28.192 120.492 27.688ZM122.637 27.688C122.637 27.016 122.773 26.428 123.045 25.924C123.317 25.412 123.689 25.016 124.161 24.736C124.641 24.456 125.177 24.316 125.769 24.316C126.281 24.316 126.757 24.436 127.197 24.676C127.637 24.908 127.973 25.216 128.205 25.6V22.12H129.309V31H128.205V29.764C127.989 30.156 127.669 30.48 127.245 30.736C126.821 30.984 126.325 31.108 125.757 31.108C125.173 31.108 124.641 30.964 124.161 30.676C123.689 30.388 123.317 29.984 123.045 29.464C122.773 28.944 122.637 28.352 122.637 27.688ZM128.205 27.7C128.205 27.204 128.105 26.772 127.905 26.404C127.705 26.036 127.433 25.756 127.089 25.564C126.753 25.364 126.381 25.264 125.973 25.264C125.565 25.264 125.193 25.36 124.857 25.552C124.521 25.744 124.253 26.024 124.053 26.392C123.853 26.76 123.753 27.192 123.753 27.688C123.753 28.192 123.853 28.632 124.053 29.008C124.253 29.376 124.521 29.66 124.857 29.86C125.193 30.052 125.565 30.148 125.973 30.148C126.381 30.148 126.753 30.052 127.089 29.86C127.433 29.66 127.705 29.376 127.905 29.008C128.105 28.632 128.205 28.196 128.205 27.7ZM133.83 25.324H132.45V31H131.358V25.324H130.506V24.424H131.358V23.956C131.358 23.22 131.546 22.684 131.922 22.348C132.306 22.004 132.918 21.832 133.758 21.832V22.744C133.278 22.744 132.938 22.84 132.738 23.032C132.546 23.216 132.45 23.524 132.45 23.956V24.424H133.83V25.324Z" fill="#3F434A"/>
<path d="M69.276 43.272H65.064V46.008C65.248 45.752 65.52 45.544 65.88 45.384C66.24 45.216 66.628 45.132 67.044 45.132C67.708 45.132 68.248 45.272 68.664 45.552C69.08 45.824 69.376 46.18 69.552 46.62C69.736 47.052 69.828 47.512 69.828 48C69.828 48.576 69.72 49.092 69.504 49.548C69.288 50.004 68.956 50.364 68.508 50.628C68.068 50.892 67.52 51.024 66.864 51.024C66.024 51.024 65.344 50.808 64.824 50.376C64.304 49.944 63.988 49.368 63.876 48.648H64.944C65.048 49.104 65.268 49.46 65.604 49.716C65.94 49.972 66.364 50.1 66.876 50.1C67.508 50.1 67.984 49.912 68.304 49.536C68.624 49.152 68.784 48.648 68.784 48.024C68.784 47.4 68.624 46.92 68.304 46.584C67.984 46.24 67.512 46.068 66.888 46.068C66.464 46.068 66.092 46.172 65.772 46.38C65.46 46.58 65.232 46.856 65.088 47.208H64.056V42.312H69.276V43.272ZM76.6192 43.176L73.2832 51H72.1792L75.5632 43.284H70.9312V42.348H76.6192V43.176ZM77.8299 46.572C77.8299 45.196 78.0539 44.124 78.5019 43.356C78.9499 42.58 79.7339 42.192 80.8539 42.192C81.9659 42.192 82.7459 42.58 83.1939 43.356C83.6419 44.124 83.8659 45.196 83.8659 46.572C83.8659 47.972 83.6419 49.06 83.1939 49.836C82.7459 50.612 81.9659 51 80.8539 51C79.7339 51 78.9499 50.612 78.5019 49.836C78.0539 49.06 77.8299 47.972 77.8299 46.572ZM82.7859 46.572C82.7859 45.876 82.7379 45.288 82.6419 44.808C82.5539 44.32 82.3659 43.928 82.0779 43.632C81.7979 43.336 81.3899 43.188 80.8539 43.188C80.3099 43.188 79.8939 43.336 79.6059 43.632C79.3259 43.928 79.1379 44.32 79.0419 44.808C78.9539 45.288 78.9099 45.876 78.9099 46.572C78.9099 47.292 78.9539 47.896 79.0419 48.384C79.1379 48.872 79.3259 49.264 79.6059 49.56C79.8939 49.856 80.3099 50.004 80.8539 50.004C81.3899 50.004 81.7979 49.856 82.0779 49.56C82.3659 49.264 82.5539 48.872 82.6419 48.384C82.7379 47.896 82.7859 47.292 82.7859 46.572ZM93.2803 51L89.8363 47.184V51H88.7443V42.636H89.8363V46.512L93.2923 42.636H94.6723L90.8803 46.824L94.7083 51H93.2803ZM100.116 46.692C100.42 46.74 100.696 46.864 100.944 47.064C101.2 47.264 101.4 47.512 101.544 47.808C101.696 48.104 101.772 48.42 101.772 48.756C101.772 49.18 101.664 49.564 101.448 49.908C101.232 50.244 100.916 50.512 100.5 50.712C100.092 50.904 99.6079 51 99.0479 51H95.9279V42.636H98.9279C99.4959 42.636 99.9799 42.732 100.38 42.924C100.78 43.108 101.08 43.36 101.28 43.68C101.48 44 101.58 44.36 101.58 44.76C101.58 45.256 101.444 45.668 101.172 45.996C100.908 46.316 100.556 46.548 100.116 46.692ZM97.0199 46.248H98.8559C99.3679 46.248 99.7639 46.128 100.044 45.888C100.324 45.648 100.464 45.316 100.464 44.892C100.464 44.468 100.324 44.136 100.044 43.896C99.7639 43.656 99.3599 43.536 98.8319 43.536H97.0199V46.248ZM98.9519 50.1C99.4959 50.1 99.9199 49.972 100.224 49.716C100.528 49.46 100.68 49.104 100.68 48.648C100.68 48.184 100.52 47.82 100.2 47.556C99.8799 47.284 99.4519 47.148 98.9159 47.148H97.0199V50.1H98.9519Z" fill="#8A9099"/>
<path fill-rule="evenodd" clip-rule="evenodd" d="M227.899 36.755C228.199 36.4815 228.665 36.5032 228.938 36.8037C229.212 37.1041 229.19 37.5695 228.89 37.8431L224.999 41.3861L221.107 37.8431C220.807 37.5695 220.785 37.1041 221.059 36.8037C221.332 36.5032 221.798 36.4815 222.098 36.755L224.263 38.726V29.7357C224.263 29.3294 224.592 29 224.999 29C225.405 29 225.734 29.3294 225.734 29.7357V38.726L227.899 36.755ZM218.455 41.3633C218.455 40.9617 218.129 40.6361 217.727 40.6361C217.326 40.6361 217 40.9617 217 41.3633V42.333C217 43.8058 218.194 44.9997 219.667 44.9997H230.333C231.806 44.9997 233 43.8058 233 42.333V41.3633C233 40.9617 232.674 40.6361 232.273 40.6361C231.871 40.6361 231.545 40.9617 231.545 41.3633V42.333C231.545 43.0025 231.003 43.5451 230.333 43.5451H219.667C218.997 43.5451 218.455 43.0025 218.455 42.333V41.3633Z" fill="#3F434A"/>
<path fill-rule="evenodd" clip-rule="evenodd" d="M19.5 17H38.7412L47.9999 26.215V54.5C47.9999 55.8812 46.88 57 45.4999 57H19.5C18.1199 57 17 55.8812 17 54.5V19.5C17 18.1188 18.1201 17 19.5 17Z" fill="white"/>
<path d="M19.5 17.5H38.5348L47.4999 26.4228V54.5C47.4999 55.6049 46.604 56.5 45.4999 56.5H19.5C18.3959 56.5 17.5 55.6049 17.5 54.5V19.5C17.5 18.3951 18.396 17.5 19.5 17.5Z" stroke="#E8E9EB"/>
<path d="M47.5001 26.5H40.7294C39.4987 26.5 38.5 25.5023 38.5 24.2729V17.5" stroke="#E8E9EB"/>
<path d="M26.3619 47C26.1358 47 25.9187 46.9316 25.7335 46.8025C25.057 46.3295 24.9661 45.8031 25.0089 45.4446C25.1272 44.4585 26.4354 43.4264 28.8983 42.3749C29.8757 40.3786 30.8056 37.9188 31.3599 35.8637C30.7114 34.5482 30.081 32.8413 30.5405 31.8401C30.7016 31.4894 30.9025 31.2205 31.2774 31.1042C31.4256 31.0581 31.7999 31 31.9377 31C32.2652 31 32.5531 31.3931 32.7571 31.6354C32.9488 31.8631 33.3836 32.3459 32.5147 35.7553C33.3907 37.4416 34.632 39.1593 35.8212 40.3356C36.6731 40.192 37.4062 40.1187 38.0034 40.1187C39.021 40.1187 39.6378 40.3398 39.8893 40.7953C40.0972 41.172 40.0121 41.6124 39.6358 42.1036C39.2738 42.5754 38.7748 42.825 38.1931 42.825C37.4029 42.825 36.4827 42.3598 35.4566 41.4409C33.613 41.8001 31.46 42.4409 29.7197 43.1502C29.1764 44.2247 28.6559 45.0902 28.1711 45.725C27.505 46.5942 26.9306 47 26.3619 47ZM28.0918 43.8952C26.7031 44.6227 26.1371 45.2205 26.0962 45.5572C26.0897 45.613 26.0721 45.7595 26.3762 45.9764C26.4731 45.9479 27.0384 45.7075 28.0918 43.8952ZM36.9539 41.2047C37.4835 41.5845 37.6128 41.7765 37.9592 41.7765C38.1113 41.7765 38.5447 41.7704 38.7455 41.5094C38.8423 41.3828 38.88 41.3016 38.895 41.258C38.815 41.2187 38.7091 41.1387 38.1314 41.1387C37.8032 41.1393 37.3906 41.1526 36.9539 41.2047ZM32.0995 37.218C31.6348 38.7165 31.0214 40.3343 30.3618 41.7995C31.72 41.3083 33.1964 40.8795 34.5832 40.576C33.7059 39.6263 32.8293 38.4403 32.0995 37.218ZM31.705 32.0927C31.6413 32.1127 30.8407 33.1569 31.7674 34.0406C32.3841 32.7595 31.733 32.0842 31.705 32.0927Z" fill="#E2574C"/>
</svg>
