<svg width="250" height="74" viewBox="0 0 250 74" fill="none" xmlns="http://www.w3.org/2000/svg">
<mask id="mask0_1721_40766" style="mask-type:alpha" maskUnits="userSpaceOnUse" x="0" y="0" width="250" height="74">
<rect x="0.5" y="0.5" width="249" height="73" rx="13.5" stroke="black"/>
</mask>
<g mask="url(#mask0_1721_40766)">
<rect width="250" height="74" fill="#E8E9EB"/>
</g>
<rect x="64" y="47" width="169" height="5" rx="2.5" fill="white"/>
<mask id="mask1_1721_40766" style="mask-type:alpha" maskUnits="userSpaceOnUse" x="64" y="47" width="169" height="5">
<rect x="64" y="47" width="169" height="5" rx="2.5" fill="white"/>
</mask>
<g mask="url(#mask1_1721_40766)">
<g opacity="0.5">
<rect x="64" y="47" width="169" height="5" fill="#E8E9EB"/>
</g>
</g>
<mask id="mask2_1721_40766" style="mask-type:alpha" maskUnits="userSpaceOnUse" x="64" y="47" width="77" height="5">
<rect x="64" y="47" width="76.2561" height="5" rx="2.5" fill="#304CFD"/>
</mask>
<g mask="url(#mask2_1721_40766)">
<rect x="64" y="47" width="76.2561" height="5" fill="#304FFD"/>
</g>
<path fill-rule="evenodd" clip-rule="evenodd" d="M231.073 30.8409C231.285 31.053 231.629 31.053 231.841 30.8409C232.053 30.6288 232.053 30.2848 231.841 30.0727L228.768 27L231.841 23.9273C232.053 23.7151 232.053 23.3712 231.841 23.1591C231.629 22.947 231.285 22.947 231.073 23.1591L228 26.2318L224.927 23.1591C224.715 22.947 224.371 22.947 224.159 23.1591C223.947 23.3712 223.947 23.7152 224.159 23.9273L227.232 27L224.159 30.0727C223.947 30.2848 223.947 30.6287 224.159 30.8409C224.371 31.053 224.715 31.053 224.927 30.8409L228 27.7682L231.073 30.8409Z" fill="#3F434A"/>
<path d="M64.992 22.636V27.928C64.992 28.672 65.172 29.224 65.532 29.584C65.9 29.944 66.408 30.124 67.056 30.124C67.696 30.124 68.196 29.944 68.556 29.584C68.924 29.224 69.108 28.672 69.108 27.928V22.636H70.2V27.916C70.2 28.612 70.06 29.2 69.78 29.68C69.5 30.152 69.12 30.504 68.64 30.736C68.168 30.968 67.636 31.084 67.044 31.084C66.452 31.084 65.916 30.968 65.436 30.736C64.964 30.504 64.588 30.152 64.308 29.68C64.036 29.2 63.9 28.612 63.9 27.916V22.636H64.992ZM73.1137 25.636C73.3297 25.26 73.6497 24.948 74.0737 24.7C74.5057 24.444 75.0057 24.316 75.5737 24.316C76.1577 24.316 76.6857 24.456 77.1577 24.736C77.6377 25.016 78.0137 25.412 78.2857 25.924C78.5577 26.428 78.6937 27.016 78.6937 27.688C78.6937 28.352 78.5577 28.944 78.2857 29.464C78.0137 29.984 77.6377 30.388 77.1577 30.676C76.6857 30.964 76.1577 31.108 75.5737 31.108C75.0137 31.108 74.5177 30.984 74.0857 30.736C73.6617 30.48 73.3377 30.164 73.1137 29.788V34.12H72.0217V24.424H73.1137V25.636ZM77.5777 27.688C77.5777 27.192 77.4777 26.76 77.2777 26.392C77.0777 26.024 76.8057 25.744 76.4617 25.552C76.1257 25.36 75.7537 25.264 75.3457 25.264C74.9457 25.264 74.5737 25.364 74.2297 25.564C73.8937 25.756 73.6217 26.04 73.4137 26.416C73.2137 26.784 73.1137 27.212 73.1137 27.7C73.1137 28.196 73.2137 28.632 73.4137 29.008C73.6217 29.376 73.8937 29.66 74.2297 29.86C74.5737 30.052 74.9457 30.148 75.3457 30.148C75.7537 30.148 76.1257 30.052 76.4617 29.86C76.8057 29.66 77.0777 29.376 77.2777 29.008C77.4777 28.632 77.5777 28.192 77.5777 27.688ZM81.223 22.12V31H80.131V22.12H81.223ZM85.9522 31.108C85.3362 31.108 84.7762 30.968 84.2722 30.688C83.7762 30.408 83.3842 30.012 83.0962 29.5C82.8162 28.98 82.6762 28.38 82.6762 27.7C82.6762 27.028 82.8202 26.436 83.1082 25.924C83.4042 25.404 83.8042 25.008 84.3082 24.736C84.8122 24.456 85.3762 24.316 86.0002 24.316C86.6242 24.316 87.1882 24.456 87.6922 24.736C88.1962 25.008 88.5922 25.4 88.8802 25.912C89.1762 26.424 89.3242 27.02 89.3242 27.7C89.3242 28.38 89.1722 28.98 88.8682 29.5C88.5722 30.012 88.1682 30.408 87.6562 30.688C87.1442 30.968 86.5762 31.108 85.9522 31.108ZM85.9522 30.148C86.3442 30.148 86.7122 30.056 87.0562 29.872C87.4002 29.688 87.6762 29.412 87.8842 29.044C88.1002 28.676 88.2082 28.228 88.2082 27.7C88.2082 27.172 88.1042 26.724 87.8962 26.356C87.6882 25.988 87.4162 25.716 87.0802 25.54C86.7442 25.356 86.3802 25.264 85.9882 25.264C85.5882 25.264 85.2202 25.356 84.8842 25.54C84.5562 25.716 84.2922 25.988 84.0922 26.356C83.8922 26.724 83.7922 27.172 83.7922 27.7C83.7922 28.236 83.8882 28.688 84.0802 29.056C84.2802 29.424 84.5442 29.7 84.8722 29.884C85.2002 30.06 85.5602 30.148 85.9522 30.148ZM90.3519 27.688C90.3519 27.016 90.4879 26.428 90.7599 25.924C91.0319 25.412 91.4039 25.016 91.8759 24.736C92.3559 24.456 92.8879 24.316 93.4719 24.316C94.0479 24.316 94.5479 24.44 94.9719 24.688C95.3959 24.936 95.7119 25.248 95.9199 25.624V24.424H97.0239V31H95.9199V29.776C95.7039 30.16 95.3799 30.48 94.9479 30.736C94.5239 30.984 94.0279 31.108 93.4599 31.108C92.8759 31.108 92.3479 30.964 91.8759 30.676C91.4039 30.388 91.0319 29.984 90.7599 29.464C90.4879 28.944 90.3519 28.352 90.3519 27.688ZM95.9199 27.7C95.9199 27.204 95.8199 26.772 95.6199 26.404C95.4199 26.036 95.1479 25.756 94.8039 25.564C94.4679 25.364 94.0959 25.264 93.6879 25.264C93.2799 25.264 92.9079 25.36 92.5719 25.552C92.2359 25.744 91.9679 26.024 91.7679 26.392C91.5679 26.76 91.4679 27.192 91.4679 27.688C91.4679 28.192 91.5679 28.632 91.7679 29.008C91.9679 29.376 92.2359 29.66 92.5719 29.86C92.9079 30.052 93.2799 30.148 93.6879 30.148C94.0959 30.148 94.4679 30.052 94.8039 29.86C95.1479 29.66 95.4199 29.376 95.6199 29.008C95.8199 28.632 95.9199 28.196 95.9199 27.7ZM98.4613 27.688C98.4613 27.016 98.5973 26.428 98.8693 25.924C99.1413 25.412 99.5133 25.016 99.9853 24.736C100.465 24.456 101.001 24.316 101.593 24.316C102.105 24.316 102.581 24.436 103.021 24.676C103.461 24.908 103.797 25.216 104.029 25.6V22.12H105.133V31H104.029V29.764C103.813 30.156 103.493 30.48 103.069 30.736C102.645 30.984 102.149 31.108 101.581 31.108C100.997 31.108 100.465 30.964 99.9853 30.676C99.5133 30.388 99.1413 29.984 98.8693 29.464C98.5973 28.944 98.4613 28.352 98.4613 27.688ZM104.029 27.7C104.029 27.204 103.929 26.772 103.729 26.404C103.529 26.036 103.257 25.756 102.913 25.564C102.577 25.364 102.205 25.264 101.797 25.264C101.389 25.264 101.017 25.36 100.681 25.552C100.345 25.744 100.077 26.024 99.8773 26.392C99.6773 26.76 99.5773 27.192 99.5773 27.688C99.5773 28.192 99.6773 28.632 99.8773 29.008C100.077 29.376 100.345 29.66 100.681 29.86C101.017 30.052 101.389 30.148 101.797 30.148C102.205 30.148 102.577 30.052 102.913 29.86C103.257 29.66 103.529 29.376 103.729 29.008C103.929 28.632 104.029 28.196 104.029 27.7ZM107.543 23.356C107.335 23.356 107.159 23.284 107.015 23.14C106.871 22.996 106.799 22.82 106.799 22.612C106.799 22.404 106.871 22.228 107.015 22.084C107.159 21.94 107.335 21.868 107.543 21.868C107.743 21.868 107.911 21.94 108.047 22.084C108.191 22.228 108.263 22.404 108.263 22.612C108.263 22.82 108.191 22.996 108.047 23.14C107.911 23.284 107.743 23.356 107.543 23.356ZM108.071 24.424V31H106.979V24.424H108.071ZM113.136 24.304C113.936 24.304 114.584 24.548 115.08 25.036C115.576 25.516 115.824 26.212 115.824 27.124V31H114.744V27.28C114.744 26.624 114.58 26.124 114.252 25.78C113.924 25.428 113.476 25.252 112.908 25.252C112.332 25.252 111.872 25.432 111.528 25.792C111.192 26.152 111.024 26.676 111.024 27.364V31H109.932V24.424H111.024V25.36C111.24 25.024 111.532 24.764 111.9 24.58C112.276 24.396 112.688 24.304 113.136 24.304ZM120.32 24.316C120.888 24.316 121.384 24.44 121.808 24.688C122.24 24.936 122.56 25.248 122.768 25.624V24.424H123.872V31.144C123.872 31.744 123.744 32.276 123.488 32.74C123.232 33.212 122.864 33.58 122.384 33.844C121.912 34.108 121.36 34.24 120.728 34.24C119.864 34.24 119.144 34.036 118.568 33.628C117.992 33.22 117.652 32.664 117.548 31.96H118.628C118.748 32.36 118.996 32.68 119.372 32.92C119.748 33.168 120.2 33.292 120.728 33.292C121.328 33.292 121.816 33.104 122.192 32.728C122.576 32.352 122.768 31.824 122.768 31.144V29.764C122.552 30.148 122.232 30.468 121.808 30.724C121.384 30.98 120.888 31.108 120.32 31.108C119.736 31.108 119.204 30.964 118.724 30.676C118.252 30.388 117.88 29.984 117.608 29.464C117.336 28.944 117.2 28.352 117.2 27.688C117.2 27.016 117.336 26.428 117.608 25.924C117.88 25.412 118.252 25.016 118.724 24.736C119.204 24.456 119.736 24.316 120.32 24.316ZM122.768 27.7C122.768 27.204 122.668 26.772 122.468 26.404C122.268 26.036 121.996 25.756 121.652 25.564C121.316 25.364 120.944 25.264 120.536 25.264C120.128 25.264 119.756 25.36 119.42 25.552C119.084 25.744 118.816 26.024 118.616 26.392C118.416 26.76 118.316 27.192 118.316 27.688C118.316 28.192 118.416 28.632 118.616 29.008C118.816 29.376 119.084 29.66 119.42 29.86C119.756 30.052 120.128 30.148 120.536 30.148C120.944 30.148 121.316 30.052 121.652 29.86C121.996 29.66 122.268 29.376 122.468 29.008C122.668 28.632 122.768 28.196 122.768 27.7ZM133.644 22.636V23.524H130.008V26.344H132.96V27.232H130.008V31H128.916V22.636H133.644ZM135.527 23.356C135.319 23.356 135.143 23.284 134.999 23.14C134.855 22.996 134.783 22.82 134.783 22.612C134.783 22.404 134.855 22.228 134.999 22.084C135.143 21.94 135.319 21.868 135.527 21.868C135.727 21.868 135.895 21.94 136.031 22.084C136.175 22.228 136.247 22.404 136.247 22.612C136.247 22.82 136.175 22.996 136.031 23.14C135.895 23.284 135.727 23.356 135.527 23.356ZM136.055 24.424V31H134.963V24.424H136.055ZM139.008 22.12V31H137.916V22.12H139.008ZM146.869 27.46C146.869 27.668 146.857 27.888 146.833 28.12H141.577C141.617 28.768 141.837 29.276 142.237 29.644C142.645 30.004 143.137 30.184 143.713 30.184C144.185 30.184 144.577 30.076 144.889 29.86C145.209 29.636 145.433 29.34 145.561 28.972H146.737C146.561 29.604 146.209 30.12 145.681 30.52C145.153 30.912 144.497 31.108 143.713 31.108C143.089 31.108 142.529 30.968 142.033 30.688C141.545 30.408 141.161 30.012 140.881 29.5C140.601 28.98 140.461 28.38 140.461 27.7C140.461 27.02 140.597 26.424 140.869 25.912C141.141 25.4 141.521 25.008 142.009 24.736C142.505 24.456 143.073 24.316 143.713 24.316C144.337 24.316 144.889 24.452 145.369 24.724C145.849 24.996 146.217 25.372 146.473 25.852C146.737 26.324 146.869 26.86 146.869 27.46ZM145.741 27.232C145.741 26.816 145.649 26.46 145.465 26.164C145.281 25.86 145.029 25.632 144.709 25.48C144.397 25.32 144.049 25.24 143.665 25.24C143.113 25.24 142.641 25.416 142.249 25.768C141.865 26.12 141.645 26.608 141.589 27.232H145.741ZM148.659 31.072C148.451 31.072 148.275 31 148.131 30.856C147.987 30.712 147.915 30.536 147.915 30.328C147.915 30.12 147.987 29.944 148.131 29.8C148.275 29.656 148.451 29.584 148.659 29.584C148.859 29.584 149.027 29.656 149.163 29.8C149.307 29.944 149.379 30.12 149.379 30.328C149.379 30.536 149.307 30.712 149.163 30.856C149.027 31 148.859 31.072 148.659 31.072ZM151.178 31.072C150.97 31.072 150.794 31 150.65 30.856C150.506 30.712 150.434 30.536 150.434 30.328C150.434 30.12 150.506 29.944 150.65 29.8C150.794 29.656 150.97 29.584 151.178 29.584C151.378 29.584 151.546 29.656 151.682 29.8C151.826 29.944 151.898 30.12 151.898 30.328C151.898 30.536 151.826 30.712 151.682 30.856C151.546 31 151.378 31.072 151.178 31.072ZM153.698 31.072C153.49 31.072 153.314 31 153.17 30.856C153.026 30.712 152.954 30.536 152.954 30.328C152.954 30.12 153.026 29.944 153.17 29.8C153.314 29.656 153.49 29.584 153.698 29.584C153.898 29.584 154.066 29.656 154.202 29.8C154.346 29.944 154.418 30.12 154.418 30.328C154.418 30.536 154.346 30.712 154.202 30.856C154.066 31 153.898 31.072 153.698 31.072ZM158.625 29.068V28.24L162.837 22.408H164.145V28.12H165.345V29.068H164.145V31H163.065V29.068H158.625ZM163.113 23.548L159.885 28.12H163.113V23.548ZM166.435 26.572C166.435 25.196 166.659 24.124 167.107 23.356C167.555 22.58 168.339 22.192 169.459 22.192C170.571 22.192 171.351 22.58 171.799 23.356C172.247 24.124 172.471 25.196 172.471 26.572C172.471 27.972 172.247 29.06 171.799 29.836C171.351 30.612 170.571 31 169.459 31C168.339 31 167.555 30.612 167.107 29.836C166.659 29.06 166.435 27.972 166.435 26.572ZM171.391 26.572C171.391 25.876 171.343 25.288 171.247 24.808C171.159 24.32 170.971 23.928 170.683 23.632C170.403 23.336 169.995 23.188 169.459 23.188C168.915 23.188 168.499 23.336 168.211 23.632C167.931 23.928 167.743 24.32 167.647 24.808C167.559 25.288 167.515 25.876 167.515 26.572C167.515 27.292 167.559 27.896 167.647 28.384C167.743 28.872 167.931 29.264 168.211 29.56C168.499 29.856 168.915 30.004 169.459 30.004C169.995 30.004 170.403 29.856 170.683 29.56C170.971 29.264 171.159 28.872 171.247 28.384C171.343 27.896 171.391 27.292 171.391 26.572ZM173.731 24.28C173.731 23.736 173.895 23.304 174.223 22.984C174.551 22.656 174.971 22.492 175.483 22.492C175.995 22.492 176.415 22.656 176.743 22.984C177.071 23.304 177.235 23.736 177.235 24.28C177.235 24.832 177.071 25.272 176.743 25.6C176.415 25.92 175.995 26.08 175.483 26.08C174.971 26.08 174.551 25.92 174.223 25.6C173.895 25.272 173.731 24.832 173.731 24.28ZM180.739 22.624L175.879 31H174.799L179.659 22.624H180.739ZM175.483 23.164C175.211 23.164 174.995 23.26 174.835 23.452C174.683 23.636 174.607 23.912 174.607 24.28C174.607 24.648 174.683 24.928 174.835 25.12C174.995 25.312 175.211 25.408 175.483 25.408C175.755 25.408 175.971 25.312 176.131 25.12C176.291 24.92 176.371 24.64 176.371 24.28C176.371 23.912 176.291 23.636 176.131 23.452C175.971 23.26 175.755 23.164 175.483 23.164ZM178.327 29.344C178.327 28.792 178.491 28.356 178.819 28.036C179.147 27.708 179.567 27.544 180.079 27.544C180.591 27.544 181.007 27.708 181.327 28.036C181.655 28.356 181.819 28.792 181.819 29.344C181.819 29.888 181.655 30.324 181.327 30.652C181.007 30.98 180.591 31.144 180.079 31.144C179.567 31.144 179.147 30.984 178.819 30.664C178.491 30.336 178.327 29.896 178.327 29.344ZM180.067 28.228C179.795 28.228 179.579 28.324 179.419 28.516C179.259 28.7 179.179 28.976 179.179 29.344C179.179 29.704 179.259 29.98 179.419 30.172C179.579 30.356 179.795 30.448 180.067 30.448C180.339 30.448 180.555 30.356 180.715 30.172C180.875 29.98 180.955 29.704 180.955 29.344C180.955 28.976 180.875 28.7 180.715 28.516C180.555 28.324 180.339 28.228 180.067 28.228Z" fill="#3F434A"/>
<path fill-rule="evenodd" clip-rule="evenodd" d="M19.5 17H38.7412L47.9999 26.215V54.5C47.9999 55.8812 46.88 57 45.4999 57H19.5C18.1199 57 17 55.8812 17 54.5V19.5C17 18.1188 18.1201 17 19.5 17Z" fill="white"/>
<path d="M19.5 17.5H38.5348L47.4999 26.4228V54.5C47.4999 55.6049 46.604 56.5 45.4999 56.5H19.5C18.3959 56.5 17.5 55.6049 17.5 54.5V19.5C17.5 18.3951 18.396 17.5 19.5 17.5Z" stroke="#E8E9EB"/>
<path d="M47.5001 26.5H40.7294C39.4987 26.5 38.5 25.5023 38.5 24.2729V17.5" stroke="#E8E9EB"/>
<path d="M26.3619 47C26.1358 47 25.9187 46.9316 25.7335 46.8025C25.057 46.3295 24.9661 45.8031 25.0089 45.4446C25.1272 44.4585 26.4354 43.4264 28.8983 42.3749C29.8757 40.3786 30.8056 37.9188 31.3599 35.8637C30.7114 34.5482 30.081 32.8413 30.5405 31.8401C30.7016 31.4894 30.9025 31.2205 31.2774 31.1042C31.4256 31.0581 31.7999 31 31.9377 31C32.2652 31 32.5531 31.3931 32.7571 31.6354C32.9488 31.8631 33.3836 32.3459 32.5147 35.7553C33.3907 37.4416 34.632 39.1593 35.8212 40.3356C36.6731 40.192 37.4062 40.1187 38.0034 40.1187C39.021 40.1187 39.6378 40.3398 39.8893 40.7953C40.0972 41.172 40.0121 41.6124 39.6358 42.1036C39.2738 42.5754 38.7748 42.825 38.1931 42.825C37.4029 42.825 36.4827 42.3598 35.4566 41.4409C33.613 41.8001 31.46 42.4409 29.7197 43.1502C29.1764 44.2247 28.6559 45.0902 28.1711 45.725C27.505 46.5942 26.9306 47 26.3619 47ZM28.0918 43.8952C26.7031 44.6227 26.1371 45.2205 26.0962 45.5572C26.0897 45.613 26.0721 45.7595 26.3762 45.9764C26.4731 45.9479 27.0384 45.7075 28.0918 43.8952ZM36.9539 41.2047C37.4835 41.5845 37.6128 41.7765 37.9592 41.7765C38.1113 41.7765 38.5447 41.7704 38.7455 41.5094C38.8423 41.3828 38.88 41.3016 38.895 41.258C38.815 41.2187 38.7091 41.1387 38.1314 41.1387C37.8032 41.1393 37.3906 41.1526 36.9539 41.2047ZM32.0995 37.218C31.6348 38.7165 31.0214 40.3343 30.3618 41.7995C31.72 41.3083 33.1964 40.8795 34.5832 40.576C33.7059 39.6263 32.8293 38.4403 32.0995 37.218ZM31.705 32.0927C31.6413 32.1127 30.8407 33.1569 31.7674 34.0406C32.3841 32.7595 31.733 32.0842 31.705 32.0927Z" fill="#E2574C"/>
</svg>
