<svg width="30" height="30" viewBox="0 0 30 30" fill="none" xmlns="http://www.w3.org/2000/svg">
<path d="M30 15C30 23.2843 23.2843 30 15 30C6.71573 30 0 23.2843 0 15C0 6.71573 6.71573 0 15 0C23.2843 0 30 6.71573 30 15Z" fill="#9868F8"/>
<path d="M22.8 13.4811V12.3769C22.8 12.0828 22.8685 11.7927 23 11.5296C23.2621 10.8745 23.3475 10.162 23.2477 9.46343L23.2 9.12964H13.8L6.6 20.7296L13.4 22.9296L17.8 17.1296H22H22.9895C23.1279 17.1296 23.2644 17.0974 23.3882 17.0355C23.527 16.9661 23.6453 16.8617 23.7313 16.7326L23.8126 16.6107C23.9348 16.4274 24 16.2121 24 15.9918C24 15.6959 23.8824 15.4121 23.6732 15.2028L23.4 14.9296C23.0158 14.5455 22.8 14.0244 22.8 13.4811Z" fill="#FFDDCC"/>
<path fill-rule="evenodd" clip-rule="evenodd" d="M3.40869 24.5216C4.15897 22.9447 5.06074 21.4488 6.23858 20.0242C6.4518 19.7663 6.80713 19.6789 7.11983 19.798L14.1139 22.4624C14.6745 22.676 15.1124 23.1292 15.29 23.7021C15.9316 25.7721 16.3784 27.7741 16.6303 29.9122C16.0947 29.9701 15.5506 29.9998 14.9996 29.9998C10.3305 29.9998 6.15975 27.8666 3.40869 24.5216Z" fill="#FFD240"/>
<path d="M22.199 16.9295C21.198 16.3295 18.0001 16.5294 17.8001 16.3295C16.6001 15.1299 18.2995 10.6302 19.199 9.12953C26.8001 11.5295 26.7999 4.92959 19.799 5.32958C12.121 2.17969 6.18717 7.36275 9.81864 15.9191C9.92634 16.1729 10.164 16.3516 10.4376 16.3848C11.2785 16.487 13.0479 16.6816 13.199 16.5295C13.398 16.3295 14.0001 14.9296 13.599 14.7295C9.24348 12.5569 15.4744 8.24722 16.142 12.3594C16.2233 12.8599 16.1097 13.3753 15.8785 13.8265C15.0014 15.5382 13.6406 17.1077 14.199 19.3295C14.4001 20.1296 17.6401 21.6896 19.4001 21.5296C21.1601 21.3696 23.2001 17.5296 22.199 16.9295Z" fill="#4E1E30"/>
<path d="M20.8005 13.3295C20.8005 13.6609 21.0691 13.9295 21.4005 13.9295C21.7319 13.9295 22.0005 13.6609 22.0005 13.3295C22.0005 12.9981 21.7319 12.7295 21.4005 12.7295C21.0691 12.7295 20.8005 12.9981 20.8005 13.3295Z" fill="#4A1827"/>
<path d="M22.8003 11.5296C22.8003 11.3087 22.6212 11.1296 22.4003 11.1296H20.4003C20.1794 11.1296 20.0003 11.3087 20.0003 11.5296C20.0003 11.7506 20.1794 11.9296 20.4003 11.9296H22.4003C22.6212 11.9296 22.8003 11.7506 22.8003 11.5296Z" fill="#5B2C3E"/>
</svg>
