<svg width="30" height="30" viewBox="0 0 30 30" fill="none" xmlns="http://www.w3.org/2000/svg">
<path d="M15 29.9998C23.2616 29.9998 30 23.2616 30 15C30 6.73822 23.2618 0 15 0C6.73822 0 0 6.73822 0 14.9999C0 23.2615 6.73822 29.9998 15 29.9998Z" fill="#304FFD"/>
<path d="M18.6347 5.28101L15.8077 20.6272L17.827 21.031C22.101 17.9012 23.9351 5.28101 18.6347 5.28101Z" fill="#4E1E30"/>
<path d="M18.6348 5.2809C17.9281 4.85178 14.1981 3.762 11.3656 5.2809C7.88241 7.14869 4.83671 13.829 9.75021 20.6271C9.7572 20.6367 13.3848 20.2232 13.3848 20.2232L18.6348 5.2809Z" fill="#4E1E30"/>
<path fill-rule="evenodd" clip-rule="evenodd" d="M18.6347 29.5532C17.4703 29.8448 16.2527 29.9997 15.0001 29.9997C13.7474 29.9997 12.5298 29.8448 11.3654 29.5532V21.2759C12.1693 20.6689 12.1731 19.6655 12.1731 18.7424V17.8H17.827V18.7433H17.8489C17.8489 19.6586 17.8514 20.6533 18.6347 21.2618V29.5532Z" fill="#FFD7A3"/>
<path fill-rule="evenodd" clip-rule="evenodd" d="M18.2309 29.6483C17.1898 29.8784 16.1086 29.9997 15.0001 29.9997C14.1755 29.9997 13.3661 29.9326 12.577 29.8035L12.577 25.9657C13.3123 26.1656 14.1317 26.2808 15.0001 26.2808C16.2023 26.2808 17.3147 26.0648 18.2309 25.6992V29.6483Z" fill="#0090FF"/>
<path d="M18.2308 23.0501C18.3782 23.0903 18.5109 23.1117 18.6346 23.1222V21.2619C17.8514 20.6534 17.8489 19.6586 17.8489 18.7433L17.8483 18.7199V17.7766L13.3846 17.8001L12.1731 18.2039C12.9808 19.1126 15.4544 22.2929 18.2308 23.0501Z" fill="#FDC88E"/>
<path d="M20.6542 12.55C20.6542 15.7841 17.4378 19.8193 15.0003 19.8193C12.5629 19.8193 9.3465 15.7841 9.3465 12.55C9.3465 9.31596 11.8778 8.10767 15.0003 8.10767C18.1228 8.10767 20.6542 9.31596 20.6542 12.55Z" fill="#FFE1B2"/>
<path d="M15.8077 6.08862C15.5808 6.08862 14.8441 6.34356 14.242 6.56696L14.1924 6.49245C14.1924 6.49245 14.1093 6.55775 13.9654 6.67092C13.6305 6.79808 13.3847 6.89628 13.3847 6.89628L13.4792 7.05376C11.9463 8.26144 8.44911 11.0241 8.13464 11.3386C7.73081 11.7425 10.5577 22.0458 10.5577 16.1848C10.5577 11.2882 13.2782 10.3184 15.8077 9.72325C16.9519 9.45402 17.2885 8.78095 17.4231 8.10788C17.5577 7.43482 16.2116 6.08862 15.8077 6.08862Z" fill="#4E1E30"/>
<path d="M17.0193 8.51175C17.7597 11.1704 19.2405 12.3735 20.6287 12.7269C21.3894 12.9205 21.0578 10.531 21.0578 10.531C21.0578 10.531 19.9809 7.77136 19.8463 7.70409C19.7117 7.63677 18.6348 5.28101 18.6348 5.28101L16.2117 7.30027L17.0193 8.51175Z" fill="#4E1E30"/>
<path fill-rule="evenodd" clip-rule="evenodd" d="M13.9161 29.9608L11.8089 20.792C11.4307 21.4065 10.6595 21.8385 9.07698 21.8385H8.94239C6.67605 21.8385 4.80604 23.5357 4.53406 25.7284C6.99749 28.1322 10.281 29.6992 13.9161 29.9608Z" fill="#FF965D"/>
<path fill-rule="evenodd" clip-rule="evenodd" d="M25.4661 25.7284C25.1941 23.5356 23.3241 21.8385 21.0578 21.8385H20.9232C19.3406 21.8385 18.5695 21.4065 18.1913 20.792L16.084 29.9608C19.7192 29.6991 23.0026 28.1322 25.4661 25.7284Z" fill="#FF965D"/>
<path d="M20.0523 12.587C20.7131 12.4355 21.146 12.7591 21.146 13.3947C21.146 14.236 20.2574 16.2973 19.3232 15.01C18.389 13.7228 20.0523 12.587 20.0523 12.587Z" fill="#FFE1B2"/>
</svg>
