<svg width="30" height="30" viewBox="0 0 30 30" fill="none" xmlns="http://www.w3.org/2000/svg">
<g clip-path="url(#clip0_361_147)">
<path d="M15 30.0001C23.2616 30.0001 30 23.2618 30 15.0002C30 6.73847 23.2618 0.000244141 15 0.000244141C6.73822 0.000244141 0 6.73847 0 15.0002C0 23.2618 6.73822 30.0001 15 30.0001Z" fill="#FF965D"/>
<path d="M9.99099 19.0205C8.74013 15.8647 6.11261 13.0087 9.41894 7.25596C10.7807 4.88666 12.8607 3.32408 15.0094 3.85312C17.1582 3.32414 19.2382 4.88672 20.5999 7.25596C23.9061 13.0087 21.2788 15.8647 20.0277 19.0205L15.0096 19.0329L9.99116 19.0205H9.99099Z" fill="#1F0951"/>
<path fill-rule="evenodd" clip-rule="evenodd" d="M24.148 26.8742C21.6132 28.8327 18.4385 30 15 30C11.5614 30 8.38664 28.8327 5.85184 26.8741C5.94871 26.4573 6.04081 26.041 6.1255 25.6581C6.31791 24.7883 6.47211 24.0912 6.55725 23.9538C7.62769 22.2254 8.95648 21.6108 10.1246 21.0705C11.5843 20.3953 12.7931 19.8362 12.9334 17.3651C12.9334 17.3651 14.0454 18.2169 14.9578 18.2087C15.8703 18.2006 17.0652 17.3088 17.0652 17.3088C17.2061 19.7866 18.4189 20.3595 19.8821 21.0508C21.0484 21.6018 22.3738 22.228 23.4426 23.9538C23.5277 24.091 23.6817 24.7874 23.874 25.6566C23.9588 26.0399 24.051 26.4568 24.148 26.8742Z" fill="#FFD7A3"/>
<path d="M17.1299 17.9376C17.0999 17.7424 17.0779 17.5337 17.0652 17.3088C17.0652 17.3088 15.8702 18.2006 14.9578 18.2087C14.0453 18.2169 12.9334 17.3651 12.9334 17.3651C12.9205 17.5941 12.8979 17.8059 12.867 18.0036C12.8904 18.0221 12.9136 18.0408 12.9374 18.0591L12.9371 18.0624C13.0073 18.1235 14.0754 19.042 14.9576 19.0327C15.8398 19.0419 16.9078 18.1233 16.9782 18.0624L16.978 18.0591C17.0298 18.0195 17.0801 17.9786 17.1297 17.9377L17.1299 17.9376Z" fill="#F0C290"/>
<path d="M12.9373 17.368C13.0075 17.421 14.0756 18.2166 14.9578 18.2087C15.84 18.2166 16.908 17.4209 16.9784 17.368C18.3118 16.5906 19.4059 14.2986 19.1589 11.8147C18.9567 9.77995 16.7555 12.7634 15.2225 8.56519C13.0527 13.1104 10.9918 10.4218 10.7569 12.1443C10.4979 14.0422 11.5634 16.4303 12.9373 17.3681V17.368Z" fill="#FFE1B2"/>
<path fill-rule="evenodd" clip-rule="evenodd" d="M24.1952 26.8376C21.6527 28.8182 18.4599 30 15 30C11.538 30 8.34353 28.8168 5.80028 26.8341C5.93704 26.119 6.06549 25.3494 6.17858 24.6719C6.34607 23.6684 6.47987 22.8668 6.5571 22.7427C7.15542 21.7808 8.39146 21.4394 9.54225 21.1216C10.1493 20.954 10.7326 20.7929 11.1861 20.5507L11.1865 20.5512C13.6215 28.3624 16.6676 27.8569 18.7114 20.4421C19.1537 20.6797 19.7652 20.8445 20.4052 21.017C21.6671 21.3571 23.0395 21.727 23.4422 22.7427C23.4887 22.8599 23.5941 23.4723 23.7331 24.2803C23.8643 25.0425 24.0254 25.9787 24.1952 26.8376ZM11.1863 20.5507C11.1863 20.5507 11.1862 20.5507 11.1861 20.5507L11.1861 20.5507H11.1863ZM11.1863 20.5507C11.1863 20.5506 11.1864 20.5506 11.1864 20.5506V20.5507H11.1863Z" fill="#304FFD"/>
<path d="M12.0622 19.8137C11.9769 22.1206 12.3691 25.3888 14.9575 26.224C12.5206 26.3259 10.9393 22.8147 9.13788 21.895L12.0621 19.8139V19.8137H12.0622Z" fill="white"/>
<path d="M17.998 19.8137C18.0875 22.1206 17.6758 25.3888 14.9576 26.224C17.5166 26.3259 19.1772 22.8147 21.0685 21.895L17.9979 19.8139L17.998 19.8137Z" fill="white"/>
</g>
<defs>
<clipPath id="clip0_361_147">
<rect width="30" height="30" fill="white"/>
</clipPath>
</defs>
</svg>
