<svg width="30" height="30" viewBox="0 0 30 30" fill="none" xmlns="http://www.w3.org/2000/svg">
<path d="M15 30C23.2843 30 30 23.2843 30 15C30 6.71573 23.2843 0 15 0C6.71573 0 0 6.71573 0 15C0 23.2843 6.71573 30 15 30Z" fill="#EFEFF2"/>
<path d="M15.0708 21.425C15.0472 21.425 15.0236 21.4487 15 21.4487C14.9763 21.4487 14.9527 21.425 14.9291 21.425H15.0708Z" fill="#84DBFF"/>
<path d="M26.6457 24.4487C23.9055 27.8267 19.7008 29.9999 15 29.9999C10.2992 29.9999 6.09447 27.8267 3.35431 24.4487C5.31494 21.8267 8.31494 20.5274 10.7716 19.8896C10.5827 21.4487 11.3858 23.5274 11.4094 23.4802C12.2362 21.5904 15 21.4251 15 21.4251C15 21.4251 17.7638 21.5904 18.5669 23.4802C18.5905 23.5274 19.4173 21.4487 19.2047 19.8896C21.685 20.5274 24.7086 21.8267 26.6457 24.4487Z" fill="#22CCE2"/>
<path d="M18.378 18.4252C18.378 18.4252 18.378 18.4252 18.378 18.4488C18.378 18.685 18.2599 20.1968 15.0709 21.4015H14.9292C11.7402 20.1968 11.6221 18.685 11.6221 18.4488C11.6221 18.4252 11.6221 18.4252 11.6221 18.4252C11.6221 18.1181 11.6929 17.811 11.7638 17.5039C12.6851 18.6614 13.7953 19.4409 15 19.4409C16.2048 19.4409 17.315 18.6614 18.2363 17.5039C18.3071 17.811 18.378 18.1181 18.378 18.4252Z" fill="#FFD7A3"/>
<path d="M18.378 18.4253C18.378 18.4253 18.5433 20.1261 15 21.4489C15 21.4489 17.7638 21.6143 18.5669 23.504C18.6142 23.5513 20.1969 19.441 18.378 18.4253Z" fill="#148A99"/>
<path d="M11.622 18.4253C9.80312 19.441 11.3858 23.5513 11.433 23.4804C12.2598 21.5907 15 21.4253 15 21.4253C11.4567 20.1261 11.622 18.4253 11.622 18.4253Z" fill="#148A99"/>
<path d="M19.9606 12.4489C19.748 13.9134 19.1102 15.2835 18.0472 16.3229C17.8346 16.5355 17.6456 16.7008 17.4094 16.8662L17.0314 15.6615H12.9684L12.5905 16.8662C11.8346 16.2993 10.2519 14.7166 10.2283 13.2284C9.56685 4.74809 16.0629 6.54337 16.0629 6.54337C20.433 6.23628 20.2913 10.0867 19.9606 12.4489Z" fill="#FFE1B2"/>
<path d="M20.8346 13.9843C20.5039 14.5276 20.055 14.9055 19.6299 15.0473C19.7952 14.6693 19.9369 14.2677 20.055 13.8662C20.055 13.8662 20.055 13.8662 20.055 13.8425C20.1495 13.4882 20.244 13.1339 20.3385 12.7795H20.3149C20.4094 12.4252 20.5039 12.0709 20.5747 11.7166C20.6692 11.7166 20.7637 11.7638 20.8582 11.811C21.3779 12.1418 21.3542 13.1103 20.8346 13.9843Z" fill="#FFE1B2"/>
<path d="M10.37 15.0472C9.94483 14.9055 9.49601 14.5275 9.1653 13.9842C8.622 13.1102 8.622 12.1417 9.14168 11.8346C9.18893 11.811 9.21255 11.7874 9.25979 11.7874C9.54326 12.8976 9.87396 13.7244 9.94483 13.8897C10.0629 14.2677 10.2047 14.6692 10.37 15.0472Z" fill="#FFE1B2"/>
<path d="M17.5748 4.18109C17.7638 2.00786 14.315 2.14959 14.315 2.14959C9.09452 2.9055 8.52759 7.77164 8.52759 7.77164L9.23625 6.92125C8.12601 9.35432 9.80318 13.5354 9.94491 13.8661C10.8189 16.7716 12.7559 19.4409 15 19.4409C17.2441 19.4409 19.1811 16.7716 20.0551 13.8661C20.0551 13.8661 20.0551 13.8661 20.0551 13.8425C20.1496 13.4882 20.2441 13.1338 20.315 12.7795H20.2914C20.7638 10.8897 21.2835 8.97636 21.2835 8.97636C22.6299 2.19684 17.5748 4.18109 17.5748 4.18109ZM19.9606 12.4488C19.7481 13.9134 19.1103 15.2835 18.0473 16.3228C17.8347 16.5354 17.6221 16.7008 17.4095 16.8661L17.0315 15.685H12.9685L12.5906 16.8897C11.8347 16.3228 11.1969 15.5433 10.6772 14.6457C10.441 14.1732 10.2992 13.6772 10.2284 13.252C9.56696 4.77164 16.063 6.56691 16.063 6.56691C20.4331 6.23621 20.2914 10.0866 19.9606 12.4488Z" fill="#324A5E"/>
<path d="M17.5748 4.18109C17.7638 2.00786 14.315 2.14959 14.315 2.14959C9.09452 2.9055 8.52759 7.77164 8.52759 7.77164L9.23625 6.92125C8.12601 9.35432 9.80318 13.5354 9.94491 13.8661C10.8189 16.7716 12.7559 19.4409 15 19.4409C17.2441 19.4409 19.1811 16.7716 20.0551 13.8661C20.0551 13.8661 20.0551 13.8661 20.0551 13.8425C20.1496 13.4882 20.2441 13.1338 20.315 12.7795H20.2914C20.7638 10.8897 21.2835 8.97636 21.2835 8.97636C22.6299 2.19684 17.5748 4.18109 17.5748 4.18109ZM19.9606 12.4488C19.7481 13.9134 19.1103 15.2835 18.0473 16.3228C17.8347 16.5354 17.6221 16.7008 17.4095 16.8661L17.0315 15.685H12.9685L12.5906 16.8897C11.8347 16.3228 11.1969 15.5433 10.6772 14.6457C10.441 14.1732 10.2992 13.6772 10.2284 13.252C9.56696 4.77164 16.063 6.56691 16.063 6.56691C20.4331 6.23621 20.2914 10.0866 19.9606 12.4488Z" fill="#324A5E"/>
<path d="M17.5748 4.18109C17.7638 2.00786 14.315 2.14959 14.315 2.14959C9.09452 2.9055 8.52759 7.77164 8.52759 7.77164L9.23625 6.92125C8.12601 9.35432 9.80318 13.5354 9.94491 13.8661C10.8189 16.7716 12.7559 19.4409 15 19.4409C17.2441 19.4409 19.1811 16.7716 20.0551 13.8661C20.0551 13.8661 20.0551 13.8661 20.0551 13.8425C20.1496 13.4882 20.2441 13.1338 20.315 12.7795H20.2914C20.7638 10.8897 21.2835 8.97636 21.2835 8.97636C22.6299 2.19684 17.5748 4.18109 17.5748 4.18109ZM19.9606 12.4488C19.7481 13.9134 19.1103 15.2835 18.0473 16.3228C17.8347 16.5354 17.6221 16.7008 17.4095 16.8661L17.0315 15.685H12.9685L12.5906 16.8897C11.8347 16.3228 10.252 14.7401 10.2284 13.252C9.56696 4.77164 16.063 6.56691 16.063 6.56691C20.4331 6.23621 20.2914 10.0866 19.9606 12.4488Z" fill="#1F0951"/>
<path d="M13.3464 16.4883C13.7479 16.9371 14.3385 17.2442 14.9999 17.2442C15.6613 17.2442 16.2519 16.9607 16.6535 16.4883H13.3464Z" fill="white"/>
</svg>
