<svg width="30" height="30" viewBox="0 0 30 30" fill="none" xmlns="http://www.w3.org/2000/svg">
<path d="M15 29.9998C23.2616 29.9998 30 23.2616 30 15C30 6.73822 23.2618 0 15 0C6.73822 0 0 6.73822 0 14.9999C0 23.2615 6.73822 29.9998 15 29.9998Z" fill="#FFD240"/>
<path d="M19.1372 22.5261V19.4487H11.2239V22.5261L15.1805 26.0431L19.1372 22.5261Z" fill="#FFD7A3"/>
<path fill-rule="evenodd" clip-rule="evenodd" d="M26.362 24.7754C23.6076 27.9711 19.5331 29.9997 15.0001 29.9997C10.5926 29.9997 6.61866 28.082 3.87012 25.0383C4.07574 24.5116 4.52946 24.1012 5.10584 23.9656L10.5459 22.6855C10.7005 22.6491 10.8365 22.5724 10.9461 22.4692L15.1805 25.1638L19.5866 22.5935C19.6573 22.6333 19.7329 22.6662 19.815 22.6855L25.2551 23.9655C25.7314 24.0776 26.124 24.3773 26.362 24.7754Z" fill="#8B63E7"/>
<path d="M11.2239 19.4488V22.6957C16.2082 24.4915 19.1372 19.997 19.1372 19.997V19.4487H11.2239V19.4488Z" fill="#F0C290"/>
<path d="M9.46536 9.3374L9.84846 17.7657C9.88422 18.553 10.2703 19.2832 10.9008 19.7561L12.7186 21.1195C13.1752 21.4619 13.7305 21.647 14.3013 21.647H16.0598C16.6306 21.647 17.1859 21.4619 17.6425 21.1195L19.4602 19.7561C20.0908 19.2832 20.4768 18.5531 20.5126 17.7657L20.8957 9.3374C20.8956 9.3374 9.46536 9.3374 9.46536 9.3374Z" fill="#FFE1B2"/>
<path fill-rule="evenodd" clip-rule="evenodd" d="M14.9798 29.9999H15.0201C15.4428 29.9994 15.8614 29.9812 16.2753 29.946L16.0043 26.0432H14.3556L14.0828 29.9721C14.3796 29.9902 14.6787 29.9995 14.9798 29.9999Z" fill="#5B5D6E"/>
<path d="M16.2796 25.1638H14.0815V25.9912C14.0815 26.2627 14.3015 26.4827 14.573 26.4827H15.788C16.0595 26.4827 16.2796 26.2627 16.2796 25.9912V25.1638H16.2796Z" fill="#515262"/>
<path d="M11.1621 21.5472L15.1805 25.1637C15.1805 25.1637 14.0552 25.7319 12.6664 26.8769C12.38 27.1131 11.9466 27.0174 11.793 26.6794L9.90503 22.526L10.5023 21.6302C10.6509 21.4071 10.9629 21.3679 11.1621 21.5472Z" fill="white"/>
<path d="M19.199 21.5472L15.1806 25.1637C15.1806 25.1637 16.3059 25.7319 17.6947 26.8769C17.9812 27.1131 18.4145 27.0174 18.5682 26.6794L20.4561 22.526L19.8588 21.6302C19.7102 21.4071 19.3982 21.3679 19.199 21.5472Z" fill="white"/>
<path d="M17.8457 6.42473L18.2579 9.33729C20.1392 9.71356 20.4104 12.6661 20.4494 13.5093C20.4565 13.6624 20.5053 13.8102 20.5884 13.9389L21.3062 15.0524C21.3062 15.0524 21.0605 13.2115 22.1854 11.975C22.1855 11.975 22.5718 4.66619 17.8457 6.42473Z" fill="#4E1E30"/>
<path d="M21.7472 14.8651L21.2509 16.8503C21.1921 17.0857 20.9807 17.2507 20.7381 17.2507C20.4715 17.2507 20.2467 17.0522 20.2136 16.7877L19.9598 14.7572C19.8918 14.2137 20.3156 13.7336 20.8633 13.7336H20.8637C21.4562 13.7337 21.8909 14.2904 21.7472 14.8651Z" fill="#FFE1B2"/>
<path d="M9.88675 5.63704L10.537 6.08124C7.597 8.25191 8.14649 11.975 8.14649 11.975C9.02573 12.8543 9.02573 15.0524 9.02573 15.0524L9.90498 14.1732C9.90498 14.1732 9.56566 11.6333 11.2238 10.6562C12.7625 9.74943 14.1089 10.2165 15.4828 10.2165C19.1646 10.2165 20.195 8.82894 20.0164 7.13913C19.924 6.26477 18.5872 4.44343 15.1805 4.50135C13.8057 4.52471 11.2239 4.94097 9.88675 5.63704Z" fill="#66273F"/>
<path d="M9.63026 9.83186C9.63026 9.83186 9.16314 7.9909 10.537 6.0813C7.597 8.25197 8.14649 11.9751 8.14649 11.9751C9.02573 12.8543 9.02573 15.0525 9.02573 15.0525L9.90498 14.1733C9.90498 14.1733 9.56566 11.6333 11.2238 10.6562C12.7625 9.74949 14.1089 10.2166 15.4828 10.2166C16.0816 10.2166 16.6034 10.1765 17.0681 10.1078C14.2327 10.2028 12.5612 8.05499 9.63026 9.83186Z" fill="#4E1E30"/>
<path d="M8.61388 14.8651L9.11018 16.8503C9.169 17.0857 9.38037 17.2507 9.62297 17.2507C9.88957 17.2507 10.1144 17.0522 10.1475 16.7877L10.4013 14.7572C10.4692 14.2137 10.0455 13.7336 9.49776 13.7336H9.49736C8.90489 13.7337 8.4702 14.2904 8.61388 14.8651Z" fill="#FFE1B2"/>
</svg>
