<svg width="30" height="30" viewBox="0 0 30 30" fill="none" xmlns="http://www.w3.org/2000/svg">
<path d="M15 29.9998C23.2616 29.9998 30 23.2616 30 15C30 6.73822 23.2618 0 15 0C6.73822 0 0 6.73822 0 14.9999C0 23.2615 6.73822 29.9998 15 29.9998Z" fill="#22CCE2"/>
<path d="M20.7567 10.2557V14.5553C20.7567 14.6175 20.7553 14.6796 20.7538 14.7418C20.7524 14.7927 20.7511 14.8422 20.7482 14.8932C20.7468 14.9384 20.7439 14.9837 20.7396 15.0289C20.7383 15.0614 20.7354 15.094 20.7326 15.1264C20.7311 15.1464 20.7297 15.1645 20.7269 15.1845C20.7241 15.2198 20.7212 15.2565 20.7156 15.2919C20.7099 15.3597 20.7014 15.4262 20.6915 15.494C20.6901 15.5111 20.6873 15.528 20.6845 15.5449C20.6802 15.5789 20.6746 15.6128 20.669 15.6467V15.6509C20.6606 15.7003 20.652 15.7484 20.6435 15.7979C20.6307 15.8657 20.6181 15.9337 20.6039 16.0001C20.6025 16.003 20.6025 16.0059 20.6012 16.0087C20.5998 16.0185 20.5983 16.0285 20.5955 16.0384C20.5942 16.0413 20.5942 16.0441 20.5926 16.047C20.5856 16.0838 20.5771 16.119 20.5686 16.1544C20.5658 16.1699 20.5629 16.1856 20.5573 16.2011C20.553 16.2266 20.5459 16.2519 20.5404 16.2774C20.5361 16.2916 20.5334 16.3071 20.5276 16.3212C20.5247 16.334 20.5206 16.3468 20.5177 16.358C20.488 16.474 20.454 16.5871 20.4187 16.7002C20.4016 16.7539 20.3847 16.8062 20.3664 16.86C20.3651 16.8656 20.3622 16.8712 20.3608 16.8769C20.3439 16.925 20.3268 16.973 20.3099 17.0211C20.3043 17.0353 20.2986 17.0493 20.293 17.0649C20.2759 17.1101 20.259 17.1553 20.2407 17.2006C20.2196 17.2556 20.1969 17.3094 20.1743 17.3633C20.1545 17.4114 20.1333 17.4593 20.1122 17.5074C20.1094 17.5161 20.1051 17.5229 20.1023 17.5315C20.0782 17.5823 20.0556 17.6332 20.0316 17.6829C20.0075 17.7351 19.9821 17.7875 19.9553 17.8399C19.9044 17.943 19.8492 18.0463 19.7941 18.1466L19.7178 18.2823C19.4999 18.657 19.2583 19.0089 18.9953 19.3342C18.9599 19.3808 18.9232 19.426 18.885 19.4697C18.8327 19.5334 18.7789 19.5956 18.7252 19.6564C18.677 19.7101 18.629 19.7638 18.5795 19.8162C18.4438 19.9618 18.3052 20.1003 18.1638 20.2305C18.1355 20.2587 18.1059 20.2843 18.0762 20.3111C18.0281 20.3548 17.9801 20.3973 17.9306 20.4383C17.8925 20.4722 17.8529 20.5047 17.8132 20.5373C17.7114 20.6206 17.6096 20.7012 17.5064 20.7762C17.464 20.8087 17.4201 20.8398 17.3763 20.8695C17.3056 20.9204 17.2334 20.9685 17.1613 21.0153C17.1217 21.0421 17.0808 21.0675 17.0398 21.0916C16.8955 21.1806 16.7499 21.2627 16.6056 21.3334C16.5703 21.3518 16.5349 21.3688 16.4996 21.3858C16.4643 21.4027 16.4275 21.4197 16.3893 21.4366C16.3427 21.4578 16.2959 21.4776 16.2493 21.4961C16.2309 21.5044 16.2126 21.5116 16.1942 21.5172C16.139 21.5399 16.0825 21.561 16.0274 21.5794C15.9582 21.605 15.8874 21.6261 15.8182 21.6458C15.7701 21.66 15.7207 21.6726 15.6726 21.6839C15.6697 21.6854 15.6669 21.6868 15.6627 21.6868C15.6146 21.6982 15.5666 21.7095 15.5184 21.718C15.5058 21.7209 15.493 21.7236 15.4803 21.7252C15.4407 21.7322 15.4011 21.7393 15.3615 21.7436C15.305 21.7521 15.2483 21.7591 15.1918 21.7619C15.172 21.7648 15.1537 21.7661 15.1339 21.7661C15.0887 21.7689 15.0434 21.7704 14.9996 21.7704H14.9953C14.9516 21.7704 14.9077 21.7689 14.8639 21.7661C14.8469 21.7661 14.8299 21.7648 14.813 21.7619C14.7734 21.7605 14.7324 21.7562 14.6899 21.7506C14.6815 21.7506 14.6716 21.7492 14.6631 21.7477C14.6108 21.7407 14.5584 21.7322 14.5048 21.7223C14.4596 21.7151 14.4143 21.7052 14.3676 21.6939C14.1258 21.6388 13.877 21.5553 13.6254 21.4438C13.4104 21.349 13.1928 21.2345 12.9764 21.1017C12.8677 21.0352 12.7588 20.9646 12.6512 20.8896C12.5974 20.8514 12.5438 20.8131 12.49 20.7735C12.3217 20.6505 12.1549 20.5162 11.991 20.372C11.9458 20.331 11.9005 20.29 11.8553 20.2477C11.81 20.2067 11.7648 20.1642 11.7209 20.1232C11.6106 20.0172 11.5032 19.9071 11.3986 19.7925C11.3576 19.7486 11.3166 19.7035 11.2755 19.6568C11.1625 19.5296 11.0522 19.3981 10.9475 19.2609C10.9065 19.2115 10.8683 19.1606 10.8302 19.1096C10.6873 18.9201 10.5518 18.7222 10.4244 18.517C10.3904 18.462 10.3565 18.4055 10.324 18.3502C10.2844 18.2838 10.2463 18.2159 10.2081 18.1481C10.0667 17.8935 9.93664 17.6292 9.8236 17.3563C9.80655 17.3167 9.78964 17.2771 9.77547 17.2376C9.75292 17.1867 9.73312 17.1343 9.71469 17.0834C9.68636 17.0085 9.65955 16.9335 9.63411 16.8586C9.60867 16.7836 9.5846 16.7072 9.56054 16.631C9.53798 16.5574 9.51681 16.484 9.497 16.409C9.47431 16.3298 9.45314 16.2493 9.43471 16.1673C9.43333 16.1588 9.43045 16.1502 9.42907 16.1417C9.40225 16.0287 9.37819 15.9141 9.35701 15.7982C9.32868 15.6456 9.30613 15.49 9.28922 15.333C9.28207 15.2836 9.2778 15.234 9.27368 15.1846C9.26804 15.1322 9.26378 15.0813 9.26089 15.0291C9.25387 14.9343 9.24961 14.8381 9.24672 14.7419C9.24535 14.6798 9.24384 14.6176 9.24384 14.5555V10.2557C9.24384 7.07871 11.8184 4.50275 14.9953 4.5H15.0011C15.4394 4.5 15.8663 4.54937 16.2763 4.64137C16.651 4.72608 17.0116 4.84778 17.3536 5.0018C17.8202 5.21096 18.2542 5.4798 18.6444 5.80077C18.9726 6.06934 19.2708 6.37187 19.531 6.70562C20.2889 7.67126 20.7454 8.88443 20.7553 10.2049C20.7567 10.2218 20.7567 10.2387 20.7567 10.2557Z" fill="#FFE1B2"/>
<path fill-rule="evenodd" clip-rule="evenodd" d="M22.1078 28.2022C19.9903 29.3483 17.5688 29.9998 15 29.9998C12.4315 29.9998 10.0103 29.3485 7.89304 28.2027C7.89554 28.1953 7.89806 28.1879 7.90059 28.1805C7.94721 28.0434 7.99809 27.9077 8.05338 27.7733V27.7718C8.10714 27.6375 8.16641 27.506 8.22857 27.376C8.47596 26.8543 8.78427 26.3664 9.14195 25.9197C9.23244 25.8079 9.3243 25.699 9.41905 25.5945C9.46309 25.5437 9.50972 25.4944 9.55648 25.4449L9.56468 25.4362C9.61405 25.3854 9.66369 25.3345 9.71443 25.2836C9.9676 25.0304 10.2389 24.7987 10.5247 24.5851C10.6674 24.4791 10.8117 24.3801 10.9616 24.2841C11.1115 24.1894 11.2641 24.0988 11.4196 24.014C11.4225 24.0113 11.4253 24.0113 11.4253 24.0113C11.4861 23.9787 11.5455 23.9434 11.6049 23.9066C11.7816 23.8006 11.9513 23.6832 12.1124 23.5532C12.7953 23.0103 13.3241 22.2806 13.6253 21.4437C13.8049 20.9432 13.9024 20.4045 13.9024 19.8418L14.9952 19.8474L16.1193 19.8532C16.1193 20.4088 16.214 20.9418 16.3893 21.4367C16.6862 22.2765 17.2136 23.0089 17.8965 23.5546C17.9983 23.6381 18.1016 23.7144 18.2103 23.7866C18.2217 23.795 18.2315 23.802 18.2429 23.8091C18.2938 23.8431 18.3447 23.8769 18.3984 23.9082C18.4563 23.9435 18.5158 23.9788 18.5752 24.0114C18.5851 24.0142 18.5936 24.0184 18.6006 24.0241C18.7251 24.0934 18.848 24.1654 18.9682 24.2404C19.0262 24.2757 19.0841 24.3125 19.1406 24.3534C19.2581 24.4284 19.3725 24.5105 19.4843 24.5953C19.4843 24.596 19.4846 24.5963 19.4849 24.5965C19.4853 24.5967 19.4857 24.5967 19.4857 24.5967H19.487C19.6299 24.7027 19.7684 24.8159 19.9041 24.9318C20.0398 25.0479 20.1699 25.1693 20.2958 25.2953C21.1071 26.103 21.7336 27.0943 22.1078 28.2022Z" fill="#F0C290"/>
<path fill-rule="evenodd" clip-rule="evenodd" d="M22.1076 28.2024C19.9901 29.3484 17.5687 29.9998 15 29.9998C12.4313 29.9998 10.0099 29.3485 7.89252 28.2025C7.89506 28.195 7.89761 28.1875 7.90017 28.18C7.94679 28.0429 7.99781 27.9072 8.05282 27.7728V27.7713C8.10659 27.637 8.16599 27.5055 8.22815 27.3754C8.47554 26.8538 8.78372 26.3659 9.14153 25.9191C9.23202 25.8074 9.32402 25.6985 9.41863 25.594C9.46524 25.5403 9.51475 25.488 9.56425 25.4357L9.56426 25.4357C9.61376 25.3849 9.66327 25.334 9.71415 25.2831C9.96718 25.0299 10.2386 24.7982 10.5243 24.5846C10.6671 24.4786 10.8113 24.3796 10.9611 24.2835C11.0388 24.2341 11.1167 24.186 11.1958 24.1394C11.2693 24.0955 11.3443 24.053 11.4192 24.012C11.4221 24.0091 11.4249 24.0107 11.4249 24.0107V24.0091C11.4856 23.9752 11.545 23.9413 11.6045 23.9059C11.7812 23.7985 11.9509 23.6797 12.1091 23.5496L12.112 23.5524C12.8444 24.3018 13.8638 24.767 14.9949 24.7699H15.0063C16.1374 24.7699 17.1609 24.3033 17.8962 23.554L17.8976 23.5524C17.998 23.6359 18.1026 23.7138 18.21 23.7858C18.2213 23.7942 18.2312 23.8012 18.2425 23.8084C18.2891 23.8395 18.3371 23.8694 18.385 23.8992L18.398 23.9074C18.4559 23.9427 18.5155 23.9767 18.5747 24.0091C18.5814 24.0111 18.5869 24.0143 18.5923 24.0175C18.5949 24.019 18.5975 24.0205 18.6002 24.0219C18.6666 24.0588 18.7345 24.0969 18.7996 24.1363C18.8562 24.1703 18.9128 24.2043 18.9679 24.2396C19.0258 24.275 19.0838 24.3117 19.1403 24.3527C19.2578 24.4276 19.3722 24.5097 19.4839 24.5945H19.4867C19.6295 24.7019 19.7695 24.8137 19.9038 24.9309C20.0396 25.047 20.1697 25.1685 20.2955 25.2944C21.1069 26.1025 21.7335 27.0941 22.1076 28.2024Z" fill="#FF965D"/>
<path d="M20.7567 14.5554C20.7567 14.6176 20.7553 14.6797 20.7538 14.7419C20.7524 14.7928 20.7511 14.8423 20.7482 14.8933C20.7468 14.9385 20.7439 14.9838 20.7396 15.029C20.7383 15.0615 20.7354 15.0941 20.7326 15.1265C20.7311 15.1465 20.7297 15.1646 20.7269 15.1846C20.7241 15.2199 20.7212 15.2566 20.7156 15.292C20.7084 15.3598 20.7014 15.4275 20.6915 15.4941C20.6901 15.5112 20.6873 15.5281 20.6845 15.545C20.6802 15.579 20.6746 15.6129 20.669 15.6467C20.662 15.6976 20.652 15.7485 20.6435 15.7982C20.6322 15.8576 20.6208 15.9155 20.6082 15.9733C20.6067 15.9861 20.6039 15.9974 20.601 16.0088C20.5997 16.0186 20.5968 16.0286 20.5954 16.0385C20.594 16.0414 20.594 16.0442 20.5925 16.0471C20.5925 16.0541 20.5911 16.0598 20.5898 16.0655C20.5827 16.0952 20.577 16.1249 20.5686 16.1545C20.5658 16.17 20.5629 16.1857 20.5573 16.2012C20.5515 16.2294 20.5445 16.2562 20.5361 16.2832C20.5347 16.296 20.5319 16.3088 20.5276 16.3213C20.5247 16.3341 20.5206 16.3468 20.5177 16.3581C20.488 16.474 20.454 16.5872 20.4187 16.7003C20.4016 16.754 20.3847 16.8063 20.3664 16.8601C20.3651 16.8657 20.3622 16.8713 20.3608 16.877C20.3439 16.9251 20.3268 16.9731 20.3099 17.0212C20.3043 17.0354 20.2986 17.0494 20.293 17.065C20.2759 17.1102 20.259 17.1554 20.2407 17.2007C20.2196 17.2557 20.1969 17.3095 20.1743 17.3634C20.1545 17.4115 20.1333 17.4594 20.1122 17.5075C20.1094 17.5161 20.1051 17.523 20.1023 17.5315C20.0782 17.5824 20.0556 17.6333 20.0316 17.683C20.0075 17.7352 19.9821 17.7876 19.9553 17.84C19.9044 17.9431 19.8492 18.0464 19.7941 18.1467L19.7178 18.2824C19.4999 18.6571 19.2583 19.009 18.9953 19.3342C18.9599 19.3809 18.9232 19.4261 18.885 19.4698C18.8327 19.5335 18.7789 19.5957 18.7252 19.6564C18.677 19.7102 18.629 19.7638 18.5795 19.8162C18.4438 19.9619 18.3052 20.1004 18.1638 20.2306C18.1355 20.2588 18.1059 20.2843 18.0762 20.3112C18.0281 20.3549 17.9801 20.3974 17.9306 20.4384C17.8925 20.4723 17.8529 20.5048 17.8132 20.5374C17.7114 20.6207 17.6096 20.7013 17.5064 20.7762C17.464 20.8088 17.4201 20.8399 17.3763 20.8696C17.3056 20.9205 17.2334 20.9686 17.1613 21.0154C17.1217 21.0422 17.0808 21.0676 17.0398 21.0917C16.8955 21.1807 16.7499 21.2628 16.6056 21.3335C16.5703 21.3519 16.5349 21.3689 16.4996 21.3859C16.4643 21.4028 16.4275 21.4198 16.3893 21.4367C16.3427 21.4579 16.2959 21.4777 16.2493 21.4961C16.2309 21.5045 16.2126 21.5117 16.1942 21.5173C16.139 21.54 16.0825 21.5611 16.0274 21.5795C15.9582 21.6051 15.8874 21.6262 15.8182 21.6459C15.7701 21.6601 15.7207 21.6727 15.6726 21.684C15.6697 21.6855 15.6669 21.6869 15.6627 21.6869C15.6146 21.6983 15.5666 21.7096 15.5184 21.7181C15.5058 21.721 15.493 21.7237 15.4803 21.7252C15.4407 21.7323 15.4011 21.7394 15.3615 21.7437C15.305 21.7522 15.2483 21.7592 15.1918 21.762C15.172 21.7648 15.1537 21.7662 15.1339 21.7662C15.0887 21.769 15.0434 21.7705 14.9996 21.7705H14.9953C14.9516 21.7705 14.9077 21.769 14.8639 21.7662C14.8469 21.7662 14.8299 21.7648 14.813 21.762C14.7734 21.7606 14.7324 21.7563 14.6899 21.7507C14.6815 21.7507 14.6716 21.7493 14.6631 21.7478C14.6108 21.7408 14.5584 21.7323 14.5048 21.7224C14.4596 21.7152 14.4143 21.7053 14.3676 21.694C14.1258 21.6389 13.877 21.5554 13.6254 21.4439C13.4104 21.3491 13.1928 21.2346 12.9764 21.1017C12.8677 21.0367 12.7601 20.966 12.6512 20.8897C12.5974 20.8515 12.5438 20.8132 12.49 20.7736C12.3217 20.6506 12.1549 20.5163 11.991 20.3721C11.9458 20.3311 11.9005 20.2901 11.8553 20.2478C11.81 20.2068 11.7648 20.1643 11.7209 20.1233C11.6106 20.0173 11.5032 19.9071 11.3986 19.7926C11.3576 19.7487 11.3166 19.7036 11.2755 19.6569C11.1625 19.5297 11.0522 19.3982 10.9475 19.261C10.9065 19.2116 10.8683 19.1607 10.8302 19.1097C10.6873 18.9202 10.5518 18.7223 10.4244 18.5171C10.3904 18.4621 10.3565 18.4056 10.324 18.3503C10.2844 18.2839 10.2463 18.216 10.2081 18.1482C10.0667 17.8936 9.93664 17.6293 9.8236 17.3564C9.80655 17.3167 9.78964 17.2771 9.77547 17.2377C9.75292 17.1868 9.73312 17.1344 9.71469 17.0835C9.68636 17.0086 9.65955 16.9336 9.63411 16.8587C9.60867 16.7837 9.5846 16.7073 9.56054 16.6311C9.53798 16.5575 9.51681 16.4841 9.497 16.4091C9.47431 16.3299 9.45314 16.2493 9.43471 16.1674C9.43333 16.1589 9.43045 16.1503 9.42907 16.1418C9.40225 16.0288 9.37819 15.9142 9.35701 15.7983C9.32868 15.6456 9.30613 15.4901 9.28922 15.3331C9.28207 15.2837 9.2778 15.2341 9.27368 15.1847C9.26804 15.1323 9.26378 15.0814 9.26089 15.0292C9.25387 14.9344 9.24961 14.8382 9.24672 14.742C9.24535 14.6799 9.24384 14.6177 9.24384 14.5556L10.1629 16.3625L11.7421 17.0511L13.6096 17.2191H13.6109L14.995 17.3449H15.0036L16.2986 17.4622C16.2986 17.4622 16.2986 17.4609 16.2999 17.4622L19.1885 17.7226L20.7567 14.5554Z" fill="#4E1E30"/>
<path d="M15.0066 15.464L15.0053 16.8566V16.858L15.0039 17.3459V17.729L15.0025 19.0014V19.003L15.0011 19.0014H14.9998L14.9955 18.9985L9.43462 16.1681C9.43324 16.1595 9.43035 16.151 9.42898 16.1425C9.40216 16.0294 9.3781 15.9149 9.35692 15.799C9.32859 15.6463 9.30604 15.4908 9.28912 15.3337C9.28197 15.2844 9.27771 15.2347 9.27359 15.1854C9.26795 15.133 9.26368 15.0821 9.2608 15.0298C9.25378 14.9351 9.24952 14.8388 9.24663 14.7427C9.24526 14.6805 9.24374 14.6184 9.24374 14.5562V12.8667C9.24374 12.8908 9.24512 12.9148 9.24512 12.9388C9.2564 13.3473 9.32144 13.7969 9.44727 14.2564C9.5449 14.6099 9.66633 14.9365 9.80784 15.2277V15.2291C10.1783 15.9997 10.6746 16.5227 11.1312 16.6076C11.1595 16.6118 11.189 16.6147 11.2174 16.6175C11.3941 16.6373 11.5793 16.6485 11.7702 16.6485C12.4913 16.6485 13.1317 16.0689 13.5347 15.8342C13.5376 15.8328 13.5403 15.8313 13.5432 15.83C13.5644 15.8172 13.5855 15.8045 13.604 15.7918C13.6096 15.7877 13.6152 15.7848 13.621 15.782C13.9603 15.5883 14.4496 15.4652 14.9952 15.464H15.0066Z" fill="#4E1E30"/>
<path d="M20.7578 12.8652L20.7565 14.5548C20.7565 14.9789 20.7168 15.3946 20.6434 15.7975C20.6137 15.9587 20.5797 16.1185 20.5401 16.2767L19.2351 18.1614L15.0019 18.9998H15.0006L14.9992 19.0013V18.9998L14.9949 15.4618H15.0063C15.552 15.4633 16.0427 15.5863 16.3819 15.7799C16.3877 15.7828 16.3918 15.7855 16.3975 15.7898C16.4173 15.8024 16.4384 15.8152 16.4598 15.8279C16.4611 15.8293 16.464 15.8308 16.4668 15.8321C16.8711 16.0668 17.5101 16.6469 18.2312 16.6469C18.4221 16.6469 18.6073 16.6357 18.7841 16.6159C18.8138 16.613 18.842 16.6102 18.8717 16.606C19.327 16.5211 19.8246 15.998 20.1936 15.2275V15.2261C20.335 14.9349 20.4565 14.6083 20.5542 14.2548C20.6814 13.7881 20.7479 13.3329 20.7563 12.9187C20.7578 12.9006 20.7578 12.8835 20.7578 12.8652Z" fill="#4E1E30"/>
<path d="M14.9996 17.7281C15.7784 17.7281 16.4098 17.5329 16.4098 17.292C16.4098 17.0512 15.7784 16.856 14.9996 16.856C14.2207 16.856 13.5894 17.0512 13.5894 17.292C13.5894 17.5329 14.2207 17.7281 14.9996 17.7281Z" fill="#F0C290"/>
<path d="M15.0007 4.5H14.9952C11.8183 4.50289 9.24371 7.07884 9.24371 10.2557V12.7937C9.24371 12.7937 9.48258 11.2794 10.126 10.5443C10.8245 9.74542 10.6478 8.53088 12.2143 8.53088C13.2252 8.53088 13.2817 8.9041 14.994 8.9041H14.9953H15.0008H15.0022C16.7144 8.9041 16.7709 8.53088 17.7818 8.53088C19.3484 8.53088 19.1716 9.74528 19.8701 10.5443C20.5134 11.2794 20.7523 12.7937 20.7523 12.7937V10.2557C20.7522 7.07884 18.1776 4.50275 15.0007 4.5Z" fill="#4E1E30"/>
<path d="M18.7994 24.1361L18.6439 24.2945C17.674 25.2827 16.3789 25.8271 14.9975 25.8271C13.6022 25.8242 12.3098 25.2786 11.3441 24.2918L11.1956 24.1391C11.2692 24.0953 11.3441 24.0528 11.4191 24.0118C11.422 24.0089 11.4247 24.0104 11.4247 24.0104V24.0089C11.4855 23.9749 11.5449 23.9411 11.6043 23.9056C11.781 23.7982 11.9507 23.6794 12.109 23.5493C12.1104 23.5508 12.1104 23.5508 12.1119 23.5522C12.8443 24.3015 13.8637 24.7667 14.9948 24.7696H15.0062C16.1373 24.7696 17.1608 24.303 17.8961 23.5537L17.8975 23.5522C17.9979 23.6357 18.1025 23.7135 18.2099 23.7856C18.2212 23.794 18.2311 23.801 18.2424 23.8081C18.2932 23.8421 18.3456 23.8745 18.3979 23.9071C18.4558 23.9425 18.5153 23.9764 18.5746 24.0089C18.5845 24.0118 18.5917 24.0174 18.6 24.0217C18.6666 24.0585 18.7344 24.0966 18.7994 24.1361Z" fill="#CC784A"/>
</svg>
