<svg width="30" height="30" viewBox="0 0 30 30" fill="none" xmlns="http://www.w3.org/2000/svg">
<g opacity="0.2">
<path d="M30 15C30 23.2843 23.2843 30 15 30C6.71573 30 0 23.2843 0 15C0 6.71573 6.71573 0 15 0C23.2843 0 30 6.71573 30 15Z" fill="white"/>
<mask id="mask0_361_201" style="mask-type:alpha" maskUnits="userSpaceOnUse" x="0" y="0" width="30" height="30">
<path d="M30 15C30 23.2843 23.2843 30 15 30C6.71573 30 0 23.2843 0 15C0 6.71573 6.71573 0 15 0C23.2843 0 30 6.71573 30 15Z" fill="#304FFD"/>
</mask>
<g mask="url(#mask0_361_201)">
<rect width="30" height="30" fill="#304FFD"/>
</g>
</g>
<path d="M17.0351 17.012H12.9611L12.2611 19H10.5951L14.0811 9.256H15.9291L19.4151 19H17.7351L17.0351 17.012ZM16.5871 15.71L15.0051 11.188L13.4091 15.71H16.5871Z" fill="#304FFD"/>
</svg>
