<svg width="150" height="150" viewBox="0 0 150 150" fill="none" xmlns="http://www.w3.org/2000/svg">
<path fill-rule="evenodd" clip-rule="evenodd" d="M0.910863 39.5521C1.92257 18.521 18.5211 1.92257 39.5521 0.910863C50.3229 0.392725 62.5825 0 75 0C87.4175 0 99.6771 0.392726 110.448 0.910864C131.479 1.92257 148.077 18.5211 149.089 39.5521C149.607 50.3229 150 62.5825 150 75C150 87.4175 149.607 99.6771 149.089 110.448C148.077 131.479 131.479 148.077 110.448 149.089C99.6771 149.607 87.4175 150 75 150C62.5825 150 50.3229 149.607 39.5521 149.089C18.521 148.077 1.92257 131.479 0.910863 110.448C0.392725 99.6771 0 87.4175 0 75C0 62.5825 0.392726 50.3229 0.910863 39.5521Z" fill="#9868F8"/>
<path d="M116.435 78.6504V72.784C116.435 71.2216 116.799 69.6807 117.498 68.2832C118.89 64.8026 119.344 61.0175 118.814 57.3065L118.56 55.5332H68.6229L30.3729 117.158L66.4979 128.846L89.8729 98.0332H112.185H117.442C118.178 98.0332 118.903 97.862 119.56 97.5332C120.298 97.1646 120.926 96.61 121.383 95.9242L121.815 95.2765C122.464 94.3028 122.81 93.1587 122.81 91.9885C122.81 90.4164 122.186 88.9087 121.074 87.7971L119.623 86.3457C117.582 84.3048 116.435 81.5367 116.435 78.6504Z" fill="#FFDDCC"/>
<path fill-rule="evenodd" clip-rule="evenodd" d="M81.02 149.97C79.0211 149.99 77.0124 150 74.9996 150C62.582 150 50.3225 149.608 39.5516 149.089C30.5043 148.654 22.2773 145.334 15.7586 140.018C14.9597 139.131 14.1804 138.225 13.4214 137.303C17.4073 128.925 22.1979 120.978 28.4552 113.41C29.588 112.04 31.4756 111.576 33.1369 112.208L70.2929 126.363C73.2709 127.498 75.5972 129.905 76.5407 132.949C78.3139 138.67 79.8071 144.293 81.02 149.97Z" fill="#FFD240"/>
<path d="M113.243 96.9704C107.925 93.7825 90.936 94.8449 89.8736 93.7828C83.4987 87.4096 92.5265 63.505 97.3055 55.5329C137.686 68.2829 137.685 33.2207 100.493 35.3457C59.7036 18.6119 28.18 46.1469 47.4722 91.6025C48.0443 92.9506 49.3067 93.9001 50.7605 94.0768C55.2275 94.6195 64.6274 95.653 65.4305 94.8454C66.4873 93.7825 69.6862 86.3457 67.5555 85.2829C44.4166 73.7408 77.5185 50.8456 81.0652 72.6918C81.4969 75.3506 80.8937 78.0885 79.6652 80.4857C75.0053 89.5787 67.7765 97.9168 70.743 109.72C71.8112 113.971 89.0237 122.258 98.3737 121.408C107.724 120.558 118.561 100.158 113.243 96.9704Z" fill="#4E1E30"/>
<path d="M105.814 77.8459C105.814 79.6064 107.241 81.0334 109.002 81.0334C110.762 81.0334 112.189 79.6064 112.189 77.8459C112.189 76.0855 110.762 74.6584 109.002 74.6584C107.241 74.6584 105.814 76.0855 105.814 77.8459Z" fill="#4A1827"/>
<path d="M116.438 68.2832C116.438 67.1096 115.486 66.1582 114.313 66.1582H103.688C102.514 66.1582 101.563 67.1096 101.563 68.2832C101.563 69.4568 102.514 70.4082 103.688 70.4082H114.313C115.486 70.4082 116.438 69.4568 116.438 68.2832Z" fill="#5B2C3E"/>
</svg>
