<svg width="150" height="150" viewBox="0 0 150 150" fill="none" xmlns="http://www.w3.org/2000/svg">
<path fill-rule="evenodd" clip-rule="evenodd" d="M0.910863 39.5521C1.92257 18.521 18.5211 1.92257 39.5521 0.910863C50.3229 0.392725 62.5825 0 75 0C87.4175 0 99.6771 0.392726 110.448 0.910864C131.479 1.92257 148.077 18.5211 149.089 39.5521C149.607 50.3229 150 62.5825 150 75C150 87.4175 149.607 99.6771 149.089 110.448C148.077 131.479 131.479 148.077 110.448 149.089C99.6771 149.607 87.4175 150 75 150C62.5825 150 50.3229 149.607 39.5521 149.089C18.521 148.077 1.92257 131.479 0.910863 110.448C0.392725 99.6771 0 87.4175 0 75C0 62.5825 0.392726 50.3229 0.910863 39.5521Z" fill="#304FFD"/>
<path d="M94.8771 28.8801L79.4174 112.805L90.4602 115.013C113.834 97.8974 123.864 28.8801 94.8771 28.8801Z" fill="#4E1E30"/>
<path d="M94.8778 28.8799C91.0127 26.5332 70.6143 20.5734 55.124 28.8799C36.0755 39.0945 19.4193 75.6275 46.29 112.805C46.3282 112.858 66.1669 110.596 66.1669 110.596L94.8778 28.8799Z" fill="#4E1E30"/>
<path fill-rule="evenodd" clip-rule="evenodd" d="M94.8748 149.695C88.4384 149.884 81.7425 150 74.9999 150C68.256 150 61.5586 149.884 55.121 149.695V116.354C59.5171 113.035 59.5382 107.547 59.5382 102.499V97.3455H90.4576V102.504H90.5778C90.5778 107.509 90.5912 112.949 94.8748 116.277V149.695Z" fill="#FFD7A3"/>
<path fill-rule="evenodd" clip-rule="evenodd" d="M92.6678 149.757C86.9141 149.909 80.9755 150 75.0004 150C70.5422 150 66.1043 149.949 61.7484 149.86L61.7484 142.002C65.7692 143.095 70.2505 143.725 74.9997 143.725C81.5743 143.725 87.6575 142.544 92.6678 140.545V149.757Z" fill="#0090FF"/>
<path d="M92.6664 126.057C93.4723 126.277 94.1979 126.394 94.8749 126.451V116.277C90.5916 112.949 90.5778 107.509 90.5778 102.504L90.5748 102.376V97.217L66.1639 97.3453L59.5383 99.5537C63.9555 104.523 77.4829 121.916 92.6664 126.057Z" fill="#FDC88E"/>
<path d="M105.921 68.6333C105.921 86.3197 88.3317 108.387 75.0019 108.387C61.6721 108.387 44.0825 86.3197 44.0825 68.6333C44.0825 50.947 57.9258 44.3391 75.0019 44.3391C92.078 44.3391 105.921 50.947 105.921 68.6333Z" fill="#FFE1B2"/>
<path d="M79.4172 33.2974C78.1764 33.2974 74.1475 34.6916 70.8547 35.9133L70.5831 35.5058C70.5831 35.5058 70.1287 35.8629 69.342 36.4818C67.5105 37.1772 66.1663 37.7143 66.1663 37.7143L66.6828 38.5755C58.3002 45.18 39.1748 60.2884 37.455 62.0085C35.2466 64.2169 50.7063 120.564 50.7063 88.5112C50.7063 61.7326 65.5836 56.4293 79.4172 53.1744C85.6747 51.702 87.5152 48.0211 88.2513 44.3403C88.9876 40.6594 81.626 33.2974 79.4172 33.2974Z" fill="#4E1E30"/>
<path d="M86.0417 46.5484C90.0908 61.0878 98.1888 67.6675 105.781 69.6001C109.941 70.659 108.127 57.5913 108.127 57.5913C108.127 57.5913 102.238 42.4993 101.502 42.1315C100.766 41.7633 94.8761 28.8801 94.8761 28.8801L81.6249 39.923L86.0417 46.5484Z" fill="#4E1E30"/>
<path fill-rule="evenodd" clip-rule="evenodd" d="M65.8738 149.933C56.6341 149.799 47.6703 149.48 39.5522 149.089C31.3719 148.696 23.8623 145.944 17.6797 141.491C18.8078 129.121 29.2087 119.431 41.8723 119.431H42.6084C51.2629 119.431 55.48 117.069 57.5485 113.708L65.8738 149.933Z" fill="#FF965D"/>
<path fill-rule="evenodd" clip-rule="evenodd" d="M132.32 141.492C126.137 145.944 118.628 148.696 110.448 149.089C102.33 149.48 93.3655 149.799 84.1253 149.933L92.4506 113.708C94.5191 117.069 98.7362 119.431 107.391 119.431H108.127C120.791 119.431 131.192 129.121 132.32 141.492Z" fill="#FF965D"/>
<path d="M102.628 68.8349C106.242 68.0066 108.61 69.7763 108.61 73.2521C108.61 77.8533 103.75 89.1261 98.6411 82.0862C93.5322 75.0464 102.628 68.8349 102.628 68.8349Z" fill="#FFE1B2"/>
</svg>
