<svg width="150" height="150" viewBox="0 0 150 150" fill="none" xmlns="http://www.w3.org/2000/svg">
<path fill-rule="evenodd" clip-rule="evenodd" d="M0.910863 39.5521C1.92257 18.521 18.5211 1.92257 39.5521 0.910863C50.3229 0.392725 62.5825 0 75 0C87.4175 0 99.6771 0.392726 110.448 0.910864C131.479 1.92257 148.077 18.5211 149.089 39.5521C149.607 50.3229 150 62.5825 150 75C150 87.4175 149.607 99.6771 149.089 110.448C148.077 131.479 131.479 148.077 110.448 149.089C99.6771 149.607 87.4175 150 75 150C62.5825 150 50.3229 149.607 39.5521 149.089C18.521 148.077 1.92257 131.479 0.910863 110.448C0.392725 99.6771 0 87.4175 0 75C0 62.5825 0.392726 50.3229 0.910863 39.5521Z" fill="#FF965D"/>
<path d="M48.3925 103.388C41.7474 86.6237 27.789 71.4516 45.3535 40.8904C52.5875 28.3038 63.6374 20.0027 75.0525 22.8132C86.4675 20.003 97.5174 28.3041 104.751 40.8904C122.315 71.4516 108.358 86.6237 101.712 103.388L75.0534 103.454L48.3934 103.388H48.3925Z" fill="#1F0951"/>
<path fill-rule="evenodd" clip-rule="evenodd" d="M123.848 146.164C119.691 147.844 115.181 148.861 110.447 149.089C99.6761 149.607 87.4165 150 74.999 150C62.5815 150 50.3219 149.607 39.5511 149.089C34.8197 148.862 30.3126 147.845 26.1569 146.167C26.7624 143.604 27.3368 141.007 27.8584 138.65C28.8806 134.029 29.6997 130.326 30.152 129.596C35.8386 120.414 42.8977 117.149 49.1033 114.278C56.8577 110.692 63.2793 107.721 64.0249 94.5937C64.0249 94.5937 69.9319 99.1187 74.7794 99.0755C79.6265 99.0322 85.9746 94.2949 85.9746 94.2949C86.7233 107.458 93.1657 110.501 100.939 114.174C107.135 117.101 114.176 120.428 119.854 129.596C120.306 130.325 121.124 134.024 122.145 138.641C122.667 141.001 123.242 143.599 123.848 146.164Z" fill="#FFD7A3"/>
<path d="M86.3171 97.6367C86.1581 96.5998 86.041 95.4911 85.9735 94.2964C85.9735 94.2964 79.6253 99.0337 74.7782 99.0769C69.9307 99.1202 64.0236 94.5952 64.0236 94.5952C63.9552 95.8117 63.835 96.9369 63.671 97.9875C63.7952 98.0855 63.9184 98.1851 64.0448 98.2822L64.0432 98.2994C64.4165 98.6243 70.0907 103.504 74.7772 103.454C79.4638 103.503 85.1374 98.6234 85.5112 98.2994L85.5103 98.2822C85.7855 98.0715 86.0525 97.8546 86.3162 97.6373L86.3171 97.6367Z" fill="#F0C290"/>
<path d="M64.0444 94.6094C64.4177 94.8911 70.0919 99.1179 74.7784 99.0756C79.4649 99.1179 85.1385 94.8905 85.5123 94.6094C92.596 90.4798 98.4084 78.304 97.0964 65.1081C96.0219 54.2988 84.3286 70.1483 76.1844 47.8455C64.6576 71.9916 53.7095 57.7085 52.4613 66.8593C51.0855 76.9418 56.746 89.6281 64.0444 94.6101V94.6094Z" fill="#FFE1B2"/>
<path fill-rule="evenodd" clip-rule="evenodd" d="M124.083 146.068C119.86 147.805 115.27 148.857 110.447 149.089C99.6762 149.607 87.4167 150 74.9992 150C62.5817 150 50.3221 149.607 39.5512 149.089C34.7238 148.856 30.1299 147.803 25.9044 146.063C26.7155 141.947 27.4775 137.382 28.1402 133.411C29.03 128.08 29.7409 123.822 30.1511 123.162C33.3296 118.052 39.896 116.239 46.0095 114.551C49.2344 113.66 52.3333 112.804 54.7425 111.518L54.7446 111.521C67.6799 153.017 83.8624 150.331 94.7196 110.941C97.0693 112.203 100.318 113.078 103.718 113.995C110.422 115.802 117.713 117.767 119.852 123.162C120.099 123.785 120.659 127.038 121.397 131.331C122.153 135.723 123.096 141.204 124.083 146.068ZM54.7433 111.517C54.743 111.518 54.7427 111.518 54.7425 111.518L54.7421 111.517H54.7433ZM54.7433 111.517C54.7435 111.517 54.7437 111.517 54.7439 111.517V111.517H54.7433Z" fill="#304FFD"/>
<path d="M59.3972 107.602C58.944 119.857 61.0277 137.219 74.7785 141.656C61.8326 142.197 53.432 123.544 43.8622 118.659L59.3969 107.603V107.602H59.3972Z" fill="white"/>
<path d="M90.9313 107.602C91.4066 119.857 89.2192 137.219 74.7792 141.656C88.3735 142.197 97.1953 123.544 107.243 118.659L90.9306 107.603L90.9313 107.602Z" fill="white"/>
</svg>
