<svg width="150" height="151" viewBox="0 0 150 151" fill="none" xmlns="http://www.w3.org/2000/svg">
<path fill-rule="evenodd" clip-rule="evenodd" d="M0.910863 39.5521C1.92257 18.521 18.5211 1.92257 39.5521 0.910863C50.3229 0.392725 62.5825 0 75 0C87.4175 0 99.6771 0.392726 110.448 0.910864C131.479 1.92257 148.077 18.5211 149.089 39.5521C149.607 50.3229 150 62.5825 150 75C150 87.4175 149.607 99.6771 149.089 110.448C148.077 131.479 131.479 148.077 110.448 149.089C99.6771 149.607 87.4175 150 75 150C62.5825 150 50.3229 149.607 39.5521 149.089C18.521 148.077 1.92257 131.479 0.910863 110.448C0.392725 99.6771 0 87.4175 0 75C0 62.5825 0.392726 50.3229 0.910863 39.5521Z" fill="#EFEFF2"/>
<path d="M75.3654 124.414C75.2437 124.414 75.1219 124.535 75.0001 124.535C74.8783 124.535 74.7565 124.414 74.6347 124.414H75.3654Z" fill="#84DBFF"/>
<path fill-rule="evenodd" clip-rule="evenodd" d="M134.689 139.647C128.101 145.18 119.704 148.644 110.448 149.089C99.677 149.607 87.4175 150 75 150C62.5825 150 50.3229 149.607 39.552 149.089C30.2969 148.644 21.9002 145.18 15.3125 139.648C25.4266 126.448 40.6794 119.868 53.1967 116.618C52.2223 124.657 56.3635 135.376 56.4853 135.132C60.7484 125.388 74.9991 124.535 74.9991 124.535C74.9991 124.535 89.2499 125.388 93.3911 135.132C93.5129 135.376 97.776 124.657 96.6797 116.618C109.317 119.868 124.69 126.447 134.689 139.647Z" fill="#22CCE2"/>
<path d="M92.4175 109.066C92.4175 109.066 92.4175 109.066 92.4175 109.188C92.4175 110.406 91.8085 118.201 75.3653 124.413H74.6345C58.1913 118.201 57.5823 110.406 57.5823 109.188C57.5823 109.066 57.5823 109.066 57.5823 109.066C57.5823 107.483 57.9477 105.899 58.3131 104.316C63.0633 110.284 68.788 114.304 74.9999 114.304C81.2117 114.304 86.9364 110.284 91.6867 104.316C92.0521 105.899 92.4175 107.483 92.4175 109.066Z" fill="#FFD7A3"/>
<path d="M92.4148 108.957C92.4148 108.957 93.2674 117.727 74.9973 124.548C74.9973 124.548 89.248 125.4 93.3892 135.145C93.6329 135.388 101.794 114.195 92.4148 108.957Z" fill="#148A99"/>
<path d="M57.5809 109.067C48.2022 114.305 56.3629 135.498 56.6065 135.133C60.8696 125.389 74.9985 124.536 74.9985 124.536C56.7283 117.837 57.5809 109.067 57.5809 109.067Z" fill="#148A99"/>
<path d="M100.576 78.2505C99.4794 85.8022 96.1908 92.8666 90.7097 98.2259C89.6135 99.3221 88.6391 100.175 87.4211 101.027L85.4723 94.8155H64.5225L62.5737 101.027C58.676 98.1041 50.5153 89.9434 50.3935 82.2699C46.9831 38.5434 80.4784 47.8003 80.4784 47.8003C103.012 46.2168 102.281 66.0704 100.576 78.2505Z" fill="#FFE1B2"/>
<path d="M105.084 86.1675C103.379 88.969 101.065 90.9178 98.8725 91.6486C99.7251 89.6998 100.456 87.6291 101.065 85.5585C101.065 85.5585 101.065 85.5585 101.065 85.4367C101.552 83.6097 102.039 81.7827 102.527 79.9557H102.405C102.892 78.1286 103.379 76.3016 103.745 74.4746C104.232 74.4746 104.719 74.7182 105.206 74.9618C107.886 76.667 107.764 81.6609 105.084 86.1675Z" fill="#FFE1B2"/>
<path d="M51.1256 91.6489C48.9332 90.9181 46.6189 88.9693 44.9137 86.1679C42.1123 81.6612 42.1123 76.6673 44.7919 75.0839C45.0355 74.9621 45.1573 74.8403 45.4009 74.8403C46.8625 80.565 48.5678 84.828 48.9332 85.6806C49.5422 87.6295 50.273 89.7001 51.1256 91.6489Z" fill="#FFE1B2"/>
<path d="M88.2752 35.6209C89.2496 24.4152 71.4666 25.146 71.4666 25.146C44.5486 29.0436 41.6254 54.1346 41.6254 54.1346L45.2794 49.7498C39.5547 62.2953 48.2026 83.8541 48.9334 85.5593C53.4401 100.541 63.4278 114.304 74.9989 114.304C86.57 114.304 96.5577 100.541 101.064 85.5593C101.064 85.5593 101.064 85.5593 101.064 85.4375C101.552 83.6105 102.039 81.7835 102.404 79.9565H102.282C104.718 70.2124 107.398 60.3465 107.398 60.3465C114.341 25.3896 88.2752 35.6209 88.2752 35.6209ZM100.577 78.2513C99.4809 85.8029 96.1923 92.8674 90.7112 98.2267C89.615 99.3229 88.5188 100.175 87.4226 101.028L85.4738 94.938H64.524L62.5752 101.15C58.6775 98.2267 55.3889 94.2072 52.7093 89.5788C51.4913 87.1428 50.7604 84.5849 50.395 82.3925C46.9846 38.6659 80.4799 47.9228 80.4799 47.9228C103.013 46.2176 102.282 66.0712 100.577 78.2513Z" fill="#324A5E"/>
<path d="M88.2752 35.6209C89.2496 24.4152 71.4666 25.146 71.4666 25.146C44.5486 29.0436 41.6254 54.1346 41.6254 54.1346L45.2794 49.7498C39.5547 62.2953 48.2026 83.8541 48.9334 85.5593C53.4401 100.541 63.4278 114.304 74.9989 114.304C86.57 114.304 96.5577 100.541 101.064 85.5593C101.064 85.5593 101.064 85.5593 101.064 85.4375C101.552 83.6105 102.039 81.7835 102.404 79.9565H102.282C104.718 70.2124 107.398 60.3465 107.398 60.3465C114.341 25.3896 88.2752 35.6209 88.2752 35.6209ZM100.577 78.2513C99.4809 85.8029 96.1923 92.8674 90.7112 98.2267C89.615 99.3229 88.5188 100.175 87.4226 101.028L85.4738 94.938H64.524L62.5752 101.15C58.6775 98.2267 55.3889 94.2072 52.7093 89.5788C51.4913 87.1428 50.7604 84.5849 50.395 82.3925C46.9846 38.6659 80.4799 47.9228 80.4799 47.9228C103.013 46.2176 102.282 66.0712 100.577 78.2513Z" fill="#324A5E"/>
<path d="M88.2752 35.6209C89.2496 24.4152 71.4666 25.146 71.4666 25.146C44.5486 29.0436 41.6254 54.1346 41.6254 54.1346L45.2794 49.7498C39.5547 62.2953 48.2026 83.8541 48.9334 85.5593C53.4401 100.541 63.4278 114.304 74.9989 114.304C86.57 114.304 96.5577 100.541 101.064 85.5593C101.064 85.5593 101.064 85.5593 101.064 85.4375C101.552 83.6105 102.039 81.7835 102.404 79.9565H102.282C104.718 70.2124 107.398 60.3465 107.398 60.3465C114.341 25.3896 88.2752 35.6209 88.2752 35.6209ZM100.577 78.2513C99.4809 85.8029 96.1923 92.8674 90.7112 98.2267C89.615 99.3229 88.5188 100.175 87.4226 101.028L85.4738 94.938H64.524L62.5752 101.15C58.6775 98.2267 50.5168 90.066 50.395 82.3925C46.9846 38.6659 80.4799 47.9228 80.4799 47.9228C103.013 46.2176 102.282 66.0712 100.577 78.2513Z" fill="#1F0951"/>
<path d="M66.4725 99.0791C68.5432 101.393 71.5882 102.977 74.9986 102.977C78.409 102.977 81.4541 101.515 83.5247 99.0791H66.4725Z" fill="white"/>
</svg>
