<svg width="150" height="150" viewBox="0 0 150 150" fill="none" xmlns="http://www.w3.org/2000/svg">
<path fill-rule="evenodd" clip-rule="evenodd" d="M0.910863 39.5521C1.92257 18.521 18.5211 1.92257 39.5521 0.910863C50.3229 0.392725 62.5825 0 75 0C87.4175 0 99.6771 0.392726 110.448 0.910864C131.479 1.92257 148.077 18.5211 149.089 39.5521C149.607 50.3229 150 62.5825 150 75C150 87.4175 149.607 99.6771 149.089 110.448C148.077 131.479 131.479 148.077 110.448 149.089C99.6771 149.607 87.4175 150 75 150C62.5825 150 50.3229 149.607 39.5521 149.089C18.521 148.077 1.92257 131.479 0.910863 110.448C0.392725 99.6771 0 87.4175 0 75C0 62.5825 0.392726 50.3229 0.910863 39.5521Z" fill="#FFD240"/>
<path d="M98.2719 124.366V107.055H53.7595V124.366L76.0157 144.149L98.2719 124.366Z" fill="#FFE1B2"/>
<path fill-rule="evenodd" clip-rule="evenodd" d="M138.34 136.167C131.353 143.707 121.512 148.557 110.445 149.089C99.6736 149.607 87.4141 150 74.9966 150C62.5791 150 50.3195 149.607 39.5486 149.089C29.1151 148.587 19.7725 144.249 12.8827 137.437C14.1887 134.991 16.5015 133.133 19.3451 132.464L49.9455 125.264C50.8148 125.059 51.5802 124.628 52.1968 124.047L76.0148 139.204L100.799 124.746C101.197 124.97 101.622 125.155 102.084 125.264L132.685 132.464C135.012 133.011 136.984 134.356 138.34 136.167Z" fill="#8B63E7"/>
<path d="M53.7595 107.055V125.319C81.7963 135.421 98.2719 110.139 98.2719 110.139V107.055H53.7595V107.055Z" fill="#F0C290"/>
<path d="M43.8675 50.1782L46.0224 97.5876C46.2235 102.016 48.3953 106.124 51.942 108.784L62.1668 116.453C64.7353 118.379 67.8589 119.42 71.0694 119.42H80.9612C84.1717 119.42 87.2954 118.379 89.8638 116.453L100.089 108.784C103.635 106.124 105.807 102.017 106.008 97.5876L108.163 50.1782C108.163 50.1782 43.8675 50.1782 43.8675 50.1782Z" fill="#FFE1B2"/>
<path fill-rule="evenodd" clip-rule="evenodd" d="M81.0559 149.97C79.0443 149.989 77.0227 150 74.9969 150C73.6532 150 72.3113 149.995 70.9729 149.986L71.3782 144.15H80.6517L81.0559 149.97Z" fill="#5B5D6E"/>
<path d="M82.1971 139.204H69.8325V143.858C69.8325 145.385 71.0702 146.623 72.5973 146.623H79.4321C80.9592 146.623 82.1969 145.385 82.1969 143.858V139.204H82.1971Z" fill="#515262"/>
<path d="M53.4113 118.86L76.0148 139.203C76.0148 139.203 69.6846 142.399 61.8729 148.84C60.2615 150.168 57.8239 149.63 56.9596 147.729L46.34 124.366L49.6996 119.327C50.5355 118.071 52.2904 117.851 53.4113 118.86Z" fill="white"/>
<path d="M98.6197 118.86L76.0161 139.203C76.0161 139.203 82.3464 142.399 90.158 148.84C91.7695 150.168 94.207 149.63 95.0713 147.729L105.691 124.366L102.331 119.327C101.495 118.071 99.7403 117.851 98.6197 118.86Z" fill="white"/>
<path d="M91.0078 33.7951L93.326 50.1783C103.909 52.2949 105.434 68.9028 105.653 73.6463C105.693 74.5072 105.968 75.3384 106.435 76.0626L110.473 82.3262C110.473 82.3262 109.091 71.9707 115.419 65.0157C115.419 65.0157 117.592 23.9032 91.0078 33.7951Z" fill="#4E1E30"/>
<path d="M112.954 81.2712L110.162 92.4383C109.831 93.762 108.642 94.6901 107.278 94.6901C105.778 94.6901 104.513 93.5737 104.327 92.0859L102.899 80.6641C102.517 77.6068 104.901 74.9067 107.982 74.9067H107.984C111.317 74.907 113.762 78.0383 112.954 81.2712Z" fill="#FFE1B2"/>
<path d="M46.2368 29.3644L49.8944 31.863C33.3569 44.0731 36.4478 65.0158 36.4478 65.0158C41.3936 69.9616 41.3936 82.3263 41.3936 82.3263L46.3393 77.3806C46.3393 77.3806 44.4307 63.0934 53.758 57.5971C62.4132 52.4967 69.9864 55.1242 77.7144 55.1242C98.4249 55.1242 104.221 47.319 103.216 37.8137C102.696 32.8954 95.1766 22.6503 76.0144 22.9761C68.2812 23.1075 53.7585 25.449 46.2368 29.3644Z" fill="#66273F"/>
<path d="M44.794 52.9601C44.794 52.9601 42.1665 42.6046 49.8944 31.863C33.3569 44.0731 36.4478 65.0158 36.4478 65.0158C41.3936 69.9616 41.3936 82.3263 41.3936 82.3263L46.3393 77.3806C46.3393 77.3806 44.4307 63.0934 53.758 57.5971C62.4132 52.4967 69.9865 55.1242 77.7144 55.1242C81.0826 55.1242 84.0177 54.8987 86.6321 54.5121C70.6826 55.0466 61.2805 42.9651 44.794 52.9601Z" fill="#4E1E30"/>
<path d="M39.0787 81.2712L41.8704 92.4383C42.2013 93.762 43.3902 94.6901 44.7548 94.6901C46.2545 94.6901 47.5191 93.5737 47.7051 92.0859L49.133 80.6641C49.5151 77.6068 47.1316 74.9067 44.0506 74.9067H44.0483C40.7157 74.907 38.2705 78.0383 39.0787 81.2712Z" fill="#FFE1B2"/>
</svg>
