<svg width="150" height="150" viewBox="0 0 150 150" fill="none" xmlns="http://www.w3.org/2000/svg">
<path fill-rule="evenodd" clip-rule="evenodd" d="M0.910863 39.5521C1.92257 18.521 18.5211 1.92257 39.5521 0.910863C50.3229 0.392725 62.5825 0 75 0C87.4175 0 99.6771 0.392726 110.448 0.910864C131.479 1.92257 148.077 18.5211 149.089 39.5521C149.607 50.3229 150 62.5825 150 75C150 87.4175 149.607 99.6771 149.089 110.448C148.077 131.479 131.479 148.077 110.448 149.089C99.6771 149.607 87.4175 150 75 150C62.5825 150 50.3229 149.607 39.5521 149.089C18.521 148.077 1.92257 131.479 0.910863 110.448C0.392725 99.6771 0 87.4175 0 75C0 62.5825 0.392726 50.3229 0.910863 39.5521Z" fill="#22CCE2"/>
<path d="M105.58 54.4841V77.3257C105.58 77.656 105.573 77.9862 105.565 78.3164C105.558 78.5867 105.55 78.8497 105.535 79.1207C105.528 79.3611 105.512 79.6014 105.49 79.8418C105.483 80.0142 105.467 80.1873 105.453 80.3598C105.445 80.4657 105.437 80.5621 105.422 80.668C105.407 80.8558 105.392 81.0509 105.362 81.2386C105.332 81.5988 105.287 81.9524 105.234 82.3125C105.227 82.4031 105.211 82.493 105.197 82.5828C105.174 82.7633 105.144 82.9437 105.114 83.1235V83.1461C105.07 83.4084 105.024 83.6641 104.979 83.9271C104.911 84.2872 104.844 84.6481 104.769 85.001C104.761 85.0163 104.761 85.0317 104.754 85.047C104.747 85.0989 104.739 85.1522 104.724 85.2048C104.717 85.2202 104.717 85.2348 104.709 85.2501C104.672 85.4459 104.626 85.6329 104.581 85.8207C104.566 85.9032 104.551 85.9865 104.521 86.0691C104.498 86.2042 104.46 86.3386 104.431 86.4745C104.409 86.5498 104.394 86.6323 104.363 86.7069C104.348 86.7748 104.326 86.8427 104.311 86.9026C104.153 87.5185 103.972 88.1198 103.785 88.7203C103.694 89.0059 103.604 89.2835 103.507 89.5692C103.5 89.5991 103.484 89.6291 103.477 89.659C103.387 89.9147 103.297 90.1697 103.207 90.4254C103.177 90.5006 103.147 90.5752 103.117 90.6577C103.026 90.8981 102.937 91.1384 102.839 91.3788C102.727 91.671 102.606 91.9567 102.487 92.243C102.381 92.4987 102.269 92.753 102.156 93.0087C102.142 93.0547 102.119 93.0912 102.104 93.1365C101.976 93.4068 101.856 93.6771 101.728 93.9408C101.6 94.2185 101.465 94.4968 101.323 94.7751C101.052 95.3231 100.759 95.8717 100.467 96.4043L100.061 97.1254C98.9039 99.1161 97.6203 100.986 96.2227 102.713C96.035 102.961 95.8399 103.201 95.6368 103.434C95.3592 103.772 95.0736 104.102 94.7879 104.425C94.5322 104.711 94.2773 104.996 94.0143 105.274C93.2932 106.048 92.5568 106.783 91.8058 107.475C91.6553 107.625 91.4982 107.761 91.3404 107.903C91.0848 108.136 90.8298 108.361 90.5668 108.579C90.3644 108.76 90.154 108.932 89.9429 109.105C89.4023 109.548 88.8617 109.976 88.313 110.374C88.088 110.547 87.855 110.712 87.6219 110.87C87.2464 111.14 86.8629 111.396 86.4801 111.645C86.2697 111.787 86.052 111.922 85.8342 112.05C85.0679 112.523 84.2942 112.959 83.5279 113.334C83.3401 113.432 83.1524 113.523 82.9646 113.613C82.7769 113.702 82.5818 113.793 82.3787 113.883C82.1311 113.995 81.8827 114.101 81.635 114.199C81.5371 114.243 81.44 114.281 81.3421 114.311C81.0491 114.432 80.7489 114.543 80.4559 114.641C80.0884 114.777 79.7122 114.89 79.3447 114.994C79.089 115.069 78.8268 115.137 78.5711 115.196C78.5557 115.205 78.5411 115.212 78.5185 115.212C78.2628 115.272 78.0078 115.332 77.7521 115.378C77.6849 115.393 77.617 115.408 77.5497 115.416C77.3393 115.453 77.1289 115.491 76.9185 115.514C76.6183 115.559 76.3173 115.596 76.017 115.611C75.9118 115.626 75.8147 115.633 75.7095 115.633C75.4691 115.648 75.2288 115.656 74.9957 115.656H74.9731C74.7408 115.656 74.5077 115.648 74.2747 115.633C74.1848 115.633 74.0942 115.626 74.0044 115.611C73.794 115.603 73.5763 115.581 73.3505 115.551C73.306 115.551 73.2534 115.544 73.2081 115.535C72.9305 115.498 72.6521 115.453 72.3672 115.4C72.1268 115.362 71.8865 115.31 71.6381 115.25C70.3538 114.957 69.0322 114.513 67.6953 113.921C66.5534 113.418 65.397 112.809 64.2478 112.103C63.6699 111.75 63.0913 111.375 62.52 110.977C62.2344 110.774 61.9495 110.571 61.6638 110.36C60.7696 109.706 59.8835 108.993 59.0126 108.227C58.7723 108.009 58.5319 107.792 58.2916 107.567C58.0512 107.349 57.8109 107.123 57.5778 106.905C56.9919 106.342 56.4214 105.757 55.8654 105.148C55.6477 104.915 55.43 104.676 55.2116 104.427C54.611 103.752 54.0251 103.053 53.4692 102.324C53.2515 102.062 53.0484 101.791 52.846 101.52C52.087 100.514 51.3666 99.4624 50.6902 98.3724C50.5097 98.0802 50.3293 97.7799 50.1568 97.4863C49.9464 97.1334 49.7441 96.7725 49.541 96.4123C48.79 95.0601 48.0989 93.6559 47.4984 92.2058C47.4078 91.9954 47.3179 91.785 47.2427 91.5753C47.1229 91.305 47.0177 91.0266 46.9198 90.7563C46.7693 90.3582 46.6268 89.96 46.4917 89.5619C46.3565 89.1637 46.2287 88.7575 46.1008 88.3528C45.981 87.962 45.8685 87.5718 45.7633 87.1737C45.6427 86.7529 45.5302 86.3248 45.4323 85.8894C45.425 85.8441 45.4097 85.7988 45.4024 85.7535C45.2599 85.153 45.1321 84.5444 45.0196 83.9285C44.8691 83.1176 44.7493 82.2914 44.6594 81.4571C44.6214 81.1948 44.5988 80.931 44.5769 80.6688C44.5469 80.3904 44.5243 80.1201 44.5089 79.8425C44.4717 79.3392 44.449 78.8278 44.4337 78.3171C44.4264 77.9869 44.4183 77.6567 44.4183 77.3265V54.4841C44.4183 37.6059 58.0958 23.9211 74.9731 23.9065H75.0038C77.332 23.9065 79.6004 24.1688 81.7782 24.6575C83.769 25.1075 85.6845 25.7541 87.5014 26.5723C89.9801 27.6835 92.2858 29.1117 94.3591 30.8169C96.1022 32.2436 97.6868 33.8509 99.069 35.6239C103.095 40.7539 105.521 47.1989 105.573 54.2138C105.58 54.3036 105.58 54.3935 105.58 54.4841Z" fill="#FFE1B2"/>
<path fill-rule="evenodd" clip-rule="evenodd" d="M112.45 148.945C111.787 149.009 111.119 149.057 110.447 149.089C99.6765 149.607 87.417 150 74.9995 150C62.5819 150 50.3224 149.607 39.5515 149.089C38.8806 149.057 38.2143 149.009 37.5528 148.945C37.7237 148.476 37.9043 148.01 38.0947 147.548V147.54C38.3804 146.826 38.6952 146.127 39.0255 145.437C40.3397 142.665 41.9776 140.073 43.8778 137.7C44.3585 137.106 44.8465 136.528 45.3499 135.973C45.5839 135.703 45.8316 135.441 46.08 135.178L46.1235 135.132C46.3858 134.861 46.6495 134.591 46.9191 134.321C48.2641 132.976 49.7054 131.745 51.2235 130.61C51.9819 130.047 52.7482 129.521 53.5445 129.011C54.3408 128.508 55.1517 128.026 55.978 127.576C55.9933 127.562 56.0079 127.562 56.0079 127.562C56.3308 127.389 56.6464 127.201 56.962 127.006C57.9008 126.442 58.8023 125.819 59.6585 125.128C63.2865 122.244 66.0954 118.368 67.6954 113.921C68.6495 111.262 69.1674 108.401 69.1674 105.411L74.9732 105.441L80.9447 105.472C80.9447 108.423 81.4481 111.255 82.3795 113.884C83.9568 118.346 86.7585 122.237 90.3864 125.136C90.927 125.579 91.4757 125.984 92.0535 126.368C92.1142 126.413 92.166 126.45 92.2267 126.488C92.497 126.668 92.7673 126.848 93.0529 127.014C93.3605 127.202 93.6761 127.389 93.9917 127.562C94.0443 127.577 94.0896 127.6 94.1269 127.63C94.788 127.998 95.4411 128.381 96.0796 128.779C96.3879 128.967 96.6955 129.162 96.9957 129.379C97.6196 129.777 98.2275 130.214 98.8214 130.664C98.8214 130.672 98.8287 130.672 98.8287 130.672H98.836C99.5951 131.235 100.331 131.836 101.052 132.452C101.773 133.069 102.464 133.714 103.132 134.383C107.226 138.459 110.434 143.414 112.45 148.945Z" fill="#F0C290"/>
<path fill-rule="evenodd" clip-rule="evenodd" d="M112.45 148.945C111.787 149.009 111.12 149.057 110.448 149.089C99.6768 149.607 87.4172 150 74.9997 150C62.5822 150 50.3226 149.607 39.5518 149.089C38.8802 149.057 38.2132 149.009 37.551 148.945C37.7224 148.475 37.9033 148.008 38.0931 147.545V147.537C38.3788 146.823 38.6944 146.124 39.0246 145.433C40.3388 142.662 41.976 140.07 43.8769 137.697C44.3576 137.103 44.8464 136.525 45.349 135.97C45.5966 135.684 45.8596 135.406 46.1226 135.129L46.1226 135.129L46.1228 135.129C46.3857 134.858 46.6487 134.588 46.919 134.318C48.2632 132.973 49.7053 131.742 51.2227 130.607C51.9817 130.044 52.7473 129.518 53.5436 129.007C53.9564 128.745 54.3699 128.489 54.79 128.242C55.1808 128.009 55.579 127.783 55.9771 127.565C55.9924 127.55 56.0071 127.558 56.0071 127.558V127.55C56.33 127.369 56.6456 127.19 56.9612 127.001C57.8999 126.431 58.8014 125.8 59.6423 125.108C59.6496 125.116 59.6496 125.116 59.6576 125.124L59.6576 125.124C63.5486 129.105 68.9642 131.576 74.973 131.591H75.0336C81.0425 131.591 86.48 129.113 90.3863 125.132L90.3936 125.124C90.9269 125.567 91.4828 125.981 92.0534 126.364C92.1133 126.408 92.1659 126.445 92.2258 126.483C92.4736 126.649 92.7282 126.807 92.9827 126.966L93.0521 127.009C93.3596 127.197 93.676 127.378 93.9908 127.55C94.0263 127.56 94.0552 127.577 94.0839 127.594C94.0977 127.602 94.1115 127.611 94.126 127.618C94.4788 127.814 94.8397 128.016 95.1853 128.226C95.4863 128.406 95.7865 128.587 96.0795 128.774C96.387 128.962 96.6953 129.157 96.9956 129.375C97.6195 129.773 98.2273 130.209 98.8205 130.66H98.8359C99.5942 131.23 100.338 131.824 101.052 132.447C101.773 133.063 102.464 133.709 103.132 134.378C107.227 138.455 110.435 143.412 112.45 148.945Z" fill="#FF965D"/>
<path d="M105.58 77.3254C105.58 77.6557 105.573 77.9859 105.565 78.3161C105.558 78.5864 105.55 78.8494 105.535 79.1204C105.528 79.3608 105.512 79.6011 105.49 79.8415C105.483 80.0139 105.467 80.187 105.453 80.3595C105.445 80.4654 105.437 80.5618 105.422 80.6677C105.407 80.8555 105.392 81.0506 105.362 81.2383C105.324 81.5985 105.287 81.9586 105.234 82.3122C105.227 82.4028 105.211 82.4927 105.197 82.5825C105.174 82.763 105.144 82.9434 105.114 83.1232C105.077 83.3935 105.024 83.6638 104.979 83.9275C104.919 84.2431 104.859 84.5507 104.791 84.8582C104.783 84.9262 104.769 84.9861 104.753 85.0467C104.746 85.0986 104.731 85.1519 104.723 85.2045C104.716 85.2199 104.716 85.2345 104.708 85.2498C104.708 85.2871 104.701 85.3178 104.694 85.3477C104.656 85.5055 104.626 85.6633 104.581 85.8204C104.566 85.9029 104.551 85.9862 104.521 86.0688C104.49 86.2185 104.453 86.361 104.409 86.5042C104.401 86.5721 104.386 86.6401 104.363 86.7066C104.348 86.7745 104.326 86.8424 104.311 86.9023C104.153 87.5182 103.972 88.1195 103.785 88.72C103.694 89.0056 103.604 89.2832 103.507 89.5689C103.5 89.5988 103.484 89.6288 103.477 89.6587C103.387 89.9144 103.297 90.1694 103.207 90.4251C103.177 90.5004 103.147 90.5749 103.117 90.6574C103.026 90.8978 102.937 91.1381 102.839 91.3785C102.727 91.6707 102.606 91.9564 102.487 92.2427C102.381 92.4984 102.269 92.7527 102.156 93.0084C102.142 93.0544 102.119 93.0909 102.104 93.1362C101.976 93.4065 101.856 93.6768 101.728 93.9406C101.6 94.2182 101.465 94.4965 101.323 94.7749C101.052 95.3228 100.759 95.8714 100.467 96.404L100.061 97.1251C98.9039 99.1158 97.6203 100.985 96.2227 102.713C96.035 102.961 95.8399 103.201 95.6368 103.433C95.3592 103.772 95.0736 104.102 94.7879 104.425C94.5322 104.71 94.2773 104.995 94.0143 105.274C93.2932 106.047 92.5568 106.783 91.8058 107.475C91.6553 107.625 91.4982 107.761 91.3404 107.903C91.0848 108.135 90.8298 108.361 90.5668 108.579C90.3644 108.759 90.154 108.932 89.9429 109.105C89.4023 109.548 88.8617 109.976 88.313 110.374C88.088 110.547 87.855 110.712 87.6219 110.87C87.2464 111.14 86.8629 111.396 86.4801 111.644C86.2697 111.787 86.052 111.922 85.8342 112.05C85.0679 112.522 84.2942 112.958 83.5279 113.334C83.3401 113.432 83.1524 113.522 82.9646 113.612C82.7769 113.702 82.5818 113.793 82.3787 113.883C82.1311 113.995 81.8827 114.1 81.635 114.198C81.5371 114.243 81.44 114.281 81.3421 114.311C81.0491 114.431 80.7489 114.543 80.4559 114.641C80.0884 114.777 79.7122 114.889 79.3447 114.994C79.089 115.069 78.8268 115.136 78.5711 115.196C78.5557 115.204 78.5411 115.212 78.5185 115.212C78.2628 115.272 78.0078 115.332 77.7521 115.377C77.6849 115.393 77.617 115.407 77.5497 115.415C77.3393 115.453 77.1289 115.491 76.9185 115.513C76.6183 115.559 76.3173 115.596 76.017 115.61C75.9118 115.626 75.8147 115.633 75.7095 115.633C75.4691 115.648 75.2288 115.656 74.9957 115.656H74.9731C74.7408 115.656 74.5077 115.648 74.2747 115.633C74.1848 115.633 74.0942 115.626 74.0044 115.61C73.794 115.603 73.5763 115.58 73.3505 115.551C73.306 115.551 73.2534 115.543 73.2081 115.535C72.9305 115.498 72.6521 115.453 72.3672 115.4C72.1268 115.362 71.8865 115.309 71.6381 115.25C70.3538 114.957 69.0322 114.513 67.6953 113.921C66.5534 113.417 65.397 112.809 64.2478 112.103C63.6699 111.757 63.0986 111.382 62.52 110.976C62.2344 110.773 61.9495 110.57 61.6638 110.36C60.7696 109.706 59.8835 108.993 59.0126 108.227C58.7723 108.009 58.5319 107.791 58.2916 107.566C58.0512 107.349 57.8109 107.123 57.5778 106.905C56.9919 106.342 56.4214 105.757 55.8654 105.148C55.6477 104.915 55.43 104.675 55.2116 104.427C54.611 103.751 54.0251 103.053 53.4692 102.324C53.2515 102.061 53.0484 101.791 52.846 101.52C52.087 100.513 51.3666 99.4621 50.6902 98.3721C50.5097 98.0799 50.3293 97.7796 50.1568 97.486C49.9464 97.1331 49.7441 96.7722 49.541 96.412C48.79 95.0598 48.0989 93.6556 47.4984 92.2055C47.4078 91.9951 47.3179 91.7847 47.2427 91.575C47.1229 91.3047 47.0177 91.0264 46.9198 90.756C46.7693 90.3579 46.6268 89.9597 46.4917 89.5616C46.3565 89.1634 46.2287 88.7572 46.1008 88.3525C45.981 87.9617 45.8685 87.5715 45.7633 87.1734C45.6427 86.7526 45.5302 86.3245 45.4323 85.8891C45.425 85.8438 45.4097 85.7985 45.4024 85.7532C45.2599 85.1527 45.1321 84.5441 45.0196 83.9282C44.8691 83.1173 44.7493 82.2911 44.6594 81.4568C44.6214 81.1945 44.5988 80.9307 44.5769 80.6685C44.5469 80.3901 44.5243 80.1198 44.5089 79.8422C44.4717 79.3389 44.449 78.8275 44.4337 78.3168C44.4264 77.9866 44.4183 77.6564 44.4183 77.3262L49.3006 86.9257L57.6903 90.5836L67.6113 91.4764H67.6186L74.9716 92.1448H75.0169L81.8966 92.768C81.8966 92.768 81.8966 92.7607 81.9039 92.768L97.2492 94.151L105.58 77.3254Z" fill="#4E1E30"/>
<path d="M75.0335 82.1494L75.0262 89.5478V89.5551L75.0189 92.1471V94.1824L75.0116 100.942V100.95L75.0043 100.942H74.9969L74.9743 100.927L45.4321 85.8899C45.4248 85.8446 45.4095 85.7993 45.4021 85.754C45.2597 85.1535 45.1318 84.5449 45.0193 83.929C44.8688 83.1181 44.749 82.2919 44.6592 81.4576C44.6212 81.1953 44.5985 80.9316 44.5766 80.6693C44.5467 80.3909 44.524 80.1206 44.5087 79.843C44.4714 79.3397 44.4488 78.8283 44.4334 78.3176C44.4261 77.9874 44.4181 77.6572 44.4181 77.327V68.3513C44.4181 68.4792 44.4254 68.607 44.4254 68.7341C44.4853 70.9046 44.8309 73.2928 45.4993 75.7344C46.018 77.6119 46.6631 79.347 47.4148 80.8943V80.9016C49.3829 84.9957 52.0195 87.774 54.445 88.2247C54.5955 88.2474 54.7525 88.2627 54.903 88.2773C55.8418 88.3825 56.8258 88.4424 57.8399 88.4424C61.6709 88.4424 65.0731 85.3631 67.2136 84.1161C67.229 84.1088 67.2436 84.1007 67.2589 84.0942C67.3714 84.0262 67.4839 83.9583 67.5818 83.8911C67.6118 83.8691 67.6417 83.8538 67.6724 83.8392C69.4747 82.8098 72.074 82.156 74.9728 82.1494H75.0335Z" fill="#4E1E30"/>
<path d="M105.585 68.3464L105.578 77.3221C105.578 79.5751 105.368 81.7836 104.978 83.9242C104.82 84.7804 104.639 85.6293 104.429 86.4702L97.496 96.4825L75.0074 100.937H75L74.9927 100.945V100.937L74.9701 82.1409H75.0307C77.9296 82.1489 80.5362 82.802 82.3385 83.8306C82.3692 83.846 82.3911 83.8606 82.421 83.8832C82.5262 83.9505 82.6387 84.0184 82.752 84.0856C82.7593 84.0929 82.7746 84.101 82.7892 84.1083C84.9371 85.3546 88.332 88.4368 92.163 88.4368C93.177 88.4368 94.161 88.3769 95.0998 88.2717C95.2576 88.2564 95.4074 88.2418 95.5652 88.2191C97.984 87.7684 100.628 84.9893 102.588 80.896V80.8887C103.339 79.3414 103.985 77.6063 104.504 75.7287C105.179 73.2492 105.533 70.8311 105.577 68.6306C105.585 68.5342 105.585 68.4436 105.585 68.3464Z" fill="#4E1E30"/>
<path d="M74.9955 94.1808C79.1331 94.1808 82.4873 93.1436 82.4873 91.8642C82.4873 90.5848 79.1331 89.5476 74.9955 89.5476C70.8578 89.5476 67.5036 90.5848 67.5036 91.8642C67.5036 93.1436 70.8578 94.1808 74.9955 94.1808Z" fill="#F0C290"/>
<path d="M75.002 23.9065H74.9728C58.0955 23.9218 44.418 37.6067 44.418 54.4841V67.9673C44.418 67.9673 45.687 59.9224 49.1053 56.0168C52.8158 51.773 51.877 45.3207 60.1995 45.3207C65.5698 45.3207 65.8701 47.3034 74.9662 47.3034H74.9735H75.0027H75.01C84.1062 47.3034 84.4064 45.3207 89.7767 45.3207C98.0992 45.3207 97.1597 51.7722 100.871 56.0168C104.288 59.9224 105.557 67.9673 105.557 67.9673V54.4841C105.557 37.6067 91.8793 23.9211 75.002 23.9065Z" fill="#4E1E30"/>
<path d="M95.1822 128.224L94.356 129.066C89.2034 134.315 82.323 137.208 74.9846 137.208C67.5716 137.192 60.7059 134.293 55.5759 129.051L54.7869 128.24C55.1778 128.007 55.5759 127.781 55.9741 127.564C55.9894 127.548 56.004 127.556 56.004 127.556V127.548C56.3269 127.368 56.6425 127.188 56.9581 127C57.8969 126.429 58.7984 125.798 59.6393 125.107C59.6466 125.115 59.6466 125.115 59.6546 125.122C63.5456 129.103 68.9612 131.574 74.97 131.59H75.0306C81.0394 131.59 86.4769 129.111 90.3832 125.13L90.3905 125.122C90.9238 125.565 91.4798 125.979 92.0504 126.362C92.1103 126.406 92.1629 126.444 92.2228 126.482C92.4931 126.662 92.7714 126.834 93.049 127.008C93.3566 127.195 93.6729 127.376 93.9878 127.548C94.0404 127.564 94.0784 127.594 94.1229 127.616C94.4765 127.812 94.8367 128.014 95.1822 128.224Z" fill="#CC784A"/>
</svg>
