<svg width="150" height="150" viewBox="0 0 150 150" fill="none" xmlns="http://www.w3.org/2000/svg">
<g opacity="0.2">
<path fill-rule="evenodd" clip-rule="evenodd" d="M0.910863 39.5521C1.92257 18.521 18.5211 1.92257 39.5521 0.910863C50.3229 0.392725 62.5825 0 75 0C87.4175 0 99.6771 0.392726 110.448 0.910864C131.479 1.92257 148.077 18.5211 149.089 39.5521C149.607 50.3229 150 62.5825 150 75C150 87.4175 149.607 99.6771 149.089 110.448C148.077 131.479 131.479 148.077 110.448 149.089C99.6771 149.607 87.4175 150 75 150C62.5825 150 50.3229 149.607 39.5521 149.089C18.521 148.077 1.92257 131.479 0.910863 110.448C0.392725 99.6771 0 87.4175 0 75C0 62.5825 0.392726 50.3229 0.910863 39.5521Z" fill="white"/>
<mask id="mask0_3837_130" style="mask-type:alpha" maskUnits="userSpaceOnUse" x="0" y="0" width="150" height="150">
<path fill-rule="evenodd" clip-rule="evenodd" d="M0.910863 39.5521C1.92257 18.521 18.5211 1.92257 39.5521 0.910863C50.3229 0.392725 62.5825 0 75 0C87.4175 0 99.6771 0.392726 110.448 0.910864C131.479 1.92257 148.077 18.5211 149.089 39.5521C149.607 50.3229 150 62.5825 150 75C150 87.4175 149.607 99.6771 149.089 110.448C148.077 131.479 131.479 148.077 110.448 149.089C99.6771 149.607 87.4175 150 75 150C62.5825 150 50.3229 149.607 39.5521 149.089C18.521 148.077 1.92257 131.479 0.910863 110.448C0.392725 99.6771 0 87.4175 0 75C0 62.5825 0.392726 50.3229 0.910863 39.5521Z" fill="white"/>
</mask>
<g mask="url(#mask0_3837_130)">
<rect width="150" height="150" fill="#304FFD"/>
</g>
</g>
<path d="M84.8035 85.912H66.1795L62.9795 95H55.3635L71.2995 50.456H79.7475L95.6835 95H88.0035L84.8035 85.912ZM82.7555 79.96L75.5235 59.288L68.2275 79.96H82.7555Z" fill="#304FFD"/>
</svg>
