<svg width="259" height="40" viewBox="0 0 259 40" fill="none" xmlns="http://www.w3.org/2000/svg">
<path d="M69.342 5.242L66.514 15H65.086L62.818 7.146L60.466 15L59.052 15.014L56.322 5.242H57.68L59.808 13.516L62.16 5.242H63.588L65.828 13.488L67.97 5.242H69.342ZM71.3942 6.082C71.1515 6.082 70.9462 5.998 70.7782 5.83C70.6102 5.662 70.5262 5.45667 70.5262 5.214C70.5262 4.97133 70.6102 4.766 70.7782 4.598C70.9462 4.43 71.1515 4.346 71.3942 4.346C71.6275 4.346 71.8235 4.43 71.9822 4.598C72.1502 4.766 72.2342 4.97133 72.2342 5.214C72.2342 5.45667 72.1502 5.662 71.9822 5.83C71.8235 5.998 71.6275 6.082 71.3942 6.082ZM72.0102 7.328V15H70.7362V7.328H72.0102ZM75.4555 8.574C75.6795 8.13533 75.9968 7.79467 76.4075 7.552C76.8275 7.30933 77.3362 7.188 77.9335 7.188V8.504H77.5975C76.1695 8.504 75.4555 9.27867 75.4555 10.828V15H74.1815V7.328H75.4555V8.574ZM86.4042 10.87C86.4042 11.1127 86.3902 11.3693 86.3622 11.64H80.2302C80.2768 12.396 80.5335 12.9887 81.0002 13.418C81.4762 13.838 82.0502 14.048 82.7222 14.048C83.2728 14.048 83.7302 13.922 84.0942 13.67C84.4675 13.4087 84.7288 13.0633 84.8782 12.634H86.2502C86.0448 13.3713 85.6342 13.9733 85.0182 14.44C84.4022 14.8973 83.6368 15.126 82.7222 15.126C81.9942 15.126 81.3408 14.9627 80.7622 14.636C80.1928 14.3093 79.7448 13.8473 79.4182 13.25C79.0915 12.6433 78.9282 11.9433 78.9282 11.15C78.9282 10.3567 79.0868 9.66133 79.4042 9.064C79.7215 8.46667 80.1648 8.00933 80.7342 7.692C81.3128 7.36533 81.9755 7.202 82.7222 7.202C83.4502 7.202 84.0942 7.36067 84.6542 7.678C85.2142 7.99533 85.6435 8.434 85.9422 8.994C86.2502 9.54467 86.4042 10.17 86.4042 10.87ZM85.0882 10.604C85.0882 10.1187 84.9808 9.70333 84.7662 9.358C84.5515 9.00333 84.2575 8.73733 83.8842 8.56C83.5202 8.37333 83.1142 8.28 82.6662 8.28C82.0222 8.28 81.4715 8.48533 81.0142 8.896C80.5662 9.30667 80.3095 9.876 80.2442 10.604H85.0882ZM91.2078 8.378H89.5978V15H88.3238V8.378H87.3298V7.328H88.3238V6.782C88.3238 5.92333 88.5431 5.298 88.9818 4.906C89.4298 4.50467 90.1438 4.304 91.1238 4.304V5.368C90.5638 5.368 90.1671 5.48 89.9338 5.704C89.7098 5.91867 89.5978 6.278 89.5978 6.782V7.328H91.2078V8.378ZM93.9672 8.574C94.1912 8.13533 94.5086 7.79467 94.9192 7.552C95.3392 7.30933 95.8479 7.188 96.4452 7.188V8.504H96.1092C94.6812 8.504 93.9672 9.27867 93.9672 10.828V15H92.6932V7.328H93.9672V8.574ZM97.4399 11.136C97.4399 10.352 97.5986 9.666 97.9159 9.078C98.2332 8.48067 98.6672 8.01867 99.2179 7.692C99.7779 7.36533 100.399 7.202 101.08 7.202C101.752 7.202 102.335 7.34667 102.83 7.636C103.325 7.92533 103.693 8.28933 103.936 8.728V7.328H105.224V15H103.936V13.572C103.684 14.02 103.306 14.3933 102.802 14.692C102.307 14.9813 101.729 15.126 101.066 15.126C100.385 15.126 99.7686 14.958 99.2179 14.622C98.6672 14.286 98.2332 13.8147 97.9159 13.208C97.5986 12.6013 97.4399 11.9107 97.4399 11.136ZM103.936 11.15C103.936 10.5713 103.819 10.0673 103.586 9.638C103.353 9.20867 103.035 8.882 102.634 8.658C102.242 8.42467 101.808 8.308 101.332 8.308C100.856 8.308 100.422 8.42 100.03 8.644C99.6379 8.868 99.3252 9.19467 99.0919 9.624C98.8586 10.0533 98.7419 10.5573 98.7419 11.136C98.7419 11.724 98.8586 12.2373 99.0919 12.676C99.3252 13.1053 99.6379 13.4367 100.03 13.67C100.422 13.894 100.856 14.006 101.332 14.006C101.808 14.006 102.242 13.894 102.634 13.67C103.035 13.4367 103.353 13.1053 103.586 12.676C103.819 12.2373 103.936 11.7287 103.936 11.15ZM116.603 7.188C117.2 7.188 117.732 7.314 118.199 7.566C118.665 7.80867 119.034 8.17733 119.305 8.672C119.575 9.16667 119.711 9.76867 119.711 10.478V15H118.451V10.66C118.451 9.89467 118.259 9.31133 117.877 8.91C117.503 8.49933 116.995 8.294 116.351 8.294C115.688 8.294 115.161 8.50867 114.769 8.938C114.377 9.358 114.181 9.96933 114.181 10.772V15H112.921V10.66C112.921 9.89467 112.729 9.31133 112.347 8.91C111.973 8.49933 111.465 8.294 110.821 8.294C110.158 8.294 109.631 8.50867 109.239 8.938C108.847 9.358 108.651 9.96933 108.651 10.772V15H107.377V7.328H108.651V8.434C108.903 8.03267 109.239 7.72467 109.659 7.51C110.088 7.29533 110.559 7.188 111.073 7.188C111.717 7.188 112.286 7.33267 112.781 7.622C113.275 7.91133 113.644 8.336 113.887 8.896C114.101 8.35467 114.456 7.93467 114.951 7.636C115.445 7.33733 115.996 7.188 116.603 7.188ZM128.801 10.87C128.801 11.1127 128.787 11.3693 128.759 11.64H122.627C122.673 12.396 122.93 12.9887 123.397 13.418C123.873 13.838 124.447 14.048 125.119 14.048C125.669 14.048 126.127 13.922 126.491 13.67C126.864 13.4087 127.125 13.0633 127.275 12.634H128.647C128.441 13.3713 128.031 13.9733 127.415 14.44C126.799 14.8973 126.033 15.126 125.119 15.126C124.391 15.126 123.737 14.9627 123.159 14.636C122.589 14.3093 122.141 13.8473 121.815 13.25C121.488 12.6433 121.325 11.9433 121.325 11.15C121.325 10.3567 121.483 9.66133 121.801 9.064C122.118 8.46667 122.561 8.00933 123.131 7.692C123.709 7.36533 124.372 7.202 125.119 7.202C125.847 7.202 126.491 7.36067 127.051 7.678C127.611 7.99533 128.04 8.434 128.339 8.994C128.647 9.54467 128.801 10.17 128.801 10.87ZM127.485 10.604C127.485 10.1187 127.377 9.70333 127.163 9.358C126.948 9.00333 126.654 8.73733 126.281 8.56C125.917 8.37333 125.511 8.28 125.063 8.28C124.419 8.28 123.868 8.48533 123.411 8.896C122.963 9.30667 122.706 9.876 122.641 10.604H127.485ZM135.461 5.242V11.416C135.461 12.284 135.671 12.928 136.091 13.348C136.52 13.768 137.113 13.978 137.869 13.978C138.615 13.978 139.199 13.768 139.619 13.348C140.048 12.928 140.263 12.284 140.263 11.416V5.242H141.537V11.402C141.537 12.214 141.373 12.9 141.047 13.46C140.72 14.0107 140.277 14.4213 139.717 14.692C139.166 14.9627 138.545 15.098 137.855 15.098C137.164 15.098 136.539 14.9627 135.979 14.692C135.428 14.4213 134.989 14.0107 134.663 13.46C134.345 12.9 134.187 12.214 134.187 11.402V5.242H135.461ZM144.936 5.242V15H143.662V5.242H144.936ZM156.132 15L152.114 10.548V15H150.84V5.242H152.114V9.764L156.146 5.242H157.756L153.332 10.128L157.798 15H156.132ZM159.879 6.082C159.636 6.082 159.431 5.998 159.263 5.83C159.095 5.662 159.011 5.45667 159.011 5.214C159.011 4.97133 159.095 4.766 159.263 4.598C159.431 4.43 159.636 4.346 159.879 4.346C160.112 4.346 160.308 4.43 160.467 4.598C160.635 4.766 160.719 4.97133 160.719 5.214C160.719 5.45667 160.635 5.662 160.467 5.83C160.308 5.998 160.112 6.082 159.879 6.082ZM160.495 7.328V15H159.221V7.328H160.495ZM164.22 8.378V12.9C164.22 13.2733 164.299 13.5393 164.458 13.698C164.617 13.8473 164.892 13.922 165.284 13.922H166.222V15H165.074C164.365 15 163.833 14.8367 163.478 14.51C163.123 14.1833 162.946 13.6467 162.946 12.9V8.378H161.952V7.328H162.946V5.396H164.22V7.328H166.222V8.378H164.22ZM168.172 15.084C167.929 15.084 167.724 15 167.556 14.832C167.388 14.664 167.304 14.4587 167.304 14.216C167.304 13.9733 167.388 13.768 167.556 13.6C167.724 13.432 167.929 13.348 168.172 13.348C168.405 13.348 168.601 13.432 168.76 13.6C168.928 13.768 169.012 13.9733 169.012 14.216C169.012 14.4587 168.928 14.664 168.76 14.832C168.601 15 168.405 15.084 168.172 15.084ZM171.657 13.95H175.423V15H170.201V13.95L173.925 8.364H170.229V7.328H175.395V8.364L171.657 13.95ZM177.734 6.082C177.491 6.082 177.286 5.998 177.118 5.83C176.95 5.662 176.866 5.45667 176.866 5.214C176.866 4.97133 176.95 4.766 177.118 4.598C177.286 4.43 177.491 4.346 177.734 4.346C177.967 4.346 178.163 4.43 178.322 4.598C178.49 4.766 178.574 4.97133 178.574 5.214C178.574 5.45667 178.49 5.662 178.322 5.83C178.163 5.998 177.967 6.082 177.734 6.082ZM178.35 7.328V15H177.076V7.328H178.35ZM181.795 8.742C182.047 8.30333 182.421 7.93933 182.915 7.65C183.419 7.35133 184.003 7.202 184.665 7.202C185.347 7.202 185.963 7.36533 186.513 7.692C187.073 8.01867 187.512 8.48067 187.829 9.078C188.147 9.666 188.305 10.352 188.305 11.136C188.305 11.9107 188.147 12.6013 187.829 13.208C187.512 13.8147 187.073 14.286 186.513 14.622C185.963 14.958 185.347 15.126 184.665 15.126C184.012 15.126 183.433 14.9813 182.929 14.692C182.435 14.3933 182.057 14.0247 181.795 13.586V18.64H180.521V7.328H181.795V8.742ZM187.003 11.136C187.003 10.5573 186.887 10.0533 186.653 9.624C186.42 9.19467 186.103 8.868 185.701 8.644C185.309 8.42 184.875 8.308 184.399 8.308C183.933 8.308 183.499 8.42467 183.097 8.658C182.705 8.882 182.388 9.21333 182.145 9.652C181.912 10.0813 181.795 10.5807 181.795 11.15C181.795 11.7287 181.912 12.2373 182.145 12.676C182.388 13.1053 182.705 13.4367 183.097 13.67C183.499 13.894 183.933 14.006 184.399 14.006C184.875 14.006 185.309 13.894 185.701 13.67C186.103 13.4367 186.42 13.1053 186.653 12.676C186.887 12.2373 187.003 11.724 187.003 11.136Z" fill="#3F434A"/>
<path d="M62.276 28.272H58.064V31.008C58.248 30.752 58.52 30.544 58.88 30.384C59.24 30.216 59.628 30.132 60.044 30.132C60.708 30.132 61.248 30.272 61.664 30.552C62.08 30.824 62.376 31.18 62.552 31.62C62.736 32.052 62.828 32.512 62.828 33C62.828 33.576 62.72 34.092 62.504 34.548C62.288 35.004 61.956 35.364 61.508 35.628C61.068 35.892 60.52 36.024 59.864 36.024C59.024 36.024 58.344 35.808 57.824 35.376C57.304 34.944 56.988 34.368 56.876 33.648H57.944C58.048 34.104 58.268 34.46 58.604 34.716C58.94 34.972 59.364 35.1 59.876 35.1C60.508 35.1 60.984 34.912 61.304 34.536C61.624 34.152 61.784 33.648 61.784 33.024C61.784 32.4 61.624 31.92 61.304 31.584C60.984 31.24 60.512 31.068 59.888 31.068C59.464 31.068 59.092 31.172 58.772 31.38C58.46 31.58 58.232 31.856 58.088 32.208H57.056V27.312H62.276V28.272ZM64.8072 36.072C64.5992 36.072 64.4232 36 64.2792 35.856C64.1352 35.712 64.0632 35.536 64.0632 35.328C64.0632 35.12 64.1352 34.944 64.2792 34.8C64.4232 34.656 64.5992 34.584 64.8072 34.584C65.0072 34.584 65.1752 34.656 65.3112 34.8C65.4552 34.944 65.5272 35.12 65.5272 35.328C65.5272 35.536 65.4552 35.712 65.3112 35.856C65.1752 36 65.0072 36.072 64.8072 36.072ZM68.3827 31.488C67.9347 31.312 67.5907 31.056 67.3507 30.72C67.1107 30.384 66.9907 29.976 66.9907 29.496C66.9907 29.064 67.0987 28.676 67.3147 28.332C67.5307 27.98 67.8507 27.704 68.2747 27.504C68.7067 27.296 69.2267 27.192 69.8347 27.192C70.4427 27.192 70.9587 27.296 71.3827 27.504C71.8147 27.704 72.1387 27.98 72.3547 28.332C72.5787 28.676 72.6907 29.064 72.6907 29.496C72.6907 29.96 72.5667 30.368 72.3187 30.72C72.0707 31.064 71.7307 31.32 71.2987 31.488C71.7947 31.64 72.1867 31.908 72.4747 32.292C72.7707 32.668 72.9187 33.124 72.9187 33.66C72.9187 34.18 72.7907 34.636 72.5347 35.028C72.2787 35.412 71.9147 35.712 71.4427 35.928C70.9787 36.136 70.4427 36.24 69.8347 36.24C69.2267 36.24 68.6907 36.136 68.2267 35.928C67.7707 35.712 67.4147 35.412 67.1587 35.028C66.9027 34.636 66.7747 34.18 66.7747 33.66C66.7747 33.124 66.9187 32.664 67.2067 32.28C67.4947 31.896 67.8867 31.632 68.3827 31.488ZM71.6347 29.628C71.6347 29.14 71.4747 28.764 71.1547 28.5C70.8347 28.236 70.3947 28.104 69.8347 28.104C69.2827 28.104 68.8467 28.236 68.5267 28.5C68.2067 28.764 68.0467 29.144 68.0467 29.64C68.0467 30.088 68.2107 30.448 68.5387 30.72C68.8747 30.992 69.3067 31.128 69.8347 31.128C70.3707 31.128 70.8027 30.992 71.1307 30.72C71.4667 30.44 71.6347 30.076 71.6347 29.628ZM69.8347 31.968C69.2427 31.968 68.7587 32.108 68.3827 32.388C68.0067 32.66 67.8187 33.072 67.8187 33.624C67.8187 34.136 67.9987 34.548 68.3587 34.86C68.7267 35.172 69.2187 35.328 69.8347 35.328C70.4507 35.328 70.9387 35.172 71.2987 34.86C71.6587 34.548 71.8387 34.136 71.8387 33.624C71.8387 33.088 71.6547 32.68 71.2867 32.4C70.9187 32.112 70.4347 31.968 69.8347 31.968ZM86.2322 27.696V36H85.1402V29.808L82.3802 36H81.6122L78.8402 29.796V36H77.7482V27.696H78.9242L81.9962 34.56L85.0682 27.696H86.2322ZM92.2722 31.692C92.5762 31.74 92.8522 31.864 93.1002 32.064C93.3562 32.264 93.5562 32.512 93.7002 32.808C93.8522 33.104 93.9282 33.42 93.9282 33.756C93.9282 34.18 93.8202 34.564 93.6042 34.908C93.3882 35.244 93.0722 35.512 92.6562 35.712C92.2482 35.904 91.7642 36 91.2042 36H88.0842V27.636H91.0842C91.6522 27.636 92.1362 27.732 92.5362 27.924C92.9362 28.108 93.2362 28.36 93.4362 28.68C93.6362 29 93.7362 29.36 93.7362 29.76C93.7362 30.256 93.6002 30.668 93.3282 30.996C93.0642 31.316 92.7122 31.548 92.2722 31.692ZM89.1762 31.248H91.0122C91.5242 31.248 91.9202 31.128 92.2002 30.888C92.4802 30.648 92.6202 30.316 92.6202 29.892C92.6202 29.468 92.4802 29.136 92.2002 28.896C91.9202 28.656 91.5162 28.536 90.9882 28.536H89.1762V31.248ZM91.1082 35.1C91.6522 35.1 92.0762 34.972 92.3802 34.716C92.6842 34.46 92.8362 34.104 92.8362 33.648C92.8362 33.184 92.6762 32.82 92.3562 32.556C92.0362 32.284 91.6082 32.148 91.0722 32.148H89.1762V35.1H91.1082Z" fill="#8A9099"/>
<path fill-rule="evenodd" clip-rule="evenodd" d="M246.899 19.755C247.199 19.4815 247.665 19.5032 247.938 19.8037C248.212 20.1041 248.19 20.5695 247.89 20.8431L243.999 24.3861L240.107 20.8431C239.807 20.5695 239.785 20.1041 240.059 19.8037C240.332 19.5032 240.798 19.4815 241.098 19.755L243.263 21.726V12.7357C243.263 12.3294 243.592 12 243.999 12C244.405 12 244.734 12.3294 244.734 12.7357V21.726L246.899 19.755ZM237.455 24.3633C237.455 23.9617 237.129 23.6361 236.727 23.6361C236.326 23.6361 236 23.9617 236 24.3633V25.333C236 26.8058 237.194 27.9997 238.667 27.9997H249.333C250.806 27.9997 252 26.8058 252 25.333V24.3633C252 23.9617 251.674 23.6361 251.273 23.6361C250.871 23.6361 250.545 23.9617 250.545 24.3633V25.333C250.545 26.0025 250.003 26.5451 249.333 26.5451H238.667C237.997 26.5451 237.455 26.0025 237.455 25.333V24.3633Z" fill="#8A9099"/>
<path fill-rule="evenodd" clip-rule="evenodd" d="M6.49998 0H25.7412L34.9999 9.215V37.5C34.9999 38.8812 33.88 40 32.4999 40H6.49998C5.11994 40 4 38.8812 4 37.5V2.49998C4 1.11877 5.12007 0 6.49998 0Z" fill="white"/>
<path d="M6.49998 0.5H25.5348L34.4999 9.4228V37.5C34.4999 38.6049 33.604 39.5 32.4999 39.5H6.49998C5.39594 39.5 4.5 38.6049 4.5 37.5V2.49998C4.5 1.39508 5.39604 0.5 6.49998 0.5Z" stroke="#E8E9EB"/>
<path d="M34.5001 9.5H27.7294C26.4987 9.5 25.5 8.50231 25.5 7.27286V0.5" stroke="#E8E9EB"/>
<path d="M20.0562 23.9286V22.7143H21.2705V21.5H20.0562V20.2857H21.2705V19.0714H20.0562V17.8571H21.2705V16.6429H20.0562V15.4286H21.2705V14.2143H20.0562V13H18.8419V14.2143H17.6276V15.4286H18.8419V16.6429H17.6276V17.8571H18.8419V19.0714H17.6276V20.2857H18.8419V21.5H17.6276V22.7143H18.8419V23.9286H16.4133V26.9643C16.4133 28.6382 17.7752 30 19.449 30C21.1229 30 22.4848 28.6382 22.4848 26.9643V23.9286H20.0562ZM21.2705 26.9643C21.2705 27.9685 20.4533 28.7857 19.449 28.7857C18.4448 28.7857 17.6276 27.9685 17.6276 26.9643V25.1429H21.2705V26.9643Z" fill="#8A9099"/>
<path d="M18.842 27.5715H20.0563C20.3914 27.5715 20.6634 27.3001 20.6634 26.9643C20.6634 26.6286 20.3914 26.3572 20.0563 26.3572H18.842C18.5069 26.3572 18.2349 26.6286 18.2349 26.9643C18.2349 27.3001 18.5069 27.5715 18.842 27.5715Z" fill="#8A9099"/>
</svg>
