<svg width="30" height="30" viewBox="0 0 30 30" fill="none" xmlns="http://www.w3.org/2000/svg">
<circle cx="15" cy="15" r="15" fill="#C4C4C4"/>
<path fill-rule="evenodd" clip-rule="evenodd" d="M14 18.8C14 19.2418 14.3582 19.6 14.8 19.6C15.2418 19.6 15.6 19.2418 15.6 18.8V15.6073H18.8C19.2418 15.6073 19.6 15.2491 19.6 14.8073C19.6 14.3654 19.2418 14.0073 18.8 14.0073H15.6V10.8C15.6 10.3582 15.2418 10 14.8 10C14.3582 10 14 10.3582 14 10.8L14 14.0073H10.8C10.3582 14.0073 10 14.3654 10 14.8073C10 15.2491 10.3582 15.6073 10.8 15.6073H14L14 18.8Z" fill="white"/>
</svg>
