<svg width="35" height="36" viewBox="0 0 35 36" fill="none" xmlns="http://www.w3.org/2000/svg">
<path d="M8.13363 21.4844L13.1185 21.522C13.7267 21.5266 14.2451 21.9616 14.3552 22.5598L15.2579 27.4624C15.3543 27.9861 15.0031 28.4888 14.478 28.5788L8.31069 29.6365C7.73079 29.7359 7.20171 29.2919 7.19894 28.7036L7.16957 22.4463C7.16707 21.9135 7.60114 21.4804 8.13363 21.4844Z" fill="#FF965D"/>
<path d="M14.5065 7.28835L26.484 6.31504C26.9995 6.27315 27.4531 6.64983 27.5067 7.16424L28.7856 19.4585C28.847 20.0488 28.3603 20.5531 27.7685 20.5124L4.81298 18.9345C4.29496 18.8989 4.03778 18.2904 4.37229 17.8917L12.3216 8.4182C12.8702 7.76439 13.6573 7.35736 14.5065 7.28835Z" fill="#304FFD"/>
<path d="M19.4906 30.9883L26.0301 23.1948C26.3698 22.7899 26.0987 22.1726 25.5717 22.1511L17.6804 21.8289C17.0555 21.8034 16.5737 22.3766 16.7063 22.9878L18.3829 30.7171C18.4948 31.233 19.1505 31.3935 19.4906 30.9883Z" fill="#304FFD"/>
</svg>
