<svg width="31" height="40" viewBox="0 0 31 40" fill="none" xmlns="http://www.w3.org/2000/svg">
<path d="M21.9776 0H1.05472C0.472209 0 0 0.467857 0 1.37571V39.2857C0 39.5321 0.472209 40 1.05472 40H29.9453C30.5278 40 31 39.5321 31 39.2857V9.27C31 8.77286 30.933 8.61286 30.8147 8.495L22.426 0.183571C22.307 0.0664286 22.1455 0 21.9776 0Z" fill="#F2F2E8"/>
<path d="M22.3489 0.107666V8.57124H30.8912L22.3489 0.107666Z" fill="#D9D7CA"/>
<path d="M29.9453 40H1.05472C0.472209 40 0 39.5322 0 38.955V27.8572H31V38.955C31 39.5322 30.5278 40 29.9453 40Z" fill="#14A085"/>
<path d="M11.2894 30.6499V36.1094C11.2894 36.4391 11.2289 36.7167 11.1085 36.9414C10.9882 37.1661 10.8261 37.3469 10.6237 37.4833C10.4205 37.6196 10.1875 37.7149 9.92452 37.7685C9.66087 37.8228 9.39026 37.8499 9.1113 37.8499C8.97148 37.8499 8.808 37.8353 8.62156 37.8068C8.43443 37.7782 8.24104 37.7344 8.04139 37.6739C7.84174 37.6134 7.64974 37.5452 7.46609 37.4694C7.28174 37.3936 7.12661 37.308 7 37.2127L7.48487 36.4426C7.54817 36.4864 7.63861 36.533 7.75617 36.5803C7.87304 36.6276 8.00174 36.6722 8.14156 36.7132C8.28069 36.7549 8.42678 36.7904 8.57913 36.8224C8.73148 36.8544 8.87409 36.8697 9.00696 36.8697C9.34296 36.8697 9.61078 36.8043 9.81043 36.6749C10.0101 36.5456 10.1158 36.3243 10.129 36.0141V30.6499H11.2894Z" fill="white"/>
<path d="M14.1333 37.8026H12.9917V30.7925H15.0077C15.3054 30.7925 15.6004 30.8398 15.8919 30.9351C16.1834 31.0304 16.4449 31.173 16.6766 31.3629C16.9082 31.5528 17.0954 31.7831 17.238 32.0523C17.3806 32.3215 17.4522 32.6241 17.4522 32.9608C17.4522 33.3163 17.3917 33.6377 17.2714 33.9264C17.151 34.2151 16.9827 34.4579 16.767 34.654C16.5514 34.8502 16.2912 35.0026 15.9872 35.1104C15.6832 35.2182 15.3465 35.2718 14.9792 35.2718H14.1326V37.8026H14.1333ZM14.1333 31.6586V34.4356H15.1795C15.3187 34.4356 15.4564 34.412 15.5934 34.364C15.7298 34.3167 15.855 34.2387 15.9691 34.1309C16.0832 34.0231 16.175 33.8728 16.2446 33.6794C16.3141 33.486 16.3489 33.2467 16.3489 32.9615C16.3489 32.8474 16.3329 32.7153 16.3016 32.5671C16.2696 32.4182 16.2049 32.2756 16.1068 32.1393C16.008 32.0029 15.8703 31.8888 15.6929 31.797C15.5148 31.7045 15.2804 31.6586 14.9889 31.6586H14.1333Z" fill="white"/>
<path d="M23.8627 34.1881V36.8983C23.7166 37.0827 23.5538 37.2322 23.373 37.3498C23.1921 37.4674 23.0022 37.5641 22.8025 37.6399C22.6029 37.7157 22.397 37.77 22.1841 37.8013C21.9712 37.8347 21.7611 37.85 21.5517 37.85C21.133 37.85 20.7483 37.7742 20.3963 37.6218C20.0443 37.4695 19.7368 37.2448 19.4738 36.9463C19.2109 36.6479 19.0043 36.2743 18.8554 35.8242C18.7065 35.3742 18.6321 34.8538 18.6321 34.2646C18.6321 33.6754 18.7065 33.1564 18.8554 32.7098C19.0043 32.2625 19.2102 31.8903 19.4738 31.5926C19.7368 31.2942 20.0456 31.0681 20.4011 30.9122C20.7559 30.7564 21.1399 30.6792 21.5517 30.6792C21.9323 30.6792 22.287 30.7425 22.6168 30.8691C22.9465 30.9964 23.2408 31.1863 23.5009 31.4395L22.7114 32.1435C22.559 31.9592 22.3844 31.8263 22.1883 31.7442C21.9914 31.6622 21.7889 31.6204 21.5796 31.6204C21.3451 31.6204 21.1211 31.6642 20.909 31.7533C20.6961 31.8423 20.5062 31.9926 20.3385 32.2048C20.1702 32.4176 20.0387 32.691 19.9441 33.0277C19.8495 33.3644 19.798 33.7755 19.7917 34.2639C19.798 34.7397 19.8474 35.1515 19.9392 35.5001C20.031 35.8486 20.1576 36.1338 20.3197 36.3557C20.4818 36.5776 20.6655 36.7425 20.8714 36.8503C21.0773 36.9582 21.2943 37.0117 21.5232 37.0117C21.5928 37.0117 21.686 37.0068 21.8036 36.9971C21.9204 36.9874 22.038 36.9721 22.1556 36.9498C22.2724 36.9275 22.3851 36.8976 22.4929 36.8594C22.6008 36.8211 22.6801 36.7675 22.7309 36.698V34.9672H21.542V34.1874H23.8627V34.1881Z" fill="white"/>
<path d="M4 26L11.3333 14L16.4667 21.0588L20.1333 16.8235L26 26H4Z" fill="#26B99A"/>
<circle cx="7" cy="9" r="3" fill="#C6C9CC"/>
</svg>
