<svg width="22" height="21" viewBox="0 0 22 21" fill="#304FFD" xmlns="http://www.w3.org/2000/svg">
    <path fill-rule="evenodd" clip-rule="evenodd"
        d="M6.87061 4.67101C6.74038 4.55923 6.57361 4.49834 6.40135 4.50003L6.39399 4.50011L4.20722 4.50007C4.1088 4.50021 4.01152 4.52077 3.92158 4.56042C3.83155 4.60011 3.7509 4.65802 3.68471 4.73039C3.61852 4.80275 3.56824 4.88798 3.53698 4.98062C3.50624 5.07171 3.49453 5.16805 3.50252 5.26374C3.73016 7.39294 4.45661 9.43894 5.62329 11.2363L5.62687 11.2418C6.68703 12.9069 8.10159 14.3187 9.77021 15.377L9.77606 15.3807C11.5688 16.541 13.6091 17.266 15.7333 17.4976C15.8299 17.5055 15.927 17.4937 16.0188 17.4627C16.1124 17.4311 16.1982 17.3804 16.2708 17.3139C16.3434 17.2475 16.4012 17.1667 16.4406 17.0768C16.4765 16.9948 16.498 16.8923 16.5001 16.7454L16.4996 14.6062L16.4999 14.5874C16.5042 14.4149 16.4448 14.2466 16.3327 14.1146C16.2212 13.9832 16.0651 13.8968 15.8938 13.872C15.1392 13.7724 14.3984 13.5881 13.6853 13.3225L13.6836 13.3219C13.5567 13.2743 13.4186 13.2639 13.286 13.2922C13.1539 13.3203 13.0328 13.3854 12.9368 13.4797C12.9364 13.4801 12.9359 13.4805 12.9355 13.4809L12.0126 14.402C11.774 14.6401 11.4058 14.6898 11.1126 14.5234C9.17012 13.4211 7.56156 11.8158 6.45681 9.87675C6.28942 9.58296 6.33932 9.21348 6.57866 8.97462L7.5028 8.05232C7.59723 7.95655 7.66217 7.83603 7.69017 7.70499C7.71829 7.5734 7.70803 7.43652 7.66057 7.31051L7.65994 7.30881C7.39376 6.59691 7.20898 5.85728 7.10911 5.10397C7.08464 4.93599 7.0001 4.78215 6.87061 4.67101ZM6.39068 3.00007C6.92463 2.99581 7.44228 3.18493 7.84756 3.53278C8.2539 3.88154 8.51959 4.36614 8.59469 4.89639L8.59567 4.9033C8.68056 5.54567 8.83796 6.17641 9.06494 6.78349L9.06431 6.7818C9.21302 7.17664 9.24523 7.60583 9.15705 8.01845C9.06888 8.43106 8.86408 8.8096 8.56713 9.10929L8.56418 9.11228L8.05452 9.62091C8.90599 10.949 10.0364 12.0769 11.3676 12.9265L11.8819 12.4133C12.1821 12.1169 12.5611 11.9129 12.9737 11.825C13.386 11.7373 13.8149 11.7692 14.2096 11.9171C14.8179 12.1436 15.4499 12.3007 16.0935 12.3854L16.1002 12.3863C16.6361 12.4617 17.1259 12.7312 17.4762 13.1438C17.8243 13.5538 18.0105 14.0768 17.9996 14.6143L18.0001 16.7587C17.9968 17.0444 17.954 17.3603 17.8145 17.6787C17.6912 17.9602 17.5104 18.2127 17.2837 18.4202C17.0571 18.6278 16.7896 18.7857 16.4985 18.8839C16.2074 18.9822 15.8989 19.0187 15.5929 18.9911L15.5794 18.9898C13.2208 18.7341 10.955 17.9298 8.96394 16.6418C7.11171 15.4666 5.54104 13.8991 4.36333 12.0503C3.06805 10.0538 2.26189 7.78096 2.01021 5.41562L2.00896 5.40391C1.98133 5.09878 2.01776 4.79127 2.11573 4.50099C2.21369 4.21071 2.37111 3.94407 2.57787 3.71801C2.78463 3.49196 3.0362 3.31144 3.31652 3.18787C3.59683 3.0643 3.89978 3.00036 4.20612 3.00007L6.39068 3.00007Z"
        fill="#304FFD" />
    <path fill-rule="evenodd" clip-rule="evenodd"
        d="M15.227 1.7733C15.3526 1.65124 15.5401 1.61616 15.7008 1.68454C15.8613 1.7529 15.9667 1.91067 15.9667 2.08607V3.41817C18.71 3.55407 20.8996 5.82824 20.8996 8.60459C20.8996 8.80384 20.7648 8.97773 20.5717 9.02716C20.5347 9.03669 20.4984 9.04063 20.4636 9.04063C20.3066 9.04063 20.159 8.95577 20.0812 8.81387L20.0741 8.8009C19.314 7.42819 17.8656 6.57416 16.2945 6.57416H15.9667V7.89989C15.9667 8.07529 15.8613 8.23303 15.7008 8.30139L15.7003 8.30163C15.541 8.36883 15.3529 8.33597 15.2267 8.21239L12.2324 5.30611C12.1474 5.22393 12.0996 5.11082 12.0996 4.99298C12.0996 4.87515 12.1472 4.76221 12.2322 4.68003L15.227 1.7733ZM13.1618 4.99298L15.0946 6.86906V6.13813C15.0946 5.89739 15.2899 5.70209 15.5306 5.70209H16.2945C17.5717 5.70209 18.7813 6.17152 19.7133 6.98626C19.0714 5.40306 17.517 4.28387 15.7068 4.28387H15.5306C15.2899 4.28387 15.0946 4.08858 15.0946 3.84784V3.1169L13.1618 4.99298Z"
        fill="#304FFD" />
</svg>
    