<svg width="19" height="18" viewBox="0 0 19 18" fill="none" xmlns="http://www.w3.org/2000/svg">
    <path fill-rule="evenodd" clip-rule="evenodd" d="M4.87061 3.02111C4.74038 2.90933 4.57361 2.84844 4.40135 2.85013L4.39399 2.8502L2.20722 2.85017C2.1088 2.8503 2.01152 2.87087 1.92158 2.91052C1.83155 2.9502 1.7509 3.00812 1.68471 3.08048C1.61852 3.15285 1.56824 3.23808 1.53698 3.33072C1.50624 3.42181 1.49453 3.51815 1.50252 3.61384C1.73016 5.74304 2.45661 7.78904 3.62329 9.58641L3.62687 9.59193C4.68703 11.257 6.10159 12.6688 7.77021 13.7271L7.77606 13.7308C9.56882 14.8911 11.6091 15.6161 13.7333 15.8477C13.8299 15.8556 13.927 15.8438 14.0188 15.8128C14.1124 15.7812 14.1982 15.7305 14.2708 15.664C14.3434 15.5976 14.4012 15.5168 14.4406 15.4269C14.4765 15.3449 14.498 15.2424 14.5001 15.0955L14.4996 12.9563L14.4999 12.9375C14.5042 12.765 14.4448 12.5967 14.3327 12.4647C14.2212 12.3333 14.0651 12.2469 13.8938 12.2221C13.1392 12.1225 12.3984 11.9382 11.6853 11.6726L11.6836 11.672C11.5567 11.6243 11.4186 11.614 11.286 11.6423C11.1539 11.6704 11.0328 11.7355 10.9368 11.8298C10.9364 11.8302 10.9359 11.8306 10.9355 11.831L10.0126 12.7521C9.774 12.9902 9.40582 13.0399 9.11263 12.8735C7.17012 11.7712 5.56156 10.1659 4.45681 8.22685C4.28942 7.93306 4.33932 7.56358 4.57866 7.32472L5.5028 6.40242C5.59723 6.30665 5.66217 6.18613 5.69017 6.05508C5.71829 5.92349 5.70803 5.78661 5.66057 5.6606L5.65994 5.65891C5.39376 4.94701 5.20898 4.20738 5.10911 3.45407C5.08464 3.28609 5.0001 3.13225 4.87061 3.02111ZM4.39068 1.35017C4.92463 1.3459 5.44228 1.53502 5.84756 1.88287C6.2539 2.23164 6.51959 2.71624 6.59469 3.24649L6.59567 3.2534C6.68056 3.89577 6.83796 4.52651 7.06494 5.13359L7.06431 5.13189C7.21302 5.52674 7.24523 5.95593 7.15705 6.36855C7.06888 6.78115 6.86408 7.1597 6.56713 7.45939L6.56418 7.46237L6.05452 7.97101C6.90599 9.29906 8.03643 10.427 9.36759 11.2766L9.88187 10.7634C10.1821 10.467 10.5611 10.263 10.9737 10.1751C11.386 10.0874 11.8149 10.1193 12.2096 10.2672C12.8179 10.4937 13.4499 10.6508 14.0935 10.7355L14.1002 10.7364C14.6361 10.8118 15.1259 11.0813 15.4762 11.4939C15.8243 11.9039 16.0105 12.4269 15.9996 12.9644L16.0001 15.1088C15.9968 15.3945 15.954 15.7104 15.8145 16.0288C15.6912 16.3103 15.5104 16.5628 15.2837 16.7703C15.0571 16.9779 14.7896 17.1357 14.4985 17.234C14.2074 17.3323 13.8989 17.3688 13.5929 17.3412L13.5794 17.3399C11.2208 17.0842 8.95498 16.2799 6.96394 14.9919C5.11171 13.8167 3.54104 12.2492 2.36333 10.4004C1.06805 8.40393 0.261891 6.13106 0.0102086 3.76572L0.00896223 3.754C-0.0186656 3.44888 0.0177649 3.14137 0.115728 2.85108C0.21369 2.5608 0.371107 2.29416 0.577872 2.06811C0.784633 1.84205 1.0362 1.66154 1.31652 1.53797C1.59683 1.4144 1.89978 1.35046 2.20612 1.35017L4.39068 1.35017Z" fill="#49C96D"/>
    <path fill-rule="evenodd" clip-rule="evenodd" d="M15.773 0.123273C15.6474 0.00121443 15.4599 -0.0338622 15.2992 0.0345129C15.1387 0.10288 15.0333 0.260648 15.0333 0.436049V1.76814C12.29 1.90404 10.1004 4.17821 10.1004 6.95457C10.1004 7.15381 10.2352 7.32771 10.4283 7.37713C10.4653 7.38666 10.5016 7.39061 10.5364 7.39061C10.6934 7.39061 10.841 7.30575 10.9188 7.16385L10.9259 7.15088C11.686 5.77816 13.1344 4.92414 14.7055 4.92414H15.0333V6.24986C15.0333 6.42527 15.1387 6.583 15.2992 6.65137L15.2997 6.65161C15.459 6.7188 15.6471 6.68595 15.7733 6.56237L18.7676 3.65608C18.8526 3.57391 18.9004 3.46079 18.9004 3.34296C18.9004 3.22512 18.8528 3.11218 18.7678 3.03001L15.773 0.123273ZM17.8382 3.34296L15.9054 5.21904V4.4881C15.9054 4.24736 15.7101 4.05207 15.4694 4.05207H14.7055C13.4283 4.05207 12.2187 4.52149 11.2867 5.33624C11.9286 3.75304 13.483 2.63385 15.2932 2.63385H15.4694C15.7101 2.63385 15.9054 2.43855 15.9054 2.19781V1.46688L17.8382 3.34296Z" fill="#49C96D"/>
    </svg>
    