<svg width="23" height="21" viewBox="0 0 23 21" fill="none" xmlns="http://www.w3.org/2000/svg">
    <path fill-rule="evenodd" clip-rule="evenodd"
        d="M1.5847 9.36875C1.70384 9.15013 1.93617 9 2.20006 9H13.8001C14.064 9 14.2963 9.15013 14.4154 9.36876L8.00006 13.8595L1.5847 9.36875ZM9.7632e-05 9.68723C-1.89934e-05 9.69447 -3.10549e-05 9.7017 6.10283e-05 9.70893V18.4C6.10283e-05 19.6117 0.988348 20.6 2.20006 20.6H13.8001C15.0118 20.6 16.0001 19.6117 16.0001 18.4C16.0001 17.4324 16.0031 16.4646 16.0061 15.4968C16.0122 13.5633 16.0182 11.6296 16.0001 9.69659C16.0001 9.69373 16.0001 9.69086 16 9.68799C16 9.68524 16 9.68248 16 9.67972C15.9888 8.49855 15.0049 7.5 13.8001 7.5H2.20006C0.992607 7.5 0.00701195 8.48135 9.7632e-05 9.68723ZM14.5001 11.1405V18.4C14.5001 18.7833 14.1833 19.1 13.8001 19.1H2.20006C1.81677 19.1 1.50006 18.7833 1.50006 18.4V11.1405L7.56997 15.3894C7.82821 15.5702 8.17192 15.5702 8.43016 15.3894L14.5001 11.1405Z"
        fill="#49C96D" />
    <path fill-rule="evenodd" clip-rule="evenodd"
        d="M19.5408 1.45084C19.4381 1.35097 19.2847 1.32227 19.1532 1.37821C19.0219 1.43415 18.9356 1.56323 18.9356 1.70674V2.79664C16.6911 2.90783 14.8996 4.76851 14.8996 7.04008C14.8996 7.20309 15.0099 7.34537 15.1679 7.38581C15.1982 7.39361 15.2279 7.39683 15.2564 7.39683C15.3848 7.39683 15.5056 7.3274 15.5692 7.21131L15.5751 7.2007C16.1969 6.07756 17.382 5.37882 18.6674 5.37882H18.9356V6.4635C18.9356 6.60701 19.0218 6.73607 19.1531 6.79201L19.1536 6.7922C19.2839 6.84718 19.4378 6.82029 19.541 6.71919L21.991 4.34131C22.0605 4.27408 22.0996 4.18153 22.0996 4.08512C22.0996 3.98871 22.0607 3.89631 21.9911 3.82907L19.5408 1.45084ZM21.2306 4.08512L19.6492 5.6201V5.02206C19.6492 4.82509 19.4894 4.6653 19.2924 4.6653H18.6674C17.6225 4.6653 16.6328 5.04938 15.8702 5.71599C16.3954 4.42064 17.6672 3.50494 19.1483 3.50494H19.2924C19.4894 3.50494 19.6492 3.34515 19.6492 3.14819V2.55015L21.2306 4.08512Z"
        fill="#49C96D" />
</svg>
    