<svg width="23" height="20" viewBox="0 0 23 20" fill="none" xmlns="http://www.w3.org/2000/svg">
    <path fill-rule="evenodd" clip-rule="evenodd"
        d="M1.5847 8.36875C1.70384 8.15013 1.93617 8 2.20006 8H13.8001C14.064 8 14.2963 8.15013 14.4154 8.36876L8.00006 12.8595L1.5847 8.36875ZM9.7632e-05 8.68723C-1.89934e-05 8.69447 -3.10549e-05 8.7017 6.10283e-05 8.70893V17.4C6.10283e-05 18.6117 0.988348 19.6 2.20006 19.6H13.8001C15.0118 19.6 16.0001 18.6117 16.0001 17.4C16.0001 16.4324 16.0031 15.4646 16.0061 14.4968C16.0122 12.5633 16.0182 10.6296 16.0001 8.69659C16.0001 8.69373 16.0001 8.69086 16 8.68799C16 8.68524 16 8.68248 16 8.67972C15.9888 7.49855 15.0049 6.5 13.8001 6.5H2.20006C0.992607 6.5 0.00701195 7.48135 9.7632e-05 8.68723ZM14.5001 10.1405V17.4C14.5001 17.7833 14.1833 18.1 13.8001 18.1H2.20006C1.81677 18.1 1.50006 17.7833 1.50006 17.4V10.1405L7.56997 14.3894C7.82821 14.5702 8.17192 14.5702 8.43016 14.3894L14.5001 10.1405Z"
        fill="#304FFD" />
    <path fill-rule="evenodd" clip-rule="evenodd"
        d="M17.4592 1.45084C17.5619 1.35097 17.7153 1.32227 17.8468 1.37821C17.9781 1.43415 18.0644 1.56323 18.0644 1.70674V2.79664C20.3089 2.90783 22.1004 4.76851 22.1004 7.04008C22.1004 7.20309 21.9901 7.34537 21.8321 7.38581C21.8018 7.39361 21.7721 7.39683 21.7436 7.39683C21.6152 7.39683 21.4944 7.3274 21.4308 7.21131L21.4249 7.2007C20.8031 6.07756 19.618 5.37882 18.3326 5.37882H18.0644V6.4635C18.0644 6.60701 17.9782 6.73607 17.8469 6.79201L17.8464 6.7922C17.7161 6.84718 17.5622 6.82029 17.459 6.71919L15.009 4.34131C14.9395 4.27408 14.9004 4.18153 14.9004 4.08512C14.9004 3.98871 14.9393 3.89631 15.0089 3.82907L17.4592 1.45084ZM15.7694 4.08512L17.3508 5.6201V5.02206C17.3508 4.82509 17.5106 4.6653 17.7076 4.6653H18.3326C19.3775 4.6653 20.3672 5.04938 21.1298 5.71599C20.6046 4.42064 19.3328 3.50494 17.8517 3.50494H17.7076C17.5106 3.50494 17.3508 3.34515 17.3508 3.14819V2.55015L15.7694 4.08512Z"
        fill="#304FFD" />
</svg>
    