<svg width="21" height="17" viewBox="0 0 21 17" fill="none" xmlns="http://www.w3.org/2000/svg">
<path d="M18.4868 14.7246H20.2473V16.4851H0.881836V14.7246H2.64233V1.52087C2.64233 1.28742 2.73507 1.06352 2.90015 0.898444C3.06523 0.733365 3.28912 0.640625 3.52258 0.640625H12.3251C12.5585 0.640625 12.7824 0.733365 12.9475 0.898444C13.1126 1.06352 13.2053 1.28742 13.2053 1.52087V14.7246H14.9658V5.92211H17.6065C17.84 5.92211 18.0639 6.01485 18.229 6.17993C18.3941 6.34501 18.4868 6.5689 18.4868 6.80236V14.7246ZM6.16332 7.68261V9.4431H9.68431V7.68261H6.16332ZM6.16332 4.16162V5.92211H9.68431V4.16162H6.16332Z" fill="#909193"/>
</svg>
