<svg width="33" height="42" viewBox="0 0 33 42" fill="none" xmlns="http://www.w3.org/2000/svg">
    <g clip-path="url(#clip0_529_24670)">
        <path fill-rule="evenodd" clip-rule="evenodd"
            d="M2.66127 0H21.0148L32.9999 11.7757V39.375C32.9999 40.8253 31.8077 42 30.3386 42H2.66127C1.19219 42 0 40.8253 0 39.375V2.62498C0 1.17471 1.19233 0 2.66127 0Z"
            fill="#26A6D1" />
        <g filter="url(#filter0_d_529_24670)">
            <path fill-rule="evenodd" clip-rule="evenodd"
                d="M32.9607 11.8126H23.6847C22.2156 11.8126 21.0234 10.6367 21.0234 9.18763V0.0263672L32.9607 11.8126Z"
                fill="#9ADDF5" />
        </g>
        <path
            d="M7.00828 25C6.74828 25 6.54828 24.93 6.40828 24.79C6.26828 24.65 6.19828 24.45 6.19828 24.19V18.76C6.19828 18.5 6.26828 18.3 6.40828 18.16C6.54828 18.02 6.74828 17.95 7.00828 17.95H8.95828C10.1649 17.95 11.0949 18.2567 11.7483 18.87C12.4083 19.4767 12.7383 20.3433 12.7383 21.47C12.7383 22.0367 12.6516 22.54 12.4783 22.98C12.3116 23.4133 12.0683 23.78 11.7483 24.08C11.4283 24.38 11.0349 24.61 10.5683 24.77C10.1016 24.9233 9.56495 25 8.95828 25H7.00828ZM7.74828 23.73H8.86828C9.24828 23.73 9.57828 23.6833 9.85828 23.59C10.1383 23.4967 10.3716 23.3567 10.5583 23.17C10.7449 22.9833 10.8849 22.75 10.9783 22.47C11.0716 22.1833 11.1183 21.85 11.1183 21.47C11.1183 20.71 10.9283 20.1467 10.5483 19.78C10.1749 19.4067 9.61495 19.22 8.86828 19.22H7.74828V23.73ZM17.2124 25.11C16.5191 25.11 15.9091 24.96 15.3824 24.66C14.8624 24.3533 14.4558 23.9267 14.1624 23.38C13.8758 22.8333 13.7324 22.1967 13.7324 21.47C13.7324 20.9167 13.8124 20.42 13.9724 19.98C14.1391 19.5333 14.3758 19.1533 14.6824 18.84C14.9891 18.52 15.3558 18.2733 15.7824 18.1C16.2158 17.9267 16.6924 17.84 17.2124 17.84C17.9191 17.84 18.5324 17.99 19.0524 18.29C19.5724 18.59 19.9758 19.0133 20.2624 19.56C20.5558 20.1 20.7024 20.7333 20.7024 21.46C20.7024 22.0133 20.6191 22.5133 20.4524 22.96C20.2858 23.4067 20.0491 23.79 19.7424 24.11C19.4358 24.43 19.0691 24.6767 18.6424 24.85C18.2158 25.0233 17.7391 25.11 17.2124 25.11ZM17.2124 23.79C17.6058 23.79 17.9391 23.7 18.2124 23.52C18.4924 23.3333 18.7058 23.0667 18.8524 22.72C19.0058 22.3667 19.0824 21.95 19.0824 21.47C19.0824 20.7367 18.9191 20.17 18.5924 19.77C18.2658 19.3633 17.8058 19.16 17.2124 19.16C16.8258 19.16 16.4924 19.25 16.2124 19.43C15.9324 19.61 15.7191 19.8733 15.5724 20.22C15.4258 20.5667 15.3524 20.9833 15.3524 21.47C15.3524 22.1967 15.5158 22.7667 15.8424 23.18C16.1691 23.5867 16.6258 23.79 17.2124 23.79ZM25.3214 25.11C24.5614 25.11 23.9114 24.96 23.3714 24.66C22.8314 24.36 22.4147 23.94 22.1214 23.4C21.8347 22.8533 21.6914 22.21 21.6914 21.47C21.6914 20.9167 21.7714 20.42 21.9314 19.98C22.0981 19.5333 22.3381 19.1533 22.6514 18.84C22.9647 18.52 23.3447 18.2733 23.7914 18.1C24.2447 17.9267 24.7547 17.84 25.3214 17.84C25.6547 17.84 25.9914 17.8833 26.3314 17.97C26.6781 18.05 26.9781 18.1667 27.2314 18.32C27.3981 18.4133 27.5114 18.53 27.5714 18.67C27.6314 18.81 27.6481 18.95 27.6214 19.09C27.6014 19.23 27.5447 19.35 27.4514 19.45C27.3647 19.55 27.2547 19.6133 27.1214 19.64C26.9881 19.6667 26.8381 19.6367 26.6714 19.55C26.4714 19.43 26.2614 19.3433 26.0414 19.29C25.8214 19.2367 25.5981 19.21 25.3714 19.21C24.9247 19.21 24.5481 19.3 24.2414 19.48C23.9414 19.6533 23.7147 19.9067 23.5614 20.24C23.4081 20.5733 23.3314 20.9833 23.3314 21.47C23.3314 21.95 23.4081 22.36 23.5614 22.7C23.7147 23.04 23.9414 23.3 24.2414 23.48C24.5481 23.6533 24.9247 23.74 25.3714 23.74C25.5847 23.74 25.8014 23.7133 26.0214 23.66C26.2481 23.6067 26.4647 23.5233 26.6714 23.41C26.8447 23.3233 26.9981 23.2933 27.1314 23.32C27.2714 23.34 27.3847 23.4 27.4714 23.5C27.5647 23.5933 27.6214 23.7067 27.6414 23.84C27.6681 23.9733 27.6547 24.1067 27.6014 24.24C27.5481 24.3733 27.4481 24.4867 27.3014 24.58C27.0547 24.7467 26.7514 24.8767 26.3914 24.97C26.0314 25.0633 25.6747 25.11 25.3214 25.11Z"
            fill="white" />
    </g>
    <defs>
        <filter id="filter0_d_529_24670" x="20.0234" y="0.0263672" width="13.9375" height="13.7861"
            filterUnits="userSpaceOnUse" color-interpolation-filters="sRGB">
            <feFlood flood-opacity="0" result="BackgroundImageFix" />
            <feColorMatrix in="SourceAlpha" type="matrix"
                values="0 0 0 0 0 0 0 0 0 0 0 0 0 0 0 0 0 0 127 0" result="hardAlpha" />
            <feOffset dy="1" />
            <feGaussianBlur stdDeviation="0.5" />
            <feColorMatrix type="matrix"
                values="0 0 0 0 0.0909091 0 0 0 0 0.397129 0 0 0 0 0.5 0 0 0 0.25 0" />
            <feBlend mode="normal" in2="BackgroundImageFix" result="effect1_dropShadow_529_24670" />
            <feBlend mode="normal" in="SourceGraphic" in2="effect1_dropShadow_529_24670"
                result="shape" />
        </filter>
        <clipPath id="clip0_529_24670">
            <rect width="33" height="42" fill="white" />
        </clipPath>
    </defs>
</svg>