<svg width="24" height="25" viewBox="0 0 24 25" fill="none" xmlns="http://www.w3.org/2000/svg">
<g clip-path="url(#clip0_726_86406)">
<path d="M13.4531 14C12.8047 13.5156 12.1055 13.1445 11.3555 12.8867C10.6055 12.6289 9.82031 12.5 9 12.5C8.3125 12.5 7.64844 12.5898 7.00781 12.7695C6.36719 12.9492 5.76953 13.1992 5.21484 13.5195C4.66016 13.8398 4.15625 14.2305 3.70312 14.6914C3.25 15.1523 2.85938 15.6602 2.53125 16.2148C2.20312 16.7695 1.94922 17.3672 1.76953 18.0078C1.58984 18.6484 1.5 19.3125 1.5 20H0C0 19.0625 0.136719 18.1602 0.410156 17.293C0.683594 16.4258 1.07812 15.625 1.59375 14.8906C2.10938 14.1562 2.71875 13.5039 3.42188 12.9336C4.125 12.3633 4.92188 11.9141 5.8125 11.5859C5.375 11.3125 4.98438 10.9922 4.64062 10.625C4.29688 10.2578 4 9.85156 3.75 9.40625C3.5 8.96094 3.31641 8.49609 3.19922 8.01172C3.08203 7.52734 3.01562 7.02344 3 6.5C3 5.67188 3.15625 4.89453 3.46875 4.16797C3.78125 3.44141 4.21094 2.80859 4.75781 2.26953C5.30469 1.73047 5.94141 1.30078 6.66797 0.980469C7.39453 0.660156 8.17188 0.5 9 0.5C9.82812 0.5 10.6055 0.65625 11.332 0.96875C12.0586 1.28125 12.6914 1.71094 13.2305 2.25781C13.7695 2.80469 14.1992 3.44141 14.5195 4.16797C14.8398 4.89453 15 5.67188 15 6.5C15 7.01562 14.9375 7.51953 14.8125 8.01172C14.6875 8.50391 14.5 8.96875 14.25 9.40625C14 9.84375 13.7031 10.2461 13.3594 10.6133C13.0156 10.9805 12.6211 11.3047 12.1758 11.5859C12.6445 11.7656 13.0859 11.9766 13.5 12.2188V14H13.4531ZM4.5 6.5C4.5 7.125 4.61719 7.70703 4.85156 8.24609C5.08594 8.78516 5.40625 9.26172 5.8125 9.67578C6.21875 10.0898 6.69531 10.4141 7.24219 10.6484C7.78906 10.8828 8.375 11 9 11C9.61719 11 10.1992 10.8828 10.7461 10.6484C11.293 10.4141 11.7695 10.0938 12.1758 9.6875C12.582 9.28125 12.9062 8.80469 13.1484 8.25781C13.3906 7.71094 13.5078 7.125 13.5 6.5C13.5 5.88281 13.3828 5.30078 13.1484 4.75391C12.9141 4.20703 12.5938 3.73047 12.1875 3.32422C11.7812 2.91797 11.3008 2.59375 10.7461 2.35156C10.1914 2.10938 9.60938 1.99219 9 2C8.375 2 7.79297 2.11719 7.25391 2.35156C6.71484 2.58594 6.23828 2.90625 5.82422 3.3125C5.41016 3.71875 5.08594 4.19922 4.85156 4.75391C4.61719 5.30859 4.5 5.89062 4.5 6.5ZM24 15.5V24.5H12V15.5H15V12.5H21V15.5H24ZM16.5 15.5H19.5V14H16.5V15.5ZM22.5 20H21V21.5H19.5V20H16.5V21.5H15V20H13.5V23H22.5V20ZM22.5 17H13.5V18.5H22.5V17Z" fill="#2E3134"/>
</g>
<defs>
<clipPath id="clip0_726_86406">
<rect width="24" height="24" fill="white" transform="translate(0 0.5)"/>
</clipPath>
</defs>
</svg>
