<svg width="14" height="16" viewBox="0 0 14 16" fill="none" xmlns="http://www.w3.org/2000/svg">
    <path
        d="M7 16C7.97222 16 8.883 15.8189 9.73233 15.4568C10.5817 15.0946 11.3206 14.606 11.949 13.9909C12.5774 13.3747 13.0763 12.6509 13.4454 11.8194C13.8146 10.9879 13.9995 10.0957 14 9.14286C14 8.19048 13.8151 7.29829 13.4454 6.46629C13.0757 5.63429 12.5769 4.91048 11.949 4.29486C11.32 3.67924 10.5811 3.1906 9.73233 2.82895C8.88352 2.4673 7.97274 2.28622 7 2.28571H6.88333L8.08889 1.10476L7 0L3.88889 3.04762L7 6.09524L8.08889 4.99048L6.88333 3.80952H7C8.51667 3.80952 9.80337 4.32711 10.8601 5.36229C11.9169 6.39746 12.445 7.65765 12.4444 9.14286C12.4444 10.6286 11.9161 11.889 10.8593 12.9242C9.80259 13.9594 8.51615 14.4767 7 14.4762C5.48333 14.4762 4.19663 13.9586 3.13989 12.9234C2.08315 11.8883 1.55504 10.6281 1.55556 9.14286H0C0 10.0952 0.184852 10.9874 0.554555 11.8194C0.924258 12.6514 1.42307 13.3752 2.051 13.9909C2.67996 14.6065 3.41885 15.0954 4.26767 15.4575C5.11648 15.8197 6.02726 16.0005 7 16Z"
        fill="#595F69" />
</svg>
    