<svg width="14" height="16" viewBox="0 0 14 16" fill="none" xmlns="http://www.w3.org/2000/svg">
    <path
        d="M7 16C6.02778 16 5.117 15.8189 4.26767 15.4568C3.41833 15.0946 2.67944 14.606 2.051 13.9909C1.42256 13.3747 0.923741 12.6509 0.554556 11.8194C0.18537 10.9879 0.000518519 10.0957 0 9.14286C0 8.19048 0.184852 7.29829 0.554556 6.46629C0.924259 5.63429 1.42307 4.91048 2.051 4.29486C2.67996 3.67924 3.41885 3.1906 4.26767 2.82895C5.11648 2.4673 6.02726 2.28622 7 2.28571H7.11667L5.91111 1.10476L7 0L10.1111 3.04762L7 6.09524L5.91111 4.99048L7.11667 3.80952H7C5.48333 3.80952 4.19663 4.32711 3.13989 5.36229C2.08315 6.39746 1.55504 7.65765 1.55556 9.14286C1.55556 10.6286 2.08393 11.889 3.14067 12.9242C4.19741 13.9594 5.48385 14.4767 7 14.4762C8.51667 14.4762 9.80337 13.9586 10.8601 12.9234C11.9169 11.8883 12.445 10.6281 12.4444 9.14286H14C14 10.0952 13.8151 10.9874 13.4454 11.8194C13.0757 12.6514 12.5769 13.3752 11.949 13.9909C11.32 14.6065 10.5811 15.0954 9.73233 15.4575C8.88352 15.8197 7.97274 16.0005 7 16Z"
        fill="#595F69" />
</svg>
    