<svg width="20" height="20" viewBox="0 0 20 20" fill="none"
    xmlns="http://www.w3.org/2000/svg">
    <g opacity="0.8">
        <path fill-rule="evenodd" clip-rule="evenodd" d="M2.75 4.42188C2.33579 4.42188 2 4.75766 2 5.17188C2 5.58609 2.33579 5.92188 2.75 5.92188H17.25C17.6642 5.92188 18 5.58609 18 5.17188C18 4.75766 17.6642 4.42188 17.25 4.42188H2.75ZM5.16669 7.6441C4.75247 7.6441 4.41669 7.97989 4.41669 8.3941C4.41669 8.80832 4.75247 9.1441 5.16669 9.1441H14.8334C15.2476 9.1441 15.5834 8.80832 15.5834 8.3941C15.5834 7.97989 15.2476 7.6441 14.8334 7.6441H5.16669ZM2 11.6163C2 11.2021 2.33579 10.8663 2.75 10.8663H17.25C17.6642 10.8663 18 11.2021 18 11.6163C18 12.0305 17.6642 12.3663 17.25 12.3663H2.75C2.33579 12.3663 2 12.0305 2 11.6163ZM5.16669 14.0886C4.75247 14.0886 4.41669 14.4243 4.41669 14.8386C4.41669 15.2528 4.75247 15.5886 5.16669 15.5886H14.8334C15.2476 15.5886 15.5834 15.2528 15.5834 14.8386C15.5834 14.4243 15.2476 14.0886 14.8334 14.0886H5.16669Z" fill="#3F434A"/>
    </g>
</svg>
