<svg width="20" height="20" viewBox="0 0 20 20" fill="none"
    xmlns="http://www.w3.org/2000/svg">
    <g opacity="0.8">
        <path fill-rule="evenodd" clip-rule="evenodd" d="M2.75 4.42188C2.33579 4.42188 2 4.75766 2 5.17188C2 5.58609 2.33579 5.92188 2.75 5.92188H17.25C17.6642 5.92188 18 5.58609 18 5.17188C18 4.75766 17.6642 4.42188 17.25 4.42188H2.75ZM2.75 7.6441C2.33579 7.6441 2 7.97989 2 8.3941C2 8.80832 2.33579 9.1441 2.75 9.1441H17.25C17.6642 9.1441 18 8.80832 18 8.3941C18 7.97989 17.6642 7.6441 17.25 7.6441H2.75ZM2 11.6163C2 11.2021 2.33579 10.8663 2.75 10.8663H17.25C17.6642 10.8663 18 11.2021 18 11.6163C18 12.0305 17.6642 12.3663 17.25 12.3663H2.75C2.33579 12.3663 2 12.0305 2 11.6163ZM2.75 14.0886C2.33579 14.0886 2 14.4243 2 14.8386C2 15.2528 2.33579 15.5886 2.75 15.5886H17.25C17.6642 15.5886 18 15.2528 18 14.8386C18 14.4243 17.6642 14.0886 17.25 14.0886H2.75Z" fill="#3F434A"/>
    </g>
</svg>
