<svg width="15" height="16" viewBox="0 0 15 16" fill="none" xmlns="http://www.w3.org/2000/svg">
    <path
        d="M10.0006 0H5.00031V1.52381H10.0006V0ZM6.66709 9.90476H8.33386V5.33333H6.66709V9.90476ZM13.3592 4.86857L14.5426 3.78667C14.1842 3.39809 13.7925 3.03238 13.3675 2.71238L12.1841 3.79429C10.8568 2.81777 9.20419 2.28548 7.50047 2.28571C3.35854 2.28571 0 5.35619 0 9.14286C0 12.9295 3.35021 16 7.50047 16C8.91248 16.0007 10.296 15.6367 11.4917 14.9501C12.6873 14.2634 13.6465 13.2819 14.2588 12.1187C14.871 10.9554 15.1114 9.65772 14.9522 8.37505C14.7931 7.09237 14.2409 5.87688 13.3592 4.86857ZM7.50047 14.4762C4.27527 14.4762 1.66677 12.0914 1.66677 9.14286C1.66677 6.19429 4.27527 3.80952 7.50047 3.80952C10.7257 3.80952 13.3342 6.19429 13.3342 9.14286C13.3342 12.0914 10.7257 14.4762 7.50047 14.4762Z"
        fill="#3F434A" />
</svg>
    