<svg width="40" height="40" viewBox="0 0 40 40" fill="none" xmlns="http://www.w3.org/2000/svg">
<path d="M40 20C40 31.0457 31.0457 40 20 40C8.95431 40 0 31.0457 0 20C0 8.95431 8.95431 0 20 0C31.0457 0 40 8.95431 40 20Z" fill="#9868F8"/>
<path d="M30.4 17.9748V16.5025C30.4 16.1103 30.4913 15.7236 30.6667 15.3729C31.0161 14.4993 31.13 13.5493 30.9969 12.6179L30.9333 12.1729H18.4L8.8 27.6395L17.8667 30.5729L23.7333 22.8395H29.3333H30.6527C30.8373 22.8395 31.0193 22.7966 31.1843 22.714C31.3693 22.6215 31.527 22.4823 31.6418 22.3102L31.7501 22.1476C31.9131 21.9033 32 21.6161 32 21.3224C32 20.9278 31.8433 20.5494 31.5643 20.2704L31.2 19.9062C30.6878 19.394 30.4 18.6992 30.4 17.9748Z" fill="#FFDDCC"/>
<path fill-rule="evenodd" clip-rule="evenodd" d="M4.54492 32.6957C5.5453 30.5931 6.74765 28.5986 8.31811 26.6991C8.60241 26.3553 9.07617 26.2387 9.49311 26.3975L18.8185 29.9501C19.566 30.2348 20.1498 30.839 20.3866 31.603C21.2421 34.363 21.8378 37.0323 22.1737 39.8831C21.4596 39.9603 20.7341 40 19.9994 40C13.7741 40 8.213 37.1556 4.54492 32.6957Z" fill="#FFD240"/>
<path d="M29.5987 22.5729C28.2639 21.7728 24.0001 22.0394 23.7334 21.7729C22.1335 20.1733 24.3993 14.1737 25.5987 12.1729C35.7334 15.3729 35.7332 6.57295 26.3987 7.10627C16.1614 2.90642 8.24956 9.81717 13.0915 21.2256C13.2351 21.564 13.5519 21.8023 13.9168 21.8466C15.0379 21.9829 17.3971 22.2422 17.5987 22.0395C17.8639 21.7728 18.6668 19.9063 18.132 19.6395C12.3246 16.7427 20.6326 10.9965 21.5227 16.4794C21.6311 17.1467 21.4797 17.8339 21.1713 18.4355C20.0018 20.7177 18.1875 22.8104 18.932 25.7729C19.2001 26.8396 23.5201 28.9196 25.8668 28.7063C28.2135 28.4929 30.9335 23.3729 29.5987 22.5729Z" fill="#4E1E30"/>
<path d="M27.734 17.7729C27.734 18.2147 28.0922 18.5729 28.534 18.5729C28.9758 18.5729 29.334 18.2147 29.334 17.7729C29.334 17.3311 28.9758 16.9729 28.534 16.9729C28.0922 16.9729 27.734 17.3311 27.734 17.7729Z" fill="#4A1827"/>
<path d="M30.4004 15.3729C30.4004 15.0784 30.1616 14.8396 29.8671 14.8396H27.2004C26.9058 14.8396 26.6671 15.0784 26.6671 15.3729C26.6671 15.6675 26.9058 15.9063 27.2004 15.9063H29.8671C30.1616 15.9063 30.4004 15.6675 30.4004 15.3729Z" fill="#5B2C3E"/>
</svg>
