<svg width="40" height="40" viewBox="0 0 40 40" fill="none" xmlns="http://www.w3.org/2000/svg">
<path d="M20 39.9998C31.0155 39.9998 40 31.0155 40 20C40 8.9843 31.0157 0 20 0C8.9843 0 0 8.9843 0 19.9999C0 31.0154 8.9843 39.9998 20 39.9998Z" fill="#304FFD"/>
<path d="M24.8462 7.04126L21.077 27.5028L23.7693 28.0413C29.468 23.8682 31.9135 7.04126 24.8462 7.04126Z" fill="#4E1E30"/>
<path d="M24.8464 7.04119C23.9041 6.46904 18.9308 5.016 15.1541 7.04119C10.5099 9.53159 6.44892 18.4386 13.0003 27.5028C13.0096 27.5156 17.8464 26.9643 17.8464 26.9643L24.8464 7.04119Z" fill="#4E1E30"/>
<path fill-rule="evenodd" clip-rule="evenodd" d="M24.8462 39.4045C23.2937 39.7933 21.6702 39.9999 20.0001 39.9999C18.3299 39.9999 16.7064 39.7933 15.1539 39.4045V28.3681C16.2257 27.5588 16.2308 26.2209 16.2308 24.99V23.7336H23.7693V24.9914H23.7986C23.7986 26.2117 23.8018 27.538 24.8462 28.3493V39.4045Z" fill="#FFD7A3"/>
<path fill-rule="evenodd" clip-rule="evenodd" d="M24.3078 39.5314C22.9196 39.8381 21.4781 39.9998 20.0001 39.9998C18.9006 39.9998 17.8214 39.9103 16.7693 39.7383V34.6212C17.7497 34.8878 18.8422 35.0413 20.0001 35.0413C21.6031 35.0413 23.0862 34.7533 24.3078 34.2659V39.5314Z" fill="#0090FF"/>
<path d="M24.3077 30.7335C24.5042 30.7871 24.6811 30.8157 24.8462 30.8296V28.3492C23.8019 27.5378 23.7985 26.2114 23.7985 24.9911L23.7978 24.9599V23.7021L17.8462 23.7334L16.2308 24.2718C17.3077 25.4835 20.6059 29.7239 24.3077 30.7335Z" fill="#FDC88E"/>
<path d="M27.5389 16.7334C27.5389 21.0455 23.2503 26.4258 20.0004 26.4258C16.7505 26.4258 12.462 21.0455 12.462 16.7334C12.462 12.4214 15.8371 10.8103 20.0004 10.8103C24.1637 10.8103 27.5389 12.4214 27.5389 16.7334Z" fill="#FFE1B2"/>
<path d="M21.077 8.11816C20.7744 8.11816 19.7921 8.45808 18.9893 8.75594L18.9231 8.6566C18.9231 8.6566 18.8123 8.74367 18.6205 8.89456C18.174 9.06411 17.8462 9.19504 17.8462 9.19504L17.9722 9.40501C15.9284 11.0152 11.2655 14.6988 10.8462 15.1182C10.3077 15.6566 14.0769 29.3944 14.0769 21.5797C14.0769 15.0509 17.7042 13.7579 21.077 12.9643C22.6026 12.6054 23.0513 11.7079 23.2308 10.8105C23.4103 9.91309 21.6155 8.11816 21.077 8.11816Z" fill="#4E1E30"/>
<path d="M22.6924 11.3489C23.6796 14.8938 25.654 16.4979 27.505 16.9691C28.5192 17.2273 28.0771 14.0413 28.0771 14.0413C28.0771 14.0413 26.6412 10.3617 26.4617 10.272C26.2823 10.1823 24.8463 7.04126 24.8463 7.04126L21.6155 9.73361L22.6924 11.3489Z" fill="#4E1E30"/>
<path fill-rule="evenodd" clip-rule="evenodd" d="M18.5548 39.948L15.7452 27.7229C15.2409 28.5423 14.2127 29.1183 12.1026 29.1183H11.9232C8.9014 29.1183 6.40806 31.3811 6.04541 34.3048C9.32999 37.5099 13.708 39.5991 18.5548 39.948Z" fill="#FF965D"/>
<path fill-rule="evenodd" clip-rule="evenodd" d="M33.9548 34.3047C33.5921 31.3811 31.0988 29.1183 28.077 29.1183H27.8976C25.7875 29.1183 24.7593 28.5423 24.255 27.7229L21.4454 39.948C26.2922 39.5991 30.6702 37.5098 33.9548 34.3047Z" fill="#FF965D"/>
<path d="M26.7364 16.7826C27.6175 16.5807 28.1947 17.0121 28.1947 17.8596C28.1947 18.9814 27.0099 21.7298 25.7643 20.0134C24.5187 18.297 26.7364 16.7826 26.7364 16.7826Z" fill="#FFE1B2"/>
</svg>
