<svg width="40" height="40" viewBox="0 0 40 40" fill="none" xmlns="http://www.w3.org/2000/svg">
<g clip-path="url(#clip0_319_77)">
<path d="M20 40C31.0155 40 40 31.0157 40 20.0002C40 8.98454 31.0157 0.000244141 20 0.000244141C8.9843 0.000244141 0 8.98454 0 20.0002C0 31.0156 8.9843 40 20 40Z" fill="#FF965D"/>
<path d="M13.3213 25.3606C11.6535 21.153 8.15015 17.345 12.5586 9.67461C14.3742 6.51554 17.1476 4.43211 20.0126 5.1375C22.8776 4.43219 25.6509 6.51562 27.4665 9.67461C31.8748 17.345 28.3717 21.153 26.7036 25.3606L20.0128 25.3772L13.3216 25.3606H13.3213Z" fill="#1F0951"/>
<path fill-rule="evenodd" clip-rule="evenodd" d="M32.1974 35.8321C28.8176 38.4435 24.5847 39.9998 20 39.9998C15.4151 39.9998 11.1822 38.4435 7.80246 35.832C7.93162 35.2763 8.05442 34.7212 8.16734 34.2107C8.42389 33.051 8.62948 32.1215 8.74301 31.9383C10.1703 29.6338 11.942 28.8143 13.4995 28.0939C15.4457 27.1937 17.0574 26.4482 17.2446 23.1534C17.2446 23.1534 18.7271 24.2891 19.9438 24.2782C21.1604 24.2674 22.7536 23.0784 22.7536 23.0784C22.9415 26.382 24.5585 27.1459 26.5095 28.0677C28.0645 28.8024 29.8317 29.6373 31.2568 31.9383C31.3702 32.1213 31.5756 33.0498 31.832 34.2087C31.945 34.7198 32.068 35.2757 32.1974 35.8321Z" fill="#FFD7A3"/>
<path d="M22.8398 23.917C22.7999 23.6567 22.7706 23.3785 22.7536 23.0786C22.7536 23.0786 21.1603 24.2676 19.9437 24.2785C18.7271 24.2893 17.2445 23.1536 17.2445 23.1536C17.2273 23.4589 17.1972 23.7413 17.156 24.005C17.1872 24.0296 17.2181 24.0546 17.2498 24.079L17.2494 24.0833C17.3431 24.1649 18.7673 25.3895 19.9435 25.3771C21.1198 25.3894 22.5438 24.1646 22.6376 24.0833L22.6373 24.079C22.7064 24.0261 22.7734 23.9717 22.8396 23.9171L22.8398 23.917Z" fill="#F0C290"/>
<path d="M17.2497 23.1575C17.3434 23.2282 18.7675 24.289 19.9438 24.2784C21.12 24.289 22.544 23.228 22.6378 23.1575C24.4157 22.121 25.8745 19.065 25.5452 15.7531C25.2755 13.0401 22.3407 17.0181 20.2966 11.4204C17.4036 17.4807 14.6558 13.8959 14.3425 16.1926C13.9972 18.7232 15.4179 21.9072 17.2497 23.1576V23.1575Z" fill="#FFE1B2"/>
<path fill-rule="evenodd" clip-rule="evenodd" d="M32.2603 35.7833C28.8702 38.4241 24.6132 39.9998 20 39.9998C15.384 39.9998 11.1247 38.4222 7.7337 35.7787C7.91605 34.8252 8.08731 33.7991 8.2381 32.8958C8.46142 31.5578 8.63982 30.489 8.74279 30.3235C9.54056 29.0409 11.1886 28.5858 12.723 28.1621C13.5324 27.9386 14.3102 27.7238 14.9148 27.4009L14.9154 27.4016C18.1619 37.8165 22.2235 37.1425 24.9485 27.2561C25.5382 27.5728 26.3536 27.7926 27.2069 28.0225C28.8895 28.4761 30.7194 28.9693 31.2563 30.3235C31.3183 30.4798 31.4588 31.2963 31.6442 32.3737C31.819 33.3899 32.0338 34.6382 32.2603 35.7833ZM14.9151 27.4008C14.915 27.4008 14.9149 27.4009 14.9148 27.4009L14.9147 27.4008H14.9151ZM14.9151 27.4008C14.9151 27.4008 14.9152 27.4007 14.9152 27.4007V27.4008H14.9151Z" fill="#304FFD"/>
<path d="M16.0829 26.4182C15.9691 29.4941 16.4921 33.8517 19.9434 34.9653C16.6941 35.1011 14.5857 30.4195 12.1838 29.1933L16.0828 26.4184V26.4182H16.0829Z" fill="white"/>
<path d="M23.9974 26.4182C24.1167 29.4941 23.5677 33.8517 19.9435 34.9653C23.3554 35.1011 25.5696 30.4195 28.0913 29.1933L23.9972 26.4184L23.9974 26.4182Z" fill="white"/>
</g>
<defs>
<clipPath id="clip0_319_77">
<rect width="40" height="40" fill="white"/>
</clipPath>
</defs>
</svg>
