<svg width="40" height="40" viewBox="0 0 40 40" fill="none" xmlns="http://www.w3.org/2000/svg">
<path d="M20 40C31.0457 40 40 31.0457 40 20C40 8.95431 31.0457 0 20 0C8.95431 0 0 8.95431 0 20C0 31.0457 8.95431 40 20 40Z" fill="#EFEFF2"/>
<path d="M20.0944 28.5669C20.063 28.5669 20.0315 28.5984 20 28.5984C19.9685 28.5984 19.937 28.5669 19.9055 28.5669H20.0944Z" fill="#84DBFF"/>
<path d="M35.5275 32.5983C31.874 37.1022 26.2677 39.9998 20 39.9998C13.7323 39.9998 8.12596 37.1022 4.47241 32.5983C7.08659 29.1022 11.0866 27.3699 14.3622 26.5195C14.1102 28.5983 15.1811 31.3699 15.2126 31.3069C16.3149 28.7872 20 28.5668 20 28.5668C20 28.5668 23.685 28.7872 24.7559 31.3069C24.7874 31.3699 25.8897 28.5983 25.6063 26.5195C28.9134 27.3699 32.9449 29.1022 35.5275 32.5983Z" fill="#22CCE2"/>
<path d="M24.504 24.5667C24.504 24.5667 24.504 24.5667 24.504 24.5982C24.504 24.9132 24.3465 26.9289 20.0945 28.5352H19.9055C15.6536 26.9289 15.4961 24.9132 15.4961 24.5982C15.4961 24.5667 15.4961 24.5667 15.4961 24.5667C15.4961 24.1573 15.5906 23.7478 15.6851 23.3384C16.9134 24.8817 18.3937 25.9211 20 25.9211C21.6063 25.9211 23.0867 24.8817 24.315 23.3384C24.4095 23.7478 24.504 24.1573 24.504 24.5667Z" fill="#FFD7A3"/>
<path d="M24.5039 24.5669C24.5039 24.5669 24.7244 26.8346 20 28.5984C20 28.5984 23.685 28.8189 24.7559 31.3386C24.8189 31.4015 26.9291 25.9212 24.5039 24.5669Z" fill="#148A99"/>
<path d="M15.496 24.5669C13.0708 25.9212 15.1811 31.4015 15.2441 31.3071C16.3464 28.7874 20 28.5669 20 28.5669C15.2756 26.8346 15.496 24.5669 15.496 24.5669Z" fill="#148A99"/>
<path d="M26.6141 16.5983C26.3306 18.551 25.4802 20.3778 24.0629 21.7636C23.7794 22.0471 23.5275 22.2675 23.2125 22.488L22.7086 20.8817H17.2913L16.7873 22.488C15.7794 21.7321 13.6692 19.6219 13.6377 17.6376C12.7558 6.33055 21.4172 8.72425 21.4172 8.72425C27.244 8.3148 27.055 13.4487 26.6141 16.5983Z" fill="#FFE1B2"/>
<path d="M27.7794 18.6454C27.3385 19.3699 26.7401 19.8738 26.1731 20.0628C26.3936 19.5588 26.5826 19.0234 26.7401 18.488C26.7401 18.488 26.7401 18.488 26.7401 18.4565C26.866 17.984 26.992 17.5116 27.118 17.0391H27.0865C27.2125 16.5667 27.3385 16.0943 27.433 15.6218C27.5589 15.6218 27.6849 15.6848 27.8109 15.7478C28.5038 16.1888 28.4723 17.4801 27.7794 18.6454Z" fill="#FFE1B2"/>
<path d="M13.8267 20.0628C13.2598 19.8738 12.6613 19.3699 12.2204 18.6454C11.496 17.4801 11.496 16.1887 12.1889 15.7793C12.2519 15.7478 12.2834 15.7163 12.3464 15.7163C12.7243 17.1966 13.1653 18.299 13.2598 18.5195C13.4173 19.0234 13.6062 19.5588 13.8267 20.0628Z" fill="#FFE1B2"/>
<path d="M23.4331 5.5747C23.6851 2.67707 19.0866 2.86604 19.0866 2.86604C12.126 3.87392 11.3701 10.3621 11.3701 10.3621L12.315 9.22825C10.8347 12.4723 13.0709 18.0471 13.2599 18.4881C14.4252 22.3621 17.0079 25.9212 20 25.9212C22.9922 25.9212 25.5748 22.3621 26.7402 18.4881C26.7402 18.4881 26.7402 18.4881 26.7402 18.4566C26.8662 17.9842 26.9922 17.5117 27.0866 17.0393H27.0551C27.6851 14.5196 28.378 11.9684 28.378 11.9684C30.1733 2.92903 23.4331 5.5747 23.4331 5.5747ZM26.6142 16.5983C26.3307 18.5511 25.4803 20.3779 24.063 21.7637C23.7796 22.0471 23.4961 22.2676 23.2126 22.4881L22.7087 20.9133H17.2914L16.7874 22.5196C15.7796 21.7637 14.9292 20.7243 14.2363 19.5275C13.9213 18.8975 13.7323 18.2361 13.6378 17.6692C12.7559 6.3621 21.4174 8.7558 21.4174 8.7558C27.2441 8.31486 27.0551 13.4487 26.6142 16.5983Z" fill="#324A5E"/>
<path d="M23.4331 5.5747C23.6851 2.67707 19.0866 2.86604 19.0866 2.86604C12.126 3.87392 11.3701 10.3621 11.3701 10.3621L12.315 9.22825C10.8347 12.4723 13.0709 18.0471 13.2599 18.4881C14.4252 22.3621 17.0079 25.9212 20 25.9212C22.9922 25.9212 25.5748 22.3621 26.7402 18.4881C26.7402 18.4881 26.7402 18.4881 26.7402 18.4566C26.8662 17.9842 26.9922 17.5117 27.0866 17.0393H27.0551C27.6851 14.5196 28.378 11.9684 28.378 11.9684C30.1733 2.92903 23.4331 5.5747 23.4331 5.5747ZM26.6142 16.5983C26.3307 18.5511 25.4803 20.3779 24.063 21.7637C23.7796 22.0471 23.4961 22.2676 23.2126 22.4881L22.7087 20.9133H17.2914L16.7874 22.5196C15.7796 21.7637 14.9292 20.7243 14.2363 19.5275C13.9213 18.8975 13.7323 18.2361 13.6378 17.6692C12.7559 6.3621 21.4174 8.7558 21.4174 8.7558C27.2441 8.31486 27.0551 13.4487 26.6142 16.5983Z" fill="#324A5E"/>
<path d="M23.4331 5.5747C23.6851 2.67707 19.0866 2.86604 19.0866 2.86604C12.126 3.87392 11.3701 10.3621 11.3701 10.3621L12.315 9.22825C10.8347 12.4723 13.0709 18.0471 13.2599 18.4881C14.4252 22.3621 17.0079 25.9212 20 25.9212C22.9922 25.9212 25.5748 22.3621 26.7402 18.4881C26.7402 18.4881 26.7402 18.4881 26.7402 18.4566C26.8662 17.9842 26.9922 17.5117 27.0866 17.0393H27.0551C27.6851 14.5196 28.378 11.9684 28.378 11.9684C30.1733 2.92903 23.4331 5.5747 23.4331 5.5747ZM26.6142 16.5983C26.3307 18.5511 25.4803 20.3779 24.063 21.7637C23.7796 22.0471 23.4961 22.2676 23.2126 22.4881L22.7087 20.9133H17.2914L16.7874 22.5196C15.7796 21.7637 13.6693 19.6534 13.6378 17.6692C12.7559 6.3621 21.4174 8.7558 21.4174 8.7558C27.2441 8.31486 27.0551 13.4487 26.6142 16.5983Z" fill="#1F0951"/>
<path d="M17.7952 21.9841C18.3306 22.5826 19.118 22.992 19.9999 22.992C20.8818 22.992 21.6692 22.6141 22.2046 21.9841H17.7952Z" fill="white"/>
</svg>
