<svg width="40" height="40" viewBox="0 0 40 40" fill="none" xmlns="http://www.w3.org/2000/svg">
<g opacity="0.2">
<path d="M40 20C40 31.0457 31.0457 40 20 40C8.95431 40 0 31.0457 0 20C0 8.95431 8.95431 0 20 0C31.0457 0 40 8.95431 40 20Z" fill="white"/>
<mask id="mask0_322_104" style="mask-type:alpha" maskUnits="userSpaceOnUse" x="0" y="0" width="40" height="40">
<path d="M40 20C40 31.0457 31.0457 40 20 40C8.95431 40 0 31.0457 0 20C0 8.95431 8.95431 0 20 0C31.0457 0 40 8.95431 40 20Z" fill="#304FFD"/>
</mask>
<g mask="url(#mask0_322_104)">
<rect width="40" height="40" fill="#304FFD"/>
</g>
</g>
<path d="M23.1166 23.444H17.8786L16.9786 26H14.8366L19.3186 13.472H21.6946L26.1766 26H24.0166L23.1166 23.444ZM22.5406 21.77L20.5066 15.956L18.4546 21.77H22.5406Z" fill="#304FFD"/>
</svg>
