<svg width="430" height="100" viewBox="0 0 430 100" fill="none" xmlns="http://www.w3.org/2000/svg">
<mask id="mask0_1110_53" style="mask-type:alpha" maskUnits="userSpaceOnUse" x="0" y="0" width="430" height="100">
<rect width="430" height="100" rx="14" fill="#C4C4C4"/>
</mask>
<g mask="url(#mask0_1110_53)">
<rect width="430" height="100" fill="#F8F8F8"/>
</g>
<rect opacity="0.8" x="0.5" y="0.5" width="429" height="99" rx="13.5" stroke="#C6C9CC" stroke-dasharray="5 5"/>
<path d="M96.116 61.242C97.18 61.242 98.0993 61.4427 98.874 61.844C99.658 62.236 100.255 62.8007 100.666 63.538C101.086 64.2753 101.296 65.1433 101.296 66.142C101.296 67.1407 101.086 68.0087 100.666 68.746C100.255 69.474 99.658 70.034 98.874 70.426C98.0993 70.8087 97.18 71 96.116 71H93.078V61.242H96.116ZM96.116 69.95C97.376 69.95 98.3373 69.6187 99 68.956C99.6627 68.284 99.994 67.346 99.994 66.142C99.994 64.9287 99.658 63.9813 98.986 63.3C98.3233 62.6187 97.3667 62.278 96.116 62.278H94.352V69.95H96.116ZM104.25 64.574C104.474 64.1353 104.792 63.7947 105.202 63.552C105.622 63.3093 106.131 63.188 106.728 63.188V64.504H106.392C104.964 64.504 104.25 65.2787 104.25 66.828V71H102.976V63.328H104.25V64.574ZM107.723 67.136C107.723 66.352 107.882 65.666 108.199 65.078C108.516 64.4807 108.95 64.0187 109.501 63.692C110.061 63.3653 110.682 63.202 111.363 63.202C112.035 63.202 112.618 63.3467 113.113 63.636C113.608 63.9253 113.976 64.2893 114.219 64.728V63.328H115.507V71H114.219V69.572C113.967 70.02 113.589 70.3933 113.085 70.692C112.59 70.9813 112.012 71.126 111.349 71.126C110.668 71.126 110.052 70.958 109.501 70.622C108.95 70.286 108.516 69.8147 108.199 69.208C107.882 68.6013 107.723 67.9107 107.723 67.136ZM114.219 67.15C114.219 66.5713 114.102 66.0673 113.869 65.638C113.636 65.2087 113.318 64.882 112.917 64.658C112.525 64.4247 112.091 64.308 111.615 64.308C111.139 64.308 110.705 64.42 110.313 64.644C109.921 64.868 109.608 65.1947 109.375 65.624C109.142 66.0533 109.025 66.5573 109.025 67.136C109.025 67.724 109.142 68.2373 109.375 68.676C109.608 69.1053 109.921 69.4367 110.313 69.67C110.705 69.894 111.139 70.006 111.615 70.006C112.091 70.006 112.525 69.894 112.917 69.67C113.318 69.4367 113.636 69.1053 113.869 68.676C114.102 68.2373 114.219 67.7287 114.219 67.15ZM120.824 63.202C121.487 63.202 122.065 63.3467 122.56 63.636C123.064 63.9253 123.437 64.2893 123.68 64.728V63.328H124.968V71.168C124.968 71.868 124.819 72.4887 124.52 73.03C124.221 73.5807 123.792 74.01 123.232 74.318C122.681 74.626 122.037 74.78 121.3 74.78C120.292 74.78 119.452 74.542 118.78 74.066C118.108 73.59 117.711 72.9413 117.59 72.12H118.85C118.99 72.5867 119.279 72.96 119.718 73.24C120.157 73.5293 120.684 73.674 121.3 73.674C122 73.674 122.569 73.4547 123.008 73.016C123.456 72.5773 123.68 71.9613 123.68 71.168V69.558C123.428 70.006 123.055 70.3793 122.56 70.678C122.065 70.9767 121.487 71.126 120.824 71.126C120.143 71.126 119.522 70.958 118.962 70.622C118.411 70.286 117.977 69.8147 117.66 69.208C117.343 68.6013 117.184 67.9107 117.184 67.136C117.184 66.352 117.343 65.666 117.66 65.078C117.977 64.4807 118.411 64.0187 118.962 63.692C119.522 63.3653 120.143 63.202 120.824 63.202ZM123.68 67.15C123.68 66.5713 123.563 66.0673 123.33 65.638C123.097 65.2087 122.779 64.882 122.378 64.658C121.986 64.4247 121.552 64.308 121.076 64.308C120.6 64.308 120.166 64.42 119.774 64.644C119.382 64.868 119.069 65.1947 118.836 65.624C118.603 66.0533 118.486 66.5573 118.486 67.136C118.486 67.724 118.603 68.2373 118.836 68.676C119.069 69.1053 119.382 69.4367 119.774 69.67C120.166 69.894 120.6 70.006 121.076 70.006C121.552 70.006 121.986 69.894 122.378 69.67C122.779 69.4367 123.097 69.1053 123.33 68.676C123.563 68.2373 123.68 67.7287 123.68 67.15ZM130.377 67.136C130.377 66.352 130.536 65.666 130.853 65.078C131.171 64.4807 131.605 64.0187 132.155 63.692C132.715 63.3653 133.336 63.202 134.017 63.202C134.689 63.202 135.273 63.3467 135.767 63.636C136.262 63.9253 136.631 64.2893 136.873 64.728V63.328H138.161V71H136.873V69.572C136.621 70.02 136.243 70.3933 135.739 70.692C135.245 70.9813 134.666 71.126 134.003 71.126C133.322 71.126 132.706 70.958 132.155 70.622C131.605 70.286 131.171 69.8147 130.853 69.208C130.536 68.6013 130.377 67.9107 130.377 67.136ZM136.873 67.15C136.873 66.5713 136.757 66.0673 136.523 65.638C136.29 65.2087 135.973 64.882 135.571 64.658C135.179 64.4247 134.745 64.308 134.269 64.308C133.793 64.308 133.359 64.42 132.967 64.644C132.575 64.868 132.263 65.1947 132.029 65.624C131.796 66.0533 131.679 66.5573 131.679 67.136C131.679 67.724 131.796 68.2373 132.029 68.676C132.263 69.1053 132.575 69.4367 132.967 69.67C133.359 69.894 133.793 70.006 134.269 70.006C134.745 70.006 135.179 69.894 135.571 69.67C135.973 69.4367 136.29 69.1053 136.523 68.676C136.757 68.2373 136.873 67.7287 136.873 67.15ZM144.052 63.188C144.986 63.188 145.742 63.4727 146.32 64.042C146.899 64.602 147.188 65.414 147.188 66.478V71H145.928V66.66C145.928 65.8947 145.737 65.3113 145.354 64.91C144.972 64.4993 144.449 64.294 143.786 64.294C143.114 64.294 142.578 64.504 142.176 64.924C141.784 65.344 141.588 65.9553 141.588 66.758V71H140.314V63.328H141.588V64.42C141.84 64.028 142.181 63.7247 142.61 63.51C143.049 63.2953 143.53 63.188 144.052 63.188ZM148.793 67.136C148.793 66.352 148.952 65.666 149.269 65.078C149.587 64.4807 150.021 64.0187 150.571 63.692C151.131 63.3653 151.757 63.202 152.447 63.202C153.045 63.202 153.6 63.342 154.113 63.622C154.627 63.8927 155.019 64.252 155.289 64.7V60.64H156.577V71H155.289V69.558C155.037 70.0153 154.664 70.3933 154.169 70.692C153.675 70.9813 153.096 71.126 152.433 71.126C151.752 71.126 151.131 70.958 150.571 70.622C150.021 70.286 149.587 69.8147 149.269 69.208C148.952 68.6013 148.793 67.9107 148.793 67.136ZM155.289 67.15C155.289 66.5713 155.173 66.0673 154.939 65.638C154.706 65.2087 154.389 64.882 153.987 64.658C153.595 64.4247 153.161 64.308 152.685 64.308C152.209 64.308 151.775 64.42 151.383 64.644C150.991 64.868 150.679 65.1947 150.445 65.624C150.212 66.0533 150.095 66.5573 150.095 67.136C150.095 67.724 150.212 68.2373 150.445 68.676C150.679 69.1053 150.991 69.4367 151.383 69.67C151.775 69.894 152.209 70.006 152.685 70.006C153.161 70.006 153.595 69.894 153.987 69.67C154.389 69.4367 154.706 69.1053 154.939 68.676C155.173 68.2373 155.289 67.7287 155.289 67.15ZM165.501 61.242C166.565 61.242 167.484 61.4427 168.259 61.844C169.043 62.236 169.64 62.8007 170.051 63.538C170.471 64.2753 170.681 65.1433 170.681 66.142C170.681 67.1407 170.471 68.0087 170.051 68.746C169.64 69.474 169.043 70.034 168.259 70.426C167.484 70.8087 166.565 71 165.501 71H162.463V61.242H165.501ZM165.501 69.95C166.761 69.95 167.722 69.6187 168.385 68.956C169.047 68.284 169.379 67.346 169.379 66.142C169.379 64.9287 169.043 63.9813 168.371 63.3C167.708 62.6187 166.751 62.278 165.501 62.278H163.737V69.95H165.501ZM173.635 64.574C173.859 64.1353 174.177 63.7947 174.587 63.552C175.007 63.3093 175.516 63.188 176.113 63.188V64.504H175.777C174.349 64.504 173.635 65.2787 173.635 66.828V71H172.361V63.328H173.635V64.574ZM180.93 71.126C180.211 71.126 179.558 70.9627 178.97 70.636C178.391 70.3093 177.934 69.8473 177.598 69.25C177.271 68.6433 177.108 67.9433 177.108 67.15C177.108 66.366 177.276 65.6753 177.612 65.078C177.957 64.4713 178.424 64.0093 179.012 63.692C179.6 63.3653 180.258 63.202 180.986 63.202C181.714 63.202 182.372 63.3653 182.96 63.692C183.548 64.0093 184.01 64.4667 184.346 65.064C184.691 65.6613 184.864 66.3567 184.864 67.15C184.864 67.9433 184.687 68.6433 184.332 69.25C183.987 69.8473 183.515 70.3093 182.918 70.636C182.321 70.9627 181.658 71.126 180.93 71.126ZM180.93 70.006C181.387 70.006 181.817 69.8987 182.218 69.684C182.619 69.4693 182.941 69.1473 183.184 68.718C183.436 68.2887 183.562 67.766 183.562 67.15C183.562 66.534 183.441 66.0113 183.198 65.582C182.955 65.1527 182.638 64.8353 182.246 64.63C181.854 64.4153 181.429 64.308 180.972 64.308C180.505 64.308 180.076 64.4153 179.684 64.63C179.301 64.8353 178.993 65.1527 178.76 65.582C178.527 66.0113 178.41 66.534 178.41 67.15C178.41 67.7753 178.522 68.3027 178.746 68.732C178.979 69.1613 179.287 69.4833 179.67 69.698C180.053 69.9033 180.473 70.006 180.93 70.006ZM187.813 64.742C188.065 64.3033 188.438 63.9393 188.933 63.65C189.437 63.3513 190.02 63.202 190.683 63.202C191.364 63.202 191.98 63.3653 192.531 63.692C193.091 64.0187 193.53 64.4807 193.847 65.078C194.164 65.666 194.323 66.352 194.323 67.136C194.323 67.9107 194.164 68.6013 193.847 69.208C193.53 69.8147 193.091 70.286 192.531 70.622C191.98 70.958 191.364 71.126 190.683 71.126C190.03 71.126 189.451 70.9813 188.947 70.692C188.452 70.3933 188.074 70.0247 187.813 69.586V74.64H186.539V63.328H187.813V64.742ZM193.021 67.136C193.021 66.5573 192.904 66.0533 192.671 65.624C192.438 65.1947 192.12 64.868 191.719 64.644C191.327 64.42 190.893 64.308 190.417 64.308C189.95 64.308 189.516 64.4247 189.115 64.658C188.723 64.882 188.406 65.2133 188.163 65.652C187.93 66.0813 187.813 66.5807 187.813 67.15C187.813 67.7287 187.93 68.2373 188.163 68.676C188.406 69.1053 188.723 69.4367 189.115 69.67C189.516 69.894 189.95 70.006 190.417 70.006C190.893 70.006 191.327 69.894 191.719 69.67C192.12 69.4367 192.438 69.1053 192.671 68.676C192.904 68.2373 193.021 67.724 193.021 67.136ZM203.078 71.126C202.36 71.126 201.706 70.9627 201.118 70.636C200.54 70.3093 200.082 69.8473 199.746 69.25C199.42 68.6433 199.256 67.9433 199.256 67.15C199.256 66.366 199.424 65.6753 199.76 65.078C200.106 64.4713 200.572 64.0093 201.16 63.692C201.748 63.3653 202.406 63.202 203.134 63.202C203.862 63.202 204.52 63.3653 205.108 63.692C205.696 64.0093 206.158 64.4667 206.494 65.064C206.84 65.6613 207.012 66.3567 207.012 67.15C207.012 67.9433 206.835 68.6433 206.48 69.25C206.135 69.8473 205.664 70.3093 205.066 70.636C204.469 70.9627 203.806 71.126 203.078 71.126ZM203.078 70.006C203.536 70.006 203.965 69.8987 204.366 69.684C204.768 69.4693 205.09 69.1473 205.332 68.718C205.584 68.2887 205.71 67.766 205.71 67.15C205.71 66.534 205.589 66.0113 205.346 65.582C205.104 65.1527 204.786 64.8353 204.394 64.63C204.002 64.4153 203.578 64.308 203.12 64.308C202.654 64.308 202.224 64.4153 201.832 64.63C201.45 64.8353 201.142 65.1527 200.908 65.582C200.675 66.0113 200.558 66.534 200.558 67.15C200.558 67.7753 200.67 68.3027 200.894 68.732C201.128 69.1613 201.436 69.4833 201.818 69.698C202.201 69.9033 202.621 70.006 203.078 70.006ZM209.961 64.574C210.185 64.1353 210.503 63.7947 210.913 63.552C211.333 63.3093 211.842 63.188 212.439 63.188V64.504H212.103C210.675 64.504 209.961 65.2787 209.961 66.828V71H208.687V63.328H209.961V64.574ZM273.173 64.378V68.9C273.173 69.2733 273.252 69.5393 273.411 69.698C273.57 69.8473 273.845 69.922 274.237 69.922H275.175V71H274.027C273.318 71 272.786 70.8367 272.431 70.51C272.076 70.1833 271.899 69.6467 271.899 68.9V64.378H270.905V63.328H271.899V61.396H273.173V63.328H275.175V64.378H273.173ZM280.065 71.126C279.346 71.126 278.693 70.9627 278.105 70.636C277.526 70.3093 277.069 69.8473 276.733 69.25C276.406 68.6433 276.243 67.9433 276.243 67.15C276.243 66.366 276.411 65.6753 276.747 65.078C277.092 64.4713 277.559 64.0093 278.147 63.692C278.735 63.3653 279.393 63.202 280.121 63.202C280.849 63.202 281.507 63.3653 282.095 63.692C282.683 64.0093 283.145 64.4667 283.481 65.064C283.826 65.6613 283.999 66.3567 283.999 67.15C283.999 67.9433 283.821 68.6433 283.467 69.25C283.121 69.8473 282.65 70.3093 282.053 70.636C281.455 70.9627 280.793 71.126 280.065 71.126ZM280.065 70.006C280.522 70.006 280.951 69.8987 281.353 69.684C281.754 69.4693 282.076 69.1473 282.319 68.718C282.571 68.2887 282.697 67.766 282.697 67.15C282.697 66.534 282.575 66.0113 282.333 65.582C282.09 65.1527 281.773 64.8353 281.381 64.63C280.989 64.4153 280.564 64.308 280.107 64.308C279.64 64.308 279.211 64.4153 278.819 64.63C278.436 64.8353 278.128 65.1527 277.895 65.582C277.661 66.0113 277.545 66.534 277.545 67.15C277.545 67.7753 277.657 68.3027 277.881 68.732C278.114 69.1613 278.422 69.4833 278.805 69.698C279.187 69.9033 279.607 70.006 280.065 70.006ZM296.21 63.328V71H294.936V69.866C294.693 70.258 294.353 70.566 293.914 70.79C293.485 71.0047 293.009 71.112 292.486 71.112C291.889 71.112 291.352 70.9907 290.876 70.748C290.4 70.496 290.022 70.1227 289.742 69.628C289.471 69.1333 289.336 68.5313 289.336 67.822V63.328H290.596V67.654C290.596 68.41 290.787 68.9933 291.17 69.404C291.553 69.8053 292.075 70.006 292.738 70.006C293.419 70.006 293.956 69.796 294.348 69.376C294.74 68.956 294.936 68.3447 294.936 67.542V63.328H296.21ZM299.635 64.742C299.887 64.3033 300.261 63.9393 300.755 63.65C301.259 63.3513 301.843 63.202 302.505 63.202C303.187 63.202 303.803 63.3653 304.353 63.692C304.913 64.0187 305.352 64.4807 305.669 65.078C305.987 65.666 306.145 66.352 306.145 67.136C306.145 67.9107 305.987 68.6013 305.669 69.208C305.352 69.8147 304.913 70.286 304.353 70.622C303.803 70.958 303.187 71.126 302.505 71.126C301.852 71.126 301.273 70.9813 300.769 70.692C300.275 70.3933 299.897 70.0247 299.635 69.586V74.64H298.361V63.328H299.635V64.742ZM304.843 67.136C304.843 66.5573 304.727 66.0533 304.493 65.624C304.26 65.1947 303.943 64.868 303.541 64.644C303.149 64.42 302.715 64.308 302.239 64.308C301.773 64.308 301.339 64.4247 300.937 64.658C300.545 64.882 300.228 65.2133 299.985 65.652C299.752 66.0813 299.635 66.5807 299.635 67.15C299.635 67.7287 299.752 68.2373 299.985 68.676C300.228 69.1053 300.545 69.4367 300.937 69.67C301.339 69.894 301.773 70.006 302.239 70.006C302.715 70.006 303.149 69.894 303.541 69.67C303.943 69.4367 304.26 69.1053 304.493 68.676C304.727 68.2373 304.843 67.724 304.843 67.136ZM309.096 60.64V71H307.822V60.64H309.096ZM314.613 71.126C313.895 71.126 313.241 70.9627 312.653 70.636C312.075 70.3093 311.617 69.8473 311.281 69.25C310.955 68.6433 310.791 67.9433 310.791 67.15C310.791 66.366 310.959 65.6753 311.295 65.078C311.641 64.4713 312.107 64.0093 312.695 63.692C313.283 63.3653 313.941 63.202 314.669 63.202C315.397 63.202 316.055 63.3653 316.643 63.692C317.231 64.0093 317.693 64.4667 318.029 65.064C318.375 65.6613 318.547 66.3567 318.547 67.15C318.547 67.9433 318.37 68.6433 318.015 69.25C317.67 69.8473 317.199 70.3093 316.601 70.636C316.004 70.9627 315.341 71.126 314.613 71.126ZM314.613 70.006C315.071 70.006 315.5 69.8987 315.901 69.684C316.303 69.4693 316.625 69.1473 316.867 68.718C317.119 68.2887 317.245 67.766 317.245 67.15C317.245 66.534 317.124 66.0113 316.881 65.582C316.639 65.1527 316.321 64.8353 315.929 64.63C315.537 64.4153 315.113 64.308 314.655 64.308C314.189 64.308 313.759 64.4153 313.367 64.63C312.985 64.8353 312.677 65.1527 312.443 65.582C312.21 66.0113 312.093 66.534 312.093 67.15C312.093 67.7753 312.205 68.3027 312.429 68.732C312.663 69.1613 312.971 69.4833 313.353 69.698C313.736 69.9033 314.156 70.006 314.613 70.006ZM319.747 67.136C319.747 66.352 319.905 65.666 320.223 65.078C320.54 64.4807 320.974 64.0187 321.525 63.692C322.085 63.3653 322.705 63.202 323.387 63.202C324.059 63.202 324.642 63.3467 325.137 63.636C325.631 63.9253 326 64.2893 326.243 64.728V63.328H327.531V71H326.243V69.572C325.991 70.02 325.613 70.3933 325.109 70.692C324.614 70.9813 324.035 71.126 323.373 71.126C322.691 71.126 322.075 70.958 321.525 70.622C320.974 70.286 320.54 69.8147 320.223 69.208C319.905 68.6013 319.747 67.9107 319.747 67.136ZM326.243 67.15C326.243 66.5713 326.126 66.0673 325.893 65.638C325.659 65.2087 325.342 64.882 324.941 64.658C324.549 64.4247 324.115 64.308 323.639 64.308C323.163 64.308 322.729 64.42 322.337 64.644C321.945 64.868 321.632 65.1947 321.399 65.624C321.165 66.0533 321.049 66.5573 321.049 67.136C321.049 67.724 321.165 68.2373 321.399 68.676C321.632 69.1053 321.945 69.4367 322.337 69.67C322.729 69.894 323.163 70.006 323.639 70.006C324.115 70.006 324.549 69.894 324.941 69.67C325.342 69.4367 325.659 69.1053 325.893 68.676C326.126 68.2373 326.243 67.7287 326.243 67.15ZM329.207 67.136C329.207 66.352 329.366 65.666 329.683 65.078C330.001 64.4807 330.435 64.0187 330.985 63.692C331.545 63.3653 332.171 63.202 332.861 63.202C333.459 63.202 334.014 63.342 334.527 63.622C335.041 63.8927 335.433 64.252 335.703 64.7V60.64H336.991V71H335.703V69.558C335.451 70.0153 335.078 70.3933 334.583 70.692C334.089 70.9813 333.51 71.126 332.847 71.126C332.166 71.126 331.545 70.958 330.985 70.622C330.435 70.286 330.001 69.8147 329.683 69.208C329.366 68.6013 329.207 67.9107 329.207 67.136ZM335.703 67.15C335.703 66.5713 335.587 66.0673 335.353 65.638C335.12 65.2087 334.803 64.882 334.401 64.658C334.009 64.4247 333.575 64.308 333.099 64.308C332.623 64.308 332.189 64.42 331.797 64.644C331.405 64.868 331.093 65.1947 330.859 65.624C330.626 66.0533 330.509 66.5573 330.509 67.136C330.509 67.724 330.626 68.2373 330.859 68.676C331.093 69.1053 331.405 69.4367 331.797 69.67C332.189 69.894 332.623 70.006 333.099 70.006C333.575 70.006 334.009 69.894 334.401 69.67C334.803 69.4367 335.12 69.1053 335.353 68.676C335.587 68.2373 335.703 67.7287 335.703 67.15Z" fill="#3F434A"/>
<path d="M222.528 65.974C222.883 66.03 223.205 66.1747 223.494 66.408C223.793 66.6413 224.026 66.9307 224.194 67.276C224.372 67.6213 224.46 67.99 224.46 68.382C224.46 68.8767 224.334 69.3247 224.082 69.726C223.83 70.118 223.462 70.4307 222.976 70.664C222.5 70.888 221.936 71 221.282 71H217.642V61.242H221.142C221.805 61.242 222.37 61.354 222.836 61.578C223.303 61.7927 223.653 62.0867 223.886 62.46C224.12 62.8333 224.236 63.2533 224.236 63.72C224.236 64.2987 224.078 64.7793 223.76 65.162C223.452 65.5353 223.042 65.806 222.528 65.974ZM218.916 65.456H221.058C221.656 65.456 222.118 65.316 222.444 65.036C222.771 64.756 222.934 64.3687 222.934 63.874C222.934 63.3793 222.771 62.992 222.444 62.712C222.118 62.432 221.646 62.292 221.03 62.292H218.916V65.456ZM221.17 69.95C221.805 69.95 222.3 69.8007 222.654 69.502C223.009 69.2033 223.186 68.788 223.186 68.256C223.186 67.7147 223 67.29 222.626 66.982C222.253 66.6647 221.754 66.506 221.128 66.506H218.916V69.95H221.17ZM227.502 64.574C227.726 64.1353 228.044 63.7947 228.454 63.552C228.874 63.3093 229.383 63.188 229.98 63.188V64.504H229.644C228.216 64.504 227.502 65.2787 227.502 66.828V71H226.228V63.328H227.502V64.574ZM234.797 71.126C234.078 71.126 233.425 70.9627 232.837 70.636C232.258 70.3093 231.801 69.8473 231.465 69.25C231.138 68.6433 230.975 67.9433 230.975 67.15C230.975 66.366 231.143 65.6753 231.479 65.078C231.824 64.4713 232.291 64.0093 232.879 63.692C233.467 63.3653 234.125 63.202 234.853 63.202C235.581 63.202 236.239 63.3653 236.827 63.692C237.415 64.0093 237.877 64.4667 238.213 65.064C238.558 65.6613 238.731 66.3567 238.731 67.15C238.731 67.9433 238.554 68.6433 238.199 69.25C237.854 69.8473 237.382 70.3093 236.785 70.636C236.188 70.9627 235.525 71.126 234.797 71.126ZM234.797 70.006C235.254 70.006 235.684 69.8987 236.085 69.684C236.486 69.4693 236.808 69.1473 237.051 68.718C237.303 68.2887 237.429 67.766 237.429 67.15C237.429 66.534 237.308 66.0113 237.065 65.582C236.822 65.1527 236.505 64.8353 236.113 64.63C235.721 64.4153 235.296 64.308 234.839 64.308C234.372 64.308 233.943 64.4153 233.551 64.63C233.168 64.8353 232.86 65.1527 232.627 65.582C232.394 66.0113 232.277 66.534 232.277 67.15C232.277 67.7753 232.389 68.3027 232.613 68.732C232.846 69.1613 233.154 69.4833 233.537 69.698C233.92 69.9033 234.34 70.006 234.797 70.006ZM250.626 63.328L248.232 71H246.916L245.068 64.91L243.22 71H241.904L239.496 63.328H240.798L242.562 69.768L244.466 63.328H245.768L247.63 69.782L249.366 63.328H250.626ZM254.607 71.126C254.019 71.126 253.491 71.028 253.025 70.832C252.558 70.6267 252.189 70.3467 251.919 69.992C251.648 69.628 251.499 69.2127 251.471 68.746H252.787C252.824 69.1287 253.001 69.4413 253.319 69.684C253.645 69.9267 254.07 70.048 254.593 70.048C255.078 70.048 255.461 69.9407 255.741 69.726C256.021 69.5113 256.161 69.2407 256.161 68.914C256.161 68.578 256.011 68.3307 255.713 68.172C255.414 68.004 254.952 67.8407 254.327 67.682C253.757 67.5327 253.291 67.3833 252.927 67.234C252.572 67.0753 252.264 66.8467 252.003 66.548C251.751 66.24 251.625 65.8387 251.625 65.344C251.625 64.952 251.741 64.5927 251.975 64.266C252.208 63.9393 252.539 63.6827 252.969 63.496C253.398 63.3 253.888 63.202 254.439 63.202C255.288 63.202 255.974 63.4167 256.497 63.846C257.019 64.2753 257.299 64.8633 257.337 65.61H256.063C256.035 65.2087 255.871 64.8867 255.573 64.644C255.283 64.4013 254.891 64.28 254.397 64.28C253.939 64.28 253.575 64.378 253.305 64.574C253.034 64.77 252.899 65.0267 252.899 65.344C252.899 65.596 252.978 65.806 253.137 65.974C253.305 66.1327 253.51 66.2633 253.753 66.366C254.005 66.4593 254.35 66.5667 254.789 66.688C255.339 66.8373 255.787 66.9867 256.133 67.136C256.478 67.276 256.772 67.4907 257.015 67.78C257.267 68.0693 257.397 68.4473 257.407 68.914C257.407 69.334 257.29 69.712 257.057 70.048C256.823 70.384 256.492 70.65 256.063 70.846C255.643 71.0327 255.157 71.126 254.607 71.126ZM266.205 66.87C266.205 67.1127 266.191 67.3693 266.163 67.64H260.031C260.078 68.396 260.334 68.9887 260.801 69.418C261.277 69.838 261.851 70.048 262.523 70.048C263.074 70.048 263.531 69.922 263.895 69.67C264.268 69.4087 264.53 69.0633 264.679 68.634H266.051C265.846 69.3713 265.435 69.9733 264.819 70.44C264.203 70.8973 263.438 71.126 262.523 71.126C261.795 71.126 261.142 70.9627 260.563 70.636C259.994 70.3093 259.546 69.8473 259.219 69.25C258.892 68.6433 258.729 67.9433 258.729 67.15C258.729 66.3567 258.888 65.6613 259.205 65.064C259.522 64.4667 259.966 64.0093 260.535 63.692C261.114 63.3653 261.776 63.202 262.523 63.202C263.251 63.202 263.895 63.3607 264.455 63.678C265.015 63.9953 265.444 64.434 265.743 64.994C266.051 65.5447 266.205 66.17 266.205 66.87ZM264.889 66.604C264.889 66.1187 264.782 65.7033 264.567 65.358C264.352 65.0033 264.058 64.7373 263.685 64.56C263.321 64.3733 262.915 64.28 262.467 64.28C261.823 64.28 261.272 64.4853 260.815 64.896C260.367 65.3067 260.11 65.876 260.045 66.604H264.889Z" fill="#304FFD"/>
<path d="M216.564 72.4H266.807V73.1H216.564V72.4Z" fill="#304FFD"/>
<g opacity="0.7">
<path fill-rule="evenodd" clip-rule="evenodd" d="M210.817 30.0906C211.902 28.1439 214.075 27.2459 216.095 27.4538C218.082 27.6583 219.721 28.8944 219.995 31.0912C220.066 31.6541 220.544 32.0766 221.112 32.0766C223.174 32.0768 224.474 33.6633 224.713 35.7338C224.948 37.7698 224.081 39.7189 222.326 40.399L219.702 40.3991L219.151 40.3993L219.033 40.3993L219.005 40.3993L218.999 40.3993H218.997H218.997H218.997H218.997C218.375 40.3996 217.872 40.9035 217.872 41.5248C217.873 42.1462 218.376 42.6496 218.998 42.6493H218.998H218.998H218.998H219L219.006 42.6493L219.033 42.6493L219.152 42.6493L219.702 42.6491L222.521 42.649C222.642 42.649 222.762 42.6295 222.877 42.5912C226.079 41.524 227.267 38.2428 226.948 35.4759C226.655 32.9381 225.029 30.349 222.053 29.8962C221.303 27.0385 218.874 25.4779 216.326 25.2157C213.857 24.9615 211.12 25.8971 209.429 28.1136C208.077 27.7018 206.749 28.1773 205.884 29.085C205.044 29.9661 204.598 31.2932 204.925 32.6198C203.382 33.8452 202.855 35.8389 203.033 37.6076C203.24 39.6669 204.442 41.8522 206.659 42.5912C206.774 42.6295 206.894 42.649 207.015 42.649L209.834 42.6491L210.385 42.6493L210.503 42.6493L210.53 42.6493L210.537 42.6493H210.538H210.539H210.539H210.539C211.16 42.6496 211.664 42.1462 211.664 41.5248C211.665 40.9035 211.161 40.3996 210.54 40.3993H210.54H210.54H210.539H210.538L210.531 40.3993L210.504 40.3993L210.386 40.3993L209.835 40.3991L207.216 40.399C206.173 39.9682 205.414 38.7925 205.272 37.3823C205.124 35.9177 205.681 34.6303 206.805 34.0804C207.085 33.9434 207.296 33.6962 207.387 33.398C207.478 33.0997 207.441 32.777 207.285 32.507C206.902 31.8452 207.06 31.1118 207.512 30.6378C207.934 30.1953 208.547 30.0361 209.21 30.479C209.472 30.6532 209.794 30.7104 210.099 30.6366C210.404 30.5629 210.665 30.3649 210.817 30.0906ZM215.564 32.9757L214.768 32.1802L213.973 32.9757L210.449 36.4998C210.009 36.9391 210.009 37.6514 210.449 38.0908C210.888 38.5301 211.6 38.5301 212.04 38.0908L213.643 36.4872V43.6387C213.643 44.26 214.147 44.7637 214.768 44.7637C215.39 44.7637 215.893 44.26 215.893 43.6387V36.4872L217.497 38.0908C217.936 38.5301 218.649 38.5301 219.088 38.0908C219.527 37.6514 219.527 36.9391 219.088 36.4998L215.564 32.9757Z" fill="#8A9099"/>
</g>
</svg>
