<svg width="74" height="74" viewBox="0 0 74 74" fill="none" xmlns="http://www.w3.org/2000/svg">
<mask id="mask0_1123_0" style="mask-type:alpha" maskUnits="userSpaceOnUse" x="0" y="0" width="74" height="74">
<rect width="74" height="74" rx="14" fill="#C4C4C4"/>
</mask>
<g mask="url(#mask0_1123_0)">
<rect width="74" height="74" fill="#F8F8F8"/>
</g>
<rect x="0.5" y="0.5" width="73" height="73" rx="13.5" stroke="#E8E9EB"/>
<circle opacity="0.6" cx="37" cy="37" r="17" stroke="#C6C9CC" stroke-width="3"/>
<path d="M26.1818 50.4555C28.3545 52.1073 30.8958 53.2253 33.595 53.7167C36.2943 54.2081 39.0736 54.0587 41.7025 53.281C44.3313 52.5033 46.734 51.1196 48.7112 49.2448C50.6883 47.37 52.183 45.058 53.0712 42.5007C53.9594 39.9434 54.2155 37.2144 53.8183 34.5402C53.4211 31.8659 52.3821 29.3234 50.7873 27.1236C49.1926 24.9238 47.0881 23.13 44.6485 21.8912C42.2089 20.6523 39.5045 20.004 36.7595 20" stroke="#304FFD" stroke-width="3" stroke-linecap="round"/>
</svg>
