<svg width="64" height="64" viewBox="0 0 64 64" fill="none" xmlns="http://www.w3.org/2000/svg">
<path fill-rule="evenodd" clip-rule="evenodd" d="M0.341422 17.8853C0.775529 8.32451 8.32451 0.77553 17.8853 0.341422C22.2302 0.144139 27.0861 0 32 0C36.9139 0 41.7698 0.144139 46.1147 0.341422C55.6755 0.77553 63.2245 8.32451 63.6586 17.8853C63.8559 22.2302 64 27.0861 64 32C64 36.9139 63.8559 41.7698 63.6586 46.1147C63.2245 55.6755 55.6755 63.2245 46.1147 63.6586C41.7698 63.8559 36.9139 64 32 64C27.0861 64 22.2302 63.8559 17.8853 63.6586C8.32451 63.2245 0.77553 55.6755 0.341422 46.1147C0.144139 41.7698 0 36.9139 0 32C0 27.0861 0.144139 22.2302 0.341422 17.8853Z" fill="#9868F8"/>
<path d="M49.68 33.5572V31.0542C49.68 30.3876 49.8352 29.7301 50.1333 29.1338C50.7274 27.6488 50.9209 26.0338 50.6948 24.4504L50.5867 23.6938H29.28L12.96 49.9872L28.3733 54.9738L38.3467 41.8272H47.8667H50.1096C50.4233 41.8272 50.7328 41.7541 51.0133 41.6138C51.3279 41.4566 51.5959 41.2199 51.791 40.9273L51.9752 40.651C52.2522 40.2355 52.4 39.7474 52.4 39.2481C52.4 38.5773 52.1335 37.9341 51.6592 37.4598L51.04 36.8405C50.1692 35.9697 49.68 34.7887 49.68 33.5572Z" fill="#FFDDCC"/>
<path fill-rule="evenodd" clip-rule="evenodd" d="M34.5684 63.987C33.7156 63.9954 32.8586 63.9998 31.9998 63.9998C27.0859 63.9998 22.23 63.8556 17.8851 63.6583C13.1618 63.4439 8.92947 61.4929 5.80349 58.4208C7.48875 54.9057 9.51124 51.5686 12.1408 48.3881C12.6241 47.8036 13.4295 47.6054 14.1383 47.8754L29.9915 53.9148C31.2621 54.3988 32.2547 55.426 32.6573 56.7247C33.4138 59.1655 34.0509 61.5645 34.5684 63.987Z" fill="#FFD240"/>
<path d="M48.3178 41.3739C46.0487 40.0137 38.8001 40.467 38.3468 40.0138C35.6269 37.2946 39.4788 27.0953 41.5178 23.6939C58.7468 29.1339 58.7464 14.174 42.8778 15.0807C25.4743 7.94091 12.0242 19.6892 20.2556 39.0836C20.4997 39.6588 21.0383 40.0639 21.6586 40.1393C23.5645 40.3709 27.5751 40.8118 27.9178 40.4672C28.3687 40.0137 29.7336 36.8407 28.8245 36.3872C18.9519 31.4626 33.0754 21.694 34.5886 31.015C34.7728 32.1494 34.5154 33.3176 33.9913 34.3404C32.0031 38.2201 28.9187 41.7777 30.1845 46.8139C30.6402 48.6273 37.9842 52.1633 41.9736 51.8007C45.9629 51.438 50.5869 42.734 48.3178 41.3739Z" fill="#4E1E30"/>
<path d="M45.1478 33.214C45.1478 33.9651 45.7567 34.574 46.5078 34.574C47.2589 34.574 47.8678 33.9651 47.8678 33.214C47.8678 32.4629 47.2589 31.854 46.5078 31.854C45.7567 31.854 45.1478 32.4629 45.1478 33.214Z" fill="#4A1827"/>
<path d="M49.6807 29.134C49.6807 28.6332 49.2747 28.2273 48.774 28.2273H44.2407C43.7399 28.2273 43.334 28.6332 43.334 29.134C43.334 29.6347 43.7399 30.0406 44.2407 30.0406H48.774C49.2747 30.0406 49.6807 29.6347 49.6807 29.134Z" fill="#5B2C3E"/>
</svg>
