<svg width="64" height="64" viewBox="0 0 64 64" fill="none" xmlns="http://www.w3.org/2000/svg">
<path fill-rule="evenodd" clip-rule="evenodd" d="M0.341422 17.8853C0.775529 8.32451 8.32451 0.77553 17.8853 0.341422C22.2302 0.144139 27.0861 0 32 0C36.9139 0 41.7698 0.144139 46.1147 0.341422C55.6755 0.77553 63.2245 8.32451 63.6586 17.8853C63.8559 22.2302 64 27.0861 64 32C64 36.9139 63.8559 41.7698 63.6586 46.1147C63.2245 55.6755 55.6755 63.2245 46.1147 63.6586C41.7698 63.8559 36.9139 64 32 64C27.0861 64 22.2302 63.8559 17.8853 63.6586C8.32451 63.2245 0.77553 55.6755 0.341422 46.1147C0.144139 41.7698 0 36.9139 0 32C0 27.0861 0.144139 22.2302 0.341422 17.8853Z" fill="#304FFD"/>
<path d="M40.4808 12.3223L33.8847 48.1302L38.5963 49.0725C48.569 41.7696 52.8485 12.3223 40.4808 12.3223Z" fill="#4E1E30"/>
<path d="M40.4813 12.3221C38.8322 11.3208 30.1288 8.77799 23.5196 12.3221C15.3923 16.6803 8.28561 32.2677 19.7504 48.1301C19.7668 48.1525 28.2313 47.1878 28.2313 47.1878L40.4813 12.3221Z" fill="#4E1E30"/>
<path fill-rule="evenodd" clip-rule="evenodd" d="M40.4809 63.8698C37.7343 63.9503 34.877 63.9998 31.9997 63.9998C29.1227 63.9998 26.2656 63.9503 23.5193 63.8698L23.5193 49.6443C25.3949 48.2281 25.4039 45.8867 25.4039 43.7327V41.5339H38.5962V43.735H38.6475C38.6475 45.8705 38.6532 48.1915 40.4809 49.6114V63.8698Z" fill="#FFD7A3"/>
<path fill-rule="evenodd" clip-rule="evenodd" d="M39.5386 63.896C37.0831 63.9609 34.5487 63.9998 31.9987 63.9998C30.0972 63.9998 28.2043 63.9782 26.3464 63.9403V60.5874C28.0619 61.0539 29.9739 61.3226 32.0002 61.3226C34.8054 61.3226 37.4009 60.8186 39.5386 59.9656V63.896Z" fill="#0090FF"/>
<path d="M39.5385 53.7839C39.8824 53.8777 40.192 53.9277 40.4808 53.9521V49.6113C38.6533 48.1915 38.6474 45.8703 38.6474 43.7347L38.6461 43.68V41.479L28.2308 41.5337L25.4039 42.476C27.2885 44.5964 33.0602 52.0171 39.5385 53.7839Z" fill="#FDC88E"/>
<path d="M45.193 29.2838C45.193 36.8299 37.6881 46.2455 32.0007 46.2455C26.3133 46.2455 18.8085 36.8299 18.8085 29.2838C18.8085 21.7376 24.7149 18.9182 32.0007 18.9182C39.2865 18.9182 45.193 21.7376 45.193 29.2838Z" fill="#FFE1B2"/>
<path d="M33.8847 14.2068C33.3552 14.2068 31.6363 14.8016 30.2313 15.3229L30.1155 15.1491C30.1155 15.1491 29.9216 15.3014 29.5859 15.5655C28.8045 15.8622 28.2309 16.0913 28.2309 16.0913L28.4513 16.4588C24.8747 19.2767 16.7145 25.723 15.9808 26.4569C15.0385 27.3991 21.6347 51.4405 21.6347 37.7647C21.6347 26.3392 27.9823 24.0764 33.8847 22.6876C36.5545 22.0594 37.3398 20.4889 37.6539 18.9184C37.968 17.3479 34.8271 14.2068 33.8847 14.2068Z" fill="#4E1E30"/>
<path d="M36.7117 19.8607C38.4393 26.0642 41.8945 28.8716 45.1337 29.6961C46.9087 30.1479 46.1349 24.5723 46.1349 24.5723C46.1349 24.5723 43.622 18.1331 43.308 17.9762C42.994 17.8191 40.4811 12.3223 40.4811 12.3223L34.8272 17.0339L36.7117 19.8607Z" fill="#4E1E30"/>
<path fill-rule="evenodd" clip-rule="evenodd" d="M28.1062 63.9707C24.5432 63.9192 21.0763 63.803 17.8851 63.6581C14.0089 63.4821 10.4634 62.1366 7.58864 59.9617C8.25503 54.88 12.6022 50.957 17.8656 50.957H18.1796C21.8722 50.957 23.6715 49.949 24.5541 48.5151L28.1062 63.9707Z" fill="#FF965D"/>
<path fill-rule="evenodd" clip-rule="evenodd" d="M56.4116 59.961C53.5367 62.1363 49.9908 63.4821 46.1142 63.6581C42.9233 63.803 39.4568 63.9192 35.8942 63.9707L39.4463 48.5151C40.3288 49.949 42.1281 50.957 45.8207 50.957H46.1348C51.3979 50.957 55.7449 54.8797 56.4116 59.961Z" fill="#FF965D"/>
<path d="M43.7888 29.3698C45.3306 29.0164 46.3407 29.7715 46.3407 31.2545C46.3407 33.2177 44.2673 38.0274 42.0875 35.0237C39.9077 32.0201 43.7888 29.3698 43.7888 29.3698Z" fill="#FFE1B2"/>
</svg>
