<svg width="64" height="64" viewBox="0 0 64 64" fill="none" xmlns="http://www.w3.org/2000/svg">
<path fill-rule="evenodd" clip-rule="evenodd" d="M0.341422 17.8853C0.775529 8.32451 8.32451 0.77553 17.8853 0.341422C22.2302 0.144139 27.0861 0 32 0C36.9139 0 41.7698 0.144139 46.1147 0.341422C55.6755 0.77553 63.2245 8.32451 63.6586 17.8853C63.8559 22.2302 64 27.0861 64 32C64 36.9139 63.8559 41.7698 63.6586 46.1147C63.2245 55.6755 55.6755 63.2245 46.1147 63.6586C41.7698 63.8559 36.9139 64 32 64C27.0861 64 22.2302 63.8559 17.8853 63.6586C8.32451 63.2245 0.77553 55.6755 0.341422 46.1147C0.144139 41.7698 0 36.9139 0 32C0 27.0861 0.144139 22.2302 0.341422 17.8853Z" fill="#FF965D"/>
<path d="M20.6478 44.1122C17.8126 36.9593 11.857 30.4859 19.3512 17.4464C22.4377 12.0761 27.1523 8.53435 32.0227 9.7335C36.8931 8.53449 41.6077 12.0763 44.6942 17.4464C52.1882 30.4859 46.233 36.9593 43.3974 44.1122L32.0231 44.1404L20.6482 44.1122H20.6478Z" fill="#1F0951"/>
<path fill-rule="evenodd" clip-rule="evenodd" d="M52.7801 62.1006C50.7343 63.0057 48.487 63.5509 46.1159 63.6586C41.7709 63.8559 36.915 64 32.0011 64C27.0873 64 22.2313 63.8559 17.8864 63.6586C15.5153 63.5509 13.268 63.0057 11.2222 62.1007C11.4578 61.0936 11.6815 60.0823 11.8862 59.1571C12.3223 57.1855 12.6718 55.6056 12.8648 55.294C15.2911 51.3765 18.303 49.9834 20.9507 48.7587C24.2592 47.2283 26.9991 45.961 27.3172 40.3599C27.3172 40.3599 29.8375 42.2906 31.9058 42.2721C33.9739 42.2537 36.6824 40.2324 36.6824 40.2324C37.0019 45.8485 39.7506 47.1472 43.0673 48.7141C45.7108 49.963 48.715 51.3824 51.1375 55.294C51.3304 55.6052 51.6795 57.1836 52.1153 59.1536C52.3202 60.0797 52.5442 61.0924 52.7801 62.1006Z" fill="#FFD7A3"/>
<path d="M36.829 41.6581C36.7611 41.2157 36.7112 40.7426 36.6824 40.2329C36.6824 40.2329 33.9738 42.2541 31.9057 42.2726C29.8375 42.2911 27.3171 40.3604 27.3171 40.3604C27.2879 40.8794 27.2366 41.3595 27.1666 41.8078C27.2196 41.8496 27.2722 41.8921 27.3261 41.9335L27.3255 41.9408C27.4847 42.0795 29.9057 44.1613 31.9053 44.1403C33.9049 44.1612 36.3257 42.0791 36.4852 41.9408L36.4848 41.9335C36.6022 41.8436 36.7161 41.7511 36.8286 41.6584L36.829 41.6581Z" fill="#F0C290"/>
<path d="M27.3259 40.3667C27.4851 40.4869 29.9061 42.2903 31.9057 42.2723C33.9053 42.2903 36.326 40.4866 36.4855 40.3667C39.5079 38.6047 41.9879 33.4097 41.4281 27.7795C40.9696 23.1675 35.9805 29.9299 32.5056 20.4141C27.5875 30.7164 22.9163 24.6223 22.3838 28.5266C21.7968 32.8285 24.2119 38.2413 27.3259 40.367V40.3667Z" fill="#FFE1B2"/>
<path fill-rule="evenodd" clip-rule="evenodd" d="M52.8875 62.052C50.813 62.9858 48.5283 63.5485 46.1154 63.6581C41.7705 63.8554 36.9146 63.9995 32.0007 63.9995C27.0868 63.9995 22.2309 63.8554 17.8859 63.6581C15.4699 63.5484 13.1823 62.9843 11.1056 62.0483C11.4318 60.3646 11.7382 58.529 12.0065 56.9218C12.3861 54.6473 12.6894 52.8303 12.8644 52.549C14.2206 50.3686 17.0222 49.595 19.6307 48.8747C21.0066 48.4947 22.3288 48.1296 23.3567 47.5806L23.3576 47.5818C28.8767 65.2868 35.7812 64.1411 40.4137 47.3345C41.4162 47.8728 42.8023 48.2464 44.2529 48.6374C47.1133 49.4084 50.224 50.2468 51.1367 52.549C51.2421 52.8146 51.481 54.2027 51.7961 56.0341C52.1046 57.8275 52.4863 60.0459 52.8875 62.052ZM23.3571 47.5804C23.357 47.5805 23.3569 47.5806 23.3567 47.5806L23.3566 47.5804H23.3571ZM23.3571 47.5804C23.3572 47.5804 23.3573 47.5804 23.3574 47.5803V47.5804H23.3571Z" fill="#304FFD"/>
<path d="M25.3424 45.9102C25.149 51.139 26.0381 58.5468 31.9051 60.4399C26.3815 60.6708 22.7972 52.7122 18.7141 50.6277L25.3423 45.9106V45.9102H25.3424Z" fill="white"/>
<path d="M38.7967 45.9102C38.9995 51.139 38.0663 58.5468 31.9052 60.4399C37.7054 60.6708 41.4694 52.7122 45.7563 50.6277L38.7965 45.9106L38.7967 45.9102Z" fill="white"/>
</svg>
