<svg width="64" height="64" viewBox="0 0 64 64" fill="none" xmlns="http://www.w3.org/2000/svg">
<path fill-rule="evenodd" clip-rule="evenodd" d="M0.341422 17.8853C0.775529 8.32451 8.32451 0.77553 17.8853 0.341422C22.2302 0.144139 27.0861 0 32 0C36.9139 0 41.7698 0.144139 46.1147 0.341422C55.6755 0.77553 63.2245 8.32451 63.6586 17.8853C63.8559 22.2302 64 27.0861 64 32C64 36.9139 63.8559 41.7698 63.6586 46.1147C63.2245 55.6755 55.6755 63.2245 46.1147 63.6586C41.7698 63.8559 36.9139 64 32 64C27.0861 64 22.2302 63.8559 17.8853 63.6586C8.32451 63.2245 0.77553 55.6755 0.341422 46.1147C0.144139 41.7698 0 36.9139 0 32C0 27.0861 0.144139 22.2302 0.341422 17.8853Z" fill="#EFEFF2"/>
<path d="M32.1564 53.083C32.1045 53.083 32.0525 53.135 32.0005 53.135C31.9486 53.135 31.8966 53.083 31.8446 53.083H32.1564Z" fill="#84DBFF"/>
<path fill-rule="evenodd" clip-rule="evenodd" d="M57.2445 59.2936C54.2349 61.8601 50.3747 63.4657 46.1153 63.6591C41.7704 63.8564 36.9144 64.0005 32.0006 64.0005C27.0867 64.0005 22.2308 63.8564 17.8858 63.6591C13.6273 63.4657 9.76781 61.8607 6.75848 59.2951C11.0727 53.855 17.4488 51.12 22.6976 49.7573C22.2818 53.1872 24.0488 57.7605 24.1007 57.6565C25.9196 53.4991 32 53.1353 32 53.1353C32 53.1353 38.0803 53.4991 39.8472 57.6565C39.8992 57.7605 41.7181 53.1872 41.2504 49.7573C46.5491 51.1199 52.9749 53.8545 57.2445 59.2936Z" fill="#22CCE2"/>
<path d="M39.4316 46.5353C39.4316 46.5353 39.4316 46.5353 39.4316 46.5873C39.4316 47.107 39.1717 50.433 32.156 53.0833H31.8441C24.8284 50.433 24.5685 47.107 24.5685 46.5873C24.5685 46.5353 24.5685 46.5353 24.5685 46.5353C24.5685 45.8597 24.7244 45.1841 24.8804 44.5085C26.9071 47.055 29.3497 48.77 32.0001 48.77C34.6504 48.77 37.093 47.055 39.1197 44.5085C39.2757 45.1841 39.4316 45.8597 39.4316 46.5353Z" fill="#FFD7A3"/>
<path d="M39.4314 46.4885C39.4314 46.4885 39.7952 50.2303 31.9999 53.1405C31.9999 53.1405 38.0802 53.5043 39.8472 57.6618C39.9511 57.7657 43.433 48.7232 39.4314 46.4885Z" fill="#148A99"/>
<path d="M24.5684 46.5354C20.5668 48.77 24.0487 57.8126 24.1527 57.6567C25.9716 53.4992 31.9999 53.1354 31.9999 53.1354C24.2046 50.2771 24.5684 46.5354 24.5684 46.5354Z" fill="#148A99"/>
<path d="M42.9132 33.3872C42.4455 36.6093 41.0424 39.6234 38.7038 41.9101C38.2361 42.3778 37.8203 42.7415 37.3006 43.1053L36.4691 40.4549H27.5306L26.6991 43.1053C25.0361 41.8581 21.5542 38.3762 21.5022 35.1022C20.0471 16.4455 34.3384 20.3951 34.3384 20.3951C43.9526 19.7195 43.6408 28.1904 42.9132 33.3872Z" fill="#FFE1B2"/>
<path d="M44.836 36.7651C44.1085 37.9604 43.1211 38.7919 42.1856 39.1037C42.5494 38.2722 42.8612 37.3887 43.1211 36.5053C43.1211 36.5053 43.1211 36.5053 43.1211 36.4533C43.3289 35.6738 43.5368 34.8942 43.7447 34.1147H43.6927C43.9006 33.3352 44.1085 32.5557 44.2644 31.7761C44.4722 31.7761 44.6801 31.8801 44.888 31.984C46.0313 32.7116 45.9793 34.8423 44.836 36.7651Z" fill="#FFE1B2"/>
<path d="M21.814 39.1038C20.8786 38.792 19.8912 37.9605 19.1636 36.7652C17.9684 34.8424 17.9684 32.7117 19.1117 32.0361C19.2156 31.9841 19.2676 31.9321 19.3715 31.9321C19.9951 34.3747 20.7227 36.1935 20.8786 36.5573C21.1384 37.3888 21.4503 38.2723 21.814 39.1038Z" fill="#FFE1B2"/>
<path d="M37.6646 15.1983C38.0804 10.4172 30.493 10.729 30.493 10.729C19.0079 12.392 17.7607 23.0975 17.7607 23.0975L19.3197 21.2266C16.8772 26.5794 20.567 35.7778 20.8788 36.5054C22.8016 42.8975 27.063 48.77 32 48.77C36.937 48.77 41.1985 42.8975 43.1213 36.5054C43.1213 36.5054 43.1213 36.5054 43.1213 36.4534C43.3292 35.6739 43.537 34.8944 43.6929 34.1148H43.641C44.6803 29.9574 45.8237 25.7479 45.8237 25.7479C48.7859 10.8329 37.6646 15.1983 37.6646 15.1983ZM42.9134 33.3873C42.4457 36.6093 41.0426 39.6235 38.704 41.9101C38.2363 42.3778 37.7685 42.7416 37.3008 43.1054L36.4693 40.507H27.5308L26.6993 43.1574C25.0363 41.9101 23.6331 40.1952 22.4898 38.2203C21.9701 37.181 21.6583 36.0896 21.5024 35.1542C20.0473 16.4975 34.3386 20.4471 34.3386 20.4471C43.9528 19.7196 43.641 28.1904 42.9134 33.3873Z" fill="#324A5E"/>
<path d="M37.6646 15.1983C38.0804 10.4172 30.493 10.729 30.493 10.729C19.0079 12.392 17.7607 23.0975 17.7607 23.0975L19.3197 21.2266C16.8772 26.5794 20.567 35.7778 20.8788 36.5054C22.8016 42.8975 27.063 48.77 32 48.77C36.937 48.77 41.1985 42.8975 43.1213 36.5054C43.1213 36.5054 43.1213 36.5054 43.1213 36.4534C43.3292 35.6739 43.537 34.8944 43.6929 34.1148H43.641C44.6803 29.9574 45.8237 25.7479 45.8237 25.7479C48.7859 10.8329 37.6646 15.1983 37.6646 15.1983ZM42.9134 33.3873C42.4457 36.6093 41.0426 39.6235 38.704 41.9101C38.2363 42.3778 37.7685 42.7416 37.3008 43.1054L36.4693 40.507H27.5308L26.6993 43.1574C25.0363 41.9101 23.6331 40.1952 22.4898 38.2203C21.9701 37.181 21.6583 36.0896 21.5024 35.1542C20.0473 16.4975 34.3386 20.4471 34.3386 20.4471C43.9528 19.7196 43.641 28.1904 42.9134 33.3873Z" fill="#324A5E"/>
<path d="M37.6646 15.1983C38.0804 10.4172 30.493 10.729 30.493 10.729C19.0079 12.392 17.7607 23.0975 17.7607 23.0975L19.3197 21.2266C16.8772 26.5794 20.567 35.7778 20.8788 36.5054C22.8016 42.8975 27.063 48.77 32 48.77C36.937 48.77 41.1985 42.8975 43.1213 36.5054C43.1213 36.5054 43.1213 36.5054 43.1213 36.4534C43.3292 35.6739 43.537 34.8944 43.6929 34.1148H43.641C44.6803 29.9574 45.8237 25.7479 45.8237 25.7479C48.7859 10.8329 37.6646 15.1983 37.6646 15.1983ZM42.9134 33.3873C42.4457 36.6093 41.0426 39.6235 38.704 41.9101C38.2363 42.3778 37.7685 42.7416 37.3008 43.1054L36.4693 40.507H27.5308L26.6993 43.1574C25.0363 41.9101 21.5544 38.4282 21.5024 35.1542C20.0473 16.4975 34.3386 20.4471 34.3386 20.4471C43.9528 19.7196 43.641 28.1904 42.9134 33.3873Z" fill="#1F0951"/>
<path d="M28.362 42.2739C29.2455 43.2613 30.5447 43.9369 31.9998 43.9369C33.4549 43.9369 34.7542 43.3133 35.6376 42.2739H28.362Z" fill="white"/>
</svg>
