<svg width="64" height="64" viewBox="0 0 64 64" fill="none" xmlns="http://www.w3.org/2000/svg">
<path fill-rule="evenodd" clip-rule="evenodd" d="M0.341422 17.8853C0.775529 8.32451 8.32451 0.77553 17.8853 0.341422C22.2302 0.144139 27.0861 0 32 0C36.9139 0 41.7698 0.144139 46.1147 0.341422C55.6755 0.77553 63.2245 8.32451 63.6586 17.8853C63.8559 22.2302 64 27.0861 64 32C64 36.9139 63.8559 41.7698 63.6586 46.1147C63.2245 55.6755 55.6755 63.2245 46.1147 63.6586C41.7698 63.8559 36.9139 64 32 64C27.0861 64 22.2302 63.8559 17.8853 63.6586C8.32451 63.2245 0.77553 55.6755 0.341422 46.1147C0.144139 41.7698 0 36.9139 0 32C0 27.0861 0.144139 22.2302 0.341422 17.8853Z" fill="#FFD240"/>
<path d="M41.9292 53.0629V45.6772H22.9373V53.0629L32.4333 61.5039L41.9292 53.0629Z" fill="#FFE1B2"/>
<path fill-rule="evenodd" clip-rule="evenodd" d="M58.7891 57.8099C55.6159 61.2331 51.1433 63.4302 46.114 63.6586C41.769 63.8559 36.9131 64 31.9992 64C27.0853 64 22.2294 63.8559 17.8845 63.6586C13.105 63.4416 8.8283 61.4465 5.69186 58.3109C6.26956 57.431 7.17169 56.7726 8.25402 56.5179L21.3102 53.4459C21.6811 53.3585 22.0077 53.1744 22.2707 52.9268L32.4331 59.3937L43.0078 53.2251C43.1775 53.3206 43.3589 53.3994 43.5561 53.4458L56.6123 56.5178C57.4776 56.7214 58.2278 57.1831 58.7891 57.8099Z" fill="#8B63E7"/>
<path d="M22.9373 45.6774V53.4699C34.8996 57.7799 41.9292 46.9932 41.9292 46.9932V45.6772H22.9373V45.6774Z" fill="#F0C290"/>
<path d="M18.7168 21.4097L19.6362 41.6377C19.722 43.5273 20.6486 45.2798 22.1619 46.4147L26.5245 49.6868C27.6204 50.5085 28.9531 50.9529 30.323 50.9529H34.5435C35.9133 50.9529 37.246 50.5087 38.3419 49.6868L42.7045 46.4147C44.2178 45.2797 45.1444 43.5274 45.2302 41.6377L46.1496 21.4097C46.1495 21.4097 18.7168 21.4097 18.7168 21.4097Z" fill="#FFE1B2"/>
<path fill-rule="evenodd" clip-rule="evenodd" d="M34.5843 63.9871C33.7262 63.9955 32.8638 64 31.9996 64C31.4261 64 30.8534 63.998 30.2822 63.9943L30.4552 61.5039H34.4119L34.5843 63.9871Z" fill="#5B5D6E"/>
<path d="M35.0711 59.3936H29.7955V61.3793C29.7955 62.0309 30.3236 62.559 30.9752 62.559H33.8914C34.5429 62.559 35.071 62.0309 35.071 61.3793V59.3936H35.0711Z" fill="#515262"/>
<path d="M22.7892 50.714L32.4334 59.3938C32.4334 59.3938 29.7325 60.7573 26.3995 63.5054C25.7119 64.0722 24.6719 63.8426 24.3032 63.0314L19.7721 53.0632L21.2055 50.9132C21.5622 50.3777 22.3109 50.2837 22.7892 50.714Z" fill="white"/>
<path d="M42.0777 50.714L32.4335 59.3938C32.4335 59.3938 35.1344 60.7573 38.4674 63.5054C39.1549 64.0722 40.1949 63.8426 40.5637 63.0314L45.0947 53.0632L43.6613 50.9132C43.3045 50.3777 42.5558 50.2837 42.0777 50.714Z" fill="white"/>
<path d="M38.8298 14.4194L39.8189 21.4096C44.3342 22.3126 44.9849 29.3987 45.0786 31.4226C45.0956 31.7899 45.2129 32.1445 45.4121 32.4535L47.1349 35.126C47.1349 35.126 46.5453 30.7077 49.2451 27.7402C49.2452 27.7402 50.1723 10.1989 38.8298 14.4194Z" fill="#4E1E30"/>
<path d="M48.1933 34.6762L47.0022 39.4408C46.861 40.0056 46.3537 40.4016 45.7715 40.4016C45.1317 40.4016 44.5921 39.9253 44.5127 39.2905L43.9035 34.4172C43.7404 33.1127 44.7574 31.9607 46.072 31.9607H46.073C47.4949 31.9608 48.5382 33.2968 48.1933 34.6762Z" fill="#FFE1B2"/>
<path d="M19.7282 12.529L21.2887 13.5951C14.2327 18.8047 15.5515 27.7402 15.5515 27.7402C17.6617 29.8504 17.6617 35.1261 17.6617 35.1261L19.7719 33.0159C19.7719 33.0159 18.9575 26.92 22.9372 24.5749C26.6301 22.3988 29.8613 23.5198 33.1586 23.5198C41.9951 23.5198 44.4681 20.1896 44.0394 16.134C43.8176 14.0355 40.6091 9.66427 32.4333 9.80329C29.1338 9.85935 22.9374 10.8584 19.7282 12.529Z" fill="#66273F"/>
<path d="M19.1126 22.5966C19.1126 22.5966 17.9915 18.1783 21.2887 13.5952C14.2327 18.8049 15.5515 27.7404 15.5515 27.7404C17.6617 29.8506 17.6617 35.1262 17.6617 35.1262L19.7719 33.016C19.7719 33.016 18.9575 26.9202 22.9372 24.5751C26.6301 22.3989 29.8613 23.52 33.1586 23.52C34.5957 23.52 35.848 23.4238 36.9635 23.2588C30.1584 23.4869 26.1468 18.3321 19.1126 22.5966Z" fill="#4E1E30"/>
<path d="M16.6734 34.6762L17.8645 39.4408C18.0057 40.0056 18.513 40.4016 19.0952 40.4016C19.735 40.4016 20.2746 39.9253 20.354 39.2905L20.9632 34.4172C21.1263 33.1127 20.1093 31.9607 18.7947 31.9607H18.7937C17.3718 31.9608 16.3285 33.2968 16.6734 34.6762Z" fill="#FFE1B2"/>
</svg>
