<svg width="64" height="64" viewBox="0 0 64 64" fill="none" xmlns="http://www.w3.org/2000/svg">
<path fill-rule="evenodd" clip-rule="evenodd" d="M0.341422 17.8853C0.775529 8.32451 8.32451 0.77553 17.8853 0.341422C22.2302 0.144139 27.0861 0 32 0C36.9139 0 41.7698 0.144139 46.1147 0.341422C55.6755 0.77553 63.2245 8.32451 63.6586 17.8853C63.8559 22.2302 64 27.0861 64 32C64 36.9139 63.8559 41.7698 63.6586 46.1147C63.2245 55.6755 55.6755 63.2245 46.1147 63.6586C41.7698 63.8559 36.9139 64 32 64C27.0861 64 22.2302 63.8559 17.8853 63.6586C8.32451 63.2245 0.77553 55.6755 0.341422 46.1147C0.144139 41.7698 0 36.9139 0 32C0 27.0861 0.144139 22.2302 0.341422 17.8853Z" fill="#22CCE2"/>
<path d="M45.0485 23.2464V32.9922C45.0485 33.1331 45.0454 33.2739 45.042 33.4148C45.0389 33.5302 45.0357 33.6424 45.0292 33.758C45.0261 33.8606 45.0195 33.9631 45.0099 34.0657C45.0068 34.1392 45.0002 34.2131 44.994 34.2867C44.9905 34.3319 44.9874 34.373 44.9809 34.4182C44.9746 34.4983 44.9681 34.5816 44.9553 34.6617C44.9425 34.8153 44.9232 34.9662 44.9008 35.1199C44.8977 35.1585 44.8911 35.1969 44.8849 35.2352C44.8752 35.3122 44.8624 35.3892 44.8497 35.4659V35.4755C44.8306 35.5874 44.8113 35.6965 44.792 35.8087C44.763 35.9624 44.7343 36.1164 44.7022 36.2669C44.6991 36.2735 44.6991 36.28 44.696 36.2866C44.6929 36.3087 44.6894 36.3315 44.6832 36.3539C44.6801 36.3605 44.6801 36.3667 44.6767 36.3732C44.6608 36.4568 44.6414 36.5366 44.6221 36.6167C44.6159 36.6519 44.6093 36.6874 44.5965 36.7227C44.5869 36.7803 44.5707 36.8377 44.5582 36.8957C44.5485 36.9278 44.5423 36.963 44.5292 36.9948C44.5227 37.0238 44.5133 37.0527 44.5068 37.0783C44.4395 37.3411 44.3625 37.5976 44.2824 37.8538C44.2437 37.9757 44.2054 38.0942 44.1639 38.216C44.1608 38.2288 44.1542 38.2416 44.1511 38.2544C44.1128 38.3635 44.0741 38.4723 44.0358 38.5814C44.023 38.6135 44.0102 38.6453 43.9975 38.6805C43.9588 38.783 43.9205 38.8856 43.879 38.9881C43.831 39.1128 43.7796 39.2347 43.7285 39.3569C43.6836 39.466 43.6356 39.5744 43.5876 39.6835C43.5813 39.7032 43.5717 39.7188 43.5651 39.7381C43.5106 39.8534 43.4595 39.9688 43.4049 40.0813C43.3504 40.1997 43.2927 40.3185 43.2319 40.4372C43.1166 40.671 42.9916 40.9051 42.8666 41.1324L42.6936 41.44C42.1999 42.2894 41.6522 43.0871 41.0559 43.8242C40.9758 43.9299 40.8926 44.0325 40.8059 44.1316C40.6875 44.2759 40.5656 44.4168 40.4437 44.5546C40.3346 44.6764 40.2258 44.798 40.1136 44.9168C39.806 45.2469 39.4918 45.5608 39.1713 45.8559C39.1071 45.9198 39.0401 45.9778 38.9728 46.0386C38.8637 46.1377 38.7549 46.234 38.6427 46.3269C38.5564 46.4039 38.4666 46.4775 38.3765 46.5514C38.1458 46.7402 37.9152 46.9229 37.6811 47.0928C37.5851 47.1667 37.4857 47.2371 37.3862 47.3044C37.226 47.4198 37.0624 47.5289 36.899 47.6348C36.8093 47.6956 36.7164 47.7533 36.6235 47.8078C36.2965 48.0095 35.9664 48.1956 35.6394 48.3558C35.5593 48.3976 35.4792 48.4362 35.3991 48.4746C35.319 48.5129 35.2358 48.5516 35.1491 48.5899C35.0435 48.6379 34.9375 48.6828 34.8318 48.7246C34.79 48.7436 34.7486 48.7598 34.7068 48.7726C34.5818 48.824 34.4537 48.8717 34.3287 48.9135C34.1719 48.9714 34.0114 49.0194 33.8546 49.064C33.7455 49.0961 33.6336 49.1248 33.5245 49.1504C33.518 49.1538 33.5117 49.1569 33.5021 49.1569C33.393 49.1828 33.2842 49.2083 33.1751 49.2277C33.1464 49.2342 33.1174 49.2404 33.0888 49.2439C32.999 49.2598 32.9092 49.276 32.8195 49.2856C32.6913 49.305 32.5629 49.3209 32.4348 49.3271C32.3899 49.3336 32.3485 49.3368 32.3036 49.3368C32.201 49.343 32.0985 49.3464 31.9991 49.3464H31.9894C31.8903 49.3464 31.7908 49.343 31.6914 49.3368C31.6531 49.3368 31.6144 49.3336 31.5761 49.3271C31.4863 49.324 31.3934 49.3143 31.2971 49.3015C31.2781 49.3015 31.2556 49.2984 31.2363 49.295C31.1179 49.2791 30.9991 49.2598 30.8775 49.2373C30.775 49.2211 30.6724 49.1987 30.5665 49.1731C30.0185 49.0481 29.4546 48.8589 28.8842 48.6061C28.397 48.3913 27.9036 48.1317 27.4133 47.8306C27.1667 47.68 26.9198 47.5198 26.6761 47.3499C26.5542 47.2633 26.4326 47.1766 26.3108 47.0869C25.9292 46.8079 25.5512 46.5037 25.1796 46.1767C25.0771 46.0838 24.9745 45.9909 24.8719 45.8949C24.7694 45.802 24.6668 45.7057 24.5674 45.6128C24.3174 45.3725 24.074 45.1228 23.8368 44.8632C23.7439 44.7637 23.651 44.6615 23.5578 44.5555C23.3016 44.2672 23.0516 43.9692 22.8144 43.6581C22.7215 43.5462 22.6349 43.4309 22.5485 43.3152C22.2247 42.8857 21.9173 42.4372 21.6287 41.9721C21.5517 41.8474 21.4747 41.7193 21.4011 41.594C21.3114 41.4434 21.225 41.2895 21.1384 41.1358C20.8179 40.5588 20.5231 39.9597 20.2668 39.341C20.2282 39.2512 20.1898 39.1614 20.1577 39.072C20.1066 38.9566 20.0617 38.8379 20.02 38.7226C19.9558 38.5527 19.895 38.3828 19.8373 38.2129C19.7796 38.043 19.7251 37.8697 19.6706 37.697C19.6194 37.5303 19.5714 37.3638 19.5265 37.194C19.4751 37.0144 19.4271 36.8318 19.3853 36.646C19.3822 36.6267 19.3757 36.6073 19.3726 36.588C19.3118 36.3318 19.2572 36.0721 19.2092 35.8094C19.145 35.4634 19.0939 35.1108 19.0556 34.7549C19.0394 34.643 19.0297 34.5304 19.0203 34.4185C19.0076 34.2998 18.9979 34.1844 18.9913 34.066C18.9755 33.8512 18.9658 33.633 18.9592 33.4151C18.9561 33.2743 18.9527 33.1334 18.9527 32.9925V23.2464C18.9527 16.0451 24.7884 10.2062 31.9894 10.2H32.0025C32.9959 10.2 33.9637 10.3119 34.8929 10.5204C35.7423 10.7124 36.5596 10.9883 37.3348 11.3374C38.3924 11.8115 39.3761 12.4209 40.2608 13.1484C41.0045 13.7571 41.6806 14.4429 42.2703 15.1994C43.9881 17.3882 45.023 20.1381 45.0454 23.1311C45.0485 23.1694 45.0485 23.2077 45.0485 23.2464Z" fill="#FFE1B2"/>
<path fill-rule="evenodd" clip-rule="evenodd" d="M47.955 63.484C47.3505 63.5713 46.736 63.6298 46.113 63.6581C41.7681 63.8554 36.9122 63.9995 31.9983 63.9995C27.0844 63.9995 22.2285 63.8554 17.8836 63.6581C17.2624 63.6299 16.6497 63.5716 16.0469 63.4848C16.1127 63.3066 16.1818 63.1294 16.2543 62.9533V62.9499C16.3762 62.6454 16.5105 62.3474 16.6514 62.0528C17.2122 60.8702 17.911 59.7643 18.7218 58.7519C18.9269 58.4984 19.1351 58.2516 19.3498 58.0147C19.4497 57.8995 19.5554 57.7877 19.6614 57.6755L19.6799 57.6559C19.7918 57.5406 19.9044 57.4252 20.0194 57.3099C20.5932 56.7361 21.2082 56.2108 21.8559 55.7268C22.1795 55.4864 22.5065 55.262 22.8462 55.0444C23.186 54.8297 23.532 54.6243 23.8845 54.4322C23.891 54.426 23.8973 54.426 23.8973 54.426C24.0351 54.3521 24.1697 54.272 24.3044 54.1888C24.7049 53.9485 25.0895 53.6823 25.4549 53.3877C27.0028 52.1571 28.2013 50.5032 28.8839 48.6062C29.291 47.4715 29.512 46.2506 29.512 44.9751L31.9891 44.9879L34.537 45.001C34.537 46.2603 34.7517 47.4684 35.1492 48.5903C35.8221 50.4938 37.0175 52.154 38.5654 53.3908C38.7961 53.58 39.0302 53.753 39.2767 53.9167C39.3026 53.9357 39.3247 53.9516 39.3506 53.9678C39.4659 54.0448 39.5813 54.1215 39.7031 54.1922C39.8344 54.2723 39.969 54.3524 40.1037 54.4263C40.1261 54.4326 40.1454 54.4422 40.1613 54.455C40.4434 54.6121 40.7221 54.7754 40.9945 54.9453C41.1261 55.0254 41.2573 55.1086 41.3854 55.2015C41.6516 55.3714 41.9109 55.5575 42.1644 55.7498C42.1644 55.751 42.1648 55.7518 42.1654 55.7522C42.1663 55.7529 42.1675 55.7529 42.1675 55.7529H42.1706C42.4944 55.9933 42.8083 56.2498 43.116 56.5126C43.4236 56.7756 43.7185 57.0509 44.0037 57.3364C45.7343 59.0593 47.0939 61.1507 47.955 63.484Z" fill="#F0C290"/>
<path fill-rule="evenodd" clip-rule="evenodd" d="M47.9546 63.4839C47.3505 63.5711 46.7364 63.6296 46.1138 63.6578C41.7689 63.8551 36.913 63.9993 31.9991 63.9993C27.0852 63.9993 22.2293 63.8551 17.8844 63.6578C17.2625 63.6296 16.6492 63.5713 16.0457 63.4842C16.1117 63.3058 16.1809 63.1283 16.2531 62.9519V62.9485C16.375 62.644 16.5096 62.346 16.6505 62.0511C17.2113 60.8688 17.9098 59.7629 18.7208 58.7501C18.9259 58.497 19.1345 58.2502 19.3489 58.0133C19.4546 57.8914 19.5668 57.773 19.679 57.6545L19.679 57.6545L19.679 57.6545C19.7912 57.5392 19.9035 57.4238 20.0188 57.3085C20.5923 56.7347 21.2076 56.2094 21.855 55.7254C22.1789 55.485 22.5055 55.2606 22.8453 55.0427C23.0214 54.9308 23.1978 54.8217 23.3771 54.7161C23.5438 54.6166 23.7137 54.5203 23.8836 54.4274C23.8901 54.4209 23.8964 54.4243 23.8964 54.4243V54.4209C24.0341 54.3439 24.1688 54.2672 24.3035 54.1868C24.704 53.9433 25.0886 53.674 25.4474 53.3792C25.4505 53.3826 25.4505 53.3826 25.4539 53.3857L25.454 53.3857C27.1141 55.0842 29.4247 56.1387 31.9885 56.1452H32.0144C34.5781 56.1452 36.8981 55.0876 38.5648 53.3891L38.5679 53.3857C38.7955 53.5749 39.0327 53.7513 39.2761 53.9147C39.3017 53.9337 39.3241 53.9496 39.3497 53.9658C39.4554 54.0364 39.564 54.104 39.6726 54.1717L39.7022 54.1902C39.8335 54.2703 39.9684 54.3473 40.1028 54.4209C40.1179 54.4253 40.1302 54.4325 40.1425 54.4398C40.1484 54.4432 40.1543 54.4467 40.1604 54.4499C40.311 54.5334 40.465 54.6197 40.6124 54.7092C40.7408 54.7862 40.8689 54.8632 40.9939 54.9433C41.1252 55.0234 41.2567 55.1066 41.3848 55.1995C41.651 55.3694 41.9103 55.5555 42.1634 55.7478H42.17C42.4935 55.9912 42.8109 56.2447 43.1154 56.5102C43.423 56.7733 43.7179 57.0489 44.0031 57.3341C45.734 59.0578 47.0936 61.1498 47.9546 63.4839Z" fill="#FF965D"/>
<path d="M45.0485 32.9922C45.0485 33.1331 45.0454 33.274 45.042 33.4149C45.0389 33.5302 45.0357 33.6424 45.0292 33.758C45.0261 33.8606 45.0195 33.9632 45.0099 34.0657C45.0068 34.1393 45.0002 34.2131 44.994 34.2867C44.9905 34.3319 44.9874 34.373 44.9809 34.4182C44.9746 34.4983 44.9681 34.5816 44.9553 34.6617C44.9391 34.8154 44.9232 34.969 44.9008 35.1199C44.8977 35.1585 44.8911 35.1969 44.8849 35.2352C44.8752 35.3122 44.8624 35.3892 44.8497 35.4659C44.8338 35.5812 44.8113 35.6965 44.792 35.8091C44.7664 35.9437 44.7406 36.075 44.7119 36.2062C44.7085 36.2352 44.7022 36.2607 44.6957 36.2866C44.6926 36.3087 44.686 36.3315 44.6829 36.3539C44.6798 36.3605 44.6798 36.3667 44.6763 36.3733C44.6763 36.3892 44.6732 36.4022 44.6701 36.415C44.6542 36.4824 44.6411 36.5497 44.6221 36.6167C44.6159 36.6519 44.6093 36.6875 44.5965 36.7227C44.5835 36.7866 44.5676 36.8474 44.5485 36.9085C44.5454 36.9374 44.5389 36.9664 44.5292 36.9948C44.5227 37.0238 44.5133 37.0528 44.5068 37.0783C44.4395 37.3411 44.3625 37.5976 44.2824 37.8539C44.2437 37.9757 44.2054 38.0942 44.1639 38.2161C44.1608 38.2288 44.1542 38.2416 44.1511 38.2544C44.1128 38.3635 44.0741 38.4723 44.0358 38.5814C44.023 38.6135 44.0102 38.6453 43.9975 38.6805C43.9588 38.7831 43.9205 38.8856 43.879 38.9882C43.831 39.1128 43.7796 39.2347 43.7285 39.3569C43.6836 39.466 43.6356 39.5745 43.5876 39.6836C43.5813 39.7032 43.5717 39.7188 43.5651 39.7381C43.5106 39.8534 43.4595 39.9688 43.4049 40.0813C43.3504 40.1998 43.2927 40.3185 43.2319 40.4373C43.1166 40.671 42.9916 40.9051 42.8666 41.1324L42.6936 41.44C42.1999 42.2894 41.6522 43.0871 41.0559 43.8243C40.9758 43.9299 40.8926 44.0325 40.8059 44.1316C40.6875 44.2759 40.5656 44.4168 40.4437 44.5546C40.3346 44.6765 40.2258 44.798 40.1136 44.9168C39.806 45.2469 39.4918 45.5608 39.1713 45.856C39.1071 45.9199 39.0401 45.9778 38.9728 46.0386C38.8637 46.1377 38.7549 46.2341 38.6427 46.3269C38.5564 46.4039 38.4666 46.4775 38.3765 46.5514C38.1458 46.7403 37.9152 46.9229 37.6811 47.0928C37.5851 47.1667 37.4857 47.2371 37.3862 47.3045C37.226 47.4198 37.0624 47.5289 36.899 47.6349C36.8093 47.6956 36.7164 47.7533 36.6235 47.8079C36.2965 48.0095 35.9664 48.1956 35.6394 48.3558C35.5593 48.3976 35.4792 48.4363 35.3991 48.4746C35.319 48.5129 35.2358 48.5516 35.1491 48.5899C35.0435 48.6379 34.9375 48.6828 34.8318 48.7246C34.79 48.7436 34.7486 48.7598 34.7068 48.7726C34.5818 48.824 34.4537 48.8717 34.3287 48.9135C34.1719 48.9715 34.0114 49.0195 33.8546 49.064C33.7455 49.0961 33.6336 49.1248 33.5245 49.1504C33.518 49.1538 33.5117 49.1569 33.5021 49.1569C33.393 49.1828 33.2842 49.2084 33.1751 49.2277C33.1464 49.2342 33.1174 49.2405 33.0888 49.2439C32.999 49.2598 32.9092 49.276 32.8195 49.2857C32.6913 49.305 32.5629 49.3209 32.4348 49.3271C32.3899 49.3337 32.3485 49.3368 32.3036 49.3368C32.201 49.343 32.0985 49.3464 31.9991 49.3464H31.9894C31.8903 49.3464 31.7908 49.343 31.6914 49.3368C31.6531 49.3368 31.6144 49.3337 31.5761 49.3271C31.4863 49.324 31.3934 49.3143 31.2971 49.3015C31.2781 49.3015 31.2556 49.2984 31.2363 49.295C31.1179 49.2791 30.9991 49.2598 30.8775 49.2373C30.775 49.2211 30.6724 49.1987 30.5665 49.1731C30.0185 49.0481 29.4546 48.8589 28.8842 48.6061C28.397 48.3914 27.9036 48.1317 27.4133 47.8306C27.1667 47.6832 26.923 47.523 26.6761 47.35C26.5542 47.2633 26.4326 47.1767 26.3108 47.0869C25.9292 46.8079 25.5512 46.5037 25.1796 46.1767C25.0771 46.0838 24.9745 45.9909 24.8719 45.8949C24.7694 45.802 24.6668 45.7057 24.5674 45.6128C24.3174 45.3725 24.074 45.1228 23.8368 44.8632C23.7439 44.7637 23.651 44.6615 23.5578 44.5555C23.3016 44.2672 23.0516 43.9692 22.8144 43.6581C22.7215 43.5462 22.6349 43.4309 22.5485 43.3152C22.2247 42.8857 21.9173 42.4372 21.6287 41.9721C21.5517 41.8474 21.4747 41.7193 21.4011 41.594C21.3114 41.4435 21.225 41.2895 21.1384 41.1358C20.8179 40.5588 20.5231 39.9597 20.2668 39.341C20.2282 39.2512 20.1898 39.1615 20.1577 39.072C20.1066 38.9567 20.0617 38.8379 20.02 38.7226C19.9558 38.5527 19.895 38.3828 19.8373 38.2129C19.7796 38.0431 19.7251 37.8698 19.6706 37.6971C19.6194 37.5303 19.5714 37.3639 19.5265 37.194C19.4751 37.0144 19.4271 36.8318 19.3853 36.646C19.3822 36.6267 19.3757 36.6073 19.3726 36.588C19.3118 36.3318 19.2572 36.0721 19.2092 35.8094C19.145 35.4634 19.0939 35.1108 19.0556 34.7549C19.0394 34.643 19.0297 34.5305 19.0203 34.4186C19.0076 34.2998 18.9979 34.1845 18.9913 34.066C18.9755 33.8512 18.9658 33.6331 18.9592 33.4152C18.9561 33.2743 18.9527 33.1334 18.9527 32.9925L21.0358 37.0883L24.6154 38.649L28.8484 39.0299H28.8515L31.9888 39.3151H32.0081L34.9434 39.581C34.9434 39.581 34.9434 39.5779 34.9465 39.581L41.4939 40.1711L45.0485 32.9922Z" fill="#4E1E30"/>
<path d="M32.015 35.0508L32.0119 38.2074V38.2105L32.0088 39.3164V40.1849L32.0057 43.0691V43.0725L32.0025 43.0691H31.9994L31.9898 43.0625L19.3851 36.6467C19.382 36.6274 19.3754 36.608 19.3723 36.5887C19.3115 36.3325 19.257 36.0728 19.209 35.8101C19.1448 35.4641 19.0937 35.1115 19.0553 34.7556C19.0391 34.6437 19.0294 34.5311 19.0201 34.4192C19.0073 34.3005 18.9977 34.1852 18.9911 34.0667C18.9752 33.8519 18.9655 33.6337 18.959 33.4159C18.9559 33.275 18.9525 33.1341 18.9525 32.9932V29.1636C18.9525 29.2181 18.9556 29.2727 18.9556 29.3269C18.9811 30.253 19.1286 31.272 19.4138 32.3137C19.6351 33.1148 19.9103 33.8551 20.2311 34.5152V34.5184C21.0708 36.2652 22.1957 37.4506 23.2306 37.6429C23.2948 37.6526 23.3618 37.6591 23.426 37.6653C23.8266 37.7102 24.2464 37.7358 24.6791 37.7358C26.3136 37.7358 27.7652 36.4219 28.6785 35.8899C28.6851 35.8868 28.6913 35.8833 28.6979 35.8805C28.7459 35.8515 28.7939 35.8225 28.8356 35.7939C28.8484 35.7845 28.8612 35.778 28.8743 35.7717C29.6433 35.3325 30.7523 35.0536 31.9891 35.0508H32.015Z" fill="#4E1E30"/>
<path d="M45.051 29.1611L45.0479 32.9907C45.0479 33.952 44.9581 34.8943 44.7917 35.8076C44.7244 36.1729 44.6474 36.5351 44.5576 36.8939L41.5995 41.1658L32.0044 43.0663H32.0012L31.9981 43.0697V43.0663L31.9885 35.0468H32.0143C33.2512 35.0502 34.3633 35.3288 35.1323 35.7677C35.1454 35.7743 35.1548 35.7805 35.1675 35.7902C35.2124 35.8188 35.2604 35.8478 35.3087 35.8765C35.3118 35.8796 35.3184 35.8831 35.3246 35.8862C36.241 36.4179 37.6895 37.733 39.3241 37.733C39.7567 37.733 40.1766 37.7075 40.5771 37.6626C40.6445 37.656 40.7084 37.6498 40.7757 37.6401C41.8077 37.4478 42.9358 36.2621 43.7721 34.5156V34.5125C44.0925 33.8523 44.3681 33.112 44.5894 32.3109C44.8777 31.253 45.0286 30.2212 45.0476 29.2824C45.051 29.2412 45.051 29.2026 45.051 29.1611Z" fill="#4E1E30"/>
<path d="M31.9991 40.1836C33.7645 40.1836 35.1956 39.7411 35.1956 39.1952C35.1956 38.6493 33.7645 38.2068 31.9991 38.2068C30.2337 38.2068 28.8026 38.6493 28.8026 39.1952C28.8026 39.7411 30.2337 40.1836 31.9991 40.1836Z" fill="#F0C290"/>
<path d="M32.0015 10.2H31.9891C24.7881 10.2065 18.9524 16.0454 18.9524 23.2464V28.9992C18.9524 28.9992 19.4938 25.5667 20.9523 23.9003C22.5354 22.0896 22.1349 19.3367 25.6858 19.3367C27.9771 19.3367 28.1053 20.1826 31.9863 20.1826H31.9894H32.0019H32.005C35.886 20.1826 36.0141 19.3367 38.3054 19.3367C41.8564 19.3367 41.4555 22.0893 43.039 23.9003C44.4971 25.5667 45.0386 28.9992 45.0386 28.9992V23.2464C45.0382 16.0454 39.2025 10.2062 32.0015 10.2Z" fill="#4E1E30"/>
<path d="M40.6121 54.709L40.2596 55.068C38.0611 57.308 35.1255 58.542 31.9944 58.542C28.8316 58.5354 25.9022 57.2986 23.7134 55.0618L23.3768 54.7158C23.5435 54.6164 23.7134 54.5201 23.8833 54.4272C23.8898 54.4206 23.8961 54.4241 23.8961 54.4241V54.4206C24.0338 54.3436 24.1685 54.267 24.3032 54.1865C24.7037 53.9431 25.0883 53.6738 25.4471 53.3789C25.4502 53.3823 25.4502 53.3823 25.4537 53.3855C27.1138 55.0839 29.4244 56.1384 31.9882 56.145H32.0141C34.5778 56.145 36.8978 55.0874 38.5645 53.3889L38.5676 53.3855C38.7952 53.5747 39.0324 53.7511 39.2758 53.9144C39.3014 53.9334 39.3238 53.9493 39.3494 53.9655C39.4647 54.0425 39.5835 54.1161 39.7019 54.19C39.8332 54.2701 39.9681 54.3471 40.1025 54.4206C40.1249 54.4272 40.1411 54.44 40.1601 54.4496C40.311 54.5332 40.4647 54.6195 40.6121 54.709Z" fill="#CC784A"/>
</svg>
