<svg width="64" height="64" viewBox="0 0 64 64" fill="none" xmlns="http://www.w3.org/2000/svg">
<g opacity="0.2">
<path fill-rule="evenodd" clip-rule="evenodd" d="M0.341422 17.8853C0.775529 8.32451 8.32451 0.77553 17.8853 0.341422C22.2302 0.144139 27.0861 0 32 0C36.9139 0 41.7698 0.144139 46.1147 0.341422C55.6755 0.77553 63.2245 8.32451 63.6586 17.8853C63.8559 22.2302 64 27.0861 64 32C64 36.9139 63.8559 41.7698 63.6586 46.1147C63.2245 55.6755 55.6755 63.2245 46.1147 63.6586C41.7698 63.8559 36.9139 64 32 64C27.0861 64 22.2302 63.8559 17.8853 63.6586C8.32451 63.2245 0.77553 55.6755 0.341422 46.1147C0.144139 41.7698 0 36.9139 0 32C0 27.0861 0.144139 22.2302 0.341422 17.8853Z" fill="white"/>
<mask id="mask0_3837_8" style="mask-type:alpha" maskUnits="userSpaceOnUse" x="0" y="0" width="64" height="64">
<path fill-rule="evenodd" clip-rule="evenodd" d="M0.341422 17.8853C0.775529 8.32451 8.32451 0.77553 17.8853 0.341422C22.2302 0.144139 27.0861 0 32 0C36.9139 0 41.7698 0.144139 46.1147 0.341422C55.6755 0.77553 63.2245 8.32451 63.6586 17.8853C63.8559 22.2302 64 27.0861 64 32C64 36.9139 63.8559 41.7698 63.6586 46.1147C63.2245 55.6755 55.6755 63.2245 46.1147 63.6586C41.7698 63.8559 36.9139 64 32 64C27.0861 64 22.2302 63.8559 17.8853 63.6586C8.32451 63.2245 0.77553 55.6755 0.341422 46.1147C0.144139 41.7698 0 36.9139 0 32C0 27.0861 0.144139 22.2302 0.341422 17.8853Z" fill="#23262B"/>
</mask>
<g mask="url(#mask0_3837_8)">
<rect width="64" height="64" fill="#304FFD"/>
</g>
</g>
<path d="M36.2795 37.308H28.7135L27.4135 41H24.3195L30.7935 22.904H34.2255L40.6995 41H37.5795L36.2795 37.308ZM35.4475 34.89L32.5095 26.492L29.5455 34.89H35.4475Z" fill="#304FFD"/>
</svg>
